<?xml version="1.0" encoding="UTF-8" standalone="no"?>
<!-- Created with Inkscape (http://www.inkscape.org/) -->

<svg
   xmlns:dc="http://purl.org/dc/elements/1.1/"
   xmlns:cc="http://creativecommons.org/ns#"
   xmlns:rdf="http://www.w3.org/1999/02/22-rdf-syntax-ns#"
   xmlns:svg="http://www.w3.org/2000/svg"
   xmlns="http://www.w3.org/2000/svg"
   xmlns:xlink="http://www.w3.org/1999/xlink"
   xmlns:sodipodi="http://sodipodi.sourceforge.net/DTD/sodipodi-0.dtd"
   xmlns:inkscape="http://www.inkscape.org/namespaces/inkscape"
   width="250"
   height="270"
   id="svg3223"
   version="1.1"
   inkscape:version="0.48.4 r9939"
   sodipodi:docname="flower.svg">
  <defs
     id="defs3225">
    <linearGradient
       id="linearGradient4313">
      <stop
         style="stop-color:#ffa76d;stop-opacity:1;"
         offset="0"
         id="stop4315" />
      <stop
         style="stop-color:#ff6d0b;stop-opacity:1;"
         offset="1"
         id="stop4317" />
    </linearGradient>
    <linearGradient
       id="linearGradient4297">
      <stop
         style="stop-color:#ffa76d;stop-opacity:1;"
         offset="0"
         id="stop4299" />
      <stop
         style="stop-color:#ff6702;stop-opacity:1;"
         offset="1"
         id="stop4301" />
    </linearGradient>
    <linearGradient
       id="linearGradient4297-7">
      <stop
         style="stop-color:#ffa76d;stop-opacity:1;"
         offset="0"
         id="stop4299-5" />
      <stop
         style="stop-color:#ff6702;stop-opacity:1;"
         offset="1"
         id="stop4301-9" />
    </linearGradient>
    <linearGradient
       id="linearGradient4313-0">
      <stop
         style="stop-color:#ffa76d;stop-opacity:1;"
         offset="0"
         id="stop4315-2" />
      <stop
         style="stop-color:#ff6d0b;stop-opacity:1;"
         offset="1"
         id="stop4317-4" />
    </linearGradient>
    <radialGradient
       inkscape:collect="always"
       xlink:href="#linearGradient4297-7"
       id="radialGradient4303-7"
       cx="121.95216"
       cy="134.74532"
       fx="121.95216"
       fy="134.74532"
       r="113.28671"
       gradientTransform="matrix(1,0,0,0.6330017,0,49.451303)"
       gradientUnits="userSpaceOnUse" />
    <linearGradient
       id="linearGradient4348">
      <stop
         style="stop-color:#ffa76d;stop-opacity:1;"
         offset="0"
         id="stop4350" />
      <stop
         style="stop-color:#ff6702;stop-opacity:1;"
         offset="1"
         id="stop4352" />
    </linearGradient>
    <linearGradient
       id="linearGradient4297-4">
      <stop
         style="stop-color:#ffa76d;stop-opacity:1;"
         offset="0"
         id="stop4299-9" />
      <stop
         style="stop-color:#ff6702;stop-opacity:1;"
         offset="1"
         id="stop4301-4" />
    </linearGradient>
    <linearGradient
       id="linearGradient4313-9">
      <stop
         style="stop-color:#ffa76d;stop-opacity:1;"
         offset="0"
         id="stop4315-3" />
      <stop
         style="stop-color:#ff6d0b;stop-opacity:1;"
         offset="1"
         id="stop4317-7" />
    </linearGradient>
    <radialGradient
       inkscape:collect="always"
       xlink:href="#linearGradient4297-4"
       id="radialGradient4303-77"
       cx="121.95216"
       cy="134.74532"
       fx="121.95216"
       fy="134.74532"
       r="113.28671"
       gradientTransform="matrix(1,0,0,0.6330017,0,49.451303)"
       gradientUnits="userSpaceOnUse" />
    <linearGradient
       id="linearGradient4348-3">
      <stop
         style="stop-color:#ffa76d;stop-opacity:1;"
         offset="0"
         id="stop4350-9" />
      <stop
         style="stop-color:#ff6702;stop-opacity:1;"
         offset="1"
         id="stop4352-6" />
    </linearGradient>
    <linearGradient
       id="linearGradient4297-9">
      <stop
         style="stop-color:#ffa76d;stop-opacity:1;"
         offset="0"
         id="stop4299-6" />
      <stop
         style="stop-color:#ff6702;stop-opacity:1;"
         offset="1"
         id="stop4301-0" />
    </linearGradient>
    <linearGradient
       id="linearGradient4313-2">
      <stop
         style="stop-color:#ffa76d;stop-opacity:1;"
         offset="0"
         id="stop4315-1" />
      <stop
         style="stop-color:#ff6d0b;stop-opacity:1;"
         offset="1"
         id="stop4317-2" />
    </linearGradient>
    <radialGradient
       inkscape:collect="always"
       xlink:href="#linearGradient4297-9"
       id="radialGradient4303-8"
       cx="121.95216"
       cy="134.74532"
       fx="121.95216"
       fy="134.74532"
       r="113.28671"
       gradientTransform="matrix(1,0,0,0.6330017,0,49.451303)"
       gradientUnits="userSpaceOnUse" />
    <linearGradient
       id="linearGradient4348-0">
      <stop
         style="stop-color:#ffa76d;stop-opacity:1;"
         offset="0"
         id="stop4350-1" />
      <stop
         style="stop-color:#ff6702;stop-opacity:1;"
         offset="1"
         id="stop4352-67" />
    </linearGradient>
    <linearGradient
       id="linearGradient4297-1">
      <stop
         style="stop-color:#ffa76d;stop-opacity:1;"
         offset="0"
         id="stop4299-0" />
      <stop
         style="stop-color:#ff6702;stop-opacity:1;"
         offset="1"
         id="stop4301-5" />
    </linearGradient>
    <radialGradient
       inkscape:collect="always"
       xlink:href="#linearGradient4297-1"
       id="radialGradient4303-0"
       cx="139.45216"
       cy="99.200386"
       fx="139.45216"
       fy="99.200386"
       r="113.28671"
       gradientTransform="matrix(0.6348647,0.05220104,-0.03607506,0.43874183,54.497567,61.442409)"
       gradientUnits="userSpaceOnUse" />
    <linearGradient
       id="linearGradient4485">
      <stop
         style="stop-color:#ffa76d;stop-opacity:1;"
         offset="0"
         id="stop4487" />
      <stop
         style="stop-color:#ff6702;stop-opacity:1;"
         offset="1"
         id="stop4489" />
    </linearGradient>
    <linearGradient
       id="linearGradient4313-4">
      <stop
         style="stop-color:#ffa76d;stop-opacity:1;"
         offset="0"
         id="stop4315-7" />
      <stop
         style="stop-color:#ff6d0b;stop-opacity:1;"
         offset="1"
         id="stop4317-1" />
    </linearGradient>
    <linearGradient
       id="linearGradient4297-3">
      <stop
         style="stop-color:#ffa76d;stop-opacity:1;"
         offset="0"
         id="stop4299-90" />
      <stop
         style="stop-color:#ff6702;stop-opacity:1;"
         offset="1"
         id="stop4301-49" />
    </linearGradient>
    <radialGradient
       inkscape:collect="always"
       xlink:href="#linearGradient4297-3"
       id="radialGradient4303-4"
       cx="139.45216"
       cy="99.200386"
       fx="139.45216"
       fy="99.200386"
       r="113.28671"
       gradientTransform="matrix(0.6348647,0.05220104,-0.03607506,0.43874183,54.497567,61.442409)"
       gradientUnits="userSpaceOnUse" />
    <linearGradient
       id="linearGradient4485-7">
      <stop
         style="stop-color:#ffa76d;stop-opacity:1;"
         offset="0"
         id="stop4487-2" />
      <stop
         style="stop-color:#ff6702;stop-opacity:1;"
         offset="1"
         id="stop4489-2" />
    </linearGradient>
    <linearGradient
       id="linearGradient4313-5">
      <stop
         style="stop-color:#ffa76d;stop-opacity:1;"
         offset="0"
         id="stop4315-9" />
      <stop
         style="stop-color:#ff6d0b;stop-opacity:1;"
         offset="1"
         id="stop4317-6" />
    </linearGradient>
    <linearGradient
       id="linearGradient4297-39">
      <stop
         style="stop-color:#ffa76d;stop-opacity:1;"
         offset="0"
         id="stop4299-2" />
      <stop
         style="stop-color:#ff6702;stop-opacity:1;"
         offset="1"
         id="stop4301-01" />
    </linearGradient>
    <radialGradient
       inkscape:collect="always"
       xlink:href="#linearGradient4297-39"
       id="radialGradient4303-87"
       cx="139.45216"
       cy="99.200386"
       fx="139.45216"
       fy="99.200386"
       r="113.28671"
       gradientTransform="matrix(0.6348647,0.05220104,-0.03607506,0.43874183,54.497567,61.442409)"
       gradientUnits="userSpaceOnUse" />
    <linearGradient
       id="linearGradient4485-8">
      <stop
         style="stop-color:#ffa76d;stop-opacity:1;"
         offset="0"
         id="stop4487-1" />
      <stop
         style="stop-color:#ff6702;stop-opacity:1;"
         offset="1"
         id="stop4489-4" />
    </linearGradient>
    <linearGradient
       id="linearGradient4313-04">
      <stop
         style="stop-color:#ffa76d;stop-opacity:1;"
         offset="0"
         id="stop4315-0" />
      <stop
         style="stop-color:#ff6d0b;stop-opacity:1;"
         offset="1"
         id="stop4317-20" />
    </linearGradient>
    <linearGradient
       id="linearGradient4297-2">
      <stop
         style="stop-color:#ffa76d;stop-opacity:1;"
         offset="0"
         id="stop4299-8" />
      <stop
         style="stop-color:#ff6702;stop-opacity:1;"
         offset="1"
         id="stop4301-6" />
    </linearGradient>
    <linearGradient
       id="linearGradient4313-6">
      <stop
         style="stop-color:#ffa76d;stop-opacity:1;"
         offset="0"
         id="stop4315-96" />
      <stop
         style="stop-color:#ff6d0b;stop-opacity:1;"
         offset="1"
         id="stop4317-42" />
    </linearGradient>
    <radialGradient
       inkscape:collect="always"
       xlink:href="#linearGradient4297-2"
       id="radialGradient4303-9"
       cx="139.45216"
       cy="99.200386"
       fx="139.45216"
       fy="99.200386"
       r="113.28671"
       gradientTransform="matrix(0.6348647,0.05220104,-0.03607506,0.43874183,54.497567,61.442409)"
       gradientUnits="userSpaceOnUse" />
    <linearGradient
       id="linearGradient4631">
      <stop
         style="stop-color:#ffa76d;stop-opacity:1;"
         offset="0"
         id="stop4633" />
      <stop
         style="stop-color:#ff6702;stop-opacity:1;"
         offset="1"
         id="stop4635" />
    </linearGradient>
    <linearGradient
       id="linearGradient4297-2-1">
      <stop
         style="stop-color:#ffa76d;stop-opacity:1;"
         offset="0"
         id="stop4299-8-3" />
      <stop
         style="stop-color:#ff6702;stop-opacity:1;"
         offset="1"
         id="stop4301-6-0" />
    </linearGradient>
    <linearGradient
       id="linearGradient4313-6-6">
      <stop
         style="stop-color:#ffa76d;stop-opacity:1;"
         offset="0"
         id="stop4315-96-5" />
      <stop
         style="stop-color:#ff6d0b;stop-opacity:1;"
         offset="1"
         id="stop4317-42-3" />
    </linearGradient>
    <radialGradient
       inkscape:collect="always"
       xlink:href="#linearGradient4297-2-1"
       id="radialGradient4778-0"
       gradientUnits="userSpaceOnUse"
       gradientTransform="matrix(0.6348647,0.05220104,-0.03607506,0.43874183,54.614088,71.336651)"
       cx="139.45216"
       cy="99.200386"
       fx="139.45216"
       fy="99.200386"
       r="113.28671" />
    <linearGradient
       id="linearGradient4832">
      <stop
         style="stop-color:#ffa76d;stop-opacity:1;"
         offset="0"
         id="stop4834" />
      <stop
         style="stop-color:#ff6702;stop-opacity:1;"
         offset="1"
         id="stop4836" />
    </linearGradient>
    <linearGradient
       inkscape:collect="always"
       xlink:href="#linearGradient4313-03"
       id="linearGradient4807-0"
       gradientUnits="userSpaceOnUse"
       x1="97"
       y1="32.25"
       x2="168.5"
       y2="102.75"
       gradientTransform="translate(-0.11652132,10.105758)" />
    <linearGradient
       id="linearGradient4313-03">
      <stop
         style="stop-color:#ffa76d;stop-opacity:1;"
         offset="0"
         id="stop4315-12" />
      <stop
         style="stop-color:#ff6d0b;stop-opacity:1;"
         offset="1"
         id="stop4317-8" />
    </linearGradient>
    <linearGradient
       id="linearGradient4297-2-0">
      <stop
         style="stop-color:#ffa76d;stop-opacity:1;"
         offset="0"
         id="stop4299-8-4" />
      <stop
         style="stop-color:#ff6702;stop-opacity:1;"
         offset="1"
         id="stop4301-6-9" />
    </linearGradient>
    <linearGradient
       id="linearGradient4313-6-62">
      <stop
         style="stop-color:#ffa76d;stop-opacity:1;"
         offset="0"
         id="stop4315-96-6" />
      <stop
         style="stop-color:#ff6d0b;stop-opacity:1;"
         offset="1"
         id="stop4317-42-8" />
    </linearGradient>
    <radialGradient
       inkscape:collect="always"
       xlink:href="#linearGradient4297-2-0"
       id="radialGradient4778-4"
       gradientUnits="userSpaceOnUse"
       gradientTransform="matrix(0.6348647,0.05220104,-0.03607506,0.43874183,54.614088,71.336651)"
       cx="139.45216"
       cy="99.200386"
       fx="139.45216"
       fy="99.200386"
       r="113.28671" />
    <linearGradient
       id="linearGradient4952">
      <stop
         style="stop-color:#ffa76d;stop-opacity:1;"
         offset="0"
         id="stop4954" />
      <stop
         style="stop-color:#ff6702;stop-opacity:1;"
         offset="1"
         id="stop4956" />
    </linearGradient>
    <linearGradient
       id="linearGradient4297-2-0-1">
      <stop
         style="stop-color:#ffa76d;stop-opacity:1;"
         offset="0"
         id="stop4299-8-4-0" />
      <stop
         style="stop-color:#ff6702;stop-opacity:1;"
         offset="1"
         id="stop4301-6-9-5" />
    </linearGradient>
    <linearGradient
       inkscape:collect="always"
       xlink:href="#linearGradient4313-6-62-9"
       id="linearGradient4775-3-5"
       gradientUnits="userSpaceOnUse"
       gradientTransform="translate(-15,-28)"
       x1="97"
       y1="32.25"
       x2="168.5"
       y2="102.75" />
    <linearGradient
       id="linearGradient4313-6-62-9">
      <stop
         style="stop-color:#ffa76d;stop-opacity:1;"
         offset="0"
         id="stop4315-96-6-7" />
      <stop
         style="stop-color:#ff6d0b;stop-opacity:1;"
         offset="1"
         id="stop4317-42-8-7" />
    </linearGradient>
    <radialGradient
       inkscape:collect="always"
       xlink:href="#linearGradient4297-2-0-1"
       id="radialGradient5067-2"
       gradientUnits="userSpaceOnUse"
       gradientTransform="matrix(0.6348647,0.05220104,-0.03607506,0.43874183,54.614088,71.336651)"
       cx="139.45216"
       cy="99.200386"
       fx="139.45216"
       fy="99.200386"
       r="113.28671" />
    <linearGradient
       id="linearGradient5225">
      <stop
         style="stop-color:#ffa76d;stop-opacity:1;"
         offset="0"
         id="stop5227" />
      <stop
         style="stop-color:#ff6702;stop-opacity:1;"
         offset="1"
         id="stop5229" />
    </linearGradient>
    <linearGradient
       y2="102.75"
       x2="168.5"
       y1="32.25"
       x1="97"
       gradientTransform="translate(-4.7500001,19.499999)"
       gradientUnits="userSpaceOnUse"
       id="linearGradient4913-4"
       xlink:href="#linearGradient4313-03-1"
       inkscape:collect="always" />
    <linearGradient
       id="linearGradient4313-03-1">
      <stop
         style="stop-color:#ffa76d;stop-opacity:1;"
         offset="0"
         id="stop4315-12-2" />
      <stop
         style="stop-color:#ff6d0b;stop-opacity:1;"
         offset="1"
         id="stop4317-8-0" />
    </linearGradient>
    <linearGradient
       id="linearGradient4313-03-1-2">
      <stop
         style="stop-color:#ffa76d;stop-opacity:1;"
         offset="0"
         id="stop4315-12-2-7" />
      <stop
         style="stop-color:#ff6d0b;stop-opacity:1;"
         offset="1"
         id="stop4317-8-0-6" />
    </linearGradient>
    <linearGradient
       id="linearGradient4297-2-0-1-1">
      <stop
         style="stop-color:#ffa76d;stop-opacity:1;"
         offset="0"
         id="stop4299-8-4-0-9" />
      <stop
         style="stop-color:#ff6702;stop-opacity:1;"
         offset="1"
         id="stop4301-6-9-5-8" />
    </linearGradient>
    <radialGradient
       r="113.28671"
       fy="99.200386"
       fx="139.45216"
       cy="99.200386"
       cx="139.45216"
       gradientTransform="matrix(0.6348647,0.05220104,-0.03607506,0.43874183,54.614088,71.336651)"
       gradientUnits="userSpaceOnUse"
       id="radialGradient5240-0"
       xlink:href="#linearGradient4297-2-0-1-1"
       inkscape:collect="always" />
    <linearGradient
       id="linearGradient3180">
      <stop
         style="stop-color:#ffa76d;stop-opacity:1;"
         offset="0"
         id="stop3182" />
      <stop
         style="stop-color:#ff6702;stop-opacity:1;"
         offset="1"
         id="stop3184" />
    </linearGradient>
    <linearGradient
       id="linearGradient4297-2-4">
      <stop
         style="stop-color:#ffa76d;stop-opacity:1;"
         offset="0"
         id="stop4299-8-8" />
      <stop
         style="stop-color:#ff6702;stop-opacity:1;"
         offset="1"
         id="stop4301-6-8" />
    </linearGradient>
    <linearGradient
       id="linearGradient4313-6-3">
      <stop
         style="stop-color:#ffa76d;stop-opacity:1;"
         offset="0"
         id="stop4315-96-4" />
      <stop
         style="stop-color:#ff6d0b;stop-opacity:1;"
         offset="1"
         id="stop4317-42-1" />
    </linearGradient>
    <radialGradient
       inkscape:collect="always"
       xlink:href="#linearGradient4297-2-4"
       id="radialGradient4778-9"
       gradientUnits="userSpaceOnUse"
       gradientTransform="matrix(0.6348647,0.05220104,-0.03607506,0.43874183,54.614088,71.336651)"
       cx="139.45216"
       cy="99.200386"
       fx="139.45216"
       fy="99.200386"
       r="113.28671" />
    <linearGradient
       id="linearGradient3265">
      <stop
         style="stop-color:#ffa76d;stop-opacity:1;"
         offset="0"
         id="stop3267" />
      <stop
         style="stop-color:#ff6702;stop-opacity:1;"
         offset="1"
         id="stop3269" />
    </linearGradient>
  </defs>
  <sodipodi:namedview
     id="base"
     pagecolor="#ffffff"
     bordercolor="#666666"
     borderopacity="1.0"
     inkscape:pageopacity="0.0"
     inkscape:pageshadow="2"
     inkscape:zoom="1"
     inkscape:cx="118.91217"
     inkscape:cy="196.33416"
     inkscape:document-units="px"
     inkscape:current-layer="layer6"
     showgrid="false"
     fit-margin-top="0"
     fit-margin-left="0"
     fit-margin-right="0"
     fit-margin-bottom="0"
     inkscape:window-width="1440"
     inkscape:window-height="847"
     inkscape:window-x="0"
     inkscape:window-y="540"
     inkscape:window-maximized="1"
     showguides="true"
     inkscape:guide-bbox="true">
    <sodipodi:guide
       orientation="0,1"
       position="290.5,1.5"
       id="guide3185" />
  </sodipodi:namedview>
  <metadata
     id="metadata3228">
    <rdf:RDF>
      <cc:Work
         rdf:about="">
        <dc:format>image/svg+xml</dc:format>
        <dc:type
           rdf:resource="http://purl.org/dc/dcmitype/StillImage" />
        <dc:title />
      </cc:Work>
    </rdf:RDF>
  </metadata>
  <g
     inkscape:groupmode="layer"
     id="layer8"
     inkscape:label="11"
     style="display:inline">
    <path
       style="fill:#ff0000;stroke:#000000;stroke-width:2;stroke-linecap:butt;stroke-linejoin:miter;stroke-opacity:1;display:inline"
       d="m 86.056238,154.36821 c -7.935323,9.67384 -12.257242,18.49599 -16.891805,30.08401 -0.238071,0.59526 -30.320314,-12.09038 -30.546837,-11.48886 -0.171601,0.45568 29.333249,16.14173 29.168417,16.60106 -1.173093,3.26901 -0.101555,-0.0996 -0.907039,3.36496 -0.204563,0.87986 -30.64688,-8.35793 -30.826609,-7.46319 -0.207524,1.03311 30.98341,11.78099 31.062185,12.84575 0.175468,2.37174 0.99119,9.86025 1.961793,11.21691 0.624858,0.8734 -33.70176,1.40756 -33.65181,2.50154 0.05595,1.22528 33.633687,0.71337 33.73378,1.96457 0.456869,5.71104 2.181344,8.99037 3.624819,15.27758 0.285417,1.24316 -29.283805,9.24816 -28.957242,10.51524 0.299005,1.16015 30.115436,-7.16958 30.449618,-5.98901 1.345531,4.75335 2.978832,9.67363 4.921191,14.77231 l 11,0 c -6.360467,-10.79671 -10.245848,-20.97466 -12.12091,-30.65002 -0.1217,-0.62797 25.765071,10.24617 25.660181,9.6224 -0.13256,-0.78832 -26.251796,-13.07331 -26.357966,-13.85503 -0.931753,-6.86045 -1.210683,-3.21627 -2.247607,-9.79366 -0.08009,-0.50802 30.774683,3.23292 30.857343,2.72633 0.0885,-0.5423 -30.329332,-5.32402 -30.341806,-5.87248 -0.161327,-7.09312 0.04329,-3.44377 0.08079,-10.66396 0.0033,-0.631 28.025876,10.85158 28.297316,10.2795 0.27957,-0.58918 -26.934915,-13.17687 -26.64359,-13.76312 4.497662,-9.05088 10.376535,-17.75646 17.009157,-26.2736 -0.53082,0.0169 -7.460712,-5.48137 -8.333372,-5.95923 z"
       id="target1-11"
       inkscape:connector-curvature="0"
       sodipodi:nodetypes="cssssssssssssccssssssssscc" />
    <path
       style="fill:#ff0000;stroke:#000000;stroke-width:2;stroke-linecap:butt;stroke-linejoin:miter;stroke-opacity:1;display:inline"
       d="M 86.501671,154.8517 C 63.86159,181.67307 60.47799,197.80783 80.642135,248.05457 l 11,0 c -21.786141,-37.46083 -21.363638,-67.81551 3.192925,-87.24364 -0.53083,0.0169 -7.460719,-5.48137 -8.333389,-5.95923 z"
       id="stem-11"
       inkscape:connector-curvature="0"
       sodipodi:nodetypes="ccccc" />
    <path
       style="fill:#000080;stroke:#000000;stroke-width:2;stroke-linecap:butt;stroke-linejoin:miter;stroke-opacity:1;display:inline"
       d="m 114.51561,84.191757 c -16.772985,-30.686712 19.0703,-57.27146 28.35182,-80.335106 2.68085,25.840703 27.81757,63.523059 2.48292,88.358504 21.28685,-28.201033 76.71209,-7.338839 102.63384,-8.626697 -23.29259,12.381942 -63.60116,52.116112 -95.66,38.857932 36.47698,9.51818 47.44749,75.8823 58.66244,99.3283 -18.68047,-16.90828 -80.25487,-47.5552 -81.03434,-79.73084 7.05071,35.66404 -23.16575,46.51181 -37.554113,61.64454 C 91.937776,182.40402 79.050352,151.90555 100.8704,132.37465 77.757233,159.10207 54.603923,133.40841 31.468859,131.53944 51.73307,120.56386 64.410667,91.20363 94.983998,105.21012 48.384364,86.309708 39.552441,30.314586 26.290399,6.732896 46.886123,22.798264 103.81754,45.885864 114.51561,84.191757 z"
       id="flowerback-11"
       inkscape:connector-curvature="0"
       sodipodi:nodetypes="ccccccccccccc" />
    <path
       style="fill:#0000ff;stroke:#000000;stroke-width:2;stroke-linecap:butt;stroke-linejoin:miter;stroke-opacity:1;display:inline"
       d="M 103.9447,91.516192 C 74.170841,73.171585 90.714678,29.370383 87.34939,4.738021 c 15.13204,21.117534 57.0554,44.34438 47.35446,78.469669 4.51737,-35.043138 75.26399,-65.522174 97.14212,-79.484388 -14.09755,22.296105 -41.68958,97.920618 -76.1057,102.288578 36.40075,-9.805682 67.72735,42.60089 89.08579,57.40991 -24.60389,-5.43123 -82.18926,-1.74013 -98.80851,-29.30242 23.79501,27.48516 8.56516,73.44384 3.56497,93.71753 -10.94576,-18.25997 -42.89334,-59.93085 -33.617,-87.7071 -6.83389,34.66801 -39.675919,23.82177 -60.69759,33.66116 12.163843,-19.57403 8.628671,-51.35841 42.125213,-54.34034 C 47.550978,126.12219 27.461335,86.803181 4.257513,72.89058 30.107399,76.640685 75.672548,63.543428 103.9447,91.516192 z"
       id="flowerfront-11"
       inkscape:connector-curvature="0"
       sodipodi:nodetypes="ccccccccccccc" />
    <path
       id="target2-01-3"
       style="color:#000000;fill:#ffff00;fill-opacity:1;fill-rule:nonzero;stroke:#000000;stroke-width:2;stroke-linecap:butt;stroke-linejoin:miter;stroke-miterlimit:4;stroke-opacity:1;stroke-dashoffset:0;marker:none;visibility:visible;display:inline;overflow:visible;enable-background:accumulate"
       d="m 41.365743,83.561252 c 0,2.147886 -1.741203,3.889075 -3.889086,3.889075 -2.147883,0 -3.889086,-1.741189 -3.889086,-3.889075 0,-2.147886 1.741203,-3.889102 3.889086,-3.889102 2.147883,0 3.889086,1.741216 3.889086,3.889102 z m 27.223614,4.596189 c 0,2.928921 -2.374375,5.303305 -5.303301,5.303305 -2.928925,0 -5.3033,-2.374384 -5.3033,-5.303305 0,-2.928951 2.374375,-5.303301 5.3033,-5.303301 2.928926,0 5.303301,2.37435 5.303301,5.303301 z M 88.741901,99.91311 c 0,2.78246 -2.25565,5.03811 -5.038142,5.03811 -2.78249,0 -5.03813,-2.25565 -5.03813,-5.03811 0,-2.782494 2.25564,-5.038144 5.03813,-5.038144 2.782492,0 5.038142,2.25565 5.038142,5.038144 z M 75.483645,157.5423 c 0,2.88009 -2.334815,5.21491 -5.214914,5.21491 -2.88013,0 -5.214914,-2.33482 -5.214914,-5.21491 0,-2.88013 2.334784,-5.21492 5.214914,-5.21492 2.880099,0 5.214914,2.33479 5.214914,5.21492 z m 23.864856,-5.83362 c 0,4.1493 -3.36369,7.51299 -7.51302,7.51299 -4.1493,0 -7.512991,-3.36369 -7.512991,-7.51299 0,-4.14933 3.363691,-7.51303 7.512991,-7.51303 4.14933,0 7.51302,3.3637 7.51302,7.51303 z m 5.656859,-12.90471 c 0,2.78248 -2.25566,5.03812 -5.038149,5.03812 -2.78248,0 -5.03812,-2.25564 -5.03812,-5.03812 0,-2.78249 2.25564,-5.03815 5.03812,-5.03815 2.782489,0 5.038149,2.25566 5.038149,5.03815 z m 44.7245,45.60839 c 0,3.75878 -3.04712,6.80589 -6.80591,6.80589 -3.75878,0 -6.80589,-3.04711 -6.80589,-6.80589 0,-3.75879 3.04711,-6.80591 6.80589,-6.80591 3.75879,0 6.80591,3.04712 6.80591,6.80591 z m -8.83884,-15.64475 c 0,3.22182 -2.61179,5.83363 -5.83363,5.83363 -3.22182,0 -5.83363,-2.61181 -5.83363,-5.83363 0,-3.22182 2.61181,-5.83363 5.83363,-5.83363 3.22184,0 5.83363,2.61181 5.83363,5.83363 z m 1.59099,-14.4073 c 0,2.00144 -1.62248,3.62393 -3.62391,3.62393 -2.00144,0 -3.62393,-1.62249 -3.62393,-3.62393 0,-2.00143 1.62249,-3.62391 3.62393,-3.62391 2.00143,0 3.62391,1.62248 3.62391,3.62391 z m 77.78175,-6.01042 c 0,2.97776 -2.41395,5.39171 -5.39168,5.39171 -2.97776,0 -5.3917,-2.41395 -5.3917,-5.39171 0,-2.97773 2.41394,-5.39167 5.3917,-5.39167 2.97773,0 5.39168,2.41394 5.39168,5.39167 z m -36.23922,-5.56845 c 0,3.22182 -2.61179,5.83362 -5.83364,5.83362 -3.22182,0 -5.83362,-2.6118 -5.83362,-5.83362 0,-3.22182 2.6118,-5.83362 5.83362,-5.83362 3.22185,0 5.83364,2.6118 5.83364,5.83362 z m -16.97055,-15.46797 c 0,2.78251 -2.25567,5.03815 -5.03815,5.03815 -2.78249,0 -5.03813,-2.25564 -5.03813,-5.03815 0,-2.78246 2.25564,-5.03813 5.03813,-5.03813 2.78248,0 5.03815,2.25567 5.03815,5.03813 z m 37.8302,-91.039991 c 0,3.270641 -2.73052,5.922018 -6.09877,5.922018 -3.36829,0 -6.09881,-2.651377 -6.09881,-5.922018 0,-3.270642 2.73052,-5.922021 6.09881,-5.922021 3.36825,0 6.09877,2.651379 6.09877,5.922021 z m -16.08667,24.925505 c 0,4.344574 -3.52199,7.866564 -7.86657,7.866564 -4.34457,0 -7.86656,-3.52199 -7.86656,-7.866564 0,-4.344577 3.52199,-7.86657 7.86656,-7.86657 4.34458,0 7.86657,3.521993 7.86657,7.86657 z M 163.872,73.219813 c 0,3.36828 -2.73052,6.0988 -6.09879,6.0988 -3.36828,0 -6.0988,-2.73052 -6.0988,-6.0988 0,-3.368275 2.73052,-6.098798 6.0988,-6.098798 3.36827,0 6.09879,2.730523 6.09879,6.098798 z M 106.77311,59.519614 c 0,2.343144 -1.89948,4.242644 -4.24263,4.242644 -2.34314,0 -4.242648,-1.8995 -4.242648,-4.242644 0,-2.343145 1.899508,-4.242639 4.242648,-4.242639 2.34315,0 4.24263,1.899494 4.24263,4.242639 z m 12.02083,11.136931 c 0,2.831301 -2.29523,5.126529 -5.12652,5.126529 -2.8313,0 -5.12653,-2.295228 -5.12653,-5.126529 0,-2.8313 2.29523,-5.126522 5.12653,-5.126522 2.83129,0 5.12652,2.295222 5.12652,5.126522 z M 106.2428,38.041247 c 0,3.07538 -2.25567,5.568466 -5.03815,5.568466 -2.782478,0 -5.038128,-2.493086 -5.038128,-5.568466 0,-3.075378 2.25565,-5.568466 5.038128,-5.568466 2.78248,0 5.03815,2.493088 5.03815,5.568466 z"
       inkscape:connector-curvature="0"
       sodipodi:nodetypes="ssssssssssssssssssssssssssssssssssssssssssssssssssssssssssssssssssssssssssssssssssssssssss" />
    <path
       id="path3147-3-9"
       style="fill:#ff00ff;stroke:#000000;stroke-width:2;stroke-linecap:butt;stroke-linejoin:miter;stroke-opacity:1;display:inline"
       d="m 101.40835,126.71351 c 1.22531,-4.13649 0.95016,-7.72222 -3.984748,-9.50642 -18.847139,-9.03744 -28.045565,6.73609 -40.962019,12.94898 l 3.717536,11.06481 c 12.75312,-6.71152 16.736794,-25.50474 41.229231,-14.50737 z m 48.12194,4.18598 c -4.31196,0.13731 -7.62936,1.52585 -7.77159,6.77146 -0.19356,14.90606 13.67761,24.40261 25.17057,34.81386 l 9.33498,-7.00774 c -15.93115,-8.45468 -25.87306,-19.52966 -26.73396,-34.57758 z m 5.06325,-30.39972 c -1.99834,3.82342 -2.41828,7.39509 2.0811,10.0955 13.61849,-19.324461 28.14852,-12.214352 42.68817,-4.82525 l -1.51902,-11.573362 c -15.93447,-10.546663 -30.14093,-6.693202 -43.25025,6.303112 z m -22.8703,-16.652636 c 2.0534,3.794145 4.78029,6.138756 9.53441,3.917274 -5.47639,-20.337769 8.03089,-28.685851 19.85964,-38.09406 l -10.44568,-5.209402 c -9.95251,8.037788 -18.32559,18.286771 -18.94837,39.386188 z M 100.25,98 c 4.22507,-0.872205 7.25636,-2.807254 6.5,-8 C 109.67913,64.624348 88.422316,67.465632 76,60 l -8,8.5 c 22.223247,0.733862 37.22611,7.194233 32.25,29.5 z"
       inkscape:connector-curvature="0" />
    <path
       style="color:#000000;fill:#00ffff;fill-opacity:1;fill-rule:nonzero;stroke:#000000;stroke-width:2;stroke-linecap:butt;stroke-linejoin:miter;stroke-miterlimit:4;stroke-opacity:1;stroke-dashoffset:0;marker:none;visibility:visible;display:inline;overflow:visible;enable-background:accumulate"
       d="m 140.60719,86.275861 c 14.18195,7.842412 19.32116,25.696689 11.47875,39.878629 -7.84242,14.18196 -25.69669,19.32117 -39.87864,11.47875 -14.181947,-7.84241 -19.321157,-25.69667 -11.47874,-39.878629 7.84241,-14.181952 25.69668,-19.321157 39.87863,-11.47875 z"
       id="center-11"
       inkscape:connector-curvature="0" />
    <path
       id="path3149-7-0"
       transform="matrix(0.16469485,-0.62755738,0.59436439,0.19483512,20.644598,160.16389)"
       style="color:#000000;fill:#ff6600;fill-opacity:1;fill-rule:evenodd;stroke:#2b1100;stroke-width:2;stroke-linecap:butt;stroke-linejoin:miter;stroke-miterlimit:4;stroke-opacity:1;stroke-dashoffset:0;marker:none;visibility:visible;display:inline;overflow:visible;enable-background:accumulate"
       d="M 76.5,45.75 C 76.5,51.687061 66.762193,56.5 54.75,56.5 42.737807,56.5 33,51.687061 33,45.75 33,39.812939 42.737807,35 54.75,35 66.762193,35 76.5,39.812939 76.5,45.75 z m -9.583971,209.95536 c -6.062383,2.37931 -13.881952,-5.45294 -17.465495,-17.49383 -3.583542,-12.04088 -1.574045,-23.73076 4.488339,-26.11007 6.062383,-2.37931 13.881952,5.45295 17.465494,17.49383 3.583543,12.04089 1.574046,23.73076 -4.488338,26.11007 z m 85.083211,-11.44077 c 3.17162,-5.10518 15.2952,-5.42768 27.07877,-0.72032 11.78358,4.70736 18.76494,12.662 15.59332,17.76718 -3.17162,5.10519 -15.2952,5.42768 -27.07877,0.72032 -11.78357,-4.70736 -18.76494,-12.662 -15.59332,-17.76718 z m 68.75547,-63.8701 c -5.92101,-2.7228 -4.43094,-13.36164 3.32818,-23.76252 7.75912,-10.40088 18.84906,-16.6252 24.77007,-13.9024 5.92102,2.72279 4.43094,13.36163 -3.32818,23.76251 -7.75912,10.40088 -18.84905,16.6252 -24.77007,13.90241 z M 179.45617,54.795801 c -5.65262,3.217958 -15.81484,-2.60878 -22.69794,-13.014384 -6.8831,-10.405604 -7.8806,-21.449683 -2.22797,-24.667641 5.65263,-3.217958 15.81485,2.60878 22.69795,13.014384 6.8831,10.405603 7.88059,21.449683 2.22796,24.667641 z"
       inkscape:connector-curvature="0" />
  </g>
  <g
     inkscape:groupmode="layer"
     id="layer5"
     inkscape:label="10"
     style="display:none">
    <path
       style="fill:#ff0000;stroke:#000000;stroke-width:1px;stroke-linecap:butt;stroke-linejoin:miter;stroke-opacity:1;display:inline"
       d="m 99.35953,133.29713 c -7.935314,9.67384 -14.732107,20.08698 -19.36667,31.675 -0.238071,0.59526 -27.84544,-13.68137 -28.071963,-13.07985 -0.171601,0.45568 27.035152,15.78818 26.87032,16.24751 -1.173093,3.26901 -3.298254,12.00615 -4.103738,15.47067 -0.204563,0.87986 -30.64688,-8.35793 -30.826609,-7.46319 -0.207524,1.03311 30.351734,10.20127 30.178301,11.25476 -0.885192,5.37694 -0.06947,6.14793 0.01725,12.10079 0.01564,1.07379 -33.70176,1.40756 -33.65181,2.50154 0.05595,1.22528 33.633687,0.71337 33.73378,1.96457 0.456869,5.71104 2.004567,16.94532 3.448042,23.23253 0.285417,1.24316 -29.283805,9.24816 -28.957242,10.51524 0.299005,1.16015 30.115436,-7.16958 30.449618,-5.98901 C 80.42434,236.48104 82.057641,241.40132 84,246.5 l 11,0 c -6.360467,-10.79671 -10.245848,-20.97466 -12.12091,-30.65002 -0.1217,-0.62797 34.26507,-8.75383 34.16018,-9.3776 -0.13256,-0.78832 -34.751795,5.92669 -34.857965,5.14497 -0.931753,-6.86045 -0.85713,-13.46932 0.05049,-19.86993 0.07221,-0.5092 30.774685,3.23292 30.857345,2.72633 0.0885,-0.5423 -30.442075,-5.33312 -30.341808,-5.87248 1.252887,-6.73957 3.416765,-13.25138 6.282696,-19.58769 0.260044,-0.57493 28.025872,10.85158 28.297312,10.2795 0.27957,-0.58918 -26.934911,-13.17687 -26.643586,-13.76312 4.497662,-9.05088 10.376536,-17.75646 17.009156,-26.2736 -0.53082,0.0169 -7.46071,-5.48137 -8.33337,-5.95923 z"
       id="target1-10"
       inkscape:connector-curvature="0"
       sodipodi:nodetypes="cssssssssssssccssssssssscc" />
    <path
       style="fill:#ff0000;stroke:#000000;stroke-width:1px;stroke-linecap:butt;stroke-linejoin:miter;stroke-opacity:1;display:inline"
       d="M 99.35953,133.29713 C 76.719454,160.1185 63.835854,196.25326 84,246.5 l 11,0 c -21.786141,-37.46083 -11.863639,-87.81551 12.69291,-107.24364 -0.53082,0.0169 -7.46071,-5.48137 -8.33338,-5.95923 z"
       id="stem-10"
       inkscape:connector-curvature="0"
       sodipodi:nodetypes="ccccc" />
    <path
       style="fill:#000080;stroke:#000000;stroke-width:1px;stroke-linecap:butt;stroke-linejoin:miter;stroke-opacity:1;display:inline"
       d="m 117.85897,76.988886 c -6.50106,-16.638085 15.12673,-25.240046 24.3178,-33.480881 4.78191,12.078697 23.2089,27.373417 6.1757,42.716867 15.33541,-15.982091 31.07894,4.728448 43.78993,8.485768 -10.45147,7.53413 -17.86116,30.31828 -38.01655,21.99751 19.3318,3.27302 12.19168,25.94341 16.04805,40.55608 -14.15197,-5.98804 -35.85516,-3.00761 -39.17713,-21.85828 0.27048,16.08016 -14.84964,24.24967 -28.33953,33.25712 -2.45042,-14.61909 -15.228091,-28.92741 -0.33742,-44.06833 -13.29886,17.30743 -35.699647,-5.0586 -49.601173,-7.77831 12.058296,-7.273 27.574696,-30.902483 44.793154,-19.59767 C 77.155423,90.849968 83.034698,67.436269 78.372228,53.967052 91.06416,59.246557 113.33496,58.620917 117.85897,76.988886 z"
       id="flowerback-10"
       inkscape:connector-curvature="0"
       sodipodi:nodetypes="ccccccccccccc" />
    <path
       style="fill:#0000ff;stroke:#000000;stroke-width:1px;stroke-linecap:butt;stroke-linejoin:miter;stroke-opacity:1;display:inline"
       d="M 96.227186,77.445123 C 81.903383,66.771868 102.41495,55.095158 105.84939,43.23802 c 10.4515,7.71542 36.30288,1.74278 29.97578,23.777281 4.54866,-21.677453 26.74811,-3.250072 39.5208,-6.792 -4.87786,11.924881 13.62642,32.348439 -7.87778,35.960149 18.13311,-7.457987 11.35001,18.3832 22.35787,28.73834 -15.17615,2.41236 -23.52505,25.97692 -36.32323,11.74352 8.74265,13.49854 -8.24479,18.8882 -14.92031,33.67159 -9.81851,-11.10492 -31.06212,-7.28633 -26.44543,-28.01471 -2.11927,21.72361 -30.13581,5.41628 -43.36916,10.46877 6.379272,-12.55404 -1.452511,-38.69372 19.139932,-38.21902 C 67.266577,119.94604 68.34386,94.84889 57.257513,85.890579 70.819909,83.650102 82.66479,64.257613 96.227186,77.445123 z"
       id="flowerfront-10"
       inkscape:connector-curvature="0"
       sodipodi:nodetypes="ccccccccccccc" />
    <path
       id="target2-01-6"
       style="color:#000000;fill:#ffff00;fill-opacity:1;fill-rule:nonzero;stroke:#000000;stroke-width:0;stroke-linecap:butt;stroke-linejoin:miter;stroke-miterlimit:4;stroke-opacity:1;stroke-dashoffset:0;marker:none;visibility:visible;display:inline;overflow:visible;enable-background:accumulate"
       d="m 72.047092,88.782446 c 0,2.147886 -1.741203,3.889074 -3.889086,3.889074 -2.147883,0 -3.889086,-1.741188 -3.889086,-3.889074 0,-2.147886 1.741203,-3.889102 3.889086,-3.889102 2.147883,0 3.889086,1.741216 3.889086,3.889102 z m 15.223614,-5.903811 c 0,2.928921 -2.374375,5.303305 -5.303301,5.303305 -2.928925,0 -5.3033,-2.374384 -5.3033,-5.303305 0,-2.928951 2.374375,-5.303301 5.3033,-5.303301 2.928926,0 5.303301,2.37435 5.303301,5.303301 z M 83.54825,106.5093 c 0,2.78246 -2.25565,5.03811 -5.038142,5.03811 -2.78249,0 -5.03813,-2.25565 -5.03813,-5.03811 0,-2.78249 2.25564,-5.03814 5.03813,-5.03814 2.782492,0 5.038142,2.25565 5.038142,5.03814 z m 1.059764,24.89454 c 0,2.88009 -2.334815,5.21491 -5.214914,5.21491 -2.88013,0 -5.214914,-2.33482 -5.214914,-5.21491 0,-2.88013 2.334784,-5.21492 5.214914,-5.21492 2.880099,0 5.214914,2.33479 5.214914,5.21492 z m -2.260144,14.54138 c 0.04148,2.48882 -2.494285,4.37626 -3.63802,4.26299 -2.5243,-0.25 -3.507659,-0.6601 -4.012991,-3.38799 -0.375,-2.02433 1.613341,-4.63483 3.887991,-4.38803 1.874486,0.20338 3.731094,1.59758 3.76302,3.51303 z m 18.03186,-2.40471 c 0,2.78248 -2.25566,5.03812 -5.03815,5.03812 -2.78248,0 -5.03812,-2.25564 -5.03812,-5.03812 0,-2.78249 2.25564,-5.03815 5.03812,-5.03815 2.78249,0 5.03815,2.25566 5.03815,5.03815 z m 41.08972,16.91233 c -0.10487,1.76009 -2.04712,3.68089 -4.43091,3.80589 -3.75362,0.19683 -5.18089,-1.67211 -5.18089,-4.05589 0,-2.50879 2.30657,-4.69738 4.68089,-4.43091 1.75223,0.19665 5.07238,2.30658 4.93091,4.68091 z m -12.33884,-7.01975 c 0,3.22182 -2.61179,5.83363 -5.83363,5.83363 -3.22182,0 -5.83363,-2.61181 -5.83363,-5.83363 0,-3.22182 2.61181,-5.83363 5.83363,-5.83363 3.22184,0 5.83363,2.61181 5.83363,5.83363 z m 21.46599,-6.6573 c 0,2.00144 -1.62248,3.62393 -3.62391,3.62393 -2.00144,0 -3.62393,-1.62249 -3.62393,-3.62393 0,-2.00143 1.62249,-3.62391 3.62393,-3.62391 2.00143,0 3.62391,1.62248 3.62391,3.62391 z m 34.16411,-25.59684 c 0,2.97776 -2.41395,5.39171 -5.39168,5.39171 -2.97776,0 -5.3917,-2.41395 -5.3917,-5.39171 0,-2.97773 2.41394,-5.39167 5.3917,-5.39167 2.97773,0 5.39168,2.41394 5.39168,5.39167 z m -11.61422,9.80655 c 0,3.22182 -2.61179,5.83362 -5.83364,5.83362 -3.22182,0 -5.83362,-2.6118 -5.83362,-5.83362 0,-3.22182 2.6118,-5.83362 5.83362,-5.83362 3.22185,0 5.83364,2.6118 5.83364,5.83362 z m 6.27945,-22.71797 c 0,2.78251 -2.25567,5.03815 -5.03815,5.03815 -2.78249,0 -5.03813,-2.25564 -5.03813,-5.03815 0,-2.78246 2.25564,-5.03813 5.03813,-5.03813 2.78248,0 5.03815,2.25567 5.03815,5.03813 z m -6.34442,-40.620314 c 0,3.270641 -2.73052,5.922018 -6.09877,5.922018 -3.36829,0 -6.09881,-2.651377 -6.09881,-5.922018 0,-3.270642 2.73052,-5.922021 6.09881,-5.922021 3.36825,0 6.09877,2.651379 6.09877,5.922021 z m 3.4599,17.482486 c 0,2.344574 -1.41839,4.084642 -5.28814,6.059583 -1.46957,0.75 -5.54811,-0.342826 -5.39169,-4.684583 0.125,-3.469577 2.54712,-6.223804 5.39169,-6.098804 4.34039,0.190732 5.28814,2.504227 5.28814,4.723804 z M 154.06933,63.21855 c 0,3.36828 -0.73052,4.4738 -4.09879,4.4738 -3.36828,0 -5.5988,-0.73052 -5.5988,-4.0988 0,-3.368275 1.10552,-4.973798 4.4738,-4.973798 3.36827,0 5.22379,1.230523 5.22379,4.598798 z m -49.71043,0.614772 c 0,2.343144 -1.89948,4.242644 -4.24263,4.242644 -2.343142,0 -4.242652,-1.8995 -4.242652,-4.242644 0,-2.343145 1.89951,-4.242639 4.242652,-4.242639 2.34315,0 4.24263,1.899494 4.24263,4.242639 z m 23.68809,-5.480078 c 0,2.831301 -2.29523,5.126529 -5.12652,5.126529 -2.8313,0 -5.12653,-2.295228 -5.12653,-5.126529 0,-2.8313 2.29523,-5.126522 5.12653,-5.126522 2.83129,0 5.12652,2.295222 5.12652,5.126522 z M 115.1423,49.779576 c -0.11114,1.963194 -2.26092,2.922789 -5.03815,3.093593 -2.03248,0.125 -4.89945,-0.275673 -5.39169,-2.386486 -0.51181,-2.194744 2.96276,-3.800699 5.74524,-3.800699 2.78248,0 4.79359,1.168172 4.6846,3.093592 z"
       inkscape:connector-curvature="0"
       sodipodi:nodetypes="ssssssssssssssssssssssssssssssssssssssssssssssssssssssssssssssssssssssssssssssssssssssssss" />
    <path
       style="color:#000000;fill:#00ffff;fill-opacity:1;fill-rule:nonzero;stroke:#000000;stroke-width:2.46448278;stroke-linecap:butt;stroke-linejoin:miter;stroke-miterlimit:4;stroke-opacity:1;stroke-dashoffset:0;marker:none;visibility:visible;display:inline;overflow:visible;enable-background:accumulate"
       d="m 146.31795,70.03064 c 19.8249,10.77393 27.00898,35.30218 16.0461,54.78538 -10.96288,19.48322 -35.92129,26.54348 -55.7462,15.76954 C 86.792963,129.81164 79.60888,105.2834 90.571767,85.800183 101.53464,66.316974 126.49306,59.256717 146.31795,70.03064 z"
       id="center-10"
       inkscape:connector-curvature="0" />
    <path
       inkscape:connector-curvature="0"
       id="path3147-3-9-6-1"
       style="fill:#ff00ff;stroke:#000000;stroke-width:2;stroke-linecap:butt;stroke-linejoin:miter;stroke-opacity:1;display:inline"
       d="m 88.56804,121.17504 c 1.97531,-2.63649 0.70016,-6.22222 -1.98475,-7.00642 -19.429531,-1.81907 -23.841026,9.26528 -27.96202,13.44897 l 1.21754,4.06481 c 12.999987,-6.59248 14.818294,-14.31698 28.72923,-10.50736 z m 68.12194,11.18597 c -4.31196,0.13731 -6.62936,0.0259 -6.77159,5.27146 6.02306,14.90606 8.69532,21.90261 19.17057,32.31386 l 1.33498,-6.50774 c -10.29059,-13.28126 -12.18045,-16.62232 -13.73396,-31.07758 z m 9.06325,-39.399713 c -1.99834,3.823423 -2.41828,7.395093 2.0811,10.095503 8.11849,-8.324464 16.64852,-9.214355 31.18817,-1.82525 l 2.48098,-4.573365 c -15.9956,-6.68511 -22.76544,-8.828193 -35.75025,-3.696888 z m -31.8703,-27.652636 c 2.0534,3.794145 4.78029,6.138756 9.53441,3.917274 -3.97639,-14.337769 5.53089,-17.185851 12.35964,-21.59406 l -2.94568,-5.709402 c -9.31546,8.037788 -15.29481,2.286771 -18.94837,23.386188 z M 94.40969,81.461527 c 4.22507,-0.872205 7.25636,-1.807254 6.5,-7 -2.57087,-8.875652 -14.32768,-12.034368 -23.75,-15.5 l -7,7 c 22.22325,0.733862 24.72611,7.194233 24.25,15.5 z"
       sodipodi:nodetypes="ccccccccccccccccccccccccc" />
    <path
       inkscape:connector-curvature="0"
       id="path3149-7-0-7-3"
       style="color:#000000;fill:#ff6600;fill-opacity:1;fill-rule:evenodd;stroke:#2b1100;stroke-width:1.27292752;stroke-linecap:butt;stroke-linejoin:miter;stroke-miterlimit:4;stroke-opacity:1;stroke-dashoffset:0;marker:none;visibility:visible;display:inline;overflow:visible;enable-background:accumulate"
       d="m 62.59562,118.53098 c 3.52877,1.15675 4.78565,8.20551 2.8073,15.74385 -1.97835,7.53834 -6.44275,12.71165 -9.97153,11.5549 -3.52878,-1.15675 -4.78565,-8.20551 -2.8073,-15.74385 1.97834,-7.53834 6.44275,-12.71164 9.97153,-11.5549 z m 123.21155,46.92117 c 0.41574,4.26807 -5.52732,7.6493 -13.27418,7.55219 -7.74687,-0.0971 -14.36396,-3.63578 -14.77969,-7.90385 -0.41574,-4.26807 5.52732,-7.64929 13.27418,-7.55219 7.74687,0.0971 14.36396,3.63578 14.77969,7.90385 z m 7.21278,-55.62366 c -2.51198,-2.98504 -0.70698,-10.65612 4.0316,-17.133823 4.73859,-6.477713 10.61634,-9.309074 13.12832,-6.324032 2.512,2.985044 0.70698,10.656118 -4.0316,17.133825 -4.73858,6.47771 -10.61633,9.30908 -13.12832,6.32403 z M 166.38151,54.236352 c -2.59349,3.185276 -8.67143,0.177352 -13.57546,-6.718398 -4.90402,-6.895749 -6.77708,-15.068043 -4.18359,-18.253323 2.59349,-3.18528 8.67143,-0.17735 13.57546,6.718403 4.90402,6.895749 6.77708,15.068033 4.18359,18.253318 z M 84.92847,55.68252 c 0.98168,4.174314 -4.15519,9.416437 -11.47352,11.7086 -7.31833,2.292163 -14.04682,0.766377 -15.0285,-3.407944 -0.98168,-4.17432 4.15519,-9.416443 11.47352,-11.708607 7.31833,-2.292163 14.04682,-0.76637 15.0285,3.407951 z"
       sodipodi:nodetypes="sssssssssssssssssssssssss" />
  </g>
  <g
     inkscape:groupmode="layer"
     id="layer7"
     inkscape:label="01"
     style="display:none">
    <path
       style="fill:#ff0000;stroke:#000000;stroke-width:1px;stroke-linecap:butt;stroke-linejoin:miter;stroke-opacity:1;display:inline"
       d="m 104.35953,130.29713 c -7.935314,9.67384 -14.732107,20.08698 -19.36667,31.675 -0.238071,0.59526 -27.84544,-13.68137 -28.071963,-13.07985 -0.171601,0.45568 27.035152,15.78818 26.87032,16.24751 -1.173093,3.26901 -3.298254,12.00615 -4.103738,15.47067 -0.204563,0.87986 -30.64688,-8.35793 -30.826609,-7.46319 -0.207524,1.03311 30.351734,10.20127 30.178301,11.25476 -0.885192,5.37694 -0.06947,6.14793 0.01725,12.10079 0.01564,1.07379 -33.70176,1.40756 -33.65181,2.50154 0.05595,1.22528 33.633687,0.71337 33.73378,1.96457 0.456869,5.71104 2.004567,16.94532 3.448042,23.23253 0.285417,1.24316 -29.283805,9.24816 -28.957242,10.51524 0.299005,1.16015 30.115436,-7.16958 30.449618,-5.98901 C 85.42434,233.48104 87.057641,238.40132 89,243.5 l 11,0 c -6.360467,-10.79671 -10.245848,-20.97466 -12.12091,-30.65002 -0.1217,-0.62797 34.26507,-8.75383 34.16018,-9.3776 -0.13256,-0.78832 -34.751795,5.92669 -34.857965,5.14497 -0.931753,-6.86045 -0.85713,-13.46932 0.05049,-19.86993 0.07221,-0.5092 30.774685,3.23292 30.857345,2.72633 0.0885,-0.5423 -30.442075,-5.33312 -30.341808,-5.87248 1.252887,-6.73957 3.416765,-13.25138 6.282696,-19.58769 0.260044,-0.57493 28.025872,10.85158 28.297312,10.2795 0.27957,-0.58918 -26.934911,-13.17687 -26.643586,-13.76312 4.497666,-9.05088 10.376536,-17.75646 17.009156,-26.2736 -0.53082,0.0169 -7.46071,-5.48137 -8.33337,-5.95923 z"
       id="target1-01"
       inkscape:connector-curvature="0"
       sodipodi:nodetypes="cssssssssssssccssssssssscc" />
    <path
       style="fill:#ff0000;stroke:#000000;stroke-width:1px;stroke-linecap:butt;stroke-linejoin:miter;stroke-opacity:1;display:inline"
       d="M 104.57992,130.82395 C 81.939835,157.64532 69.056235,193.78008 89.220381,244.02682 l 11.000009,0 C 78.43424,206.56599 88.356742,156.21131 112.9133,136.78318 c -0.53083,0.0169 -7.46071,-5.48137 -8.33338,-5.95923 z"
       id="stem-01"
       inkscape:connector-curvature="0"
       sodipodi:nodetypes="ccccc" />
    <path
       style="fill:#000080;stroke:#000000;stroke-width:1px;stroke-linecap:butt;stroke-linejoin:miter;stroke-opacity:1;display:inline"
       d="m 121.15255,102.43352 c -9.93879,-33.391914 23.50983,-77.059227 31.53358,-101.790081 -4.31863,25.975812 6.50404,81.5626 -21.4827,105.127141 21.3256,-24.579273 86.10238,-13.076581 111.12447,-16.349021 -24.46192,6.4803 -76.42004,43.336091 -109.87932,24.519821 34.88181,17.01771 67.27511,82.82927 80.5507,105.22466 -16.30513,-20.07094 -89.02794,-64.18193 -88.36048,-99.32646 6.67721,31.26124 -20.8955,58.14281 -31.445798,76.86595 4.67419,-20.36864 -2.09354,-57.86295 23.699748,-80.18706 -23.215535,25.88766 -51.318971,9.63367 -74.901699,9.95713 C 64.653395,120.76144 82.494917,89.892465 115.38294,107.76013 82.483565,94.679 49.486282,36.588314 34.729253,15.278356 52.26946,34.040246 116.62009,63.539409 121.15255,102.43352 z"
       id="flowerback-01"
       inkscape:connector-curvature="0"
       sodipodi:nodetypes="ccccccccccccc" />
    <path
       style="fill:#0000ff;stroke:#000000;stroke-width:1px;stroke-linecap:butt;stroke-linejoin:miter;stroke-opacity:1;display:inline"
       d="M 119.50105,106.54221 C 93.031594,83.88901 101.60663,25.791817 94.924769,0.6651675 105.39431,24.826751 140.47272,68.909765 129.7541,103.89056 c 4.57303,-32.218143 80.90909,-67.705068 100.15,-84.033005 -17.02952,18.71832 -56.35498,87.866435 -94.66993,90.220185 38.53372,-4.63641 90.02761,35.32992 113.33201,46.93593 -24.58754,-8.00952 -98.1787,-7.86233 -116.69077,-37.74354 22.57365,22.63362 10.56458,55.86378 11.86397,77.3155 -7.12792,-19.6449 -29.72191,-43.15272 -20.17246,-75.90127 -5.4504,34.34276 -45.612101,26.96135 -65.244426,40.03122 15.933771,-17.0982 21.902865,-43.72777 59.223196,-46.56826 C 82.813443,121.01433 31.391264,84.456824 7.4316112,74.566464 32.346123,80.806212 94.586538,76.333564 119.50105,106.54221 z"
       id="flowerfront-01"
       inkscape:connector-curvature="0"
       sodipodi:nodetypes="ccccccccccccc" />
    <path
       id="target2-01"
       style="color:#000000;fill:#ffff00;fill-opacity:1;fill-rule:nonzero;stroke:#000000;stroke-width:0;stroke-linecap:butt;stroke-linejoin:miter;stroke-miterlimit:4;stroke-opacity:1;stroke-dashoffset:0;marker:none;visibility:visible;display:inline;overflow:visible;enable-background:accumulate"
       d="m 56.922092,88.157449 c 0,2.147886 -1.741203,3.889075 -3.889086,3.889075 -2.147883,0 -3.889086,-1.741189 -3.889086,-3.889075 0,-2.147886 1.741203,-3.889102 3.889086,-3.889102 2.147883,0 3.889086,1.741216 3.889086,3.889102 z m 27.223614,4.596189 c 0,2.928921 -2.374375,5.303305 -5.303301,5.303305 -2.928925,0 -5.3033,-2.374384 -5.3033,-5.303305 0,-2.928951 2.374375,-5.303301 5.3033,-5.303301 2.928926,0 5.303301,2.37435 5.303301,5.303301 z M 104.29825,104.5093 c 0,2.78246 -2.25565,5.03811 -5.038142,5.03811 -2.78249,0 -5.03813,-2.25565 -5.03813,-5.03811 0,-2.78249 2.25564,-5.03814 5.03813,-5.03814 2.782492,0 5.038142,2.25565 5.038142,5.03814 z m -16.440236,36.76954 c 0,2.88009 -2.334815,5.21491 -5.214914,5.21491 -2.88013,0 -5.214914,-2.33482 -5.214914,-5.21491 0,-2.88013 2.334784,-5.21492 5.214914,-5.21492 2.880099,0 5.214914,2.33479 5.214914,5.21492 z m 23.864856,-5.83362 c 0,4.1493 -3.36369,7.51299 -7.51302,7.51299 -4.1493,0 -7.512991,-3.36369 -7.512991,-7.51299 0,-4.14933 3.363691,-7.51303 7.512991,-7.51303 4.14933,0 7.51302,3.3637 7.51302,7.51303 z m 5.65686,-12.90471 c 0,2.78248 -2.25566,5.03812 -5.03815,5.03812 -2.78248,0 -5.03812,-2.25564 -5.03812,-5.03812 0,-2.78249 2.25564,-5.03815 5.03812,-5.03815 2.78249,0 5.03815,2.25566 5.03815,5.03815 z m 26.33972,38.53733 c 0,3.75878 -3.04712,6.80589 -6.80591,6.80589 -3.75878,0 -6.80589,-3.04711 -6.80589,-6.80589 0,-3.75879 3.04711,-6.80591 6.80589,-6.80591 3.75879,0 6.80591,3.04712 6.80591,6.80591 z m -8.83884,-15.64475 c 0,3.22182 -2.61179,5.83363 -5.83363,5.83363 -3.22182,0 -5.83363,-2.61181 -5.83363,-5.83363 0,-3.22182 2.61181,-5.83363 5.83363,-5.83363 3.22184,0 5.83363,2.61181 5.83363,5.83363 z m 1.59099,-14.4073 c 0,2.00144 -1.62248,3.62393 -3.62391,3.62393 -2.00144,0 -3.62393,-1.62249 -3.62393,-3.62393 0,-2.00143 1.62249,-3.62391 3.62393,-3.62391 2.00143,0 3.62391,1.62248 3.62391,3.62391 z m 73.53911,7.77816 c 0,2.97776 -2.41395,5.39171 -5.39168,5.39171 -2.97776,0 -5.3917,-2.41395 -5.3917,-5.39171 0,-2.97773 2.41394,-5.39167 5.3917,-5.39167 2.97773,0 5.39168,2.41394 5.39168,5.39167 z m -36.23922,-5.56845 c 0,3.22182 -2.61179,5.83362 -5.83364,5.83362 -3.22182,0 -5.83362,-2.6118 -5.83362,-5.83362 0,-3.22182 2.6118,-5.83362 5.83362,-5.83362 3.22185,0 5.83364,2.6118 5.83364,5.83362 z m -16.97055,-15.46797 c 0,2.78251 -2.25567,5.03815 -5.03815,5.03815 -2.78249,0 -5.03813,-2.25564 -5.03813,-5.03815 0,-2.78246 2.25564,-5.03813 5.03813,-5.03813 2.78248,0 5.03815,2.25567 5.03815,5.03813 z m 30.40558,-56.745311 c 0,3.270641 -2.73052,5.922018 -6.09877,5.922018 -3.36829,0 -6.09881,-2.651377 -6.09881,-5.922018 0,-3.270642 2.73052,-5.922021 6.09881,-5.922021 3.36825,0 6.09877,2.651379 6.09877,5.922021 z m -16.08667,24.925505 c 0,4.344574 -3.52199,7.866564 -7.86657,7.866564 -4.34457,0 -7.86656,-3.52199 -7.86656,-7.866564 0,-4.344577 3.52199,-7.86657 7.86656,-7.86657 4.34458,0 7.86657,3.521993 7.86657,7.86657 z m -24.92552,12.020829 c 0,3.368277 -2.73052,6.098797 -6.09879,6.098797 -3.36828,0 -6.0988,-2.73052 -6.0988,-6.098797 0,-3.368275 2.73052,-6.098798 6.0988,-6.098798 3.36827,0 6.09879,2.730523 6.09879,6.098798 z M 117.02616,76.136626 c 0,2.343144 -1.89948,4.242644 -4.24263,4.242644 -2.34314,0 -4.24265,-1.8995 -4.24265,-4.242644 0,-2.343145 1.89951,-4.242639 4.24265,-4.242639 2.34315,0 4.24263,1.899494 4.24263,4.242639 z m 12.02083,11.136931 c 0,2.831301 -2.29523,5.126529 -5.12652,5.126529 -2.8313,0 -5.12653,-2.295228 -5.12653,-5.126529 0,-2.8313 2.29523,-5.126522 5.12653,-5.126522 2.83129,0 5.12652,2.295222 5.12652,5.126522 z M 116.49585,54.658259 c 0,3.07538 -2.25567,5.568466 -5.03815,5.568466 -2.78248,0 -5.03813,-2.493086 -5.03813,-5.568466 0,-3.075378 2.25565,-5.568466 5.03813,-5.568466 2.78248,0 5.03815,2.493088 5.03815,5.568466 z"
       inkscape:connector-curvature="0" />
    <path
       style="color:#000000;fill:#00ffff;fill-opacity:1;fill-rule:nonzero;stroke:#000000;stroke-width:1.77838612;stroke-linecap:butt;stroke-linejoin:miter;stroke-miterlimit:4;stroke-opacity:1;stroke-dashoffset:0;marker:none;visibility:visible;display:inline;overflow:visible;enable-background:accumulate"
       d="m 132.2428,105.5804 c 3.75036,3.17042 4.22049,8.78081 1.05007,12.53116 -3.17041,3.75036 -8.78082,4.2205 -12.53117,1.05008 -3.75036,-3.17042 -4.22049,-8.78081 -1.05007,-12.53118 3.17042,-3.75035 8.78082,-4.22048 12.53117,-1.05006 z"
       id="center-01"
       inkscape:connector-curvature="0" />
    <path
       inkscape:connector-curvature="0"
       id="path3147-3-9-6-6"
       style="fill:#ff00ff;stroke:#000000;stroke-width:2;stroke-linecap:butt;stroke-linejoin:miter;stroke-opacity:1;display:inline"
       d="m 120.51348,118.95232 c 1.04853,-1.30806 0.0663,-5.07057 -2.21699,-5.97088 -20.355639,-5.26619 -49.433018,13.35891 -62.17522,19.13615 l 0.535559,4.70085 C 71.213,130.62208 106.2018,110.86374 120.51348,118.95232 z m 14.00403,-2.35477 c -2.19064,-0.56979 -3.74027,1.1723 -4.05928,3.05915 3.71882,14.22322 27.39776,43.30816 38.78238,52.31476 l 4.20846,-2.58833 c -13.66255,-15.00842 -36.10102,-43.42772 -38.93156,-52.78558 z m 0.29028,-7.41874 c -1.29123,1.17177 -0.82729,3.15245 0.49011,3.37799 23.28829,-17.126364 53.07334,-12.803483 59.12841,-7.30012 l 2.90039,-5.916514 c -18.85421,-7.657261 -49.96842,-2.604643 -62.51891,9.838644 z m -6.60684,-5.69248 c 2.2028,3.73438 3.53867,2.88774 4.93822,3.21017 1.35845,-22.073096 12.72099,-46.254718 21.98096,-55.771732 l -4.78883,-4.502295 c -9.95251,8.037788 -21.50757,35.964441 -22.13035,57.063857 z m -10.61359,7.25858 c 4.22507,-0.87221 5.31182,-0.50916 4.55546,-5.70191 C 112.95323,81.334527 88.716376,66.783977 73.00804,64.259624 l -5.34835,6.201903 c 22.194578,0.744785 45.36626,21.61095 49.92767,40.283383 z"
       sodipodi:nodetypes="ccccccccccccccccccccccccc" />
    <path
       inkscape:connector-curvature="0"
       id="path3149-7-0-7-1"
       style="color:#000000;fill:#ff6600;fill-opacity:1;fill-rule:evenodd;stroke:#2b1100;stroke-width:1.27292752;stroke-linecap:butt;stroke-linejoin:miter;stroke-miterlimit:4;stroke-opacity:1;stroke-dashoffset:0;marker:none;visibility:visible;display:inline;overflow:visible;enable-background:accumulate"
       d="m 60.09562,123.03098 c 3.52877,1.15675 4.78565,8.20551 2.8073,15.74385 -1.97835,7.53834 -6.44275,12.71165 -9.97153,11.5549 -3.52878,-1.15675 -4.78565,-8.20551 -2.8073,-15.74385 1.97834,-7.53834 6.44275,-12.71164 9.97153,-11.5549 z m 123.21155,46.92117 c 0.41574,4.26807 -5.52732,7.6493 -13.27418,7.55219 -7.74687,-0.0971 -14.36396,-3.63578 -14.77969,-7.90385 -0.41574,-4.26807 5.52732,-7.64929 13.27418,-7.55219 7.74687,0.0971 14.36396,3.63578 14.77969,7.90385 z m 7.21278,-55.62366 c -2.51198,-2.98504 -0.70698,-10.65612 4.0316,-17.133823 4.73859,-6.477713 10.61634,-9.309074 13.12832,-6.324032 2.512,2.985044 0.70698,10.656115 -4.0316,17.133825 -4.73858,6.47771 -10.61633,9.30908 -13.12832,6.32403 z M 163.88151,58.736352 c -2.59349,3.185276 -8.67143,0.177352 -13.57546,-6.718398 -4.90402,-6.895749 -6.77708,-15.068043 -4.18359,-18.253323 2.59349,-3.18528 8.67143,-0.17735 13.57546,6.718403 4.90402,6.895749 6.77708,15.068033 4.18359,18.253318 z M 82.42847,60.18252 c 0.98168,4.174314 -4.15519,9.416437 -11.47352,11.7086 -7.31833,2.292163 -14.04682,0.766377 -15.0285,-3.407944 -0.98168,-4.17432 4.15519,-9.416443 11.47352,-11.708607 7.31833,-2.292163 14.04682,-0.76637 15.0285,3.407951 z"
       sodipodi:nodetypes="sssssssssssssssssssssssss" />
  </g>
  <g
     inkscape:groupmode="layer"
     id="layer6"
     inkscape:label="00"
     style="display:none">
    <path
       style="fill:#ff0000;stroke:#000000;stroke-width:1px;stroke-linecap:butt;stroke-linejoin:miter;stroke-opacity:1;display:inline"
       d="m 114.49251,119.39856 c -7.93531,9.67384 -14.73211,20.08698 -19.36667,31.675 -0.23807,0.59526 -27.84544,-13.68137 -28.071963,-13.07985 -0.171601,0.45568 27.035153,15.78818 26.87032,16.24751 -1.173093,3.26901 -3.298254,12.00615 -4.103738,15.47067 -0.204563,0.87986 -30.64688,-8.35793 -30.826609,-7.46319 -0.207524,1.03311 30.351734,10.20127 30.178301,11.25476 -0.885192,5.37694 -0.06947,6.14793 0.01725,12.10079 0.01564,1.07379 -33.70176,1.40757 -33.65181,2.50154 0.05595,1.22528 33.633687,0.71337 33.73378,1.96457 0.456869,5.71104 2.004567,16.94532 3.448042,23.23253 0.285417,1.24316 -29.283805,9.24816 -28.957242,10.51524 0.299005,1.16015 30.115436,-7.16958 30.449619,-5.98901 1.34553,4.75335 2.97883,9.67363 4.92119,14.77231 l 11,0 c -6.36047,-10.79671 -10.24585,-20.97466 -12.12091,-30.65002 -0.1217,-0.62797 34.26507,-8.75383 34.16018,-9.3776 -0.13256,-0.78832 -34.75179,5.92669 -34.85796,5.14497 -0.93176,-6.86045 -0.85713,-13.46932 0.0505,-19.86992 0.0722,-0.50921 30.77468,3.23291 30.85734,2.72632 0.0885,-0.5423 -30.44207,-5.33312 -30.34181,-5.87248 1.25289,-6.73957 3.41677,-13.25138 6.2827,-19.58769 0.26004,-0.57493 28.02587,10.85158 28.29731,10.2795 0.27957,-0.58918 -26.93491,-13.17687 -26.64359,-13.76312 4.49767,-9.05088 10.37653,-17.75646 17.00916,-26.2736 -0.53082,0.0169 -7.46071,-5.48137 -8.33338,-5.95923 z"
       id="target1-00"
       inkscape:connector-curvature="0"
       sodipodi:nodetypes="cssssssssssssccssssssssscc" />
    <path
       style="fill:#ff0000;stroke:#000000;stroke-width:1px;stroke-linecap:butt;stroke-linejoin:miter;stroke-opacity:1;display:inline"
       d="M 114.75328,118.77192 C 92.113193,145.59329 79.229593,181.72805 99.393737,231.97479 l 11.353563,0 c -21.786149,-37.46083 -14.338524,-80.74444 10.21804,-100.17257 -0.53083,0.0169 -6.40005,-11.49178 -6.21206,-13.0303 z"
       id="stem-00"
       inkscape:connector-curvature="0"
       sodipodi:nodetypes="ccccc" />
    <path
       style="fill:#000080;stroke:#000000;stroke-width:1px;stroke-linecap:butt;stroke-linejoin:miter;stroke-opacity:1;display:inline"
       d="m 123.58303,105.36281 c -5.86747,-14.542069 7.60991,-21.03818 11.42943,-30.236975 0.33906,9.747952 11.09965,19.787468 -1.17087,32.867225 13.10235,-13.665276 22.29823,-2.60268 33.35248,-3.00296 -9.96473,4.86236 -14.342,21.65709 -31.54232,11.06743 15.71074,7.84818 11.88899,17.78766 17.35428,26.73279 -8.2796,-6.49223 -20.62009,-1.94509 -24.73512,-20.30593 4.40307,17.83725 -9.60851,20.56347 -14.53569,30.74434 1.06981,-11.05508 -11.20788,-20.70856 6.5775,-33.51891 -12.20353,12.85683 -23.412928,1.12991 -35.108619,1.42862 10.553062,-3.81004 12.354702,-16.60026 32.993589,-10.06081 -20.175405,-3.1849 -15.12095,-18.667051 -22.42962,-28.123309 9.48067,7.120611 24.39739,5.167652 27.81496,22.408489 z"
       id="flowerback-00"
       inkscape:connector-curvature="0"
       sodipodi:nodetypes="ccccccccccccc" />
    <path
       style="fill:#0000ff;stroke:#000000;stroke-width:1px;stroke-linecap:butt;stroke-linejoin:miter;stroke-opacity:1;display:inline"
       d="m 119.50105,106.54221 c -12.16137,-9.899496 -3.49776,-22.097086 -4.5962,-31.99658 5.00504,8.371804 19.27627,11.965432 14.84925,29.34493 4.87259,-18.293957 18.26786,-13.048756 27.75393,-18.738329 -6.37693,9.07046 -2.09812,25.890549 -22.27386,24.925509 17.54732,-0.71603 19.00155,9.83311 28.1075,15.02603 -10.38551,-1.68582 -18.99496,8.2561 -31.46626,-5.83364 12.47063,13.49214 1.51845,22.64673 2.12132,33.94114 -4.40272,-10.19683 -19.81591,-12.71969 -10.42981,-32.52691 -4.47604,17.15195 -19.95525,12.29756 -30.052038,18.208 7.400338,-8.43318 2.800372,-20.50281 24.030808,-24.74504 -19.204388,6.95571 -22.256279,-9.04212 -33.223206,-13.79227 11.740705,1.65594 23.858926,-7.258727 35.178566,6.18716 z"
       id="flowerfront-00"
       inkscape:connector-curvature="0"
       sodipodi:nodetypes="ccccccccccccc" />
    <path
       style="color:#000000;fill:#00ffff;fill-opacity:1;fill-rule:nonzero;stroke:#000000;stroke-width:1.77838612;stroke-linecap:butt;stroke-linejoin:miter;stroke-miterlimit:4;stroke-opacity:1;stroke-dashoffset:0;marker:none;visibility:visible;display:inline;overflow:visible;enable-background:accumulate"
       d="m 132.2428,105.5804 c 3.75036,3.17042 4.22049,8.78081 1.05007,12.53116 -3.17041,3.75036 -8.78082,4.2205 -12.53117,1.05008 -3.75036,-3.17042 -4.22049,-8.78081 -1.05007,-12.53118 3.17042,-3.75035 8.78082,-4.22048 12.53117,-1.05006 z"
       id="center-00"
       inkscape:connector-curvature="0" />
    <path
       id="target2-01-3-3"
       style="color:#000000;fill:#ffff00;fill-opacity:1;fill-rule:nonzero;stroke:#000000;stroke-width:0;stroke-linecap:butt;stroke-linejoin:miter;stroke-miterlimit:4;stroke-opacity:1;stroke-dashoffset:0;marker:none;visibility:visible;display:inline;overflow:visible;enable-background:accumulate"
       d="m 99.244236,104.07527 c 0,2.33083 -1.57024,2.69709 -3.460921,2.66543 -2.064856,-0.0346 -3.320465,-1.1281 -3.284133,-2.75382 0.04021,-1.79938 1.746731,-2.70362 3.284133,-2.66541 1.710879,0.0425 3.460921,0.86493 3.460921,2.7538 z m 9.023574,1.93672 c -0.45198,1.65591 -2.11547,3.17509 -3.59448,2.79898 -0.97775,-0.24865 -3.66077,-1.09012 -3.59449,-3.77125 0.0539,-2.17879 1.83378,-4.0135 3.5061,-4.12482 1.79008,-0.11915 4.29244,2.86381 3.68287,5.09709 z m 6.32279,4.75633 c 0.26517,2.28424 -1.39818,3.36872 -3.23797,3.23797 -1.84121,-0.13085 -3.06854,-0.77644 -3.23797,-3.23797 -0.15706,-2.28179 2.80987,-2.70765 3.7683,-2.70765 0.95843,0 2.43405,0.35083 2.70764,2.70765 z m -7.57199,19.8503 c -0.58295,2.32878 -2.60893,3.76799 -4.00598,3.29885 -1.51307,-0.5081 -2.78086,-2.8726 -2.41499,-4.35951 0.30056,-1.22147 2.24074,-2.90813 3.65243,-2.85695 1.84487,0.0669 3.21173,2.14714 2.76854,3.91761 z m 9.54606,-3.24683 c 0.37378,1.87657 -1.85237,3.94828 -3.91369,3.82528 -1.7326,-0.10338 -3.96667,-1.35356 -3.73688,-3.82528 0.21538,-2.31674 2.17237,-3.11874 3.73688,-3.11818 1.63824,5.9e-4 3.42975,0.68867 3.91369,3.11818 z m 0.35751,-8.59926 c 0.63551,2.07057 -1.28719,2.64928 -2.35411,2.70765 -1.64001,0.0897 -3.36853,-0.85535 -3.06121,-2.53087 0.28454,-1.55127 2.10278,-2.26571 3.06121,-2.26571 0.95842,0 2.07289,1.17269 2.35411,2.08893 z m 15.67045,21.10145 c 0,1.29469 -1.04958,2.34427 -2.34429,2.34427 -1.2947,0 -2.34428,-1.04958 -2.34428,-2.34427 0,-1.29472 1.04958,-2.3443 2.34428,-2.3443 1.29471,0 2.34429,1.04958 2.34429,2.3443 z m -1.01159,-6.80303 c -0.10527,3.26572 -2.9456,3.39133 -4.04232,3.42359 -1.18152,0.0348 -3.84731,-0.86325 -3.68878,-3.33521 0.078,-1.21573 0.78199,-3.48901 3.68878,-3.33521 3.14431,0.16637 4.0793,2.09984 4.04232,3.24683 z m 2.93449,-7.43746 c 0.0792,1.10875 -1.72045,3.16373 -3.45796,3.10443 -1.20994,-0.0413 -3.6404,-1.59056 -3.28118,-2.75087 0.80508,-2.60052 1.63061,-2.47578 3.28118,-2.48569 1.51788,-0.009 3.35247,0.65587 3.45796,2.13213 z m 20.8698,-3.66126 c 0,1.02567 -0.83148,1.85716 -1.85715,1.85716 -1.02569,0 -1.85717,-0.83149 -1.85717,-1.85716 0,-1.02569 0.83148,-1.85717 1.85717,-1.85717 1.02567,0 1.85715,0.83148 1.85715,1.85717 z m -6.29536,-0.50383 c 0.1916,1.28064 -2.17991,2.7718 -3.77716,2.89326 -1.94653,0.14802 -5.60553,-1.20756 -4.66103,-3.60037 0.6236,-1.57982 2.26114,-2.79387 4.21909,-2.62811 1.7555,0.14863 3.97164,1.68129 4.2191,3.33522 z m -4.87323,-7.62603 c -0.17157,2.57355 -1.87343,2.34058 -2.79603,2.4425 -1.06459,0.11759 -3.69222,-0.34515 -3.32636,-2.53089 0.20142,-1.20335 1.18083,-2.39449 3.0612,-2.26571 2.23293,0.15293 3.12635,1.37672 3.06119,2.3541 z m 8.52277,-22.254609 c 0.38954,1.191495 -0.50322,3.686283 -3.69169,3.895996 -2.22689,0.146468 -4.412,-0.530826 -4.57561,-3.100501 -0.11331,-1.779562 1.81988,-2.580914 3.8685,-2.746931 1.40024,-0.113472 4.04872,0.880655 4.3988,1.951436 z m -5.54103,8.585559 c 0,1.49648 -1.21314,2.70964 -2.70963,2.70964 -1.49648,0 -2.70962,-1.21316 -2.70962,-2.70964 0,-1.496485 1.21314,-2.709623 2.70962,-2.709623 1.49649,0 2.70963,1.213138 2.70963,2.709623 z m -7.34812,3.0799 c 0.0229,2.03078 -2.12425,3.24339 -3.33816,3.16138 -1.20003,-0.0811 -4.13263,-1.01045 -3.51493,-3.51493 0.3801,-1.54116 1.17008,-3.58504 3.51493,-3.24977 1.82701,0.26123 3.31379,1.4397 3.33816,3.60332 z m -18.60697,-8.784878 c -0.0242,1.741167 -0.93969,2.86969 -2.69881,2.875586 -1.38763,0.0047 -2.5912,-1.017214 -2.7872,-2.963974 -0.19982,-1.984698 0.65057,-3.236703 2.69881,-3.140751 2.48633,0.116474 2.80693,1.811881 2.7872,3.229139 z m 4.14056,3.836113 c 0,0.975225 -0.79059,1.765815 -1.76584,1.765815 -0.97523,0 -1.76582,-0.79059 -1.76582,-1.765815 0,-0.97525 0.79059,-1.76584 1.76582,-1.76584 0.97525,0 1.76584,0.79059 1.76584,1.76584 z M 123.4472,86.363047 c 0.37342,1.565412 -0.94052,3.447369 -2.2657,3.509038 -1.23903,0.05766 -4.30062,-0.479353 -4.38705,-3.420649 -0.0617,-2.098891 1.74624,-3.598256 3.67994,-3.420649 2.73339,0.251057 2.71482,2.250762 2.97281,3.33226 z"
       inkscape:connector-curvature="0"
       sodipodi:nodetypes="ssssssssssssssssssssssssssssssssssssssssssssssssssssssssssssssssssssssssssssssssssssssssss" />
    <path
       style="color:#000000;fill:#00ffff;fill-opacity:1;fill-rule:nonzero;stroke:#000000;stroke-width:1.77838612;stroke-linecap:butt;stroke-linejoin:miter;stroke-miterlimit:4;stroke-opacity:1;stroke-dashoffset:0;marker:none;visibility:visible;display:inline;overflow:visible;enable-background:accumulate"
       d="m 132.2428,105.5804 c 3.75036,3.17042 4.22049,8.78081 1.05007,12.53116 -3.17041,3.75036 -8.78082,4.2205 -12.53117,1.05008 -3.75036,-3.17042 -4.22049,-8.78081 -1.05007,-12.53118 3.17042,-3.75035 8.78082,-4.22048 12.53117,-1.05006 z"
       id="center-01-5"
       inkscape:connector-curvature="0" />
    <path
       inkscape:connector-curvature="0"
       id="path3147-3-9-6-6-8"
       style="fill:#ff00ff;stroke:#000000;stroke-width:2;stroke-linecap:butt;stroke-linejoin:miter;stroke-opacity:1;display:inline"
       d="m 120.51348,118.95232 c 1.04853,-1.30806 0.0663,-5.07057 -2.21699,-5.97088 -19.538373,1.27194 -19.000801,4.02597 -31.769628,9.59021 l 0.535559,4.70085 c 14.556169,-5.67366 19.139379,-13.50455 33.451059,-8.32018 z m 14.00403,-2.35477 c -2.19064,-0.56979 -3.74027,1.1723 -4.05928,3.05915 8.70232,13.51129 17.51732,16.63741 27.82222,25.79826 l 4.20846,-2.58833 c -12.84292,-13.77898 -24.08136,-15.32197 -27.9714,-26.26908 z m 0.29028,-7.41874 c -1.29123,1.17177 -0.82729,3.15245 0.49011,3.37799 22.54312,-10.41988 33.52755,-9.07185 39.68297,-4.47169 l 2.90039,-5.91651 c -17.37764,-3.719767 -29.17227,-1.83119 -43.07347,7.01021 z m -6.60684,-5.69248 c 2.2028,3.73438 3.53867,2.88774 4.93822,3.21017 1.35845,-22.073094 4.58926,-22.213085 13.84923,-31.730099 l -4.78883,-4.502295 c -9.95251,8.037788 -13.37584,11.92281 -13.99862,33.022224 z m -10.61359,7.25858 c 4.22507,-0.87221 5.31182,-0.50916 4.55546,-5.70191 C 112.95323,92.788836 108.16181,89.115869 92.453476,85.472829 l -4.287689,4.434136 c 22.455513,4.658776 25.505793,11.850025 29.421573,20.837945 z"
       sodipodi:nodetypes="ccccccccccccccccccccccccc" />
    <path
       inkscape:connector-curvature="0"
       id="path3149-7-0-7-1-9"
       style="color:#000000;fill:#ff6600;fill-opacity:1;fill-rule:evenodd;stroke:#2b1100;stroke-width:1.27292752;stroke-linecap:butt;stroke-linejoin:miter;stroke-miterlimit:4;stroke-opacity:1;stroke-dashoffset:0;marker:none;visibility:visible;display:inline;overflow:visible;enable-background:accumulate"
       d="m 90.501212,113.48504 c 3.52877,1.15675 4.78565,8.20551 2.8073,15.74385 -1.97835,7.53834 -6.44275,12.71165 -9.97153,11.5549 -3.52878,-1.15675 -4.78565,-8.20551 -2.8073,-15.74385 1.97834,-7.53834 6.44275,-12.71164 9.97153,-11.5549 z m 81.845798,29.95061 c 0.41574,4.26807 -5.52732,7.6493 -13.27418,7.55219 -7.74687,-0.0971 -14.36396,-3.63578 -14.77969,-7.90385 -0.41574,-4.26807 5.52732,-7.64929 13.27418,-7.55219 7.74687,0.0971 14.36396,3.63578 14.77969,7.90385 z m -1.2725,-26.27873 c -2.51198,-2.98504 -0.70698,-10.65612 4.0316,-17.13382 4.73859,-6.477717 10.61634,-9.309078 13.12832,-6.324036 2.512,2.985044 0.70698,10.656116 -4.0316,17.133826 -4.73858,6.47771 -10.61633,9.30908 -13.12832,6.32403 z M 155.74978,82.777985 c -2.59349,3.185276 -8.67143,0.177352 -13.57546,-6.718398 -4.90402,-6.895749 -6.77708,-15.068043 -4.18359,-18.253323 2.59349,-3.18528 8.67143,-0.17735 13.57546,6.718403 4.90402,6.895749 6.77708,15.068033 4.18359,18.253318 z m -52.81521,-3.150027 c 0.98168,4.174314 -4.155193,9.416437 -11.473523,11.7086 -7.31833,2.292163 -14.04682,0.766377 -15.0285,-3.407944 -0.98168,-4.17432 4.15519,-9.416443 11.47352,-11.708607 7.31833,-2.292163 14.046823,-0.76637 15.028503,3.407951 z"
       sodipodi:nodetypes="sssssssssssssssssssssssss" />
  </g>
  <g
     inkscape:groupmode="layer"
     id="layer1"
     inkscape:label="Layer"
     style="display:none">
    <path
       style="fill:none;stroke:#000000;stroke-width:2;stroke-linecap:butt;stroke-linejoin:miter;stroke-opacity:1;display:inline"
       d="m 0,0 0,250 250,0 0,-250 z"
       id="path3281"
       inkscape:connector-curvature="0" />
    <path
       inkscape:connector-curvature="0"
       id="path3147-3-9-6"
       style="fill:#ff00ff;stroke:#000000;stroke-width:2;stroke-linecap:butt;stroke-linejoin:miter;stroke-opacity:1;display:inline"
       d="m 352.06804,-9.324964 c 1.22531,-4.13649 0.95016,-7.72222 -3.98475,-9.50642 -18.84714,-9.03744 -28.04556,6.73609 -40.96202,12.948974 l 3.71754,11.06481 c 12.75312,-6.71152 16.73679,-25.504734 41.22923,-14.507364 z m 48.12194,4.185974 c -4.31196,0.13731 -7.62936,1.52585 -7.77159,6.77146 -0.19356,14.90606 13.67761,24.40261 25.17057,34.81386 l 9.33498,-7.00774 C 410.99279,20.98391 401.05088,9.90893 400.18998,-5.13899 z m 5.06325,-30.399714 c -1.99834,3.82342 -2.41828,7.39509 2.0811,10.0955 13.61849,-19.324461 28.14852,-12.214352 42.68817,-4.82525 l -1.51902,-11.573362 c -15.93447,-10.546663 -30.14093,-6.693202 -43.25025,6.303112 z m -22.8703,-16.652636 c 2.0534,3.794145 4.78029,6.138756 9.53441,3.917274 -5.47639,-20.337769 8.03089,-28.685851 19.85964,-38.09406 l -10.44568,-5.209402 c -9.95251,8.037788 -18.32559,18.286771 -18.94837,39.386188 z m -31.47324,14.152866 c 4.22507,-0.872205 7.25636,-2.807254 6.5,-8 2.92913,-25.375652 -18.32768,-22.534368 -30.75,-30 l -8,8.5 c 22.22325,0.733862 37.22611,7.194233 32.25,29.5 z" />
    <path
       inkscape:connector-curvature="0"
       id="path3149-7-0-7"
       style="color:#000000;fill:#ff6600;fill-opacity:1;fill-rule:evenodd;stroke:#2b1100;stroke-width:1.27292752;stroke-linecap:butt;stroke-linejoin:miter;stroke-miterlimit:4;stroke-opacity:1;stroke-dashoffset:0;marker:none;visibility:visible;display:inline;overflow:visible;enable-background:accumulate"
       d="m 311.09562,-14.969017 c 3.52877,1.156748 4.78565,8.20551 2.8073,15.74384696 C 311.92457,8.31317 307.46017,13.48648 303.93139,12.32973 c -3.52878,-1.15675 -4.78565,-8.20551 -2.8073,-15.74385 1.97834,-7.538342 6.44275,-12.711645 9.97153,-11.554897 z M 434.30717,31.95215 c 0.41574,4.26807 -5.52732,7.6493 -13.27418,7.55219 -7.74687,-0.0971 -14.36396,-3.63578 -14.77969,-7.90385 -0.41574,-4.26807 5.52732,-7.64929 13.27418,-7.55219 7.74687,0.0971 14.36396,3.63578 14.77969,7.90385 z m 7.21278,-55.623658 c -2.51198,-2.985042 -0.70698,-10.656119 4.0316,-17.133826 4.73859,-6.477713 10.61634,-9.309074 13.12832,-6.324032 2.512,2.985044 0.70698,10.656118 -4.0316,17.133825 -4.73858,6.477708 -10.61633,9.309075 -13.12832,6.324033 z m -26.63844,-55.592141 c -2.59349,3.185276 -8.67143,0.177352 -13.57546,-6.718398 -4.90402,-6.895749 -6.77708,-15.068043 -4.18359,-18.253323 2.59349,-3.18528 8.67143,-0.17735 13.57546,6.718403 4.90402,6.895749 6.77708,15.068033 4.18359,18.253318 z m -81.45304,1.446168 c 0.98168,4.174314 -4.15519,9.416437 -11.47352,11.7086 -7.31833,2.292163 -14.04682,0.766377 -15.0285,-3.407944 -0.98168,-4.17432 4.15519,-9.416443 11.47352,-11.708607 7.31833,-2.292163 14.04682,-0.76637 15.0285,3.407951 z" />
  </g>
</svg>
