<?xml version="1.0" encoding="UTF-8" standalone="no"?>
<svg
   xmlns:dc="http://purl.org/dc/elements/1.1/"
   xmlns:cc="http://creativecommons.org/ns#"
   xmlns:rdf="http://www.w3.org/1999/02/22-rdf-syntax-ns#"
   xmlns:svg="http://www.w3.org/2000/svg"
   xmlns="http://www.w3.org/2000/svg"
   xmlns:xlink="http://www.w3.org/1999/xlink"
   xmlns:sodipodi="http://sodipodi.sourceforge.net/DTD/sodipodi-0.dtd"
   xmlns:inkscape="http://www.inkscape.org/namespaces/inkscape"
   id="wugTree1"
   width="137.5px"
   height="148.5px"
   viewBox="0 0 250 270"
   version="1.1"
   inkscape:version="0.91 r13725"
   sodipodi:docname="treetest.svg">
  <metadata
     id="metadata160">
    <rdf:RDF>
      <cc:Work
         rdf:about="">
        <dc:format>image/svg+xml</dc:format>
        <dc:type
           rdf:resource="http://purl.org/dc/dcmitype/StillImage" />
        <dc:title />
      </cc:Work>
    </rdf:RDF>
  </metadata>
  <defs
     id="defs158">
    <inkscape:perspective
       sodipodi:type="inkscape:persp3d"
       inkscape:vp_x="0 : 135 : 1"
       inkscape:vp_y="0 : 1000 : 0"
       inkscape:vp_z="250 : 135 : 1"
       inkscape:persp3d-origin="125 : 90 : 1"
       id="perspective3424" />
    <defs
       id="defs4441">
      <linearGradient
         id="00-_13ff04-_0a8e02"
         x1="80.525803"
         y1="67.289993"
         x2="225.97935"
         y2="67.289993"
         gradientTransform="matrix(0.78793906,0,0,1.2691337,0,-10.909091)"
         gradientUnits="userSpaceOnUse">
        <stop
           offset="0%"
           stop-color="#13ff04"
           style="-webkit-tap-highlight-color: rgba(0, 0, 0, 0);"
           id="stop4444" />
        <stop
           offset="100%"
           stop-color="#0a8e02"
           style="-webkit-tap-highlight-color: rgba(0, 0, 0, 0);"
           id="stop4446" />
      </linearGradient>
    </defs>
    <defs
       id="defs4125">
      <linearGradient
         id="710-_27ff0b-_158906"
         x1="50.055428"
         y1="238.16666"
         x2="144.38617"
         y2="238.16666"
         gradientTransform="matrix(1.2314719,0,0,0.81203642,0,-10.909091)"
         gradientUnits="userSpaceOnUse">
        <stop
           offset="0%"
           stop-color="#27ff0b"
           style="-webkit-tap-highlight-color: rgba(0, 0, 0, 0);"
           id="stop4128" />
        <stop
           offset="100%"
           stop-color="#158906"
           style="-webkit-tap-highlight-color: rgba(0, 0, 0, 0);"
           id="stop4130" />
      </linearGradient>
    </defs>
    <defs
       id="defs3809">
      <linearGradient
         id="1420-_33ff22-_20a215"
         x1="223.49814"
         y1="39.125912"
         x2="308.07242"
         y2="39.125912"
         gradientTransform="scale(0.45814883,2.1826969)"
         gradientUnits="userSpaceOnUse">
        <stop
           offset="0%"
           stop-color="#33ff22"
           style="-webkit-tap-highlight-color: rgba(0, 0, 0, 0);"
           id="stop3812" />
        <stop
           offset="100%"
           stop-color="#20a215"
           style="-webkit-tap-highlight-color: rgba(0, 0, 0, 0);"
           id="stop3814" />
      </linearGradient>
    </defs>
    <defs
       id="defs7">
      <linearGradient
         gradientTransform="matrix(0.72894546,0,0,1.3718447,0,-10.909091)"
         y2="140.97804"
         x2="195.69746"
         y1="140.97804"
         x1="139.86024"
         id="2130-_0655ff-_0436a1"
         gradientUnits="userSpaceOnUse">
        <stop
           id="stop10"
           style="-webkit-tap-highlight-color: rgba(0, 0, 0, 0);"
           stop-color="#0655ff"
           offset="0%" />
        <stop
           id="stop12"
           style="-webkit-tap-highlight-color: rgba(0, 0, 0, 0);"
           stop-color="#0436a1"
           offset="100%" />
      </linearGradient>
    </defs>
    <linearGradient
       gradientTransform="matrix(0.72894547,0,0,1.3718447,0.02859581,0.06507533)"
       y2="140.97804"
       x2="195.69746"
       y1="140.97804"
       x1="139.86024"
       id="2130-_0655ff-_0436a1-6"
       gradientUnits="userSpaceOnUse">
      <stop
         id="stop10-9"
         style="-webkit-tap-highlight-color: rgba(0, 0, 0, 0);"
         stop-color="#0655ff"
         offset="0%" />
      <stop
         id="stop12-6"
         style="-webkit-tap-highlight-color: rgba(0, 0, 0, 0);"
         stop-color="#0436a1"
         offset="100%" />
    </linearGradient>
    <linearGradient
       inkscape:collect="always"
       xlink:href="#2130-_0655ff-_0436a1"
       id="linearGradient3518"
       gradientUnits="userSpaceOnUse"
       gradientTransform="matrix(0.69542097,0,0,2.9405955,3.5234523,-307.26588)"
       x1="139.86024"
       y1="140.97804"
       x2="195.69746"
       y2="140.97804" />
    <linearGradient
       inkscape:collect="always"
       xlink:href="#2130-_0655ff-_0436a1"
       id="linearGradient3524"
       gradientUnits="userSpaceOnUse"
       gradientTransform="matrix(0.72894546,0,0,1.3718447,1.1123358,-0.89806908)"
       x1="139.86024"
       y1="140.97804"
       x2="195.69746"
       y2="140.97804" />
    <linearGradient
       inkscape:collect="always"
       xlink:href="#2130-_0655ff-_0436a1"
       id="linearGradient3418"
       gradientUnits="userSpaceOnUse"
       gradientTransform="matrix(1.4105001,0,0,1.3633066,-128.06823,0.38796572)"
       x1="139.86024"
       y1="140.97804"
       x2="195.69746"
       y2="140.97804" />
    <linearGradient
       inkscape:collect="always"
       xlink:href="#2130-_0655ff-_0436a1"
       id="linearGradient3428"
       gradientUnits="userSpaceOnUse"
       gradientTransform="matrix(1.3904987,0,0,2.9276132,-124.47937,-305.31043)"
       x1="139.86024"
       y1="140.97804"
       x2="195.69746"
       y2="140.97804" />
  </defs>
  <sodipodi:namedview
     pagecolor="#ffffff"
     bordercolor="#666666"
     borderopacity="1"
     objecttolerance="10"
     gridtolerance="10"
     guidetolerance="10"
     inkscape:pageopacity="0"
     inkscape:pageshadow="2"
     inkscape:window-width="1436"
     inkscape:window-height="856"
     id="namedview156"
     showgrid="false"
     inkscape:zoom="3.269124"
     inkscape:cx="61.622018"
     inkscape:cy="82.420294"
     inkscape:window-x="8"
     inkscape:window-y="0"
     inkscape:window-maximized="0"
     inkscape:current-layer="g3420" />
  <g
     inkscape:groupmode="layer"
     id="layer1"
     inkscape:label="00"
     style="display:inline">
    <path
       id="trunk-00"
       style="opacity:1;fill:url(#linearGradient3524);fill-opacity:1;stroke:#000000;stroke-width:2"
       d="m 104.76234,268.10194 c 3.5,-6.3 6.3,-13.3 9.1,-20.3 2.8,-9.8 3.5,-20.3 2.8,-30.1 -0.7,-4.2 -2.1,-8.4 -4.2,-11.9 2.1,3.5 4.9,-2.1 4.2,-4.9 0.7,-2.1 0.7,-7 0.7,-8.4 0,4.2 0,8.4 1.4,11.9 3.5,1.4 5.6,-2.1 6.3,-4.2 0.7,-0.7 2.1,-5.6 1.4,-2.1 -1.4,6.3 -2.8,11.9 -2.8,18.2 0.7,3.5 5.6,0 5.6,0.7 -2.1,12.6 -3.5,26.6 1.4,39.2 2.1,4.9 5.6,9.1 9.8,11.9 -11.9,0 -23.8,0 -35.7,0 z"
       inkscape:connector-curvature="0" />
    <path
       id="branches-00"
       style="display:inline;fill:none;stroke:#000000;stroke-width:2"
       d="m 112.49093,205.86701 c -3,-3 -6,-7 -10,-8 -8.000002,-3 -17.000002,0 -22.000002,6 -4,6 -5,15 0,21 3,3 8,5 12,4 4,-1 7,-6 6,-10 0,-3 -3,-6 -6,-5 -2,0 -4,3 -3,5 0,1 3,2 3,0 m 24.900002,-26.3 c 0,-2 -1,-5 -2,-7 -4,-8 -10,-15 -18.000002,-17 -6,-2 -13,-1 -18,2 -4,2 -8,7 -8,12 0,5 5,10 10,9 4,0 8,-5 7,-9 0,-4 -5,-7 -9,-5 -3,1 -4,5 -2,8 2,2 5,2 6,-1 1,-2 -1,-4 -3,-4 -2,0 -2,4 0,3 m 37.000002,9 c -1,-15 1,-35 13,-44 4,-3 11,-6 17,-5 8,2 15,8 13,17 -1,7 -8,12 -15,11 -5,-1 -9,-6 -8,-11 1,-4 5,-7 9,-6 3,1 5,3 4,6 -1,2 -2,3 -4,3 -1,0 -2,-2 -1,-3 0,-1 1,-1 2,-1 m -20.9,38.6 c 5,-8 13,-16 23,-19 17,-6 37,2 44,18 4,8 3,19 -2,26 -3,5 -10,7 -16,4 -6,-2 -11,-9 -9,-15 1,-5 8,-9 13,-6 4,2 7,8 3,11 -3,3 -8,1 -8,-3 -1,-4 6,-3 4,0 m -49.2,2.9 c 22,-19 40,-3 40,20 -2,11 -11,20 -22,18 -8,-1 -15,-10 -13,-19 1,-7 8,-13 14,-11 5,1 9,6 8,12 -1,4 -5,7 -8,6 -2,-1 -4,-3 -3,-6 1,-1 2,-3 4,-2"
       inkscape:connector-curvature="0" />
    <path
       id="fruits-00"
       style="fill:#a4fb05;stroke:#000000;stroke-width:2"
       d="m 135.86234,149.50193 a 4.5,4.5 0 0 1 -4.5,4.5 4.5,4.5 0 0 1 -4.5,-4.5 4.5,4.5 0 0 1 4.5,-4.5 4.5,4.5 0 0 1 4.5,4.5 z m -58.556172,21.34252 a 4.5,4.5 0 0 1 -4.5,4.5 4.5,4.5 0 0 1 -4.5,-4.5 4.5,4.5 0 0 1 4.5,-4.5 4.5,4.5 0 0 1 4.5,4.5 z m 12.556168,-3.34252 a 4.5,4.5 0 0 1 -4.5,4.5 4.5,4.5 0 0 1 -4.5,-4.5 4.5,4.5 0 0 1 4.5,-4.5 4.5,4.5 0 0 1 4.5,4.5 z m 34.000004,-13 a 4.5,4.5 0 0 1 -4.5,4.5 4.5,4.5 0 0 1 -4.5,-4.5 4.5,4.5 0 0 1 4.5,-4.5 4.5,4.5 0 0 1 4.5,4.5 z m 40.80839,-0.0276 a 4.5,4.5 0 0 1 -4.5,4.5 4.5,4.5 0 0 1 -4.5,-4.5 4.5,4.5 0 0 1 4.5,-4.5 4.5,4.5 0 0 1 4.5,4.5 z m -14.22467,1.10684 a 4.5,4.5 0 0 1 -4.5,4.5 4.5,4.5 0 0 1 -4.5,-4.5 4.5,4.5 0 0 1 4.5,-4.5 4.5,4.5 0 0 1 4.5,4.5 z m 27.41628,21.48795 a 4.5,4.5 0 0 1 -4.5,4.5 4.5,4.5 0 0 1 -4.5,-4.5 4.5,4.5 0 0 1 4.5,-4.5 4.5,4.5 0 0 1 4.5,4.5 z M 164.75,178.17594 a 4.5,4.5 0 0 1 -4.5,4.5 4.5,4.5 0 0 1 -4.5,-4.5 4.5,4.5 0 0 1 4.5,-4.5 4.5,4.5 0 0 1 4.5,4.5 z m 6.96012,29.8302 a 4.5,4.5 0 0 1 -4.5,4.5 4.5,4.5 0 0 1 -4.5,-4.5 4.5,4.5 0 0 1 4.5,-4.5 4.5,4.5 0 0 1 4.5,4.5 z m 11.91522,-5.01102 a 4.5,4.5 0 0 1 -4.5,4.5 4.5,4.5 0 0 1 -4.5,-4.5 4.5,4.5 0 0 1 4.5,-4.5 4.5,4.5 0 0 1 4.5,4.5 z m -76.22468,19.35748 a 4.5,4.5 0 0 1 -4.5,4.5 4.5,4.5 0 0 1 -4.500003,-4.5 4.5,4.5 0 0 1 4.500003,-4.5 4.5,4.5 0 0 1 4.5,4.5 z m -9.775333,8.337 a 4.5,4.5 0 0 1 -4.5,4.5 4.5,4.5 0 0 1 -4.5,-4.5 4.5,4.5 0 0 1 4.5,-4.5 4.5,4.5 0 0 1 4.5,4.5 z m 61.137003,-8.68767 a 4.5,4.5 0 0 1 -4.5,4.5 4.5,4.5 0 0 1 -4.5,-4.5 4.5,4.5 0 0 1 4.5,-4.5 4.5,4.5 0 0 1 4.5,4.5 z m -12,5 a 4.5,4.5 0 0 1 -4.5,4.5 4.5,4.5 0 0 1 -4.5,-4.5 4.5,4.5 0 0 1 4.5,-4.5 4.5,4.5 0 0 1 4.5,4.5 z"
       inkscape:connector-curvature="0" />
  </g>
  <g
     style="display:inline"
     inkscape:label="10"
     id="g3410"
     inkscape:groupmode="layer">
    <path
       inkscape:connector-curvature="0"
       d="m 72.49321,267.71378 c 6.772456,-6.2608 12.190417,-13.21723 17.608379,-20.17367 5.417962,-9.739 6.772456,-20.17365 5.417962,-29.91266 -1.35448,-4.17386 -4.063468,-8.34772 -8.126936,-11.82594 4.063468,3.47822 9.48143,-2.08693 8.126936,-4.8695 1.354494,-2.08693 1.354494,-6.95643 1.354494,-8.34772 0,4.17386 0,8.34772 2.708987,11.82594 6.772458,1.39128 10.835928,-2.08693 12.190418,-4.17386 1.35449,-0.69564 4.06347,-5.56514 2.70899,-2.08693 -2.70899,6.26079 -5.41798,11.82594 -5.41798,18.08672 1.3545,3.47822 10.83594,0 10.83594,0.69565 -4.06348,12.52158 -6.77246,26.43445 2.70897,38.95602 4.06348,4.86951 10.83594,9.04337 18.96289,11.82595 -23.02635,0 -46.052709,0 -69.07905,0 z"
       style="opacity:1;fill:url(#linearGradient3418);fill-opacity:1;stroke:#000000;stroke-width:2.77340531"
       id="trunk-10"
       inkscape:label="#truck-10" />
    <path
       inkscape:connector-curvature="0"
       d="m 87.447933,205.86618 c -5.804968,-2.98132 -11.609922,-6.95644 -19.349879,-7.95021 -15.479901,-2.98133 -32.894782,0 -42.569717,5.96266 -7.739949,5.96266 -9.674937,14.90664 0,20.8693 5.80496,2.98133 15.479897,4.96888 23.219852,3.97511 7.739943,-0.99378 13.544911,-5.96267 11.609921,-9.93777 0,-2.98133 -5.804967,-5.96266 -11.609921,-4.96888 -3.86998,0 -7.739955,2.98133 -5.804968,4.96888 0,0.99377 5.804968,1.98755 5.804968,0 m 48.181173,-26.13631 c 0,-1.98755 -1.934975,-4.96888 -3.869964,-6.95644 -7.739957,-7.95021 -19.349879,-14.90664 -34.82978,-16.89419 -11.609922,-1.98755 -25.154832,-0.99377 -34.829768,1.98755 -7.739949,1.98755 -15.479898,6.95643 -15.479898,11.92531 0,4.96889 9.674937,9.93777 19.349872,8.94399 7.739949,0 15.479898,-4.96888 13.544911,-8.94399 0,-3.9751 -9.674936,-6.95643 -17.414885,-4.96888 -5.804961,0.99378 -7.739949,4.96888 -3.869975,7.95021 3.869975,1.98756 9.674937,1.98756 11.609924,-0.99378 1.934987,-1.98755 -1.934987,-3.9751 -5.804961,-3.9751 -3.869975,0 -3.869975,3.9751 0,2.98133 m 71.594524,8.94399 c -1.934975,-14.90665 1.93499,-34.78217 25.154848,-43.72615 7.73994,-2.98133 21.28485,-5.96267 32.89478,-4.96888 15.4799,1.98755 29.02481,7.9502 25.15483,16.89419 -1.93499,6.95644 -15.4799,11.92531 -29.02481,10.93154 -9.67494,-0.99378 -17.41488,-5.96266 -15.47989,-10.93154 1.93498,-3.97511 9.67493,-6.95643 17.41488,-5.96266 5.80496,0.99378 9.67493,2.98133 7.73995,5.96266 -1.93499,1.98755 -3.86997,2.98132 -7.73995,2.98132 -1.93499,0 -3.86998,-1.98755 -1.93499,-2.98132 0,-0.99378 1.93499,-0.99378 3.86998,-0.99378 m -40.44123,38.35977 c 9.67493,-7.95022 25.15483,-15.90042 44.50469,-18.88175 32.89479,-5.96267 71.59454,1.98755 85.13945,17.88797 7.73994,7.95021 5.80495,18.88174 -3.86998,25.83818 -5.80495,4.96888 -19.34986,6.95643 -30.95979,3.9751 -11.60993,-1.98755 -21.28486,-8.94399 -17.41489,-14.90664 1.93499,-4.96888 15.4799,-8.94398 25.15484,-5.96266 7.73994,1.98756 13.54491,7.95021 5.80496,10.93154 -5.80496,2.98133 -15.4799,0.99377 -15.4799,-2.98133 -1.93498,-3.9751 11.60993,-2.98133 7.73995,0 m -95.20137,2.88195 c 42.56972,-18.88175 77.39949,-2.98133 77.39949,19.87553 -3.86998,10.93154 -21.28486,19.87552 -42.56973,17.88797 -15.47988,-0.99378 -29.0248,-9.93776 -25.15483,-18.88175 1.93499,-6.95643 15.4799,-12.91909 27.08982,-10.93153 9.67493,0.99377 17.41489,5.96265 15.4799,11.92531 -1.93499,3.9751 -9.67493,6.95644 -15.4799,5.96266 -3.86996,-0.99379 -7.73994,-2.98134 -5.80495,-5.96266 1.93499,-0.99378 3.86996,-2.98133 7.73994,-1.98756"
       style="display:inline;fill:none;stroke:#000000;stroke-width:2.77340531"
       id="branches-10" />
    <path
       inkscape:connector-curvature="0"
       d="m 132.67131,149.85191 a 8.7074425,4.4719929 0 0 1 -8.70744,4.47199 8.7074425,4.4719929 0 0 1 -8.70745,-4.47199 8.7074425,4.4719929 0 0 1 8.70745,-4.472 8.7074425,4.4719929 0 0 1 8.70744,4.472 z M 19.365866,171.06159 a 8.7074425,4.4719929 0 0 1 -8.707442,4.472 8.7074425,4.4719929 0 0 1 -8.7074436,-4.472 8.7074425,4.4719929 0 0 1 8.7074436,-4.47198 8.7074425,4.4719929 0 0 1 8.707442,4.47198 z m 24.296024,-3.32172 a 8.7074425,4.4719929 0 0 1 -8.707442,4.472 8.7074425,4.4719929 0 0 1 -8.707442,-4.472 8.7074425,4.4719929 0 0 1 8.707442,-4.47198 8.7074425,4.4719929 0 0 1 8.707442,4.47198 z m 65.78958,-12.91908 a 8.7074425,4.4719929 0 0 1 -8.70745,4.47198 8.7074425,4.4719929 0 0 1 -8.707442,-4.47198 8.7074425,4.4719929 0 0 1 8.707442,-4.472 8.7074425,4.4719929 0 0 1 8.70745,4.472 z m 78.96371,-0.0274 a 8.7074425,4.4719929 0 0 1 -8.70744,4.47199 8.7074425,4.4719929 0 0 1 -8.70745,-4.47199 8.7074425,4.4719929 0 0 1 8.70745,-4.47199 8.7074425,4.4719929 0 0 1 8.70744,4.47199 z m -27.52456,1.09995 a 8.7074425,4.4719929 0 0 1 -8.70744,4.47199 8.7074425,4.4719929 0 0 1 -8.70745,-4.47199 8.7074425,4.4719929 0 0 1 8.70745,-4.47199 8.7074425,4.4719929 0 0 1 8.70744,4.47199 z m 53.05016,21.35421 a 8.7074425,4.4719929 0 0 1 -8.70745,4.472 8.7074425,4.4719929 0 0 1 -8.70744,-4.472 8.7074425,4.4719929 0 0 1 8.70744,-4.47199 8.7074425,4.4719929 0 0 1 8.70745,4.47199 z m -25.37221,1.09994 a 8.7074425,4.4719929 0 0 1 -8.70744,4.47199 8.7074425,4.4719929 0 0 1 -8.70745,-4.47199 8.7074425,4.4719929 0 0 1 8.70745,-4.472 8.7074425,4.4719929 0 0 1 8.70744,4.472 z m 13.46773,29.64453 a 8.7074425,4.4719929 0 0 1 -8.70743,4.472 8.7074425,4.4719929 0 0 1 -8.70744,-4.472 8.7074425,4.4719929 0 0 1 8.70744,-4.47198 8.7074425,4.4719929 0 0 1 8.70743,4.47198 z m 23.05581,-4.97982 a 8.7074425,4.4719929 0 0 1 -8.70745,4.47198 8.7074425,4.4719929 0 0 1 -8.70744,-4.47198 8.7074425,4.4719929 0 0 1 8.70744,-4.472 8.7074425,4.4719929 0 0 1 8.70745,4.472 z M 77.598324,222.24918 a 8.7074425,4.4719929 0 0 1 -8.707445,4.472 8.7074425,4.4719929 0 0 1 -8.707445,-4.472 8.7074425,4.4719929 0 0 1 8.707445,-4.47198 8.7074425,4.4719929 0 0 1 8.707445,4.47198 z m -18.915143,8.28512 a 8.7074425,4.4719929 0 0 1 -8.707445,4.47199 8.7074425,4.4719929 0 0 1 -8.707442,-4.47199 8.7074425,4.4719929 0 0 1 8.707442,-4.47199 8.7074425,4.4719929 0 0 1 8.707445,4.47199 z m 118.299309,-8.6336 a 8.7074425,4.4719929 0 0 1 -8.70743,4.47199 8.7074425,4.4719929 0 0 1 -8.70744,-4.47199 8.7074425,4.4719929 0 0 1 8.70744,-4.47199 8.7074425,4.4719929 0 0 1 8.70743,4.47199 z m -23.21984,4.96889 a 8.7074425,4.4719929 0 0 1 -8.70745,4.47198 8.7074425,4.4719929 0 0 1 -8.70743,-4.47198 8.7074425,4.4719929 0 0 1 8.70743,-4.472 8.7074425,4.4719929 0 0 1 8.70745,4.472 z"
       style="fill:#a4fb05;stroke:#000000;stroke-width:2.77340531"
       id="fruits-10" />
  </g>
  <g
     style="display:inline"
     inkscape:label="01"
     id="g3510"
     inkscape:groupmode="layer">
    <path
       inkscape:connector-curvature="0"
       d="m 102.40654,269.34473 c 3.33904,-13.50425 6.01027,-28.50899 8.68149,-43.51374 2.67123,-21.00662 3.33904,-43.51372 2.67123,-64.52036 -0.66781,-9.00284 -2.00342,-18.00568 -4.00684,-25.50805 2.00342,7.50237 4.67465,-4.50143 4.00684,-10.50333 0.66781,-4.50141 0.66781,-15.00472 0.66781,-18.00568 0,9.00285 0,18.00568 1.3356,25.50806 3.33904,3.00095 5.34246,-4.50142 6.01028,-9.00285 0.66779,-1.50047 2.0034,-12.00378 1.3356,-4.50141 -1.3356,13.50426 -2.67123,25.50805 -2.67123,39.01231 0.66781,7.50238 5.34246,0 5.34246,1.50047 -2.00343,27.00853 -3.33904,57.01801 1.33561,84.02653 2.00342,10.50332 5.34246,19.50616 9.34929,25.50805 -11.35271,0 -22.70542,0 -34.05814,0 z"
       style="opacity:1;fill:url(#linearGradient3518);fill-opacity:1;stroke:#000000;stroke-width:2.86003613"
       id="trunk-01" />
    <path
       inkscape:connector-curvature="0"
       d="m 109.77969,135.94206 c -2.86202,-6.43061 -5.72405,-15.00473 -9.54009,-17.14828 -7.632077,-6.4306 -16.218164,0 -20.988212,12.8612 -3.816038,12.86121 -4.770048,32.15301 0,45.01422 2.862029,6.43059 7.632078,10.71768 11.448116,8.57412 3.816038,-2.14353 6.678066,-12.86118 5.724057,-21.43533 0,-6.4306 -2.862029,-12.86119 -5.724057,-10.71766 -1.90802,0 -3.816038,6.4306 -2.862029,10.71766 0,2.14354 2.862029,4.28708 2.862029,0 m 23.754826,-56.37494 c 0,-4.28706 -0.954,-10.71766 -1.90801,-15.004736 -3.81603,-17.148267 -9.54009,-32.153003 -17.17217,-36.440071 -5.724057,-4.287068 -12.402125,-2.143534 -17.172172,4.287068 -3.816038,4.287067 -7.632076,15.004736 -7.632076,25.722406 0,10.717673 4.770047,21.435333 9.540096,19.291803 3.816038,0 7.632076,-10.717662 6.678066,-19.291803 0,-8.574135 -4.770048,-15.004737 -8.586086,-10.71767 -2.862029,2.143535 -3.816038,10.71767 -1.908018,17.148267 1.908018,4.287076 4.770047,4.287076 5.724056,-2.143533 0.954009,-4.287064 -0.954009,-8.574132 -2.862029,-8.574132 -1.908019,0 -1.908019,8.574132 0,6.430602 m 35.298343,19.291799 c -0.954,-32.153003 0.95402,-75.023679 12.40214,-94.315484 3.81603,-6.4306013 10.4941,-12.86120297 16.21816,-10.7176691 7.63207,4.2870678 14.31014,17.1482711 12.40212,36.4400761 -0.954,15.004736 -7.63207,25.722405 -14.31014,23.578871 -4.77006,-2.143533 -8.58608,-12.861203 -7.63208,-23.578871 0.95401,-8.574136 4.77006,-15.004738 8.58608,-12.861203 2.86203,2.143534 4.77005,6.430601 3.81605,12.861203 -0.95402,4.287067 -1.90802,6.430601 -3.81605,6.430601 -0.954,0 -1.90801,-4.287068 -0.954,-6.430601 0,-2.143534 0.954,-2.143534 1.90802,-2.143534 m -19.9388,82.740411 c 4.77005,-17.14828 12.40212,-34.296546 21.94222,-40.727148 16.21816,-12.861203 35.29836,4.287068 41.97641,38.583608 3.81605,17.14827 2.86204,40.72715 -1.90801,55.73189 -2.86203,10.71766 -9.5401,15.00473 -15.26416,8.57412 -5.72405,-4.28706 -10.4941,-19.2918 -8.58608,-32.153 0.954,-10.71767 7.63208,-19.2918 12.40213,-12.8612 3.81603,4.28706 6.67807,17.14827 2.86202,23.57887 -2.86202,6.43059 -7.63207,2.14353 -7.63207,-6.4306 -0.95402,-8.57414 5.72406,-6.4306 3.81603,0 m -46.93727,6.21624 c 20.98821,-40.72714 38.16039,-6.4306 38.16039,42.87068 -1.90803,23.57888 -10.4941,42.87068 -20.98821,38.5836 -7.63208,-2.14353 -14.31014,-21.43533 -12.40213,-40.72714 0.95401,-15.00473 7.63208,-27.86594 13.35614,-23.57886 4.77004,2.14353 8.58608,12.8612 7.63207,25.7224 -0.954,8.57414 -4.77005,15.00474 -7.63207,12.86121 -1.90802,-2.14354 -3.81605,-6.4306 -2.86204,-12.86121 0.95402,-2.14354 1.90803,-6.4306 3.81605,-4.28707"
       style="display:inline;fill:none;stroke:#000000;stroke-width:2.86003613"
       id="branches-01" />
    <path
       inkscape:connector-curvature="0"
       d="m 132.07624,15.121598 a 4.2930431,9.6459024 0 0 1 -4.29304,9.645903 4.2930431,9.6459024 0 0 1 -4.29304,-9.645903 4.2930431,9.6459024 0 0 1 4.29304,-9.6459011 4.2930431,9.6459024 0 0 1 4.29304,9.6459011 z M 76.213097,60.870012 a 4.2930431,9.6459024 0 0 1 -4.293043,9.645903 4.2930431,9.6459024 0 0 1 -4.293043,-9.645903 4.2930431,9.6459024 0 0 1 4.293043,-9.645901 4.2930431,9.6459024 0 0 1 4.293043,9.645901 z m 11.978704,-7.164804 a 4.2930431,9.6459024 0 0 1 -4.293043,9.645903 4.2930431,9.6459024 0 0 1 -4.293042,-9.645903 4.2930431,9.6459024 0 0 1 4.293042,-9.645903 4.2930431,9.6459024 0 0 1 4.293043,9.645903 z m 32.436319,-27.86594 a 4.2930431,9.6459024 0 0 1 -4.29304,9.645902 4.2930431,9.6459024 0 0 1 -4.29304,-9.645902 4.2930431,9.6459024 0 0 1 4.29304,-9.645903 4.2930431,9.6459024 0 0 1 4.29304,9.645903 z m 38.93161,-0.05917 a 4.2930431,9.6459024 0 0 1 -4.29305,9.645904 4.2930431,9.6459024 0 0 1 -4.29305,-9.645904 4.2930431,9.6459024 0 0 1 4.29305,-9.645902 4.2930431,9.6459024 0 0 1 4.29305,9.645902 z m -13.57049,2.372549 a 4.2930431,9.6459024 0 0 1 -4.29304,9.645903 4.2930431,9.6459024 0 0 1 -4.29304,-9.645903 4.2930431,9.6459024 0 0 1 4.29304,-9.645901 4.2930431,9.6459024 0 0 1 4.29304,9.645901 z m 26.1554,46.060149 a 4.2930431,9.6459024 0 0 1 -4.29304,9.645902 4.2930431,9.6459024 0 0 1 -4.29305,-9.645902 4.2930431,9.6459024 0 0 1 4.29305,-9.645903 4.2930431,9.6459024 0 0 1 4.29304,9.645903 z m -12.5093,2.372505 a 4.2930431,9.6459024 0 0 1 -4.29304,9.645904 4.2930431,9.6459024 0 0 1 -4.29304,-9.645904 4.2930431,9.6459024 0 0 1 4.29304,-9.645901 4.2930431,9.6459024 0 0 1 4.29304,9.645901 z m 6.64002,63.942039 a 4.2930431,9.6459024 0 0 1 -4.29304,9.64591 4.2930431,9.6459024 0 0 1 -4.29304,-9.64591 4.2930431,9.6459024 0 0 1 4.29304,-9.6459 4.2930431,9.6459024 0 0 1 4.29304,9.6459 z m 11.36725,-10.74129 a 4.2930431,9.6459024 0 0 1 -4.29305,9.6459 4.2930431,9.6459024 0 0 1 -4.29304,-9.6459 4.2930431,9.6459024 0 0 1 4.29304,-9.6459 4.2930431,9.6459024 0 0 1 4.29305,9.6459 z m -72.71908,41.49342 a 4.2930431,9.6459024 0 0 1 -4.29304,9.6459 4.2930431,9.6459024 0 0 1 -4.293048,-9.6459 4.2930431,9.6459024 0 0 1 4.293048,-9.64591 4.2930431,9.6459024 0 0 1 4.29304,9.64591 z m -9.32576,17.87064 a 4.2930431,9.6459024 0 0 1 -4.293044,9.6459 4.2930431,9.6459024 0 0 1 -4.293043,-9.6459 4.2930431,9.6459024 0 0 1 4.293043,-9.6459 4.2930431,9.6459024 0 0 1 4.293044,9.6459 z m 58.32528,-18.62232 a 4.2930431,9.6459024 0 0 1 -4.29305,9.64591 4.2930431,9.6459024 0 0 1 -4.29304,-9.64591 4.2930431,9.6459024 0 0 1 4.29304,-9.6459 4.2930431,9.6459024 0 0 1 4.29305,9.6459 z m -11.44811,10.71768 a 4.2930431,9.6459024 0 0 1 -4.29304,9.6459 4.2930431,9.6459024 0 0 1 -4.29304,-9.6459 4.2930431,9.6459024 0 0 1 4.29304,-9.64591 4.2930431,9.6459024 0 0 1 4.29304,9.64591 z"
       style="fill:#a4fb05;stroke:#000000;stroke-width:2.86003613"
       id="fruits-01" />
  </g>
  <g
     inkscape:groupmode="layer"
     id="g3420"
     inkscape:label="11"
     style="display:inline">
    <path
       id="trunk-11"
       style="opacity:1;fill:url(#linearGradient3428);fill-opacity:1;stroke:#000000;stroke-width:4.03526545"
       d="m 73.237998,268.75455 c 6.676431,-13.44464 12.017568,-28.38313 17.358692,-43.32164 5.341137,-20.91388 6.676431,-43.32162 5.341137,-64.23551 -1.335281,-8.9631 -4.005843,-17.9262 -8.011699,-25.39544 4.005856,7.46924 9.346993,-4.48156 8.011699,-10.45696 1.335294,-4.48154 1.335294,-14.93847 1.335294,-17.92619 0,8.96311 0,17.92619 2.670549,25.39545 6.67643,2.9877 10.68227,-4.48155 12.01758,-8.96311 1.33526,-1.49384 4.00582,-11.95078 2.67055,-4.48154 -2.67055,13.44465 -5.34115,25.39545 -5.34115,38.84008 1.33529,7.46926 10.68229,0 10.68229,1.49385 -4.00587,26.88929 -6.67643,56.76628 2.67056,83.65556 4.00585,10.45696 10.68229,19.42004 18.69396,25.39545 -22.69982,0 -45.399633,0 -68.099462,0 z"
       inkscape:connector-curvature="0" />
    <path
       id="branches-11"
       style="display:inline;fill:none;stroke:#000000;stroke-width:4.03526545"
       d="m 87.980656,135.94082 c -5.72263,-6.40222 -11.445274,-14.93848 -19.075466,-17.07257 -15.260397,-6.40221 -32.428328,0 -41.966069,12.80441 -7.630193,12.80444 -9.537741,32.01107 0,44.81549 5.722646,6.40221 15.260388,10.67037 22.890576,8.53628 7.630192,-2.13407 13.352836,-12.8044 11.445288,-21.3407 0,-6.40221 -5.722644,-12.80441 -11.445288,-10.67035 -3.815093,0 -7.630188,6.40221 -5.72264,10.67035 0,2.13407 5.72264,4.26815 5.72264,0 m 47.497925,-56.12606 c 0,-4.26813 -1.907521,-10.670339 -3.815068,-14.938487 C 85.882375,75.546622 74.437074,60.608129 59.17669,56.339989 47.731402,52.071847 34.378558,54.205918 24.840818,60.608129 17.210627,64.87627 9.5804347,75.546622 9.5804347,86.216975 c 0,10.670356 9.5377383,21.340695 19.0754823,19.206635 7.630192,0 15.260385,-10.670348 13.352836,-19.206635 0,-8.536282 -9.537741,-14.938493 -17.167935,-10.670353 -5.722645,2.134071 -7.630191,10.670353 -3.815093,17.072561 3.815093,4.268148 9.537739,4.268148 11.445287,-2.13407 1.907546,-4.268138 -1.907548,-8.536279 -5.722646,-8.536279 -3.815095,0 -3.815095,8.536279 0,6.402212 M 97.327622,107.55767 C 95.420101,75.546622 99.235197,32.865213 122.12579,13.658578 129.75596,7.2563669 143.1088,0.85415526 154.5541,2.9882258 c 15.26037,4.2681411 28.61322,17.0725652 24.79813,36.2791982 -1.90754,14.938494 -15.26039,25.608846 -28.61322,23.474775 -9.53777,-2.13407 -17.16792,-12.804423 -15.2604,-23.474775 1.90755,-8.536282 9.53777,-14.938494 17.16792,-12.804422 5.72265,2.134071 9.53775,6.402211 7.63022,12.804422 -1.90757,4.268141 -3.8151,6.402212 -7.63022,6.402212 -1.90752,0 -3.81507,-4.268142 -1.90752,-6.402212 0,-2.134069 1.90752,-2.134069 3.81509,-2.134069 m -39.86776,82.375125 c 9.53775,-17.07258 24.79813,-34.145132 43.87362,-40.547344 32.42831,-12.804423 70.57929,4.268141 83.9321,38.413264 7.63021,17.07257 5.72267,40.54735 -3.81509,55.48585 -5.72264,10.67034 -19.07549,14.93848 -30.52078,8.53626 -11.44527,-4.26814 -20.98303,-19.20663 -17.16792,-32.01104 1.90752,-10.67036 15.26039,-19.20664 24.79814,-12.80443 7.63017,4.26814 13.35284,17.07256 5.72262,23.47477 -5.72262,6.40221 -15.26037,2.13407 -15.26037,-6.40221 -1.90756,-8.53628 11.4453,-6.40221 7.63018,0 m -93.85138,6.1888 c 41.96606,-40.54734 76.30195,-6.40221 76.30195,42.68142 -3.81512,23.47478 -20.98303,42.68141 -41.96605,38.41326 -15.2604,-2.13407 -28.61322,-21.3407 -24.79816,-40.54734 1.90757,-14.93849 15.2604,-27.74291 26.7057,-23.47477 9.53773,2.13407 17.16792,12.80443 15.26037,25.60885 -1.90753,8.53628 -9.53775,14.9385 -15.26037,12.80442 -3.81511,-2.13407 -7.63022,-6.40221 -5.72267,-12.80442 1.90756,-2.13408 3.81513,-6.40221 7.63022,-4.26815"
       inkscape:connector-curvature="0" />
    <path
       id="fruits-11"
       style="fill:#a4fb05;stroke:#000000;stroke-width:4.03526545"
       d="m 132.56275,15.653763 a 8.5839671,9.6033174 0 0 1 -8.58396,9.603318 8.5839671,9.6033174 0 0 1 -8.58396,-9.603318 8.5839671,9.6033174 0 0 1 8.58396,-9.6033164 8.5839671,9.6033174 0 0 1 8.58396,9.6033164 z M 20.864038,61.200205 a 8.5839671,9.6033174 0 0 1 -8.583966,9.603318 8.5839671,9.6033174 0 0 1 -8.583967,-9.603318 8.5839671,9.6033174 0 0 1 8.583967,-9.603316 8.5839671,9.6033174 0 0 1 8.583966,9.603316 z m 23.951497,-7.133173 a 8.5839671,9.6033174 0 0 1 -8.583968,9.603318 8.5839671,9.6033174 0 0 1 -8.583966,-9.603318 8.5839671,9.6033174 0 0 1 8.583966,-9.603317 8.5839671,9.6033174 0 0 1 8.583968,9.603317 z M 109.67216,26.324116 a 8.5839671,9.6033174 0 0 1 -8.58396,9.603316 8.5839671,9.6033174 0 0 1 -8.583962,-9.603316 8.5839671,9.6033174 0 0 1 8.583962,-9.603318 8.5839671,9.6033174 0 0 1 8.58396,9.603318 z m 77.844,-0.05891 a 8.5839671,9.6033174 0 0 1 -8.58398,9.603319 8.5839671,9.6033174 0 0 1 -8.58398,-9.603319 8.5839671,9.6033174 0 0 1 8.58398,-9.603316 8.5839671,9.6033174 0 0 1 8.58398,9.603316 z m -27.13428,2.362074 a 8.5839671,9.6033174 0 0 1 -8.58396,9.603318 8.5839671,9.6033174 0 0 1 -8.58396,-9.603318 8.5839671,9.6033174 0 0 1 8.58396,-9.603316 8.5839671,9.6033174 0 0 1 8.58396,9.603316 z m 52.29789,45.856801 a 8.5839671,9.6033174 0 0 1 -8.58396,9.603317 8.5839671,9.6033174 0 0 1 -8.58398,-9.603317 8.5839671,9.6033174 0 0 1 8.58398,-9.603318 8.5839671,9.6033174 0 0 1 8.58396,9.603318 z m -25.01242,2.362031 a 8.5839671,9.6033174 0 0 1 -8.58397,9.603319 8.5839671,9.6033174 0 0 1 -8.58395,-9.603319 8.5839671,9.6033174 0 0 1 8.58395,-9.603316 8.5839671,9.6033174 0 0 1 8.58397,9.603316 z m 13.27676,63.659748 a 8.5839671,9.6033174 0 0 1 -8.58395,9.60332 8.5839671,9.6033174 0 0 1 -8.58397,-9.60332 8.5839671,9.6033174 0 0 1 8.58397,-9.60333 8.5839671,9.6033174 0 0 1 8.58395,9.60333 z M 223.673,129.81199 a 8.5839671,9.6033174 0 0 1 -8.58398,9.60331 8.5839671,9.6033174 0 0 1 -8.58397,-9.60331 8.5839671,9.6033174 0 0 1 8.58397,-9.60331 8.5839671,9.6033174 0 0 1 8.58398,9.60331 z M 78.270735,171.12222 a 8.5839671,9.6033174 0 0 1 -8.583966,9.60332 8.5839671,9.6033174 0 0 1 -8.58398,-9.60332 8.5839671,9.6033174 0 0 1 8.58398,-9.60332 8.5839671,9.6033174 0 0 1 8.583966,9.60332 z m -18.646917,17.79175 a 8.5839671,9.6033174 0 0 1 -8.583966,9.60331 8.5839671,9.6033174 0 0 1 -8.583971,-9.60331 8.5839671,9.6033174 0 0 1 8.583971,-9.60332 8.5839671,9.6033174 0 0 1 8.583966,9.60332 z M 176.24559,170.37386 a 8.5839671,9.6033174 0 0 1 -8.58398,9.60333 8.5839671,9.6033174 0 0 1 -8.58397,-9.60333 8.5839671,9.6033174 0 0 1 8.58397,-9.60332 8.5839671,9.6033174 0 0 1 8.58398,9.60332 z m -22.89058,10.67036 a 8.5839671,9.6033174 0 0 1 -8.58395,9.60332 8.5839671,9.6033174 0 0 1 -8.58397,-9.60332 8.5839671,9.6033174 0 0 1 8.58397,-9.60332 8.5839671,9.6033174 0 0 1 8.58395,9.60332 z"
       inkscape:connector-curvature="0" />
  </g>
</svg>
