<?xml version="1.0" encoding="UTF-8" standalone="no"?>
<svg
   xmlns:dc="http://purl.org/dc/elements/1.1/"
   xmlns:cc="http://creativecommons.org/ns#"
   xmlns:rdf="http://www.w3.org/1999/02/22-rdf-syntax-ns#"
   xmlns:svg="http://www.w3.org/2000/svg"
   xmlns="http://www.w3.org/2000/svg"
   xmlns:sodipodi="http://sodipodi.sourceforge.net/DTD/sodipodi-0.dtd"
   xmlns:inkscape="http://www.inkscape.org/namespaces/inkscape"
   id="wugTree1"
   width="137.5px"
   height="148.5px"
   viewBox="0 0 250 270"
   version="1.1"
   inkscape:version="0.91 r13725"
   sodipodi:docname="tree.svg">
  <metadata
     id="metadata160">
    <rdf:RDF>
      <cc:Work
         rdf:about="">
        <dc:format>image/svg+xml</dc:format>
        <dc:type
           rdf:resource="http://purl.org/dc/dcmitype/StillImage" />
        <dc:title />
      </cc:Work>
    </rdf:RDF>
  </metadata>
  <defs
     id="defs158">
    <defs
       id="defs4441">
      <linearGradient
         id="00-_13ff04-_0a8e02"
         x1="80.525803"
         y1="67.289993"
         x2="225.97935"
         y2="67.289993"
         gradientTransform="scale(0.78793906,1.2691337)"
         gradientUnits="userSpaceOnUse">
        <stop
           offset="0%"
           stop-color="#13ff04"
           style="-webkit-tap-highlight-color: rgba(0, 0, 0, 0);"
           id="stop4444" />
        <stop
           offset="100%"
           stop-color="#0a8e02"
           style="-webkit-tap-highlight-color: rgba(0, 0, 0, 0);"
           id="stop4446" />
      </linearGradient>
    </defs>
    <defs
       id="defs4125">
      <linearGradient
         id="710-_27ff0b-_158906"
         x1="50.055428"
         y1="238.16666"
         x2="144.38617"
         y2="238.16666"
         gradientTransform="scale(1.2314719,0.81203642)"
         gradientUnits="userSpaceOnUse">
        <stop
           offset="0%"
           stop-color="#27ff0b"
           style="-webkit-tap-highlight-color: rgba(0, 0, 0, 0);"
           id="stop4128" />
        <stop
           offset="100%"
           stop-color="#158906"
           style="-webkit-tap-highlight-color: rgba(0, 0, 0, 0);"
           id="stop4130" />
      </linearGradient>
    </defs>
    <defs
       id="defs3809">
      <linearGradient
         id="1420-_33ff22-_20a215"
         x1="223.49814"
         y1="39.125912"
         x2="308.07242"
         y2="39.125912"
         gradientTransform="scale(0.45814883,2.1826969)"
         gradientUnits="userSpaceOnUse">
        <stop
           offset="0%"
           stop-color="#33ff22"
           style="-webkit-tap-highlight-color: rgba(0, 0, 0, 0);"
           id="stop3812" />
        <stop
           offset="100%"
           stop-color="#20a215"
           style="-webkit-tap-highlight-color: rgba(0, 0, 0, 0);"
           id="stop3814" />
      </linearGradient>
    </defs>
    <defs
       id="defs7">
      <linearGradient
         gradientTransform="scale(0.72894546,1.3718447)"
         y2="140.97804"
         x2="195.69746"
         y1="140.97804"
         x1="139.86024"
         id="2130-_0655ff-_0436a1"
         gradientUnits="userSpaceOnUse">
        <stop
           id="stop10"
           style="-webkit-tap-highlight-color: rgba(0, 0, 0, 0);"
           stop-color="#0655ff"
           offset="0%" />
        <stop
           id="stop12"
           style="-webkit-tap-highlight-color: rgba(0, 0, 0, 0);"
           stop-color="#0436a1"
           offset="100%" />
      </linearGradient>
    </defs>
    <linearGradient
       gradientTransform="matrix(0.72894547,0,0,1.3718447,0.02859581,0.06507533)"
       y2="140.97804"
       x2="195.69746"
       y1="140.97804"
       x1="139.86024"
       id="2130-_0655ff-_0436a1-6"
       gradientUnits="userSpaceOnUse">
      <stop
         id="stop10-9"
         style="-webkit-tap-highlight-color: rgba(0, 0, 0, 0);"
         stop-color="#0655ff"
         offset="0%" />
      <stop
         id="stop12-6"
         style="-webkit-tap-highlight-color: rgba(0, 0, 0, 0);"
         stop-color="#0436a1"
         offset="100%" />
    </linearGradient>
  </defs>
  <sodipodi:namedview
     pagecolor="#ffffff"
     bordercolor="#666666"
     borderopacity="1"
     objecttolerance="10"
     gridtolerance="10"
     guidetolerance="10"
     inkscape:pageopacity="0"
     inkscape:pageshadow="2"
     inkscape:window-width="1436"
     inkscape:window-height="856"
     id="namedview156"
     showgrid="false"
     inkscape:zoom="3.269124"
     inkscape:cx="81.876906"
     inkscape:cy="57.948906"
     inkscape:window-x="11"
     inkscape:window-y="23"
     inkscape:window-maximized="0"
     inkscape:current-layer="layer1" />
  <g
     inkscape:groupmode="layer"
     id="layer1"
     inkscape:label="00"
     style="display:inline">
    <path
       id="trunk-00"
       style="opacity:1;fill:url(#2130-_0655ff-_0436a1);fill-opacity:1;stroke:#000000;stroke-width:2"
       d="m 103.65,269 c 3.5,-6.3 6.3,-13.3 9.1,-20.3 2.8,-9.8 3.5,-20.3 2.8,-30.1 -0.7,-4.2 -2.1,-8.4 -4.2,-11.9 2.1,3.5 4.9,-2.1 4.2,-4.9 0.7,-2.1 0.7,-7 0.7,-8.4 0,4.2 0,8.4 1.4,11.9 3.5,1.4 5.6,-2.1 6.3,-4.2 0.7,-0.7 2.1,-5.6 1.4,-2.1 -1.4,6.3 -2.8,11.9 -2.8,18.2 0.7,3.5 5.6,0 5.6,0.7 -2.1,12.6 -3.5,26.6 1.4,39.2 2.1,4.9 5.6,9.1 9.8,11.9 -11.9,0 -23.8,0 -35.7,0 z"
       inkscape:connector-curvature="0" />
    <path
       id="leaves-00"
       style="fill:#df22e4;stroke:#000000;stroke-width:1.99996805"
       d="m 197.43892,231.70136 c -5.40618,-7.14803 -12.67274,-8.70983 -12.67274,-8.70983 -4.49317,1.2424 -7.46054,1.8307 -11.07624,6.22431 -1.37635,4.2583 0.83133,8.28878 5.49512,10.53431 4.56336,0.17507 14.10186,-2.68394 18.25386,-8.04879 z M 149.59321,180.133 c -7.59177,4.76342 -9.78037,11.86658 -9.78037,11.86658 0.8465,4.58439 1.17422,7.59179 5.23644,11.57639 4.12239,1.74193 8.32989,-0.1065 10.97302,-4.55718 0.57173,-4.5309 -1.44599,-14.28234 -6.42909,-18.88579 z M 23.3538,245.6092 c 2.826996,-8.50465 9.2083,-12.31531 9.2083,-12.31531 12.626605,-2.55856 19.18588,5.46918 10.662921,14.08198 -4.265942,1.62994 -14.217449,1.98242 -19.871221,-1.76667 z m 4.46136,-40.34848 c 8.778505,-1.8048 15.269518,1.81567 15.269518,1.81567 8.529814,9.65486 4.858075,19.34944 -6.862454,16.27576 -3.544743,-2.87912 -8.826412,-11.32061 -8.407064,-18.09143 z m 75.00034,-36.89063 c 5.95229,6.70028 6.06227,14.13209 6.06227,14.13209 -4.09676,12.21472 -14.32868,13.88207 -17.526951,2.19459 0.721113,-4.5095 5.391088,-13.30446 11.464681,-16.32668 z m 120.6537,29.78501 c -7.52516,-4.86746 -14.88755,-3.84933 -14.88755,-3.84933 -3.7971,2.70443 -6.38419,4.2723 -8.2788,9.63766 0.16333,4.4722 3.61653,7.50432 8.76708,8.01901 4.34793,-1.3965 12.33294,-7.34588 14.39927,-13.80734 z m -11.7987,-26.21679 c -8.95617,0.32907 -14.40315,5.38601 -14.40315,5.38601 -1.55921,4.3933 -2.77915,7.16153 -1.25366,12.64333 2.69896,3.56974 7.26684,4.07284 11.78117,1.5402 2.76063,-3.63784 5.88917,-13.09138 3.87564,-19.56954 z M 188.35,155 c -7.97815,4.08324 -10.77777,10.96844 -10.77777,10.96844 0.44351,4.6407 0.50774,7.66519 4.207,11.9888 3.95476,2.09474 8.30737,0.62026 11.3285,-3.58295 C 194.07237,169.91054 192.91266,160.02039 188.35,155 Z m -0.9822,-10.444 c -7.52516,-4.86746 -14.88755,-3.84933 -14.88755,-3.84933 -3.7971,2.70443 -6.38419,4.2723 -8.2788,9.63766 0.16333,4.4722 3.61654,7.50432 8.76708,8.01901 4.34793,-1.3965 12.33294,-7.34588 14.39927,-13.80734 z m -25.22954,-26.98738 c -8.56573,2.63617 -12.51807,8.9307 -12.51807,8.9307 -0.36886,4.64715 -0.83065,7.63682 2.0618,12.5369 3.531,2.74945 8.07342,2.053 11.77831,-1.56186 1.72488,-4.22844 2.29973,-14.16958 -1.32204,-19.90574 z M 140.25,119.4 c -7.97815,4.08324 -10.77777,10.96844 -10.77777,10.96844 0.44351,4.6407 0.50774,7.66519 4.207,11.9888 3.95476,2.09474 8.30737,0.62026 11.3285,-3.58295 0.96464,-4.46375 -0.19507,-14.3539 -4.75773,-19.37429 z m -52,6 c 7.88487,4.26057 10.52989,11.20663 10.52989,11.20663 0.32771,12.87926 -8.71699,17.94538 -15.71952,8.05647 C 82.19575,140.1789 83.57625,130.31715 88.25,125.4 Z m -29.377775,0.82938 c 8.866527,1.30703 13.727605,6.92965 13.727605,6.92965 4.712656,11.99056 -2.054035,19.84448 -12.01632,12.94674 -2.34608,-3.9181 -4.421543,-13.65732 -1.711285,-19.87639 z"
       inkscape:connector-curvature="0" />
    <path
       id="branches-00"
       style="display:inline;fill:none;stroke:#000000;stroke-width:2"
       d="m 128.17859,217.96507 c 22,-19 40,-3 40,20 -2,11 -11,20 -22,18 -8,-1 -15,-10 -13,-19 1,-7 8,-13 14,-11 5,1 9,6 8,12 -1,4 -5,7 -8,6 -2,-1 -4,-3 -3,-6 1,-1 2,-3 4,-2 m -22.8,-36.9 c 2,-5 6,-8 10,-11 6,-4 12,-8 20,-10 2,0 4,1 6,1 6,1 11,5 13,10 1,4 0,10 -4,12 -3,2 -8,0 -9,-3 -1,-3 0,-7 3,-8 3,-1 5,2 4,4 0,2 -5,2 -4,0 0,-1 2,-1 1,0 m -40,5 c 5,-8 13,-16 23,-19 17,-6 37,2 44,18 4,8 3,19 -2,26 -3,5 -10,7 -16,4 -6,-2 -11,-9 -9,-15 1,-5 8,-9 13,-6 4,2 7,8 3,11 -3,3 -8,1 -8,-3 -1,-4 6,-3 4,0 m -61.1,-21.6 c -1,-15 1,-35 13,-44 4,-3 11,-6 17,-5 8,2 15,8 13,17 -1,7 -8,12 -15,11 -5,-1 -9,-6 -8,-11 1,-4 5,-7 9,-6 3,1 5,3 4,6 -1,2 -2,3 -4,3 -1,0 -2,-2 -1,-3 0,-1 1,-1 2,-1 m -30,33 c 2,-24 -15,-45 -10,-53 1,-2 4,-3 8,-3 4,0 7,5 6,9 -1,3 -4,5 -7,4 -2,-1 -4,-3 -3,-5 0,-2 2,-3 4,-2 1,0 2,2 1,3 0,1 -1,1 -2,1 0,0 -1,-1 0,-1 0,0 0,0 1,0 m 2,47 c 1,-12 -2,-24 -10,-33 -8.999998,-9 -22.999998,-12 -34.999998,-9 -5,1 -9.999998,4 -14.999998,7 -3,4 -4,10 0,14 5,5 14.999998,3 17.999998,-4 1,-3 -1,-7 -5,-8 -3,0 -7,2 -6,6 0,4 7,2 5,-1 0,-1 -3,0 -1,1 m 48.999998,27 c 0,-2 -1,-5 -2,-7 -4,-8 -10,-15 -17.999998,-17 -6,-2 -13,-1 -18,2 -4,2 -8,7 -8,12 0,5 5,10 10,9 4,0 8,-5 7,-9 0,-4 -5,-7 -9,-5 -3,1 -4,5 -2,8 2,2 5,2 6,-1 1,-2 -1,-4 -3,-4 -2,0 -2,4 0,3 m 32.099998,22.3 c -3,-3 -6,-7 -10,-8 -7.999998,-3 -16.999998,0 -21.999998,6 -4,6 -5,15 0,21 3,3 8,5 12,4 4,-1 7,-6 6,-10 0,-3 -3,-6 -6,-5 -2,0 -4,3 -3,5 0,1 3,2 3,0 m 19.999998,-13 c -11,-12 -26.999998,-14 -39.999998,-8 -5,2 -9.999998,6 -12.999998,11 -7,11 -9,24 -8,37 1,9 8,17 16.999998,17 8,0 16,-7 16,-15 1,-7 -5,-15 -13,-15 -7,0 -11.999998,6 -10.999998,13 1,5 5.999998,9 10.999998,8 4,-1 7,-7 4,-11 -2,-4 -9,-2 -8,2 0,3 6,3 4,0 m 40.999998,-39 c -9,-12 -31.999998,-13 -43.999998,-6 -4,3 -10.999998,0 -15.999998,-2 -3,-2 -6,-5 -7,-9 0,-4 2,-8 6,-9 2,-1 5,0 7,2 2,2 2,6 0,8 -1,2 -4,2 -6,0 -1,-1 -1,-4 0,-5 1,-1 3,0 3,1 1,1 -2,2 -1,1 m 59.399996,61 c 0,-3 0,-6 -1,-9 -1,-5 -4,-9 -8,-12 -4.000005,-2 -8.999998,-2 -11.999998,1 -3,2 -4,7 -2,10 1,3 4,4 7,3 2.999993,-1 4.999998,-5 2.999993,-7 -0.999993,-2 -2.999993,-2 -4.999993,-1 -1,1 -1,3 1,4 1,1 2,-3 0,-2"
       inkscape:connector-curvature="0" />
    <path
       id="stems-00"
       style="fill:none;stroke:#000000;stroke-width:2"
       d="m 181.15,244.9 c -0.3,-7 -6,-7 -11,-8 2,4 4,8 -1,13 m -122.8,1.8 c 0.3,-7 6,-7 11,-8 -2,4 -4,8 1,13 m 93.8,-37.8 c -0.3,-7 -6,-7 -11,-8 2,4 4,8 -1,13 m -33.8,-0.2 c -0.3,-7 -6,-7 -11,-8 2,4 4,8 -1,13 m -32,-23 c 0.3,-7 6,-7 11,-8 -2,4 -4,8 1,13 m 118,-19.7 c -0.3,-7 -6,-7 -11,-8 2,4 4,8 -1,13 m -9.1,-32.6 c -0.3,-7 -6,-7 -11,-8 2,4 4,8 -1,13 m -29,8 c -0.3,-7 -6,-7 -11,-8 2,4 4,8 -1,13 m 11,-35 c -0.3,-7 -6,-7 -11,-8 2,4 4,8 -1,13 m -44,8 c 0.3,-7 6,-7 11,-8 -2,4 -4,8 1,13 m -44,8 c 0.3,-7 6,-7 11,-8 -2,4 -4,8 1,13 m 113.89372,49.48776 c 5.02406,3.64821 14.23814,6.21635 20.20464,5.09086 M 142.16001,209.8948 c 4.07189,-4.68746 7.4326,-13.64318 6.83085,-19.68516 M 50.3506,231.7116 c -4.428754,5.51787 -11.066522,10.20803 -17.503101,11.30421 M 53.35036,221.68952 c -6.993016,-1.07588 -14.373906,-4.47862 -18.5419,-9.50437 m 66.54633,-13.48576 c -2.564724,-6.59428 -3.308193,-14.68792 -1.0396,-20.8105 m 93.04001,26.10621 c 5.9689,1.70951 15.50556,0.97081 20.72708,-2.12775 m -23.73018,-7.87234 c 5.87001,-2.02329 13.25834,-8.09845 15.75831,-13.63162 M 178.35,184 c 4.46508,-4.3145 8.59388,-12.94298 8.52128,-19.01436 M 157.2538,150.396 c 5.9689,1.70951 15.50556,0.97081 20.72708,-2.12775 m -30.72502,-3.87643 c 5.14621,-3.47378 10.71015,-11.25435 11.69265,-17.24605 M 130.25,148.4 c 4.46508,-4.3145 8.59388,-12.94298 8.52128,-19.01436 M 97.25,154.4 c -4.66532,-5.31951 -8.13198,-12.67083 -8.09411,-19.20008 m -11.908365,15.20276 c -6.203274,-3.4032 -11.975045,-9.12564 -14.172463,-15.27413"
       inkscape:connector-curvature="0" />
    <path
       id="fruits-00"
       style="fill:#a4fb05;stroke:#000000;stroke-width:2"
       d="m 174.64999,253.89999 a 4.5,4.5 0 0 1 -4.5,4.5 4.5,4.5 0 0 1 -4.5,-4.5 4.5,4.5 0 0 1 4.5,-4.5 4.5,4.5 0 0 1 4.5,4.5 z m 12,-5 a 4.5,4.5 0 0 1 -4.5,4.5 4.5,4.5 0 0 1 -4.5,-4.5 4.5,4.5 0 0 1 4.5,-4.5 4.5,4.5 0 0 1 4.5,4.5 z M 61.849998,260.70001 a 4.5,4.5 0 0 1 -4.5,4.5 4.5,4.5 0 0 1 -4.5,-4.5 4.5,4.5 0 0 1 4.5,-4.5 4.5,4.5 0 0 1 4.5,4.5 z m -12,-5.00001 a 4.5,4.5 0 0 1 -4.5,4.5 4.5,4.5 0 0 1 -4.5,-4.5 4.5,4.5 0 0 1 4.5,-4.5 4.5,4.5 0 0 1 4.5,4.5 z m 95.799992,-27.80001 a 4.5,4.5 0 0 1 -4.5,4.5 4.5,4.5 0 0 1 -4.5,-4.5 4.5,4.5 0 0 1 4.5,-4.5 4.5,4.5 0 0 1 4.5,4.5 z m 12,-5 a 4.5,4.5 0 0 1 -4.5,4.5 4.5,4.5 0 0 1 -4.5,-4.5 4.5,4.5 0 0 1 4.5,-4.5 4.5,4.5 0 0 1 4.5,4.5 z M 99.849998,232.7 a 4.5,4.5 0 0 1 -4.5,4.5 4.5,4.5 0 0 1 -4.5,-4.5 4.5,4.5 0 0 1 4.5,-4.5 4.5,4.5 0 0 1 4.5,4.5 z m 12.000002,-5 a 4.5,4.5 0 0 1 -4.5,4.5 4.5,4.5 0 0 1 -4.5,-4.5 4.5,4.5 0 0 1 4.5,-4.5 4.5,4.5 0 0 1 4.5,4.5 z m -34.000002,-13 a 4.5,4.5 0 0 1 -4.5,4.5 4.5,4.5 0 0 1 -4.5,-4.5 4.5,4.5 0 0 1 4.5,-4.5 4.5,4.5 0 0 1 4.5,4.5 z m -12,-5 a 4.5,4.5 0 0 1 -4.5,4.5 4.5,4.5 0 0 1 -4.5,-4.5 4.5,4.5 0 0 1 4.5,-4.5 4.5,4.5 0 0 1 4.5,4.5 z M 185.85001,200 a 4.5,4.5 0 0 1 -4.5,4.5 4.5,4.5 0 0 1 -4.5,-4.5 4.5,4.5 0 0 1 4.5,-4.5 4.5,4.5 0 0 1 4.5,4.5 z m 12,-5 a 4.5,4.5 0 0 1 -4.5,4.5 4.5,4.5 0 0 1 -4.5,-4.5 4.5,4.5 0 0 1 4.5,-4.5 4.5,4.5 0 0 1 4.5,4.5 z M 164.75,172.39999 a 4.5,4.5 0 0 1 -4.5,4.5 4.5,4.5 0 0 1 -4.5,-4.5 4.5,4.5 0 0 1 4.5,-4.5 4.5,4.5 0 0 1 4.5,4.5 z m 12,-5 a 4.5,4.5 0 0 1 -4.5,4.5 4.5,4.5 0 0 1 -4.5,-4.5 4.5,4.5 0 0 1 4.5,-4.5 4.5,4.5 0 0 1 4.5,4.5 z m -53,18 a 4.5,4.5 0 0 1 -4.5,4.5 4.5,4.5 0 0 1 -4.5,-4.5 4.5,4.5 0 0 1 4.5,-4.5 4.5,4.5 0 0 1 4.5,4.5 z m 12,-5 a 4.5,4.5 0 0 1 -4.5,4.5 4.5,4.5 0 0 1 -4.5,-4.5 4.5,4.5 0 0 1 4.5,-4.5 4.5,4.5 0 0 1 4.5,4.5 z m -13,-25 a 4.5,4.5 0 0 1 -4.5,4.5 4.5,4.5 0 0 1 -4.5,-4.5 4.5,4.5 0 0 1 4.5,-4.5 4.5,4.5 0 0 1 4.5,4.5 z m -34,13 a 4.5,4.5 0 0 1 -4.5,4.5 4.5,4.5 0 0 1 -4.5,-4.5 4.5,4.5 0 0 1 4.5,-4.5 4.5,4.5 0 0 1 4.5,4.5 z m -12,-5 a 4.5,4.5 0 0 1 -4.5,4.5 4.5,4.5 0 0 1 -4.5,-4.5 4.5,4.5 0 0 1 4.5,-4.5 4.5,4.5 0 0 1 4.5,4.5 z m -20,18 a 4.5,4.5 0 0 1 -4.5,4.5 4.5,4.5 0 0 1 -4.5,-4.5 4.5,4.5 0 0 1 4.5,-4.5 4.5,4.5 0 0 1 4.5,4.5 z m -12,-5 a 4.5,4.5 0 0 1 -4.5,4.5 4.5,4.5 0 0 1 -4.5,-4.5 4.5,4.5 0 0 1 4.5,-4.5 4.5,4.5 0 0 1 4.5,4.5 z m 90,-26 a 4.5,4.5 0 0 1 -4.5,4.5 4.5,4.5 0 0 1 -4.5,-4.5 4.5,4.5 0 0 1 4.5,-4.5 4.5,4.5 0 0 1 4.5,4.5 z"
       inkscape:connector-curvature="0" />
  </g>
  <g
     inkscape:groupmode="layer"
     id="layer7"
     inkscape:label="01"
     style="display:none">
    <path
       id="branches-01"
       style="display:inline;fill:none;stroke:#000000;stroke-width:2"
       d="m 128.2111,145.00624 c 22,-19 40,-3 40,20 -2,11 -11,20 -22,18 -8,-1 -15,-10 -13,-19 1,-7 8,-13 14,-11 5,1 9,6 8,12 -1,4 -5,7 -8,6 -2,-1 -4,-3 -3,-6 1,-1 2,-3 4,-2 m -22.8,-63.900012 c 2,-5 6,-8 10,-11 6,-4 12,-8 20,-10.000002 2,0 4,1 6,1 6,1.000002 11,5.000002 13,10.000002 1,4 0,10 -4,12.000002 -3,2 -8,0 -9,-3.000002 -1,-3 0,-7 3,-8 3,-1 5,2 4,4 0,2 -5,2 -4,0 0,-1 2,-1 1,0 m -40,5 c 5,-8 13,-16 23,-19 17,-6.000004 37,2 44,18 4,8.000002 3,19.000012 -2,26.000012 -3,5 -10,7 -16,4 -6,-2 -11,-9 -9,-15 1,-5.00001 8,-9.00001 13,-6.00001 4,2.00001 7,8.00001 3,11.00001 -3,3 -8,1 -8,-3 -1,-4 6,-3 4,0 M 116.31111,85.506228 c -1,-15.000004 1,-35.000004 12.99999,-44.000004 4,-3 11,-6 17,-5 8,2 15,8 13,17 -1,7 -8,12 -15,11 -5,-1 -9,-6 -8,-11 1,-4 5,-7 9,-6 3,1 5,3 4,6 -1,2 -2,3 -4,3 -1,0 -2,-2 -1,-3 0,-1 1,-1 2,-1 m -29.99999,33.000004 c 2,-24.000004 -15,-45.000004 -10,-53.000004 1,-2 4,-3 8,-3 4,0 7,5 6,9 -1,3 -4,5 -7,4 -2,-1 -4,-3 -3,-5 0,-2 2,-3 4,-2 1,0 2,2 1,3 0,1 -1,1 -2,1 0,0 -1,-1 0,-1 0,0 0,0 1,0 m 2,47.000004 c 1,-12.000004 -2,-24.000004 -10,-33.000004 -8.999994,-9 -22.999998,-12 -34.999998,-9 -5,1 -10,4 -15,7 -3,4 -4,10 0,14 5,5 15,3 18,-4 1,-3 -1,-7 -5,-8 -3,0 -7,2 -6,6 0,4 7,2 5,-1 0,-1 -3,0 -1,1 m 48.999998,27.000004 c 0,-2 -1,-5 -2,-7.000002 -4,-8.000002 -10,-15.000002 -17.999998,-17.000002 -6,-2 -13,-1 -18,2 -4,2 -8,7 -8,12 0,5.000004 5,10.000004 10,9.000004 4,0 8,-5 7,-9.000004 0,-4 -5,-7 -9,-5 -3,1 -4,5 -2,8.000002 2,2.000002 5,2.000002 6,-1.000002 1,-2 -1,-4 -3,-4 -2,0 -2,4 0,3 m 32.099998,41.300016 c -3,-3 -6,-7 -10,-8 -7.999998,-3.00001 -16.999998,0 -21.999998,6 -4,6 -5,15 0,21 3,3 8,5 12,4 4,-1 7.000004,-6 6.000004,-10 0,-3 -3.000004,-6 -6.000004,-5 -2,0 -4,3 -3,5 0,1 3,2 3,0 m 19.999998,-13 c -11,-12.00001 -26.999998,-14.00001 -39.999998,-8 -5,2 -10,6 -13,11 -7,11 -9,24 -8,37 1,9 8,17 17,17 8,0 16,-7 16,-15 1,-7 -5,-15 -13,-15 -7,0 -12,6 -11,13 1,5 6,9 11,8 4,-1 7,-7 4,-11 -2,-4 -9,-2 -8,2 0,3 6,3 4,0 m 40.999998,-39 c -9,-12.00001 -31.999998,-13.00001 -43.999998,-6 -4,3 -11,0 -16,-2 -3,-2.00001 -6,-5.00001 -7,-9.00001 0,-4.000002 2,-8.000002 6,-9.000002 2,-1 5,0 7,2 2,2 2,6.000004 0,8.000002 -1,2 -4,2 -6,0 -1,-1 -1,-4.000002 0,-5.000002 1,-1 3,0 3,1 1,1 -2,2.000004 -1,1 M 112.81111,219.80623 c 0,-3 0,-6 -1,-9 -1,-5 -4,-9 -8,-12 -3.999994,-2 -8.999998,-2 -11.999998,1 -3,2 -4,7 -2,10 1,3 4,4 7.000004,3 3,-1 4.999994,-5 3,-7 -1,-2 -3,-2 -5.000004,-1 -1,1 -1,3 1,4 1.000004,1 2.000004,-3 0,-2"
       inkscape:connector-curvature="0" />
    <path
       d="m 103.71111,269.10623 c 3.5,-15.3 6.3,-32.3 9.1,-49.3 2.8,-23.8 3.5,-49.29999 2.8,-73.09999 -0.7,-10.2 -2.1,-20.4 -4.2,-28.9 2.1,8.5 4.9,-5.1 4.2,-11.90001 0.7,-5.1 0.7,-17.000002 0.7,-20.400002 0,10.2 0,20.400002 1.4,28.900012 3.5,3.4 5.59999,-5.1 6.29999,-10.20001 0.7,-1.7 2.1,-13.600002 1.4,-5.100002 -1.4,15.300012 -2.8,28.900012 -2.8,44.200012 0.7,8.5 5.6,0 5.6,1.7 -2.1,30.6 -3.5,64.59999 1.4,95.19999 2.1,11.9 5.6,22.1 9.8,28.9 -11.9,0 -23.79999,0 -35.69999,0 z"
       style="display:inline;opacity:1;fill:none;fill-opacity:1;stroke:#000000;stroke-width:2"
       id="trunk-01"
       inkscape:connector-curvature="0"
       inkscape:label="#trunk-01" />
    <path
       id="leaves-01"
       style="display:inline;fill:none;stroke:#000000;stroke-width:1.99996817"
       d="m 197.49942,158.8111 c -5.40618,-7.14803 -12.67274,-8.70983 -12.67274,-8.70983 -4.49317,1.2424 -7.46054,1.8307 -11.07624,6.22431 -1.37635,4.2583 0.83133,8.28878 5.49512,10.53431 4.56336,0.17507 14.10186,-2.68394 18.25386,-8.04879 z m -47.84831,-51.57227 c -7.59177,4.76343 -9.78037,11.86659 -9.78037,11.86659 0.8465,4.58439 1.17422,7.59179 5.23644,11.57639 4.12239,1.74193 8.32989,-0.10651 10.97302,-4.55718 0.57173,-4.5309 -1.44599,-14.28234 -6.42909,-18.8858 z M 23.415612,156.71114 c 2.82699,-8.50465 9.2083,-12.31531 9.2083,-12.31531 12.6266,-2.55856 19.18588,5.46918 10.66292,14.08198 -4.26594,1.62994 -14.21745,1.98242 -19.87122,-1.76667 z m 4.45956,-40.34028 c 8.7785,-1.8048 15.26951,1.81567 15.26951,1.81567 8.52982,9.65486 4.85808,19.34944 -6.86245,16.27576 -3.54474,-2.87912 -8.82641,-11.32061 -8.40706,-18.09143 z M 102.8748,79.475718 c 5.9523,6.70029 6.06228,14.13209 6.06228,14.13209 -4.09676,12.214722 -14.328678,13.882072 -17.526948,2.19459 0.72111,-4.5095 5.391084,-13.30446 11.464668,-16.32668 z m 120.6529,18.78561 c -7.52516,-4.86746 -14.88755,-3.84933 -14.88755,-3.84933 -3.7971,2.70443 -6.38419,4.2723 -8.2788,9.637662 0.16333,4.47221 3.61653,7.50433 8.76708,8.01902 4.34792,-1.3965 12.33294,-7.34589 14.39927,-13.807352 z M 211.72972,72.045334 c -8.95619,0.32908 -14.40317,5.38602 -14.40317,5.38602 -1.55921,4.393284 -2.77915,7.161524 -1.25366,12.643324 2.69896,3.56975 7.26684,4.07284 11.78117,1.5402 2.76064,-3.63784 5.88917,-13.091381 3.87566,-19.569544 z M 188.4111,55.106224 c -7.97815,4.08324 -10.77777,10.96844 -10.77777,10.96844 0.44351,4.6407 0.50774,7.66519 4.207,11.988802 3.95476,2.094742 8.30737,0.62026 11.3285,-3.582952 0.96464,-4.46375 -0.19507,-14.3539 -4.75773,-19.37429 z m -0.9849,-18.444 c -7.52516,-4.86745 -14.88755,-3.84933 -14.88755,-3.84933 -3.7971,2.70444 -6.38419,4.2723 -8.2788,9.63767 0.16333,4.47219 3.61653,7.50431 8.76708,8.019 4.34793,-1.3965 12.33294,-7.34588 14.39927,-13.80734 z M 162.19416,9.6756441 c -8.56573,2.6361699 -12.51807,8.9306999 -12.51807,8.9306999 -0.36886,4.64716 -0.83065,7.63683 2.0618,12.53691 3.531,2.74944 8.07342,2.05299 11.77831,-1.56186 1.72488,-4.22844 2.29973,-14.16959 -1.32204,-19.9057499 z M 140.3111,11.506224 c -7.97815,4.08324 -10.77777,10.96844 -10.77777,10.96844 0.44351,4.6407 0.50774,7.66519 4.207,11.9888 3.95476,2.09474 8.30737,0.62026 11.3285,-3.58295 0.96464,-4.46375 -0.19507,-14.3539 -4.75773,-19.37429 z m -51.999988,6 c 7.88487,4.26057 10.529894,11.20663 10.529894,11.20663 0.32771,12.87926 -8.716994,17.94538 -15.719524,8.05647 -0.86462,-4.4842 0.51588,-14.34595 5.18963,-19.2631 z m -29.37558,0.82858 c 8.86653,1.30704 13.72761,6.92965 13.72761,6.92965 4.71265,11.99057 -2.05404,19.84449 -12.01632,12.94674 -2.34608,-3.9181 -4.42155,-13.65732 -1.71129,-19.87639 z"
       inkscape:connector-curvature="0" />
    <path
       id="fruits-01"
       style="display:inline;fill:none;stroke:#000000;stroke-width:2"
       d="m 174.71109,181.00621 a 4.5,4.5 0 0 1 -4.5,4.5 4.5,4.5 0 0 1 -4.5,-4.5 4.5,4.5 0 0 1 4.5,-4.5 4.5,4.5 0 0 1 4.5,4.5 z m 12,-5 a 4.5,4.5 0 0 1 -4.5,4.5 4.5,4.5 0 0 1 -4.5,-4.5 4.5,4.5 0 0 1 4.5,-4.5 4.5,4.5 0 0 1 4.5,4.5 z m -124.799988,-4.2 a 4.5,4.5 0 0 1 -4.5,4.5 4.5,4.5 0 0 1 -4.5,-4.5 4.5,4.5 0 0 1 4.5,-4.5 4.5,4.5 0 0 1 4.5,4.5 z m -12,-5 a 4.5,4.5 0 0 1 -4.5,4.5 4.5,4.5 0 0 1 -4.5,-4.5 4.5,4.5 0 0 1 4.5,-4.5 4.5,4.5 0 0 1 4.5,4.5 z m 95.799988,-11.79998 a 4.5,4.5 0 0 1 -4.5,4.5 4.5,4.5 0 0 1 -4.5,-4.5 4.5,4.5 0 0 1 4.5,-4.5 4.5,4.5 0 0 1 4.5,4.5 z m 12,-5 a 4.5,4.5 0 0 1 -4.5,4.5 4.5,4.5 0 0 1 -4.5,-4.5 4.5,4.5 0 0 1 4.5,-4.5 4.5,4.5 0 0 1 4.5,4.5 z m -57.799988,-6.20002 a 4.5,4.5 0 0 1 -4.5,4.5 4.5,4.5 0 0 1 -4.5,-4.5 4.5,4.5 0 0 1 4.5,-4.5 4.5,4.5 0 0 1 4.5,4.5 z m 11.999998,-5 a 4.5,4.5 0 0 1 -4.5,4.5 4.5,4.5 0 0 1 -4.5,-4.5 4.5,4.5 0 0 1 4.5,-4.5 4.5,4.5 0 0 1 4.5,4.5 z M 77.911102,125.80622 a 4.5,4.5 0 0 1 -4.5,4.5 4.5,4.5 0 0 1 -4.5,-4.5 4.5,4.5 0 0 1 4.5,-4.5 4.5,4.5 0 0 1 4.5,4.5 z m -12.000004,-5 a 4.5,4.5 0 0 1 -4.5,4.5 4.5,4.5 0 0 1 -4.5,-4.5 4.5,4.5 0 0 1 4.5,-4.5 4.5,4.5 0 0 1 4.5,4.5 z m 120.000002,-20.7 a 4.5,4.5 0 0 1 -4.5,4.5 4.5,4.5 0 0 1 -4.5,-4.5 4.5,4.5 0 0 1 4.5,-4.500004 4.5,4.5 0 0 1 4.5,4.500004 z m 12,-4.999996 a 4.5,4.5 0 0 1 -4.5,4.5 4.5,4.5 0 0 1 -4.5,-4.5 4.5,4.5 0 0 1 4.5,-4.5 4.5,4.5 0 0 1 4.5,4.5 z m -33.1,-30.599998 a 4.5,4.5 0 0 1 -4.5,4.5 4.5,4.5 0 0 1 -4.5,-4.5 4.5,4.5 0 0 1 4.5,-4.5 4.5,4.5 0 0 1 4.5,4.5 z m 12,-5.000004 a 4.5,4.5 0 0 1 -4.5,4.5 4.5,4.5 0 0 1 -4.5,-4.5 4.5,4.5 0 0 1 4.5,-4.5 4.5,4.5 0 0 1 4.5,4.5 z m -53,18.000004 a 4.5,4.5 0 0 1 -4.5,4.5 4.5,4.5 0 0 1 -4.5,-4.5 4.5,4.5 0 0 1 4.5,-4.5 4.5,4.5 0 0 1 4.5,4.5 z m 12,-5 a 4.5,4.5 0 0 1 -4.5,4.5 4.5,4.5 0 0 1 -4.5,-4.5 4.5,4.5 0 0 1 4.5,-4.5 4.5,4.5 0 0 1 4.5,4.5 z m -13,-25.000004 a 4.5,4.5 0 0 1 -4.5,4.5 4.5,4.5 0 0 1 -4.5,-4.5 4.5,4.5 0 0 1 4.5,-4.5 4.5,4.5 0 0 1 4.5,4.5 z m 12,-4.999996 a 4.5,4.5 0 0 1 -4.5,4.5 4.5,4.5 0 0 1 -4.5,-4.5 4.5,4.5 0 0 1 4.5,-4.5 4.5,4.5 0 0 1 4.5,4.5 z M 88.811096,60.506222 a 4.5,4.5 0 0 1 -4.5,4.5 4.5,4.5 0 0 1 -4.5,-4.5 4.5,4.5 0 0 1 4.5,-4.5 4.5,4.5 0 0 1 4.5,4.5 z m -12,-5 a 4.5,4.5 0 0 1 -4.5,4.5 4.5,4.5 0 0 1 -4.5,-4.5 4.5,4.5 0 0 1 4.5,-4.5 4.5,4.5 0 0 1 4.5,4.5 z m -20,18.000004 a 4.5,4.5 0 0 1 -4.5,4.5 4.5,4.5 0 0 1 -4.5,-4.5 4.5,4.5 0 0 1 4.5,-4.5 4.5,4.5 0 0 1 4.5,4.5 z m -12,-5 a 4.5,4.5 0 0 1 -4.5,4.5 4.5,4.5 0 0 1 -4.5,-4.5 4.5,4.5 0 0 1 4.5,-4.5 4.5,4.5 0 0 1 4.5,4.5 z"
       inkscape:connector-curvature="0" />
    <path
       id="stems-01"
       style="display:inline;fill:none;stroke:#000000;stroke-width:2"
       d="m 181.2111,172.00624 c -0.3,-7 -6,-7 -11,-8 2,4 4,8 -1,13 m -122.799988,-14.2 c 0.3,-7 6,-7 11,-8 -2,4 -4,8 1,13 m 93.799988,-21.8 c -0.3,-7 -6,-7 -11,-8 2,4 4,8 -1,13 m -33.79999,-16.2 c -0.3,-7 -6,-7 -10.999998,-8 2.000004,4 4.000004,8 -1,13 m -32,-23 c 0.3,-7 6,-7 11,-8 -2,4 -4,8 1,13 M 192.4111,91.106228 c -0.3,-7 -6,-7 -11,-8 2,4 4,8 -1,13 m -9.1,-40.600004 c -0.3,-7 -6,-7 -11,-8 2,4 4,8 -1,13 m -29,8 c -0.3,-7 -6,-7 -10.99999,-8 2,4 3.99999,8 -1,13 m 10.99999,-35 c -0.3,-7 -6,-7 -10.99999,-8 2,4 3.99999,8 -1,13 m -43.999998,8 c 0.3,-7 6,-7 11,-8 -2,4 -4,8 1,13 m -44,8 c 0.3,-7 6,-7 11,-8 -2,4 -4,8 1,13 M 167.20422,153.9975 c 5.02406,3.64821 14.23814,6.21635 20.20464,5.09086 m -45.19095,-22.08772 c 4.07189,-4.68746 7.4326,-13.64318 6.83085,-19.68516 m -98.636348,25.49806 c -4.42876,5.51787 -11.06653,10.20803 -17.5031,11.30421 m 20.50106,-21.31809 c -6.99302,-1.07588 -14.37391,-4.47862 -18.5419,-9.50437 M 101.4141,109.80503 c -2.564724,-6.59429 -3.308194,-14.687922 -1.0396,-20.810512 m 93.0392,15.106812 c 5.9689,1.70951 15.50556,0.97081 20.72709,-2.12775 m -23.72948,-7.871542 c 5.87,-2.02329 13.25833,-8.09845 15.7583,-13.63162 m -27.75851,3.63581 c 4.46508,-4.3145 8.59388,-12.942984 8.52128,-19.014364 M 157.3122,42.502224 c 5.9689,1.70951 15.50556,0.97081 20.72708,-2.12775 m -30.72752,-3.87563 c 5.14621,-3.47378 10.71015,-11.25435 11.69265,-17.24604 m -28.69331,21.25342 c 4.46508,-4.3145 8.59388,-12.94298 8.52128,-19.01436 m -41.521264,25.01436 c -4.665324,-5.31951 -8.131984,-12.67083 -8.094114,-19.20008 m -11.90617,15.20196 c -6.20327,-3.4032 -11.97504,-9.12564 -14.17246,-15.27413"
       inkscape:connector-curvature="0" />
  </g>
  <g
     inkscape:groupmode="layer"
     id="layer3"
     inkscape:label="10"
     style="display:none">
    <path
       id="branches-10"
       style="fill:none;stroke:#000000;stroke-width:2"
       d="m 142.4,217.9 c 22,-19 40,-3 40,20 -2,11 -11,20 -22,18 -8,-1 -15,-10 -13,-19 1,-7 8,-13 14,-11 5,1 9,6 8,12 -1,4 -5,7 -8,6 -2,-1 -4,-3 -3,-6 1,-1 2,-3 4,-2 M 133.6,199 c 2,-5 6,-8 10,-11 6,-4 12,-8 20,-10 2,0 4,1 6,1 6,1 11,5 13,10 1,4 0,10 -4,12 -3,2 -8,0 -9,-3 -1,-3 0,-7 3,-8 3,-1 5,2 4,4 0,2 -5,2 -4,0 0,-1 2,-1 1,0 m -40,5 c 5,-8 13,-16 23,-19 17,-6 37,2 44,18 4,8 3,19 -2,26 -3,5 -10,7 -16,4 -6,-2 -11,-9 -9,-15 1,-5 8,-9 13,-6 4,2 7,8 3,11 -3,3 -8,1 -8,-3 -1,-4 6,-3 4,0 M 105,193.4 c -1,-15 1,-35 13,-44 4,-3 11,-6 17,-5 8,2 15,8 13,17 -1,7 -8,12 -15,11 -5,-1 -9,-6 -8,-11 1,-4 5,-7 9,-6 3,1 5,3 4,6 -1,2 -2,3 -4,3 -1,0 -2,-2 -1,-3 0,-1 1,-1 2,-1 m -30,33 c 2,-24 -15,-45 -10,-53 1,-2 4,-3 8,-3 4,0 7,5 6,9 -1,3 -4,5 -7,4 -2,-1 -4,-3 -3,-5 0,-2 2,-3 4,-2 1,0 2,2 1,3 0,1 -1,1 -2,1 0,0 -1,-1 0,-1 0,0 0,0 1,0 m 2,47 c 1,-12 -2,-24 -10,-33 -9,-9 -23,-12 -35,-9 -5,1 -10,4 -15,7 -3,4 -4,10 0,14 5,5 15,3 18,-4 1,-3 -1,-7 -5,-8 -3,0 -7,2 -6,6 0,4 7,2 5,-1 0,-1 -3,0 -1,1 m 49,27 c 0,-2 -1,-5 -2,-7 -4,-8 -10,-15 -18,-17 -6,-2 -13,-1 -18,2 -4,2 -8,7 -8,12 0,5 5,10 10,9 4,0 8,-5 7,-9 0,-4 -5,-7 -9,-5 -3,1 -4,5 -2,8 2,2 5,2 6,-1 1,-2 -1,-4 -3,-4 -2,0 -2,4 0,3 m 21.6,22.3 c -3,-3 -6,-7 -10,-8 -8,-3 -17,0 -22,6 -4,6 -5,15 0,21 3,3 8,5 12,4 4,-1 7,-6 6,-10 0,-3 -3,-6 -6,-5 -2,0 -4,3 -3,5 0,1 3,2 3,0 m 20,-13 c -9,-12 -32,-13 -44,-6 -4,3 -11,0 -16,-2 -3,-2 -6,-5 -7,-9 0,-4 2,-8 6,-9 2,-1 5,0 7,2 2,2 2,6 0,8 -1,2 -4,2 -6,0 -1,-1 -1,-4 0,-5 1,-1 3,0 3,1 1,1 -2,2 -1,1 m 62.4,61 c 0,-3 0,-6 -1,-9 -1,-5 -4,-9 -8,-12 -4,-2 -9,-2 -12,1 -3,2 -4,7 -2,10 1,3 4,4 7,3 3,-1 5,-5 3,-7 -1,-2 -3,-2 -5,-1 -1,1 -1,3 1,4 1,1 2,-3 0,-2 m 12.6,-29 c -11,-12 -27,-14 -40,-8 -5,2 -10,6 -13,11 -7,11 -9,24 -8,37 1,9 8,17 17,17 8,0 16,-7 16,-15 1,-7 -5,-15 -13,-15 -7,0 -12,6 -11,13 1,5 6,9 11,8 4,-1 7,-7 4,-11 -2,-4 -9,-2 -8,2 0,3 6,3 4,0"
       inkscape:connector-curvature="0" />
    <path
       d="m 65.4,269 c 11,-6.3 19.8,-13.3 28.6,-20.3 8.8,-9.8 11,-20.3 8.8,-30.1 -2.2,-4.2 -6.6,-8.4 -13.2,-11.9 6.6,3.5 15.4,-2.1 13.2,-4.9 2.2,-2.1 2.2,-7 2.2,-8.4 0,4.2 0,8.4 4.4,11.9 11,1.4 17.6,-2.1 19.8,-4.2 2.2,-0.7 6.6,-5.6 4.4,-2.1 -4.4,6.3 -8.8,11.9 -8.8,18.2 2.2,3.5 17.6,0 17.6,0.7 -6.6,12.6 -11,26.6 4.4,39.2 6.6,4.9 17.6,9.1 30.8,11.9 -37.4,0 -74.8,0 -112.2,0 z"
       style="opacity:1;fill:url(#710-_27ff0b-_158906);fill-opacity:1;stroke:#000000;stroke-width:2"
       id="trunk-10"
       inkscape:connector-curvature="0"
       inkscape:label="#trunk-10" />
    <path
       id="leaves-10"
       style="fill:#15b5db;stroke:#000000;stroke-width:1.99996805"
       d="m 211.68822,231.70126 c -5.40618,-7.14803 -12.67274,-8.70983 -12.67274,-8.70983 -4.49317,1.2424 -7.46054,1.8307 -11.07624,6.22431 -1.37635,4.2583 0.83133,8.28878 5.49512,10.53431 4.56336,0.17507 14.10186,-2.68394 18.25386,-8.04879 z M 163.84336,180.1324 c -7.59177,4.76342 -9.78037,11.86658 -9.78037,11.86658 0.8465,4.58439 1.17422,7.59179 5.23644,11.57639 4.12239,1.74193 8.32989,-0.1065 10.97302,-4.55718 0.57173,-4.5309 -1.44599,-14.28234 -6.42909,-18.88579 z M 1.6028,245.609 c 2.8269959,-8.50465 9.2083,-12.31531 9.2083,-12.31531 12.626605,-2.55856 19.18588,5.46918 10.662921,14.08198 C 17.208079,249.00561 7.2565723,249.35809 1.6028,245.609 Z m 4.46336,-40.34808 c 8.778505,-1.8048 15.269518,1.81567 15.269518,1.81567 8.529814,9.65486 4.858075,19.34944 -6.862454,16.27576 -3.544743,-2.87912 -8.8264125,-11.32061 -8.407064,-18.09143 z m 74.99916,-36.89033 c 5.952297,6.70028 6.06227,14.13209 6.06227,14.13209 -4.096758,12.21472 -14.328675,13.88207 -17.526946,2.19459 0.721113,-4.5095 5.391088,-13.30446 11.464676,-16.32668 z M 231.7192,198.1549 c -7.52516,-4.86746 -14.88755,-3.84933 -14.88755,-3.84933 -3.7971,2.70443 -6.38419,4.2723 -8.2788,9.63766 0.16333,4.4722 3.61653,7.50432 8.76708,8.01901 4.34793,-1.3965 12.33294,-7.34588 14.39927,-13.80734 z m -11.79882,-26.21674 c -8.95617,0.32907 -14.40316,5.38601 -14.40316,5.38601 -1.5592,4.3933 -2.77914,7.16153 -1.25366,12.64333 2.69896,3.56974 7.26685,4.07284 11.78118,1.5402 2.76063,-3.63784 5.88916,-13.09138 3.87564,-19.56954 z M 196.6,155 c -7.97815,4.08324 -10.77777,10.96844 -10.77777,10.96844 0.44351,4.6407 0.50774,7.66519 4.207,11.9888 3.95476,2.09474 8.30737,0.62026 11.3285,-3.58295 C 202.32237,169.91054 201.16266,160.02039 196.6,155 Z m -20.4822,-10.4437 c -7.52516,-4.86746 -14.88755,-3.84933 -14.88755,-3.84933 -3.7971,2.70443 -6.38419,4.2723 -8.2788,9.63766 0.16333,4.4722 3.61654,7.50432 8.76708,8.01901 4.34793,-1.3965 12.33294,-7.34588 14.39927,-13.80734 z m -25.22954,-26.98718 c -8.56573,2.63617 -12.51807,8.9307 -12.51807,8.9307 -0.36886,4.64715 -0.83065,7.63682 2.0618,12.5369 3.531,2.74945 8.07342,2.053 11.77831,-1.56186 1.72488,-4.22844 2.29973,-14.16958 -1.32204,-19.90574 z M 129,119.4 c -7.97815,4.08324 -10.77777,10.96844 -10.77777,10.96844 0.44351,4.6407 0.50774,7.66519 4.207,11.9888 3.95476,2.09474 8.30737,0.62026 11.3285,-3.58295 C 134.72237,134.31054 133.56266,124.42039 129,119.4 Z m -52,6 c 7.88487,4.26057 10.52989,11.20663 10.52989,11.20663 0.32771,12.87926 -8.71699,17.94538 -15.71952,8.05647 C 70.94575,140.1789 72.32625,130.31715 77,125.4 Z m -29.3778,0.82918 c 8.866527,1.30703 13.727605,6.92965 13.727605,6.92965 4.712656,11.99056 -2.054035,19.84448 -12.01632,12.94674 -2.34608,-3.9181 -4.421543,-13.65732 -1.711285,-19.87639 z"
       inkscape:connector-curvature="0" />
    <path
       id="fruits-10"
       style="fill:#e65329;stroke:#000000;stroke-width:2"
       d="m 188.89999,253.89999 a 4.5,4.5 0 0 1 -4.5,4.5 4.5,4.5 0 0 1 -4.5,-4.5 4.5,4.5 0 0 1 4.5,-4.5 4.5,4.5 0 0 1 4.5,4.5 z m 12,-5 a 4.5,4.5 0 0 1 -4.5,4.5 4.5,4.5 0 0 1 -4.5,-4.5 4.5,4.5 0 0 1 4.5,-4.5 4.5,4.5 0 0 1 4.5,4.5 z M 40.099998,260.70001 a 4.5,4.5 0 0 1 -4.5,4.5 4.5,4.5 0 0 1 -4.5,-4.5 4.5,4.5 0 0 1 4.5,-4.5 4.5,4.5 0 0 1 4.5,4.5 z M 28.1,255.7 a 4.5,4.5 0 0 1 -4.5,4.5 4.5,4.5 0 0 1 -4.5,-4.5 4.5,4.5 0 0 1 4.5,-4.5 4.5,4.5 0 0 1 4.5,4.5 z m 131.79999,-27.80001 a 4.5,4.5 0 0 1 -4.5,4.5 4.5,4.5 0 0 1 -4.5,-4.5 4.5,4.5 0 0 1 4.5,-4.5 4.5,4.5 0 0 1 4.5,4.5 z m 12,-5 a 4.5,4.5 0 0 1 -4.5,4.5 4.5,4.5 0 0 1 -4.5,-4.5 4.5,4.5 0 0 1 4.5,-4.5 4.5,4.5 0 0 1 4.5,4.5 z M 78.099998,232.7 a 4.5,4.5 0 0 1 -4.5,4.5 4.5,4.5 0 0 1 -4.5,-4.5 4.5,4.5 0 0 1 4.5,-4.5 4.5,4.5 0 0 1 4.5,4.5 z m 12,-5 a 4.5,4.5 0 0 1 -4.5,4.5 4.5,4.5 0 0 1 -4.5,-4.5 4.5,4.5 0 0 1 4.5,-4.5 4.5,4.5 0 0 1 4.5,4.5 z m -34,-13 a 4.5,4.5 0 0 1 -4.5,4.5 4.5,4.5 0 0 1 -4.5,-4.5 4.5,4.5 0 0 1 4.5,-4.5 4.5,4.5 0 0 1 4.5,4.5 z m -12,-5 a 4.5,4.5 0 0 1 -4.5,4.5 4.5,4.5 0 0 1 -4.5,-4.5 4.5,4.5 0 0 1 4.5,-4.5 4.5,4.5 0 0 1 4.5,4.5 z M 194.10001,200 a 4.5,4.5 0 0 1 -4.5,4.5 4.5,4.5 0 0 1 -4.5,-4.5 4.5,4.5 0 0 1 4.5,-4.5 4.5,4.5 0 0 1 4.5,4.5 z m 12,-5 a 4.5,4.5 0 0 1 -4.5,4.5 4.5,4.5 0 0 1 -4.5,-4.5 4.5,4.5 0 0 1 4.5,-4.5 4.5,4.5 0 0 1 4.5,4.5 z M 153.5,172.39999 a 4.5,4.5 0 0 1 -4.5,4.5 4.5,4.5 0 0 1 -4.5,-4.5 4.5,4.5 0 0 1 4.5,-4.5 4.5,4.5 0 0 1 4.5,4.5 z m 12,-5 a 4.5,4.5 0 0 1 -4.5,4.5 4.5,4.5 0 0 1 -4.5,-4.5 4.5,4.5 0 0 1 4.5,-4.5 4.5,4.5 0 0 1 4.5,4.5 z m -53,18 a 4.5,4.5 0 0 1 -4.5,4.5 4.5,4.5 0 0 1 -4.5,-4.5 4.5,4.5 0 0 1 4.5,-4.5 4.5,4.5 0 0 1 4.5,4.5 z m 12,-5 a 4.5,4.5 0 0 1 -4.5,4.5 4.5,4.5 0 0 1 -4.5,-4.5 4.5,4.5 0 0 1 4.5,-4.5 4.5,4.5 0 0 1 4.5,4.5 z m -13,-25 a 4.5,4.5 0 0 1 -4.5,4.5 4.5,4.5 0 0 1 -4.5,-4.5 4.5,4.5 0 0 1 4.5,-4.5 4.5,4.5 0 0 1 4.5,4.5 z m 12,-5 a 4.5,4.5 0 0 1 -4.5,4.5 4.5,4.5 0 0 1 -4.5,-4.5 4.5,4.5 0 0 1 4.5,-4.5 4.5,4.5 0 0 1 4.5,4.5 z m -46,18 a 4.5,4.5 0 0 1 -4.5,4.5 4.5,4.5 0 0 1 -4.5,-4.5 4.5,4.5 0 0 1 4.5,-4.5 4.5,4.5 0 0 1 4.5,4.5 z m -12,-5 a 4.5,4.5 0 0 1 -4.5,4.5 4.5,4.5 0 0 1 -4.5,-4.5 4.5,4.5 0 0 1 4.5,-4.5 4.5,4.5 0 0 1 4.5,4.5 z m -20,18 a 4.5,4.5 0 0 1 -4.5,4.5 4.5,4.5 0 0 1 -4.5,-4.5 4.5,4.5 0 0 1 4.5,-4.5 4.5,4.5 0 0 1 4.5,4.5 z m -12,-5 a 4.5,4.5 0 0 1 -4.5,4.5 4.5,4.5 0 0 1 -4.5,-4.5 4.5,4.5 0 0 1 4.5,-4.5 4.5,4.5 0 0 1 4.5,4.5 z"
       inkscape:connector-curvature="0" />
    <path
       id="stems-10"
       style="fill:none;stroke:#000000;stroke-width:2"
       d="m 195.4,244.9 c -0.3,-7 -6,-7 -11,-8 2,4 4,8 -1,13 m -158.8,1.8 c 0.3,-7 6,-7 11,-8 -2,4 -4,8 1,13 m 129.8,-37.8 c -0.3,-7 -6,-7 -11,-8 2,4 4,8 -1,13 m -69.8,-0.2 c -0.3,-7 -6,-7 -11,-8 2,4 4,8 -1,13 m -32,-23 c 0.3,-7 6,-7 11,-8 -2,4 -4,8 1,13 m 148,-19.7 c -0.3,-7 -6,-7 -11,-8 2,4 4,8 -1,13 M 160,163.4 c -0.3,-7 -6,-7 -11,-8 2,4 4,8 -1,13 m -29,8 c -0.3,-7 -6,-7 -11,-8 2,4 4,8 -1,13 m 11,-35 c -0.3,-7 -6,-7 -11,-8 2,4 4,8 -1,13 m -44,8 c 0.3,-7 6,-7 11,-8 -2,4 -4,8 1,13 m -44,8 c 0.3,-7 6,-7 11,-8 -2,4 -4,8 1,13 m 139.39302,49.48766 c 5.02406,3.64821 14.23814,6.21635 20.20464,5.09086 m -45.1875,-22.08432 c 4.07189,-4.68746 7.4326,-13.64318 6.83085,-19.68516 M 28.5996,231.7114 c -4.428754,5.51787 -11.066522,10.20803 -17.503101,11.30421 M 31.60136,221.68972 c -6.993016,-1.07588 -14.373906,-4.47862 -18.5419,-9.50437 m 66.54516,-13.48546 c -2.564729,-6.59428 -3.308198,-14.68792 -1.039608,-20.8105 M 201.6052,203.9949 c 5.9689,1.70951 15.50556,0.97081 20.72708,-2.12775 m -23.7303,-7.87229 c 5.87001,-2.02329 13.25834,-8.09845 15.7583,-13.63162 M 186.6,184 c 4.46508,-4.3145 8.59388,-12.94298 8.52128,-19.01436 M 146.0038,150.3963 c 5.9689,1.70951 15.50556,0.97081 20.72708,-2.12775 m -30.72502,-3.87623 c 5.14621,-3.47378 10.71015,-11.25435 11.69265,-17.24605 M 119,148.4 c 4.46508,-4.3145 8.59388,-12.94298 8.52128,-19.01436 M 86,154.4 c -4.66532,-5.31951 -8.13198,-12.67083 -8.09411,-19.20008 M 65.9975,150.40248 c -6.203274,-3.4032 -11.975045,-9.12564 -14.172463,-15.27413"
       inkscape:connector-curvature="0" />
  </g>
  <g
     inkscape:groupmode="layer"
     id="layer4"
     inkscape:label="11"
     style="display:none">
    <path
       id="branches-11"
       style="fill:none;stroke:#000000;stroke-width:2"
       d="m 142.4,144.9 c 22,-19 40,-3 40,20 -2,11 -11,20 -22,18 -8,-1 -15,-10 -13,-19 1,-7 8,-13 14,-11 5,1 9,6 8,12 -1,4 -5,7 -8,6 -2,-1 -4,-3 -3,-6 1,-1 2,-3 4,-2 M 133.6,99 c 2,-5 6,-8 10,-11 6,-4 12,-8 20,-10 2,0 4,1 6,1 6,1 11,5 13,10 1,4 0,10 -4,12 -3,2 -8,0 -9,-3 -1,-3 0,-7 3,-8 3,-1 5,2 4,4 0,2 -5,2 -4,0 0,-1 2,-1 1,0 m -40,5 c 5,-8 13,-16 23,-19 17,-6 37,2 44,18 4,8 3,19 -2,26 -3,5 -10,7 -16,4 -6,-2 -11,-9 -9,-15 1,-5 8,-9 13,-6 4,2 7,8 3,11 -3,3 -8,1 -8,-3 -1,-4 6,-3 4,0 M 105,85.4 c -1,-15 1,-35 13,-44 4,-3 11,-6 17,-5 8,2 15,8 13,17 -1,7 -8,12 -15,11 -5,-1 -9,-6 -8,-11 1,-4 5,-7 9,-6 3,1 5,3 4,6 -1,2 -2,3 -4,3 -1,0 -2,-2 -1,-3 0,-1 1,-1 2,-1 m -30,33 c 2,-24 -15,-45 -10,-53 1,-2 4,-3 8,-3 4,0 7,5 6,9 -1,3 -4,5 -7,4 -2,-1 -4,-3 -3,-5 0,-2 2,-3 4,-2 1,0 2,2 1,3 0,1 -1,1 -2,1 0,0 -1,-1 0,-1 0,0 0,0 1,0 m 2,47 c 1,-12 -2,-24 -10,-33 -9,-9 -23,-12 -35,-9 -5,1 -10,4 -15,7 -3,4 -4,10 0,14 5,5 15,3 18,-4 1,-3 -1,-7 -5,-8 -3,0 -7,2 -6,6 0,4 7,2 5,-1 0,-1 -3,0 -1,1 m 49,27 c 0,-2 -1,-5 -2,-7 -4,-8 -10,-15 -18,-17 -6,-2 -13,-1 -18,2 -4,2 -8,7 -8,12 0,5 5,10 10,9 4,0 8,-5 7,-9 0,-4 -5,-7 -9,-5 -3,1 -4,5 -2,8 2,2 5,2 6,-1 1,-2 -1,-4 -3,-4 -2,0 -2,4 0,3 m 21.6,41.3 c -3,-3 -6,-7 -10,-8 -8,-3 -17,0 -22,6 -4,6 -5,15 0,21 3,3 8,5 12,4 4,-1 7,-6 6,-10 0,-3 -3,-6 -6,-5 -2,0 -4,3 -3,5 0,1 3,2 3,0 m 20,-13 c -11,-12 -27,-14 -40,-8 -5,2 -10,6 -13,11 -7,11 -9,24 -8,37 1,9 8,17 17,17 8,0 16,-7 16,-15 1,-7 -5,-15 -13,-15 -7,0 -12,6 -11,13 1,5 6,9 11,8 4,-1 7,-7 4,-11 -2,-4 -9,-2 -8,2 0,3 6,3 4,0 m 41,-39 c -9,-12 -32,-13 -44,-6 -4,3 -11,0 -16,-2 -3,-2 -6,-5 -7,-9 0,-4 2,-8 6,-9 2,-1 5,0 7,2 2,2 2,6 0,8 -1,2 -4,2 -6,0 -1,-1 -1,-4 0,-5 1,-1 3,0 3,1 1,1 -2,2 -1,1 m 62.4,121 c 0,-3 0,-6 -1,-9 -1,-5 -4,-9 -8,-12 -4,-2 -9,-2 -12,1 -3,2 -4,7 -2,10 1,3 4,4 7,3 3,-1 5,-5 3,-7 -1,-2 -3,-2 -5,-1 -1,1 -1,3 1,4 1,1 2,-3 0,-2"
       inkscape:connector-curvature="0" />
    <path
       d="m 65.4,269 c 11,-15.3 19.8,-32.3 28.6,-49.3 8.8,-23.8 11,-49.3 8.8,-73.1 -2.2,-10.2 -6.6,-20.4 -13.2,-28.9 6.6,8.5 15.4,-5.1 13.2,-11.9 2.2,-5.1 2.2,-17 2.2,-20.4 0,10.2 0,20.4 4.4,28.9 11,3.4 17.6,-5.1 19.8,-10.2 2.2,-1.7 6.6,-13.6 4.4,-5.1 -4.4,15.3 -8.8,28.9 -8.8,44.2 2.2,8.5 17.6,0 17.6,1.7 -6.6,30.6 -11,64.6 4.4,95.2 6.6,11.9 17.6,22.1 30.8,28.9 -37.4,0 -74.8,0 -112.2,0 z"
       style="opacity:1;fill:url(#00-_13ff04-_0a8e02);fill-opacity:1;stroke:#000000;stroke-width:2"
       id="trunk-11"
       inkscape:connector-curvature="0" />
    <path
       id="leaves-11"
       style="fill:#2ed9eb;stroke:#000000;stroke-width:1.99996805"
       d="m 211.68762,158.70476 c -5.40618,-7.14803 -12.67274,-8.70983 -12.67274,-8.70983 -4.49317,1.2424 -7.46054,1.8307 -11.07624,6.22431 -1.37635,4.2583 0.83133,8.28878 5.49512,10.53431 4.56336,0.17507 14.10186,-2.68394 18.25386,-8.04879 z M 163.84006,107.132 c -7.59177,4.76342 -9.78037,11.86658 -9.78037,11.86658 0.8465,4.58439 1.17422,7.59179 5.23644,11.57639 4.12239,1.74193 8.32989,-0.1065 10.97302,-4.55718 0.57173,-4.5309 -1.44599,-14.28234 -6.42909,-18.88579 z M 1.6035,156.6047 c 2.8269959,-8.50465 9.2083,-12.31531 9.2083,-12.31531 12.626605,-2.55856 19.18588,5.46918 10.662921,14.08198 -4.265942,1.62994 -14.2174487,1.98242 -19.871221,-1.76667 z m 4.46156,-40.33978 c 8.778505,-1.8048 15.269518,1.81567 15.269518,1.81567 8.529814,9.65486 4.858075,19.34944 -6.862454,16.27576 C 10.927381,131.47723 5.6457115,123.03574 6.06506,116.26492 Z M 81.06352,79.36989 c 5.952297,6.700283 6.06227,14.132093 6.06227,14.132093 C 83.029032,105.7167 72.797115,107.38405 69.598844,95.696572 70.319957,91.187069 74.989932,82.392113 81.06352,79.36989 Z M 231.7166,98.1549 c -7.52516,-4.867458 -14.88755,-3.849329 -14.88755,-3.849329 -3.7971,2.70443 -6.38419,4.272298 -8.2788,9.637659 0.16333,4.4722 3.61653,7.50432 8.76708,8.01901 4.34793,-1.3965 12.33294,-7.34588 14.39927,-13.80734 z M 219.91858,71.93896 c -8.95617,0.329074 -14.40316,5.386012 -14.40316,5.386012 -1.5592,4.393293 -2.77914,7.161532 -1.25366,12.643327 2.69896,3.569745 7.26685,4.072836 11.78118,1.540197 2.76063,-3.63784 5.88916,-13.091376 3.87564,-19.569536 z M 196.6,55 c -7.97815,4.08324 -10.77777,10.96844 -10.77777,10.96844 0.44351,4.6407 0.50774,7.66519 4.207,11.9888 3.95476,2.09474 8.30737,0.62026 11.3285,-3.58295 C 202.32237,69.91054 201.16266,60.02039 196.6,55 Z M 176.1151,36.5563 c -7.52516,-4.867458 -14.88755,-3.849329 -14.88755,-3.849329 -3.7971,2.70443 -6.38419,4.272298 -8.2788,9.637662 0.16333,4.472192 3.61653,7.504313 8.76708,8.019006 4.34793,-1.396497 12.33294,-7.34588 14.39927,-13.807339 z M 150.88306,9.56992 c -8.56573,2.636168 -12.51807,8.930699 -12.51807,8.930699 -0.36886,4.647155 -0.83065,7.636823 2.0618,12.536905 3.531,2.749447 8.07342,2.052992 11.77831,-1.561861 1.72488,-4.22844 2.29973,-14.169585 -1.32204,-19.905743 z M 129,11.4 c -7.97815,4.08324 -10.77777,10.96844 -10.77777,10.96844 0.44351,4.6407 0.50774,7.66519 4.207,11.9888 3.95476,2.09474 8.30737,0.62026 11.3285,-3.58295 C 134.72237,26.31054 133.56266,16.42039 129,11.4 Z m -52,6 C 84.88487,21.66057 87.52989,28.60663 87.52989,28.60663 87.8576,41.48589 78.8129,46.55201 71.81037,36.6631 70.94575,32.1789 72.32625,22.31715 77,17.4 Z m -29.3757,0.82838 c 8.866527,1.307032 13.727605,6.929648 13.727605,6.929648 C 66.064561,37.148592 59.29787,45.002512 49.335585,38.104769 46.989505,34.186666 44.914042,24.447448 47.6243,18.22838 Z"
       inkscape:connector-curvature="0" />
    <path
       id="fruits-11"
       style="fill:#eb6014;stroke:#000000;stroke-width:2"
       d="m 188.89999,180.89999 a 4.5,4.5 0 0 1 -4.5,4.5 4.5,4.5 0 0 1 -4.5,-4.5 4.5,4.5 0 0 1 4.5,-4.5 4.5,4.5 0 0 1 4.5,4.5 z m 12,-5 a 4.5,4.5 0 0 1 -4.5,4.5 4.5,4.5 0 0 1 -4.5,-4.5 4.5,4.5 0 0 1 4.5,-4.5 4.5,4.5 0 0 1 4.5,4.5 z M 40.099998,171.7 a 4.5,4.5 0 0 1 -4.5,4.5 4.5,4.5 0 0 1 -4.5,-4.5 4.5,4.5 0 0 1 4.5,-4.5 4.5,4.5 0 0 1 4.5,4.5 z M 28.1,166.7 a 4.5,4.5 0 0 1 -4.5,4.5 4.5,4.5 0 0 1 -4.5,-4.5 4.5,4.5 0 0 1 4.5,-4.5 4.5,4.5 0 0 1 4.5,4.5 z m 131.79999,-11.80001 a 4.5,4.5 0 0 1 -4.5,4.5 4.5,4.5 0 0 1 -4.5,-4.5 4.5,4.5 0 0 1 4.5,-4.5 4.5,4.5 0 0 1 4.5,4.5 z m 12,-5 a 4.5,4.5 0 0 1 -4.5,4.5 4.5,4.5 0 0 1 -4.5,-4.5 4.5,4.5 0 0 1 4.5,-4.5 4.5,4.5 0 0 1 4.5,4.5 z M 78.099998,143.7 a 4.5,4.5 0 0 1 -4.5,4.5 4.5,4.5 0 0 1 -4.5,-4.5 4.5,4.5 0 0 1 4.5,-4.5 4.5,4.5 0 0 1 4.5,4.5 z m 12,-5 a 4.5,4.5 0 0 1 -4.5,4.5 4.5,4.5 0 0 1 -4.5,-4.5 4.5,4.5 0 0 1 4.5,-4.5 4.5,4.5 0 0 1 4.5,4.5 z m -34,-13 a 4.5,4.5 0 0 1 -4.5,4.5 4.5,4.5 0 0 1 -4.5,-4.5 4.5,4.5 0 0 1 4.5,-4.5 4.5,4.5 0 0 1 4.5,4.5 z m -12,-5 a 4.5,4.5 0 0 1 -4.5,4.5 4.5,4.5 0 0 1 -4.5,-4.5 4.5,4.5 0 0 1 4.5,-4.5 4.5,4.5 0 0 1 4.5,4.5 z M 194.10001,100 a 4.5,4.5 0 0 1 -4.5,4.5 4.5,4.5 0 0 1 -4.5,-4.5 4.5,4.5 0 0 1 4.5,-4.5 4.5,4.5 0 0 1 4.5,4.5 z m 12,-5 a 4.5,4.5 0 0 1 -4.5,4.5 4.5,4.5 0 0 1 -4.5,-4.5 4.5,4.5 0 0 1 4.5,-4.5 4.5,4.5 0 0 1 4.5,4.5 z M 153.5,64.400002 a 4.5,4.5 0 0 1 -4.5,4.5 4.5,4.5 0 0 1 -4.5,-4.5 4.5,4.5 0 0 1 4.5,-4.5 4.5,4.5 0 0 1 4.5,4.5 z m 12,-5 a 4.5,4.5 0 0 1 -4.5,4.5 4.5,4.5 0 0 1 -4.5,-4.5 4.5,4.5 0 0 1 4.5,-4.5 4.5,4.5 0 0 1 4.5,4.5 z m -53,18 a 4.5,4.5 0 0 1 -4.5,4.5 4.5,4.5 0 0 1 -4.5,-4.5 4.5,4.5 0 0 1 4.5,-4.5 4.5,4.5 0 0 1 4.5,4.5 z m 12,-5 a 4.5,4.5 0 0 1 -4.5,4.5 4.5,4.5 0 0 1 -4.5,-4.5 4.5,4.5 0 0 1 4.5,-4.5 4.5,4.5 0 0 1 4.5,4.5 z m -13,-25 a 4.5,4.5 0 0 1 -4.5,4.5 4.5,4.5 0 0 1 -4.5,-4.5 4.5,4.5 0 0 1 4.5,-4.5 4.5,4.5 0 0 1 4.5,4.5 z m 12,-5 a 4.5,4.5 0 0 1 -4.5,4.5 4.5,4.5 0 0 1 -4.5,-4.5 4.5,4.5 0 0 1 4.5,-4.5 4.5,4.5 0 0 1 4.5,4.5 z m -46,18 a 4.5,4.5 0 0 1 -4.5,4.5 4.5,4.5 0 0 1 -4.5,-4.5 4.5,4.5 0 0 1 4.5,-4.5 4.5,4.5 0 0 1 4.5,4.5 z m -12,-5 a 4.5,4.5 0 0 1 -4.5,4.5 4.5,4.5 0 0 1 -4.5,-4.5 4.5,4.5 0 0 1 4.5,-4.5 4.5,4.5 0 0 1 4.5,4.5 z m -20,18 a 4.5,4.5 0 0 1 -4.5,4.5 4.5,4.5 0 0 1 -4.5,-4.5 4.5,4.5 0 0 1 4.5,-4.5 4.5,4.5 0 0 1 4.5,4.5 z m -12,-5 a 4.5,4.5 0 0 1 -4.5,4.5 4.5,4.5 0 0 1 -4.5,-4.5 4.5,4.5 0 0 1 4.5,-4.5 4.5,4.5 0 0 1 4.5,4.5 z"
       inkscape:connector-curvature="0" />
    <path
       id="stems-11"
       style="fill:none;stroke:#000000;stroke-width:2"
       d="m 195.4,171.9 c -0.3,-7 -6,-7 -11,-8 2,4 4,8 -1,13 M 24.6,162.7 c 0.3,-7 6,-7 11,-8 -2,4 -4,8 1,13 m 129.8,-21.8 c -0.3,-7 -6,-7 -11,-8 2,4 4,8 -1,13 M 84.6,134.7 c -0.3,-7 -6,-7 -11,-8 2,4 4,8 -1,13 m -32,-23 c 0.3,-7 6,-7 11,-8 -2,4 -4,8 1,13 M 200.6,91 c -0.3,-7 -6,-7 -11,-8 2,4 4,8 -1,13 M 160,55.4 c -0.3,-7 -6,-7 -11,-8 2,4 4,8 -1,13 m -29,8 c -0.3,-7 -6,-7 -11,-8 2,4 4,8 -1,13 m 11,-35 c -0.3,-7 -6,-7 -11,-8 2,4 4,8 -1,13 m -44,8 c 0.3,-7 6,-7 11,-8 -2,4 -4,8 1,13 m -44,8 c 0.3,-7 6,-7 11,-8 -2,4 -4,8 1,13 m 139.39242,84.49116 c 5.02406,3.64821 14.23814,6.21635 20.20464,5.09086 m -45.1902,-22.08822 c 4.07189,-4.68746 7.4326,-13.64318 6.83085,-19.68516 M 28.6003,142.7071 c -4.428754,5.51787 -11.066522,10.20803 -17.503101,11.30421 M 31.60026,132.69372 c -6.993016,-1.07588 -14.373906,-4.47862 -18.5419,-9.50437 M 79.60282,109.69919 C 77.038091,103.10491 76.294622,95.011274 78.563212,88.888689 M 201.6026,103.9949 c 5.9689,1.70951 15.50556,0.97081 20.72708,-2.12775 m -23.7295,-7.87149 c 5.87001,-2.023289 13.25834,-8.098449 15.7583,-13.631622 M 186.6,84 c 4.46508,-4.3145 8.59388,-12.94298 8.52128,-19.01436 M 146.0011,42.3963 c 5.9689,1.709509 15.50556,0.97081 20.72708,-2.127752 M 136.00066,36.39312 c 5.14621,-3.473782 10.71015,-11.254349 11.69265,-17.246048 M 119,40.4 c 4.46508,-4.3145 8.59388,-12.94298 8.52128,-19.01436 M 86,46.4 C 81.33468,41.08049 77.86802,33.72917 77.90589,27.19992 M 65.9996,42.40168 C 59.796326,38.998476 54.024555,33.276038 51.827137,27.12755"
       inkscape:label="#stems-11"
       inkscape:connector-curvature="0" />
  </g>
</svg>
