<?xml version="1.0" encoding="UTF-8" standalone="no"?>
<svg
   xmlns:dc="http://purl.org/dc/elements/1.1/"
   xmlns:cc="http://creativecommons.org/ns#"
   xmlns:rdf="http://www.w3.org/1999/02/22-rdf-syntax-ns#"
   xmlns:svg="http://www.w3.org/2000/svg"
   xmlns="http://www.w3.org/2000/svg"
   xmlns:sodipodi="http://sodipodi.sourceforge.net/DTD/sodipodi-0.dtd"
   xmlns:inkscape="http://www.inkscape.org/namespaces/inkscape"
   id="wugTree1"
   width="123.80623"
   height="133.94817"
   viewBox="0 0 225.10223 243.54212"
   version="1.1"
   inkscape:version="0.91 r"
   sodipodi:docname="treetest.svg"
   style="enable-background:new">
  <metadata
     id="metadata160">
    <rdf:RDF>
      <cc:Work
         rdf:about="">
        <dc:format>image/svg+xml</dc:format>
        <dc:type
           rdf:resource="http://purl.org/dc/dcmitype/StillImage" />
        <dc:title></dc:title>
      </cc:Work>
    </rdf:RDF>
  </metadata>
  <defs
     id="defs158">
    <linearGradient
       gradientUnits="userSpaceOnUse"
       id="linearGradient4266"
       x1="139.86024"
       y1="140.97804"
       x2="195.69746"
       y2="140.97804"
       gradientTransform="matrix(0.72894546,0,0,1.3718447,0,-10.909091)">
      <stop
         offset="0%"
         stop-color="#0655ff"
         style="-webkit-tap-highlight-color:rgba(0, 0, 0, 0);stop-color:#000000;stop-opacity:1"
         id="stop4268" />
      <stop
         offset="100%"
         stop-color="#0436a1"
         style="-webkit-tap-highlight-color: rgba(0, 0, 0, 0);"
         id="stop4270" />
    </linearGradient>
    <inkscape:perspective
       sodipodi:type="inkscape:persp3d"
       inkscape:vp_x="0 : 135 : 1"
       inkscape:vp_y="0 : 1000 : 0"
       inkscape:vp_z="250 : 135 : 1"
       inkscape:persp3d-origin="125 : 90 : 1"
       id="perspective3424" />
    <defs
       id="defs4441">
      <linearGradient
         id="00-_13ff04-_0a8e02"
         x1="80.525803"
         y1="67.289993"
         x2="225.97935"
         y2="67.289993"
         gradientTransform="matrix(0.78793906,0,0,1.2691337,0,-10.909091)"
         gradientUnits="userSpaceOnUse">
        <stop
           offset="0%"
           stop-color="#13ff04"
           style="-webkit-tap-highlight-color: rgba(0, 0, 0, 0);"
           id="stop4444" />
        <stop
           offset="100%"
           stop-color="#0a8e02"
           style="-webkit-tap-highlight-color: rgba(0, 0, 0, 0);"
           id="stop4446" />
      </linearGradient>
    </defs>
    <defs
       id="defs4125">
      <linearGradient
         id="710-_27ff0b-_158906"
         x1="50.055428"
         y1="238.16666"
         x2="144.38617"
         y2="238.16666"
         gradientTransform="matrix(1.2314719,0,0,0.81203642,0,-10.909091)"
         gradientUnits="userSpaceOnUse">
        <stop
           offset="0%"
           stop-color="#27ff0b"
           style="-webkit-tap-highlight-color: rgba(0, 0, 0, 0);"
           id="stop4128" />
        <stop
           offset="100%"
           stop-color="#158906"
           style="-webkit-tap-highlight-color: rgba(0, 0, 0, 0);"
           id="stop4130" />
      </linearGradient>
    </defs>
    <defs
       id="defs3809">
      <linearGradient
         id="1420-_33ff22-_20a215"
         x1="223.49814"
         y1="39.125912"
         x2="308.07242"
         y2="39.125912"
         gradientTransform="scale(0.45814883,2.1826969)"
         gradientUnits="userSpaceOnUse">
        <stop
           offset="0%"
           stop-color="#33ff22"
           style="-webkit-tap-highlight-color: rgba(0, 0, 0, 0);"
           id="stop3812" />
        <stop
           offset="100%"
           stop-color="#20a215"
           style="-webkit-tap-highlight-color: rgba(0, 0, 0, 0);"
           id="stop3814" />
      </linearGradient>
    </defs>
    <defs
       id="defs7">
      <linearGradient
         gradientTransform="matrix(0.72894546,0,0,1.3718447,0,-10.909091)"
         y2="140.97804"
         x2="195.69746"
         y1="140.97804"
         x1="139.86024"
         id="2130-_0655ff-_0436a1"
         gradientUnits="userSpaceOnUse">
        <stop
           id="stop10"
           style="-webkit-tap-highlight-color: rgba(0, 0, 0, 0);"
           stop-color="#0655ff"
           offset="0%" />
        <stop
           id="stop12"
           style="-webkit-tap-highlight-color: rgba(0, 0, 0, 0);"
           stop-color="#0436a1"
           offset="100%" />
      </linearGradient>
    </defs>
    <linearGradient
       gradientTransform="matrix(0.72894547,0,0,1.3718447,0.02859581,0.06507533)"
       y2="140.97804"
       x2="195.69746"
       y1="140.97804"
       x1="139.86024"
       id="2130-_0655ff-_0436a1-6"
       gradientUnits="userSpaceOnUse">
      <stop
         id="stop10-9"
         style="-webkit-tap-highlight-color: rgba(0, 0, 0, 0);"
         stop-color="#0655ff"
         offset="0%" />
      <stop
         id="stop12-6"
         style="-webkit-tap-highlight-color: rgba(0, 0, 0, 0);"
         stop-color="#0436a1"
         offset="100%" />
    </linearGradient>
    <linearGradient
       id="00-_13ff04-_0a8e02-2"
       x1="80.525803"
       y1="67.289993"
       x2="225.97935"
       y2="67.289993"
       gradientTransform="matrix(0.78793906,0,0,1.2691337,-14.1529,-21.107242)"
       gradientUnits="userSpaceOnUse">
      <stop
         offset="0%"
         stop-color="#13ff04"
         style="-webkit-tap-highlight-color: rgba(0, 0, 0, 0);"
         id="stop4444-9" />
      <stop
         offset="100%"
         stop-color="#0a8e02"
         style="-webkit-tap-highlight-color: rgba(0, 0, 0, 0);"
         id="stop4446-1" />
    </linearGradient>
    <linearGradient
       gradientTransform="matrix(0.72894546,0,0,1.3718447,0,-10.909091)"
       y2="140.97804"
       x2="195.69746"
       y1="140.97804"
       x1="139.86024"
       id="linearGradient4261"
       gradientUnits="userSpaceOnUse">
      <stop
         id="stop10-0"
         style="-webkit-tap-highlight-color: rgba(0, 0, 0, 0);"
         stop-color="#0655ff"
         offset="0%" />
      <stop
         id="stop12-62"
         style="-webkit-tap-highlight-color: rgba(0, 0, 0, 0);"
         stop-color="#0436a1"
         offset="100%" />
    </linearGradient>
    <linearGradient
       id="00-_13ff04-_0a8e02-9"
       x1="80.525803"
       y1="67.289993"
       x2="225.97935"
       y2="67.289993"
       gradientTransform="matrix(0.78793906,0,0,1.2691337,-14.1529,-22.219578)"
       gradientUnits="userSpaceOnUse">
      <stop
         offset="0%"
         stop-color="#13ff04"
         style="-webkit-tap-highlight-color: rgba(0, 0, 0, 0);"
         id="stop4444-2" />
      <stop
         offset="100%"
         stop-color="#0a8e02"
         style="-webkit-tap-highlight-color: rgba(0, 0, 0, 0);"
         id="stop4446-0" />
    </linearGradient>
    <linearGradient
       id="710-_27ff0b-_158906-9"
       x1="50.055428"
       y1="238.16666"
       x2="144.38617"
       y2="238.16666"
       gradientTransform="matrix(1.2314719,0,0,0.81203643,-16.253904,-22.861611)"
       gradientUnits="userSpaceOnUse">
      <stop
         offset="0%"
         stop-color="#27ff0b"
         style="-webkit-tap-highlight-color: rgba(0, 0, 0, 0);"
         id="stop4128-2" />
      <stop
         offset="100%"
         stop-color="#158906"
         style="-webkit-tap-highlight-color: rgba(0, 0, 0, 0);"
         id="stop4130-2" />
    </linearGradient>
  </defs>
  <sodipodi:namedview
     pagecolor="#ffffff"
     bordercolor="#666666"
     borderopacity="1"
     objecttolerance="10"
     gridtolerance="10"
     guidetolerance="10"
     inkscape:pageopacity="0"
     inkscape:pageshadow="2"
     inkscape:window-width="1436"
     inkscape:window-height="861"
     id="namedview156"
     showgrid="false"
     inkscape:zoom="4"
     inkscape:cx="85.492013"
     inkscape:cy="68.533607"
     inkscape:window-x="0"
     inkscape:window-y="1458"
     inkscape:window-maximized="0"
     inkscape:current-layer="g3420"
     fit-margin-top="0"
     fit-margin-left="0"
     fit-margin-right="0"
     fit-margin-bottom="0" />
  <g
     inkscape:groupmode="layer"
     id="layer1"
     inkscape:label="00"
     style="display:inline"
     transform="translate(-4.2006413,-5.4144548)">
    <path
       id="branches-00"
       style="display:inline;opacity:1;fill:#ffaaaa;stroke:#000000;stroke-width:1.80242562"
       d="m 105.07037,190.4609 c -2.70364,-2.70363 -5.407275,-6.30849 -9.012121,-7.20971 -7.209703,-2.70364 -15.320619,0 -19.826683,5.40728 -3.604851,5.40728 -4.506064,13.5182 0,18.92548 2.703639,2.70364 7.209703,4.50606 10.814554,3.60484 3.604852,-0.9012 6.308486,-5.40728 5.407279,-9.01212 0,-2.70364 -2.70364,-5.40728 -5.407279,-4.50606 -1.802425,0 -3.604851,2.70364 -2.703638,4.50606 0,0.90121 2.703638,1.80242 2.703638,0 m 22.44019,-23.7019 c 0,-1.80242 -0.9012,-4.50606 -1.80242,-6.3085 -3.60484,-7.2097 -9.012123,-13.51818 -16.221826,-15.32061 -5.407278,-1.80243 -11.715768,-0.90121 -16.221832,1.80243 -3.604851,1.80242 -7.209702,6.30848 -7.209702,10.81455 0,4.50607 4.506064,9.01213 9.012128,8.11091 3.604852,0 7.209703,-4.50606 6.30849,-8.11091 0,-3.60485 -4.506064,-6.30849 -8.110916,-4.50607 -2.703638,0.90122 -3.604851,4.50607 -1.802426,7.2097 1.802426,1.80244 4.506065,1.80244 5.407278,-0.9012 0.901212,-1.80243 -0.901213,-3.60486 -2.703639,-3.60486 -1.802425,0 -1.802425,3.60486 0,2.70364 m 33.344865,8.11092 c -0.9012,-13.5182 0.90122,-31.54246 11.71578,-39.65336 3.60484,-2.70364 9.91334,-5.40728 15.32062,-4.50608 7.2097,1.80244 13.51818,7.20972 11.71576,15.32062 -0.90122,6.3085 -7.2097,10.81456 -13.5182,9.91334 -4.50606,-0.9012 -8.1109,-5.40726 -7.2097,-9.91334 0.90122,-3.60484 4.50607,-6.30848 8.11092,-5.40727 2.70364,0.90121 4.50606,2.70363 3.60486,5.40727 -0.90122,1.80244 -1.80244,2.70364 -3.60486,2.70364 -0.90122,0 -1.80242,-1.80242 -0.90122,-2.70364 0,-0.9012 0.90122,-0.9012 1.80244,-0.9012 m -18.83536,34.78682 c 4.50607,-7.20972 11.71578,-14.41942 20.7279,-17.12306 15.32062,-5.40727 33.34488,1.80244 39.65336,16.22184 3.60486,7.2097 2.70364,17.12304 -1.80242,23.43154 -2.70364,4.50606 -9.01212,6.30848 -14.4194,3.60484 -5.40728,-1.80242 -9.91334,-8.11092 -8.11092,-13.51818 0.90122,-4.50608 7.2097,-8.11092 11.71576,-5.40728 3.60486,1.80242 6.3085,7.2097 2.70364,9.91334 -2.70364,2.70364 -7.2097,0.9012 -7.2097,-2.70364 -0.90121,-3.60486 5.40728,-2.70364 3.60486,0 m -44.33968,2.61352 c 19.82668,-17.12305 36.04852,-2.70364 36.04852,18.02426 -1.80243,9.91334 -9.91334,18.02424 -19.82668,16.22182 -7.20971,-0.90122 -13.5182,-9.01212 -11.71578,-17.12304 0.90122,-6.3085 7.2097,-11.71576 12.61698,-9.91334 4.50607,0.9012 8.11092,5.40728 7.2097,10.81456 -0.9012,3.60484 -4.50606,6.30848 -7.2097,5.40726 -1.80242,-0.9012 -3.60484,-2.70364 -2.70364,-5.40726 0.90122,-0.90122 1.80244,-2.70364 3.60486,-1.80244"
       inkscape:connector-curvature="0" />
    <path
       id="fruits-00"
       style="opacity:1;fill:#ff0000;stroke:#000000;stroke-width:1.80242562"
       d="m 126.133,139.66397 a 4.0554578,4.0554578 0 0 1 -4.05546,4.05546 4.0554578,4.0554578 0 0 1 -4.05546,-4.05546 4.0554578,4.0554578 0 0 1 4.05546,-4.05546 4.0554578,4.0554578 0 0 1 4.05546,4.05546 z m -52.77158,19.23414 a 4.0554578,4.0554578 0 0 1 -4.055458,4.05546 4.0554578,4.0554578 0 0 1 -4.055458,-4.05546 4.0554578,4.0554578 0 0 1 4.055458,-4.05545 4.0554578,4.0554578 0 0 1 4.055458,4.05545 z m 11.31578,-3.01232 a 4.0554578,4.0554578 0 0 1 -4.055458,4.05546 4.0554578,4.0554578 0 0 1 -4.055458,-4.05546 4.0554578,4.0554578 0 0 1 4.055458,-4.05546 4.0554578,4.0554578 0 0 1 4.055458,4.05546 z m 30.64124,-11.71576 a 4.0554578,4.0554578 0 0 1 -4.05546,4.05546 4.0554578,4.0554578 0 0 1 -4.05546,-4.05546 4.0554578,4.0554578 0 0 1 4.05546,-4.05546 4.0554578,4.0554578 0 0 1 4.05546,4.05546 z m 36.77705,-0.0248 a 4.0554578,4.0554578 0 0 1 -4.05546,4.05546 4.0554578,4.0554578 0 0 1 -4.05546,-4.05546 4.0554578,4.0554578 0 0 1 4.05546,-4.05546 4.0554578,4.0554578 0 0 1 4.05546,4.05546 z m -12.81947,0.9975 a 4.0554578,4.0554578 0 0 1 -4.05546,4.05546 4.0554578,4.0554578 0 0 1 -4.05544,-4.05546 4.0554578,4.0554578 0 0 1 4.05544,-4.05546 4.0554578,4.0554578 0 0 1 4.05546,4.05546 z m 24.70792,19.36522 a 4.0554578,4.0554578 0 0 1 -4.05546,4.05545 4.0554578,4.0554578 0 0 1 -4.05546,-4.05545 4.0554578,4.0554578 0 0 1 4.05546,-4.05546 4.0554578,4.0554578 0 0 1 4.05546,4.05546 z m -11.81702,0.99748 a 4.0554578,4.0554578 0 0 1 -4.05546,4.05545 4.0554578,4.0554578 0 0 1 -4.05546,-4.05545 4.0554578,4.0554578 0 0 1 4.05546,-4.05546 4.0554578,4.0554578 0 0 1 4.05546,4.05546 z m 6.27256,26.88336 a 4.0554578,4.0554578 0 0 1 -4.05546,4.05545 4.0554578,4.0554578 0 0 1 -4.05546,-4.05545 4.0554578,4.0554578 0 0 1 4.05546,-4.05546 4.0554578,4.0554578 0 0 1 4.05546,4.05546 z m 10.73814,-4.51599 a 4.0554578,4.0554578 0 0 1 -4.05546,4.05545 4.0554578,4.0554578 0 0 1 -4.05546,-4.05545 4.0554578,4.0554578 0 0 1 4.05546,-4.05546 4.0554578,4.0554578 0 0 1 4.05546,4.05546 z m -68.69466,17.4452 a 4.0554578,4.0554578 0 0 1 -4.055459,4.05546 4.0554578,4.0554578 0 0 1 -4.055453,-4.05546 4.0554578,4.0554578 0 0 1 4.055453,-4.05546 4.0554578,4.0554578 0 0 1 4.055459,4.05546 z m -8.809656,7.51342 a 4.0554578,4.0554578 0 0 1 -4.055455,4.05546 4.0554578,4.0554578 0 0 1 -4.055458,-4.05546 4.0554578,4.0554578 0 0 1 4.055458,-4.05546 4.0554578,4.0554578 0 0 1 4.055455,4.05546 z m 55.097446,-7.82945 a 4.0554578,4.0554578 0 0 1 -4.05546,4.05546 4.0554578,4.0554578 0 0 1 -4.05545,-4.05546 4.0554578,4.0554578 0 0 1 4.05545,-4.05546 4.0554578,4.0554578 0 0 1 4.05546,4.05546 z m -10.81454,4.50607 a 4.0554578,4.0554578 0 0 1 -4.05546,4.05545 4.0554578,4.0554578 0 0 1 -4.05546,-4.05545 4.0554578,4.0554578 0 0 1 4.05546,-4.05546 4.0554578,4.0554578 0 0 1 4.05546,4.05546 z"
       inkscape:connector-curvature="0" />
    <path
       style="display:inline;opacity:1;fill:#ff0000;fill-rule:evenodd;stroke:#000000;stroke-width:1.81818175px;stroke-linecap:butt;stroke-linejoin:miter;stroke-opacity:1;enable-background:new"
       d="m 97.8947,246.20088 31.88748,0.39367 c -10.12021,-7.99218 -13.2289,-21.77348 -9.84182,-46.45337 -4.11899,1.32935 -6.67764,1.9003 -2.36204,-16.92791 -7.15734,13.79554 -7.55235,0.68462 -8.66079,-9.05447 1.50176,12.79883 -0.50704,16.66957 -3.59082,16.20812 4.45459,11.29992 5.16797,35.1193 -7.43201,55.83396 z"
       id="trunk-00"
       inkscape:connector-curvature="0"
       sodipodi:nodetypes="ccccccc"
       inkscape:label="#trunk-00" />
    <path
       id="target2-00"
       style="display:inline;fill:#aa0000;stroke:#000000;stroke-width:1.60807645;enable-background:new"
       d="m 167.09546,136.33463 c -7.12914,1.05092 -11.03769,5.5718 -11.03769,5.5718 -3.78922,9.64102 1.65154,15.95597 9.66173,10.40984 1.88637,-3.15036 3.55515,-10.98119 1.37596,-15.98164 z M 43.563878,160.23972 c 5.09388,-5.0972 11.05367,-5.54003 11.05367,-5.54003 9.999401,2.70542 11.825851,10.83835 2.59767,13.96302 -3.65389,-0.36364 -10.93583,-3.69231 -13.65134,-8.42299 z m 72.287402,-6.63236 c 7.12914,1.05092 11.03769,5.5718 11.03769,5.5718 3.78922,9.64102 -1.65154,15.95597 -9.66173,10.40984 -1.88637,-3.15036 -3.55515,-10.98119 -1.37596,-15.98164 z m 29.52591,30.78066 c -1.54918,-7.03769 -6.33349,-10.61896 -6.33349,-10.61896 -9.88341,-3.10252 -15.80051,2.76846 -9.70533,10.36921 3.27511,1.66037 11.20383,2.77487 16.03882,0.24975 z m 23.48023,28.72543 c -5.09388,-5.0972 -11.05367,-5.54003 -11.05367,-5.54003 -9.9994,2.70542 -11.82585,10.83835 -2.59767,13.96302 3.65389,-0.36364 10.93583,-3.69231 13.65134,-8.42299 z m -11.7501,25.16805 c 1.03616,-7.1313 -2.17503,-12.17148 -2.17503,-12.17148 -8.15079,-6.39313 -15.76006,-2.99024 -12.74201,6.27336 2.47765,2.71005 9.50183,6.55293 14.91704,5.89812 z M 86.28795,130.69552 c -5.971597,4.0335 -7.537887,9.8008 -7.537887,9.8008 0.757748,10.33118 8.395995,13.66851 13.215864,5.20142 0.336693,-3.65647 -1.548899,-11.43794 -5.677977,-15.00222 z m -22.25486,3.82092 c 7.12914,1.05092 11.03769,5.5718 11.03769,5.5718 3.78922,9.64102 -1.65154,15.95597 -9.66173,10.40984 -1.88637,-3.15036 -3.55515,-10.98119 -1.37596,-15.98164 z m 121.44274,55.84715 c 1.47466,-7.05368 -1.41908,-12.28258 -1.41908,-12.28258 -7.74034,-6.88438 -15.54527,-3.95799 -13.10517,5.47433 2.30553,2.85792 9.07892,7.12732 14.52425,6.80825 z m 1.27983,-32.89173 c -6.56366,-2.97447 -12.297,-1.28809 -12.297,-1.28809 -8.40394,6.0565 -7.24635,14.31122 2.49093,13.98246 3.29118,-1.62828 8.93239,-7.31013 9.80607,-12.69437 z M 56.34452,213.69853 c -1.474663,-7.05368 1.419082,-12.28258 1.419082,-12.28258 7.740337,-6.88438 15.545262,-3.95799 13.105169,5.47433 -2.305529,2.85792 -9.078926,7.12732 -14.524251,6.80825 z M 55.064684,180.8068 c 6.563662,-2.97447 12.297008,-1.28809 12.297008,-1.28809 8.403944,6.0565 7.246345,14.31122 -2.490934,13.98246 -3.291183,-1.62828 -8.932394,-7.31013 -9.806074,-12.69437 z M 132.55,112.69825 c -7.12914,1.05092 -11.03769,5.5718 -11.03769,5.5718 -3.78922,9.64102 1.65154,15.95598 9.66173,10.40984 1.88637,-3.15036 3.55515,-10.98119 1.37596,-15.98164 z m -27.53886,5.7192 c 7.12914,1.05092 11.03769,5.5718 11.03769,5.5718 3.78922,9.64102 -1.65154,15.95597 -9.66173,10.40984 -1.88637,-3.15036 -3.55515,-10.98119 -1.37596,-15.98164 z"
       inkscape:connector-curvature="0" />
  </g>
  <g
     style="display:none"
     inkscape:label="10"
     id="g3410"
     inkscape:groupmode="layer"
     transform="translate(-4.2006413,-5.4144548)">
    <path
       style="display:inline;opacity:0.50839999;fill:#008000;fill-rule:evenodd;stroke:#000000;stroke-width:1.81818175px;stroke-linecap:butt;stroke-linejoin:miter;stroke-opacity:1;enable-background:new"
       d="m 49.80578,245.56371 109.86307,0.5763 c -19.82056,0.0346 -52.11889,-19.57408 -34.04506,-51.09696 -7.86701,1.28386 -25.36958,6.04008 -8.36975,-17.77991 -11.20162,10.34559 -31.178885,6.95674 -27.799618,-4.87037 0.297832,8.71188 -11.519628,12.04984 -15.489166,11.75153 36.061624,26.13462 -8.279169,51.17675 -24.159476,61.41941 z"
       id="trunk-10"
       inkscape:connector-curvature="0"
       sodipodi:nodetypes="ccccccc"
       inkscape:label="#trunk-10" />
    <path
       id="branches-00-7"
       style="display:inline;opacity:0.50839999;fill:#00ff00;stroke:#000000;stroke-width:1.80242562;enable-background:new"
       d="m 72.929153,183.71124 c -2.70364,-2.70363 -5.407276,-6.30849 -9.012122,-7.20971 -7.209703,-2.70364 -15.320619,0 -19.826683,5.40728 -3.604851,5.40728 -4.506064,13.5182 0,18.92548 2.703639,2.70364 7.209703,4.50606 10.814555,3.60484 3.60485,-0.9012 6.308485,-5.40728 5.407278,-9.01212 0,-2.70364 -2.70364,-5.40728 -5.407278,-4.50606 -1.802426,0 -3.604852,2.70364 -2.703639,4.50606 0,0.90121 2.703639,1.80242 2.703639,0 m 34.33244,-22.41624 c 0,-1.80242 -0.9012,-4.50606 -1.80242,-6.3085 -3.60484,-7.2097 -9.012123,-13.51818 -16.221827,-15.32061 -5.407278,-1.80243 -11.715768,-0.90121 -16.221832,1.80243 -3.604851,1.80242 -7.209702,6.30848 -7.209702,10.81455 0,4.50607 4.506064,9.01213 9.012128,8.11091 3.604852,0 7.209703,-4.50606 6.30849,-8.11091 0,-3.60485 -4.506064,-6.30849 -8.110916,-4.50607 -2.703638,0.90122 -3.604851,4.50607 -1.802426,7.2097 1.802426,1.80244 4.506065,1.80244 5.407278,-0.9012 0.901212,-1.80243 -0.901213,-3.60486 -2.703639,-3.60486 -1.802425,0 -1.802425,3.60486 0,2.70364 m 33.344866,8.11092 c -0.9012,-13.5182 0.90122,-31.54246 11.715777,-39.65336 3.60484,-2.70364 9.91334,-5.40728 15.32062,-4.50608 7.2097,1.80244 13.51818,7.20972 11.71576,15.32062 -0.90122,6.3085 -7.2097,10.81456 -13.5182,9.91334 -4.50606,-0.9012 -8.1109,-5.40726 -7.2097,-9.91334 0.90122,-3.60484 4.50607,-6.30848 8.11092,-5.40727 2.70364,0.90121 4.50606,2.70363 3.60486,5.40727 -0.90122,1.80244 -1.80244,2.70364 -3.60486,2.70364 -0.90122,0 -1.80242,-1.80242 -0.90122,-2.70364 0,-0.9012 0.90122,-0.9012 1.80244,-0.9012 m -0.19345,34.78681 c 4.50607,-7.20972 20.39391,-21.16908 29.40603,-23.87272 15.32062,-5.40727 43.30866,-3.66156 49.61714,10.75784 3.60486,7.2097 2.70364,17.12304 -1.80242,23.43154 -2.70364,4.50606 -9.01212,6.30848 -14.4194,3.60484 -5.40728,-1.80242 -9.91334,-8.11092 -8.11092,-13.51818 0.90122,-4.50608 7.2097,-8.11092 11.71576,-5.40728 3.60486,1.80242 6.3085,7.2097 2.70364,9.91334 -2.70364,2.70364 -7.2097,0.9012 -7.2097,-2.70364 -0.90121,-3.60486 5.40728,-2.70364 3.60486,0 m -55.2677,14.18436 c 19.82668,-17.12305 36.04852,-2.70364 36.04852,18.02426 -1.80243,9.91334 -9.91334,18.02424 -19.82668,16.22182 -7.20971,-0.90122 -13.5182,-9.01212 -11.71578,-17.12304 0.90122,-6.3085 7.2097,-11.71576 12.61698,-9.91334 4.50607,0.9012 8.11092,5.40728 7.2097,10.81456 -0.9012,3.60484 -4.50606,6.30848 -7.2097,5.40726 -1.80242,-0.9012 -3.60484,-2.70364 -2.70364,-5.40726 0.90122,-0.90122 1.80244,-2.70364 3.60486,-1.80244"
       inkscape:connector-curvature="0"
       sodipodi:nodetypes="ccccscccccsccscccccsccsccccccsccccccccccccccccccccc" />
    <path
       id="fruits-00-1"
       style="display:inline;opacity:0.50839999;fill:#a4fb05;stroke:#000000;stroke-width:1.80242562;enable-background:new"
       d="m 104.72205,132.98404 c 0,2.23977 -1.81569,4.05546 -4.05546,4.05546 -2.239771,0 -4.055463,-1.81569 -4.055462,-4.05546 -10e-7,-2.23977 1.815691,-4.05546 4.055462,-4.05546 2.23977,0 4.05546,1.81569 4.05546,4.05546 z M 52.9147,153.50383 c 2e-6,2.23977 -1.81569,4.05546 -4.05546,4.05546 -2.239765,0 -4.055451,-1.81569 -4.05545,-4.05546 5e-6,-2.23976 1.815689,-4.05545 4.05545,-4.05545 2.239766,0 4.055456,1.81568 4.05546,4.05545 z m 11.31578,-3.01232 c 2e-6,2.23977 -1.81569,4.05546 -4.05546,4.05546 -2.239765,0 -4.055451,-1.81569 -4.05545,-4.05546 -1e-6,-2.23977 1.815685,-4.05546 4.05545,-4.05546 2.23977,0 4.055462,1.81569 4.05546,4.05546 z M 93.907488,137.4901 c 10e-7,2.23977 -1.815693,4.05546 -4.055464,4.05546 -2.239769,0 -4.055461,-1.81569 -4.05546,-4.05546 -10e-7,-2.23977 1.815691,-4.05546 4.05546,-4.05546 2.239771,0 4.055465,1.81569 4.055464,4.05546 z m 30.027392,3.18932 c 0,2.23977 -1.81569,4.05546 -4.05546,4.05546 -2.23977,0 -4.05546,-1.81569 -4.05546,-4.05546 0,-2.23977 1.81569,-4.05546 4.05546,-4.05546 2.23977,0 4.05546,1.81569 4.05546,4.05546 z m -12.81947,0.9975 c 0,2.23977 -1.81569,4.05546 -4.05546,4.05546 -2.23976,-1e-5 -4.05544,-1.8157 -4.05544,-4.05546 0,-2.23976 1.81568,-4.05545 4.05544,-4.05546 2.23977,0 4.05546,1.81569 4.05546,4.05546 z m 56.52773,8.1158 c -10e-6,2.23976 -1.8157,4.05545 -4.05546,4.05545 -2.23977,0 -4.05546,-1.81569 -4.05546,-4.05545 0,-2.23977 1.81569,-4.05546 4.05546,-4.05546 2.23977,0 4.05546,1.81569 4.05546,4.05546 z m -11.81702,0.99748 c -1e-5,2.23976 -1.8157,4.05545 -4.05546,4.05545 -2.23977,0 -4.05546,-1.81569 -4.05546,-4.05545 0,-2.23977 1.81569,-4.05546 4.05546,-4.05546 2.23977,0 4.05546,1.81569 4.05546,4.05546 z m 16.55775,23.34782 c -1e-5,2.23977 -1.8157,4.05545 -4.05546,4.05545 -2.23977,0 -4.05546,-1.81568 -4.05546,-4.05545 0,-2.23977 1.81569,-4.05546 4.05546,-4.05546 2.23977,0 4.05546,1.81569 4.05546,4.05546 z m 10.73814,-4.51599 c -10e-6,2.23977 -1.8157,4.05545 -4.05546,4.05545 -2.23977,0 -4.05546,-1.81568 -4.05546,-4.05545 0,-2.23977 1.81569,-4.05546 4.05546,-4.05546 2.23977,0 4.05546,1.81569 4.05546,4.05546 z M 66.858342,201.53078 c 1e-6,2.23977 -1.815691,4.05546 -4.05546,4.05546 -2.239766,0 -4.055452,-1.81569 -4.05545,-4.05546 -2e-6,-2.23976 1.815684,-4.05545 4.05545,-4.05546 2.239769,0 4.055461,1.81569 4.05546,4.05546 z m -8.80965,7.51342 c 10e-7,2.23977 -1.815691,4.05546 -4.05546,4.05546 -2.23977,0 -4.055462,-1.81569 -4.05546,-4.05546 -2e-6,-2.23977 1.81569,-4.05546 4.05546,-4.05546 2.239769,0 4.055461,1.81569 4.05546,4.05546 z M 146.573,199.60769 c 0,2.23977 -1.81569,4.05546 -4.05546,4.05546 -2.23976,0 -4.05545,-1.81569 -4.05545,-4.05546 0,-2.23977 1.81569,-4.05546 4.05545,-4.05546 2.23977,0 4.05546,1.81569 4.05546,4.05546 z m -10.81454,4.50607 c 0,2.23977 -1.81569,4.05545 -4.05546,4.05545 -2.23976,0 -4.05545,-1.81568 -4.05546,-4.05545 0,-2.23977 1.81569,-4.05546 4.05546,-4.05546 2.23977,0 4.05546,1.81569 4.05546,4.05546 z"
       inkscape:connector-curvature="0"
       sodipodi:nodetypes="ssssssssssssssssssssssssssssssssssssssssssssssssssssssssssssssssssssss" />
    <path
       inkscape:connector-curvature="0"
       id="target2-10"
       style="display:inline;opacity:0.4;fill:#008000;stroke:#000000;stroke-width:1.60807645;enable-background:new"
       d="m 182.55001,131.33463 c -7.12914,1.05092 -11.03769,5.5718 -11.03769,5.5718 -3.78922,9.64102 1.65154,15.95597 9.66173,10.40984 1.88637,-3.15036 3.55515,-10.98119 1.37596,-15.98164 z M 23.563877,158.42154 c 5.09388,-5.0972 11.05367,-5.54003 11.05367,-5.54003 9.999402,2.70542 11.825851,10.83835 2.59767,13.96302 -3.65389,-0.36364 -10.93583,-3.69231 -13.65134,-8.42299 z m 80.923763,-2.08691 c 7.12914,1.05092 11.03769,5.5718 11.03769,5.5718 3.78922,9.64102 -1.65154,15.95597 -9.66173,10.40984 -1.88637,-3.15036 -3.55515,-10.98119 -1.37596,-15.98164 z m 34.98046,28.50794 c -1.54918,-7.03769 -6.33349,-10.61896 -6.33349,-10.61896 -9.88341,-3.10252 -15.80051,2.76846 -9.70533,10.36921 3.27511,1.66037 11.20383,2.77487 16.03882,0.24975 z m 44.84387,30.08906 c -5.09388,-5.0972 -11.05367,-5.54003 -11.05367,-5.54003 -9.9994,2.70542 -11.82585,10.83835 -2.59767,13.96302 3.65389,-0.36364 10.93583,-3.69231 13.65134,-8.42299 z m -11.7501,25.16805 c 1.03616,-7.1313 -2.17503,-12.17148 -2.17503,-12.17148 -8.15079,-6.39313 -15.76006,-2.99024 -12.74201,6.27336 2.47765,2.71005 9.50183,6.55293 14.91704,5.89812 z M 66.287949,128.87734 c -5.971597,4.0335 -7.537888,9.8008 -7.537888,9.8008 0.757749,10.33118 8.395997,13.66851 13.215866,5.20142 0.336692,-3.65647 -1.5489,-11.43794 -5.677978,-15.00222 z m -22.25486,3.82092 c 7.12914,1.05092 11.037691,5.5718 11.037691,5.5718 3.78922,9.64102 -1.65154,15.95597 -9.661731,10.40984 -1.886369,-3.15036 -3.555149,-10.98119 -1.37596,-15.98164 z m 169.624561,58.11988 c 1.47466,-7.05368 -1.41908,-12.28258 -1.41908,-12.28258 -7.74034,-6.88438 -15.54527,-3.95799 -13.10517,5.47433 2.30553,2.85792 9.07892,7.12732 14.52425,6.80825 z m -0.9929,-39.25537 c -6.56366,-2.97447 -12.297,-1.28809 -12.297,-1.28809 -8.40394,6.0565 -7.24635,14.31122 2.49093,13.98246 3.29118,-1.62828 8.93239,-7.31013 9.80607,-12.69437 z M 23.617247,208.69853 c -1.474663,-7.05368 1.419082,-12.28258 1.419082,-12.28258 7.740337,-6.88438 15.545262,-3.95799 13.10517,5.47433 -2.305529,2.85792 -9.078927,7.12732 -14.524252,6.80825 z M 22.337411,175.8068 c 6.563662,-2.97447 12.297008,-1.28809 12.297008,-1.28809 8.403945,6.0565 7.246345,14.31122 -2.490933,13.98246 -3.291183,-1.62828 -8.932395,-7.31013 -9.806075,-12.69437 z m 90.667139,-69.47219 c -7.12914,1.05092 -11.03769,5.5718 -11.03769,5.5718 -3.789224,9.64102 1.65154,15.95598 9.66173,10.40984 1.88637,-3.15036 3.55515,-10.98119 1.37596,-15.98164 z m -27.538864,5.7192 c 7.12914,1.05092 11.03769,5.5718 11.03769,5.5718 3.789224,9.64102 -1.65154,15.95597 -9.66173,10.40984 -1.88637,-3.15036 -3.55515,-10.98119 -1.37596,-15.98164 z"
       sodipodi:nodetypes="cccccccccccccccccccccccccccccccccccccccccccccccccccccccc" />
  </g>
  <g
     style="display:none"
     inkscape:label="01"
     id="g3510"
     inkscape:groupmode="layer"
     transform="translate(-4.2006413,-5.4144548)">
    <path
       style="display:inline;opacity:0.4;fill:#000080;fill-rule:evenodd;stroke:#000000;stroke-width:1.81818175px;stroke-linecap:butt;stroke-linejoin:miter;stroke-opacity:1;enable-background:new"
       d="m 92.8947,247.10997 38.25112,0.39367 c -13.75237,-2.22417 -19.19277,-97.20246 -13.42304,-125.01093 -6.68109,15.12988 -6.72371,-28.449666 -2.04063,-47.581004 -8.1605,34.533134 -8.0521,15.080728 -8.16724,-12.692803 1.57748,12.813897 0.36185,41.147377 -6.07941,33.657708 4.68956,10.181529 6.70112,111.869909 -8.5408,151.233359 z"
       id="trunk-01"
       inkscape:connector-curvature="0"
       sodipodi:nodetypes="ccccccc"
       inkscape:label="#trunk-01" />
    <path
       id="branches-00-3"
       style="display:inline;opacity:0.4;fill:#00ffff;stroke:#000000;stroke-width:1.80242562;enable-background:new"
       d="m 101.21342,96.287136 c -2.703636,-2.70363 -5.407272,-6.30849 -9.012118,-7.20971 -7.209703,-2.70364 -15.320619,0 -19.826683,5.40728 -3.604851,5.40728 -4.506064,13.518204 0,18.925484 2.703639,2.70364 7.209703,4.50606 10.814555,3.60484 3.60485,-0.9012 6.308485,-5.40728 5.407278,-9.01212 0,-2.70364 -2.70364,-5.40728 -5.407278,-4.50606 -1.802426,0 -3.604852,2.70364 -2.703639,4.50606 0,0.90121 2.703639,1.80242 2.703639,0 M 107.87925,65.016275 c 0,-1.80242 -0.9012,-4.50606 -1.80242,-6.3085 -3.60484,-7.2097 -9.012124,-13.51818 -16.221828,-15.32061 -5.407278,-1.80243 -11.715768,-0.90121 -16.221832,1.80243 -3.604851,1.80242 -7.209702,6.30848 -7.209702,10.81455 0,4.50607 4.506064,9.01213 9.012128,8.11091 3.604852,0 7.209703,-4.50606 6.30849,-8.11091 0,-3.60485 -4.506064,-6.30849 -8.110916,-4.50607 -2.703638,0.90122 -3.604851,4.50607 -1.802426,7.2097 1.802426,1.80244 4.506065,1.80244 5.407278,-0.9012 0.901212,-1.80243 -0.901213,-3.60486 -2.703639,-3.60486 -1.802425,0 -1.802425,3.60486 0,2.70364 m 33.344867,8.11092 c -0.9012,-13.5182 0.90122,-31.54246 11.71578,-39.65336 3.60484,-2.70364 9.91334,-5.40728 15.32062,-4.50608 7.2097,1.80244 13.51818,7.20972 11.71576,15.32062 -0.90122,6.3085 -7.2097,10.81456 -13.5182,9.91334 -4.50606,-0.9012 -8.1109,-5.40726 -7.2097,-9.91334 0.90122,-3.60484 4.50607,-6.30848 8.11092,-5.40727 2.70364,0.90121 4.50606,2.70363 3.60486,5.40727 -0.90122,1.80244 -1.80244,2.70364 -3.60486,2.70364 -0.90122,0 -1.80242,-1.80242 -0.90122,-2.70364 0,-0.9012 0.90122,-0.9012 1.80244,-0.9012 m -19.47818,40.893651 c 4.50607,-14.004652 17.17978,-23.978937 26.1919,-25.801188 15.32062,-5.40727 30.13076,-0.768857 36.43924,13.650543 3.60486,7.2097 2.70364,17.12304 -1.80242,23.43154 -2.70364,4.50606 -9.01212,6.30848 -14.4194,3.60484 -5.40728,-1.80242 -9.91334,-8.11092 -8.11092,-13.51818 0.90122,-4.50608 7.2097,-8.11092 11.71576,-5.40728 3.60486,1.80242 6.3085,7.2097 2.70364,9.91334 -2.70364,2.70364 -7.2097,0.9012 -7.2097,-2.70364 -0.90121,-3.60486 5.40728,-2.70364 3.60486,0 m -46.58957,43.432859 c 16.49225,-29.79386 42.58126,-14.39163 40.22688,10.31037 -1.80243,9.91334 -9.91334,18.02424 -19.82668,16.22182 -7.20971,-0.90122 -13.5182,-9.01212 -11.71578,-17.12304 0.90122,-6.3085 7.2097,-11.71576 12.61698,-9.91334 4.50607,0.9012 8.11092,5.40728 7.2097,10.81456 -0.9012,3.60484 -4.50606,6.30848 -7.2097,5.40726 -1.80242,-0.9012 -3.60484,-2.70364 -2.70364,-5.40726 0.90122,-0.90122 1.80244,-2.70364 3.60486,-1.80244"
       inkscape:connector-curvature="0"
       sodipodi:nodetypes="ccccscccccsccscccccsccsccccccsccccccccccccccccccccc" />
    <path
       id="fruits-00-2"
       style="display:inline;opacity:0.4;fill:#0000ff;stroke:#000000;stroke-width:1.80242562;enable-background:new"
       d="m 127.41865,22.348529 c 0,2.239769 -1.81569,4.055461 -4.05546,4.05546 -2.23977,1e-6 -4.05546,-1.815691 -4.05546,-4.05546 0,-2.239769 1.81569,-4.055461 4.05546,-4.05546 2.23977,-10e-7 4.05546,1.815691 4.05546,4.05546 z M 75.611305,44.796791 c 10e-7,2.239768 -1.815689,4.05546 -4.055458,4.05546 -2.239768,0 -4.055459,-1.815692 -4.055458,-4.05546 4e-6,-2.239765 1.815694,-4.05545 4.055458,-4.05545 2.239765,0 4.055454,1.815685 4.055458,4.05545 z m 11.31578,-3.01232 c 10e-7,2.239768 -1.815689,4.05546 -4.055458,4.05546 -2.239768,0 -4.055459,-1.815692 -4.055458,-4.05546 -10e-7,-2.239769 1.81569,-4.05546 4.055458,-4.05546 2.239769,0 4.055459,1.815691 4.055458,4.05546 z M 116.60409,26.854589 c 0,2.239769 -1.81569,4.055461 -4.05546,4.05546 -2.23977,10e-7 -4.05546,-1.815691 -4.05546,-4.05546 0,-2.239769 1.81569,-4.055461 4.05546,-4.05546 2.23977,-1e-6 4.05546,1.815691 4.05546,4.05546 z m 35.4914,2.86791 c 0,2.239769 -1.81569,4.055461 -4.05546,4.05546 -2.23977,10e-7 -4.05546,-1.815691 -4.05546,-4.05546 0,-2.23977 1.81569,-4.055462 4.05546,-4.05546 2.23977,-2e-6 4.05546,1.81569 4.05546,4.05546 z m -12.81947,0.9975 c 0,2.239769 -1.81569,4.055461 -4.05546,4.05546 -2.23976,-10e-6 -4.05544,-1.815699 -4.05544,-4.05546 0,-2.239762 1.81568,-4.055451 4.05544,-4.05546 2.23977,-2e-6 4.05546,1.81569 4.05546,4.05546 z m 18.27968,17.436747 c -1e-5,2.239765 -1.8157,4.055451 -4.05546,4.05545 -2.23977,1e-6 -4.05546,-1.815685 -4.05546,-4.05545 0,-2.23977 1.81569,-4.055462 4.05546,-4.05546 2.23977,-2e-6 4.05546,1.81569 4.05546,4.05546 z m -11.81702,0.99748 c -10e-6,2.239765 -1.8157,4.055451 -4.05546,4.05545 -2.23977,10e-7 -4.05546,-1.815685 -4.05546,-4.05545 0,-2.23977 1.81569,-4.055462 4.05546,-4.05546 2.23977,-2e-6 4.05546,1.81569 4.05546,4.05546 z m 9.16527,23.347826 c -1e-5,2.239765 -1.8157,4.055451 -4.05546,4.05545 -2.23977,10e-7 -4.05546,-1.815685 -4.05546,-4.05545 -10e-6,-2.239769 1.81569,-4.055461 4.05546,-4.05546 2.23977,-10e-7 4.05546,1.815691 4.05546,4.05546 z m 10.73814,-4.51599 c -1e-5,2.239765 -1.8157,4.055451 -4.05546,4.05545 -2.23977,10e-7 -4.05546,-1.815685 -4.05546,-4.05545 -1e-5,-2.239769 1.81569,-4.055461 4.05546,-4.05546 2.23977,-10e-7 4.05546,1.815691 4.05546,4.05546 z M 94.697541,112.10847 c 10e-7,2.23977 -1.81569,4.05546 -4.055458,4.05546 -2.239767,0 -4.055454,-1.81569 -4.055453,-4.05546 -10e-7,-2.23976 1.815686,-4.05546 4.055453,-4.05546 2.239768,0 4.055459,1.81569 4.055458,4.05546 z m -8.809657,7.51342 c 10e-7,2.23977 -1.815687,4.05546 -4.055454,4.05546 -2.239768,0 -4.055459,-1.81569 -4.055458,-4.05546 -10e-7,-2.23977 1.81569,-4.05546 4.055458,-4.05546 2.239767,0 4.055455,1.81569 4.055454,4.05546 z m 56.061686,0.84868 c 0,2.23977 -1.81569,4.05546 -4.05546,4.05546 -2.23977,0 -4.05545,-1.81569 -4.05545,-4.05546 0,-2.23977 1.81568,-4.05546 4.05545,-4.05546 2.23977,0 4.05546,1.81569 4.05546,4.05546 z m -10.81454,4.50607 c -1e-5,2.23977 -1.8157,4.05545 -4.05546,4.05545 -2.23977,0 -4.05546,-1.81568 -4.05546,-4.05545 0,-2.23977 1.81569,-4.05546 4.05546,-4.05546 2.23977,0 4.05546,1.81569 4.05546,4.05546 z"
       inkscape:connector-curvature="0"
       sodipodi:nodetypes="ssssssssssssssssssssssssssssssssssssssssssssssssssssssssssssssssssssss" />
    <path
       inkscape:connector-curvature="0"
       id="target2-01"
       style="display:inline;opacity:0.4;fill:#008080;stroke:#000000;stroke-width:1.60807645;enable-background:new"
       d="m 178.91364,32.243723 c -7.12914,1.05092 -11.03769,5.5718 -11.03769,5.5718 -3.78922,9.64102 1.65154,15.95597 9.66173,10.40984 1.88637,-3.15036 3.55515,-10.98119 1.37596,-15.98164 z M 41.29115,43.876086 c 5.09388,-5.0972 11.05367,-5.54003 11.05367,-5.54003 9.999402,2.70542 11.825851,10.83835 2.59767,13.96302 -3.65389,-0.36364 -10.93583,-3.69231 -13.65134,-8.42299 z m 71.83286,-1.63236 c 7.12914,1.05092 11.03769,5.5718 11.03769,5.5718 3.78922,9.64102 -1.65154,15.95597 -9.66173,10.40984 -1.88637,-3.15036 -3.55515,-10.98119 -1.37596,-15.98164 z m 29.52591,30.78066 c -1.54918,-7.03769 -6.33349,-10.61896 -6.33349,-10.61896 -9.88341,-3.10252 -15.80051,2.76846 -9.70533,10.36921 3.27511,1.66037 11.20383,2.77487 16.03882,0.24975 z m 38.02568,51.452704 c -5.09388,-5.0972 -11.05367,-5.54003 -11.05367,-5.54003 -9.9994,2.70542 -11.82585,10.83835 -2.59767,13.96302 3.65389,-0.36364 10.93583,-3.69231 13.65134,-8.42299 z m -11.7501,25.16805 c 1.03616,-7.1313 -2.17503,-12.17148 -2.17503,-12.17148 -8.15079,-6.39313 -15.76006,-2.99024 -12.74201,6.27336 2.47765,2.71005 9.50183,6.55293 14.91704,5.89812 z M 84.015222,14.331886 c -5.971597,4.0335 -7.537888,9.8008 -7.537888,9.8008 0.757749,10.33118 8.395997,13.66851 13.215866,5.20142 0.336692,-3.65647 -1.5489,-11.43794 -5.677978,-15.00222 z m -22.25486,3.82092 c 7.12914,1.05092 11.037691,5.5718 11.037691,5.5718 3.78922,9.64102 -1.65154,15.95597 -9.661731,10.40984 -1.886369,-3.15036 -3.555149,-10.98119 -1.37596,-15.98164 z M 197.29401,86.272683 c 1.47466,-7.05368 -1.41908,-12.28258 -1.41908,-12.28258 -7.74034,-6.88438 -15.54527,-3.95799 -13.10517,5.47433 2.30553,2.85792 9.07892,7.12732 14.52425,6.80825 z m 1.27983,-32.89173 c -6.56366,-2.97447 -12.297,-1.28809 -12.297,-1.28809 -8.40394,6.0565 -7.24635,14.31122 2.49093,13.98246 3.29118,-1.62828 8.93239,-7.31013 9.80607,-12.69437 z M 51.344519,121.4258 c -1.474663,-7.05368 1.419082,-12.28258 1.419082,-12.28258 7.740337,-6.88438 15.545262,-3.95799 13.10517,5.47433 -2.305529,2.85792 -9.078927,7.12732 -14.524252,6.80825 z M 50.064683,88.534075 c 6.563662,-2.97447 12.297008,-1.28809 12.297008,-1.28809 8.403945,6.0565 7.246345,14.311215 -2.490933,13.982455 -3.291183,-1.628275 -8.932395,-7.310125 -9.806075,-12.694365 z M 133.91364,-3.665384 c -7.12914,1.05092 -11.03769,5.5718 -11.03769,5.5718 -3.78922,9.64102 1.65154,15.95598 9.66173,10.40984 1.88637,-3.15036 3.55515,-10.98119 1.37596,-15.98164 z m -27.53886,5.7192 c 7.12914,1.05092 11.03769,5.5718 11.03769,5.5718 3.78922,9.64102 -1.65154,15.95597 -9.66173,10.40984 -1.88637,-3.15036 -3.55515,-10.98119 -1.37596,-15.98164 z"
       sodipodi:nodetypes="cccccccccccccccccccccccccccccccccccccccccccccccccccccccc" />
  </g>
  <g
     inkscape:groupmode="layer"
     id="g3420"
     inkscape:label="11"
     style="display:inline"
     transform="translate(-4.2006413,-5.4144548)">
    <path
       style="opacity:0.4;fill:#ffd42a;fill-rule:evenodd;stroke:#000000;stroke-width:1.81818175px;stroke-linecap:butt;stroke-linejoin:miter;stroke-opacity:1"
       d="M 50.260326,247.38189 162.85067,246.59454 C 113.36321,218.13139 118.52164,170.49425 127.81381,121.40667 94.578758,139.31714 118.29506,94.119357 119.94036,73.378625 92.134754,117.81385 94.017239,81.288534 90.808597,63.930485 89.248304,79.79137 92.409802,102.77331 76.242713,96.605305 102.74296,138.21801 87.661674,190.05568 50.260326,247.38189 Z"
       id="trunk-11"
       inkscape:connector-curvature="0"
       sodipodi:nodetypes="ccccccc"
       inkscape:label="#trunk-11" />
    <path
       id="branches-00-6"
       style="display:inline;opacity:0.4;fill:#ffeeaa;stroke:#000000;stroke-width:1.80242562;enable-background:new"
       d="m 76.143274,96.608548 c -2.70364,-2.70363 -5.407276,-6.30849 -9.012122,-7.20971 -7.209703,-2.70364 -15.320619,0 -19.826683,5.40728 -3.604851,5.407282 -4.506064,13.518202 0,18.925482 2.703639,2.70364 7.209703,4.50606 10.814555,3.60484 3.60485,-0.9012 6.308485,-5.40728 5.407278,-9.01212 0,-2.70364 -2.70364,-5.40728 -5.407278,-4.50606 -1.802426,0 -3.604852,2.70364 -2.703639,4.50606 0,0.90121 2.703639,1.80242 2.703639,0 m 32.72538,-42.022396 c 0,-1.80242 -0.9012,-4.50606 -1.80242,-6.3085 -3.60484,-7.2097 -9.012123,-13.51818 -16.221827,-15.32061 -5.407278,-1.80243 -11.715768,-0.90121 -16.221832,1.80243 -3.604851,1.80242 -7.209702,6.30848 -7.209702,10.81455 0,4.50607 4.506064,9.01213 9.012128,8.11091 3.604852,0 7.209703,-4.50606 6.30849,-8.11091 0,-3.60485 -4.506064,-6.30849 -8.110916,-4.50607 -2.703638,0.90122 -3.604851,4.50607 -1.802426,7.2097 1.802426,1.80244 4.506065,1.80244 5.407278,-0.9012 0.901212,-1.80243 -0.901213,-3.60486 -2.703639,-3.60486 -1.802425,0 -1.802425,3.60486 0,2.70364 m 33.344866,8.11092 c -0.9012,-13.5182 0.90122,-31.54246 11.715776,-39.65336 3.60484,-2.70364 9.91334,-5.40728 15.32062,-4.50608 7.2097,1.80244 13.51818,7.20972 11.71576,15.32062 -0.90122,6.3085 -7.2097,10.81456 -13.5182,9.91334 -4.50606,-0.9012 -8.1109,-5.40726 -7.2097,-9.91334 0.90122,-3.60484 4.50607,-6.30848 8.11092,-5.40727 2.70364,0.90121 4.50606,2.70363 3.60486,5.40727 -0.90122,1.80244 -1.80244,2.70364 -3.60486,2.70364 -0.90122,0 -1.80242,-1.80242 -0.90122,-2.70364 0,-0.9012 0.90122,-0.9012 1.80244,-0.9012 m 2.05643,37.358117 c 4.50607,-7.20972 11.71578,-14.41942 20.7279,-17.12306 15.32062,-5.40727 33.34488,1.80244 39.65336,16.22184 3.60486,7.2097 2.70364,17.12304 -1.80242,23.43154 -2.70364,4.506059 -9.01212,6.308479 -14.4194,3.604839 -5.40728,-1.802419 -9.91334,-8.110919 -8.11092,-13.518179 0.90122,-4.50608 7.2097,-8.11092 11.71576,-5.40728 3.60486,1.80242 6.3085,7.2097 2.70364,9.91334 -2.70364,2.70364 -7.2097,0.9012 -7.2097,-2.70364 -0.90121,-3.60486 5.40728,-2.70364 3.60486,0 m -38.55426,32.504849 c 19.82668,-17.12305 36.04852,-2.70364 36.04852,18.02426 -1.80243,9.91334 -9.91334,18.02424 -19.82668,16.22182 -7.20971,-0.90122 -13.5182,-9.01212 -11.71578,-17.12304 0.90122,-6.3085 7.2097,-11.71576 12.61698,-9.91334 4.50607,0.9012 8.11092,5.40728 7.2097,10.81456 -0.9012,3.60484 -4.50606,6.30848 -7.2097,5.40726 -1.80242,-0.9012 -3.60484,-2.70364 -2.70364,-5.40726 0.90122,-0.90122 1.80244,-2.70364 3.60486,-1.80244"
       inkscape:connector-curvature="0"
       sodipodi:nodetypes="ccccscccccsccscccccsccsccccccsccccccccccccccccccccc" />
    <path
       id="fruits-00-9"
       style="display:inline;opacity:0.4;fill:#ffff00;stroke:#000000;stroke-width:1.80242562;enable-background:new"
       d="m 108.77674,23.95559 c 0,2.239769 -1.81569,4.055461 -4.05546,4.05546 -2.23977,10e-7 -4.05546,-1.815691 -4.05546,-4.05546 0,-2.239769 1.81569,-4.055461 4.05546,-4.05546 2.23977,-1e-6 4.05546,1.815691 4.05546,4.05546 z M 56.969399,45.439615 c 10e-7,2.23977 -1.81569,4.05546 -4.055458,4.05546 -2.239768,0 -4.055459,-1.81569 -4.055458,-4.05546 4e-6,-2.23976 1.815693,-4.05545 4.055458,-4.05545 2.239765,0 4.055454,1.81569 4.055458,4.05545 z m 11.31578,-3.01232 c 10e-7,2.23977 -1.81569,4.05546 -4.055458,4.05546 -2.239768,0 -4.055459,-1.81569 -4.055458,-4.05546 -1e-6,-2.23977 1.81569,-4.05546 4.055458,-4.05546 2.239768,0 4.055459,1.81569 4.055458,4.05546 z M 97.962183,28.46165 c 10e-7,2.239769 -1.815691,4.055461 -4.05546,4.05546 -2.239769,10e-7 -4.055461,-1.815691 -4.05546,-4.05546 -10e-7,-2.239769 1.815691,-4.055461 4.05546,-4.05546 2.239769,-10e-7 4.055461,1.815691 4.05546,4.05546 z m 36.777047,-0.0248 c 0,2.239769 -1.81569,4.055461 -4.05546,4.05546 -2.23977,10e-7 -4.05546,-1.815691 -4.05546,-4.05546 0,-2.239769 1.81569,-4.055461 4.05546,-4.05546 2.23977,-1e-6 4.05546,1.815691 4.05546,4.05546 z m -12.81947,0.9975 c 0,2.239769 -1.81569,4.055461 -4.05546,4.05546 -2.23976,-10e-6 -4.05544,-1.815699 -4.05544,-4.05546 0,-2.239761 1.81568,-4.05545 4.05544,-4.05546 2.23977,-10e-7 4.05546,1.815691 4.05546,4.05546 z m 41.74277,27.079112 c 0,2.23977 -1.81569,4.05545 -4.05546,4.05545 -2.23977,0 -4.05546,-1.81568 -4.05546,-4.05545 0,-2.23977 1.81569,-4.05546 4.05546,-4.05546 2.23977,0 4.05546,1.81569 4.05546,4.05546 z m -11.81702,0.99748 c 0,2.23977 -1.81569,4.05545 -4.05546,4.05545 -2.23977,0 -4.05546,-1.81568 -4.05546,-4.05545 0,-2.23977 1.81569,-4.05546 4.05546,-4.05546 2.23977,0 4.05546,1.81569 4.05546,4.05546 z m 6.27256,26.88336 c 0,2.23977 -1.81569,4.05545 -4.05546,4.05545 -2.23977,0 -4.05546,-1.81568 -4.05546,-4.05545 0,-2.23977 1.81569,-4.05546 4.05546,-4.05546 2.23977,0 4.05546,1.81569 4.05546,4.05546 z m 10.73814,-4.51599 c 0,2.23977 -1.81569,4.05545 -4.05546,4.05545 -2.23977,0 -4.05546,-1.81568 -4.05546,-4.05545 0,-2.23977 1.81569,-4.05546 4.05546,-4.05546 2.23977,0 4.05546,1.81569 4.05546,4.05546 z M 68.984568,113.39412 c 0,2.23977 -1.81569,4.05546 -4.055458,4.05546 -2.239767,0 -4.055454,-1.81569 -4.055453,-4.05546 -1e-6,-2.23977 1.815686,-4.05546 4.055453,-4.05546 2.239768,0 4.055458,1.81569 4.055458,4.05546 z m -8.809657,7.51342 c 10e-7,2.23977 -1.815687,4.05546 -4.055454,4.05546 -2.239768,0 -4.055459,-1.81569 -4.055458,-4.05546 -1e-6,-2.23977 1.81569,-4.05546 4.055458,-4.05546 2.239767,0 4.055455,1.81569 4.055454,4.05546 z m 89.809959,4.0628 c 0,2.23977 -1.81569,4.05546 -4.05546,4.05546 -2.23977,0 -4.05545,-1.81569 -4.05545,-4.05546 0,-2.23977 1.81568,-4.05546 4.05545,-4.05546 2.23977,0 4.05546,1.81569 4.05546,4.05546 z m -10.81454,4.50607 c 0,2.23977 -1.81569,4.05545 -4.05546,4.05545 -2.23977,0 -4.05546,-1.81568 -4.05546,-4.05545 0,-2.23977 1.81569,-4.05546 4.05546,-4.05546 2.23977,0 4.05546,1.81569 4.05546,4.05546 z"
       inkscape:connector-curvature="0"
       sodipodi:nodetypes="ssssssssssssssssssssssssssssssssssssssssssssssssssssssssssssssssssssss" />
    <path
       inkscape:connector-curvature="0"
       id="target2-11"
       style="display:inline;opacity:0.4;fill:#d4aa00;stroke:#000000;stroke-width:1.60807645;enable-background:new"
       d="m 181.64091,37.698268 c -7.12914,1.05092 -11.03769,5.5718 -11.03769,5.5718 -3.78922,9.64102 1.65154,15.95597 9.66173,10.40984 1.88637,-3.15036 3.55515,-10.98119 1.37596,-15.98164 z M 26.29115,46.148813 c 5.09388,-5.0972 11.05367,-5.54003 11.05367,-5.54003 9.999402,2.70542 11.825851,10.83835 2.59767,13.96302 -3.65389,-0.36364 -10.93583,-3.69231 -13.65134,-8.42299 z m 82.74195,5.185822 c 7.12914,1.05092 11.03769,5.5718 11.03769,5.5718 3.78922,9.64102 -1.65154,15.95597 -9.66173,10.40984 -1.88637,-3.15036 -3.55515,-10.98119 -1.37596,-15.98164 z m 33.16227,30.78066 c -1.54918,-7.03769 -6.33349,-10.61896 -6.33349,-10.61896 -9.88341,-3.10252 -15.80051,2.76846 -9.70533,10.36921 3.27511,1.66037 11.20383,2.77487 16.03882,0.24975 z m 43.02569,53.270885 c -5.09388,-5.0972 -11.05367,-5.54003 -11.05367,-5.54003 -9.9994,2.70542 -11.82585,10.83835 -2.59767,13.96302 3.65389,-0.36364 10.93583,-3.69231 13.65134,-8.42299 z m -11.7501,25.16805 c 1.03616,-7.1313 -2.17503,-12.17148 -2.17503,-12.17148 -8.15079,-6.39313 -15.76006,-2.99024 -12.74201,6.27336 2.47765,2.71005 9.50183,6.55293 14.91704,5.89812 z M 69.015222,16.604613 c -5.971597,4.0335 -7.537888,9.8008 -7.537888,9.8008 0.757749,10.33118 8.395997,13.66851 13.215866,5.20142 0.336692,-3.65647 -1.5489,-11.43794 -5.677978,-15.00222 z m -22.25486,3.82092 c 7.12914,1.05092 11.037691,5.5718 11.037691,5.5718 3.78922,9.64102 -1.65154,15.95597 -9.661731,10.40984 -1.886369,-3.15036 -3.555149,-10.98119 -1.37596,-15.98164 z M 200.02128,91.727228 c 1.47466,-7.05368 -1.41908,-12.28258 -1.41908,-12.28258 -7.74034,-6.88438 -15.54527,-3.95799 -13.10517,5.47433 2.30553,2.85792 9.07892,7.12732 14.52425,6.80825 z m 1.27983,-32.89173 c -6.56366,-2.97447 -12.297,-1.28809 -12.297,-1.28809 -8.40394,6.0565 -7.24635,14.31122 2.49093,13.98246 3.29118,-1.62828 8.93239,-7.31013 9.80607,-12.69437 z M 26.34452,117.78944 c -1.474663,-7.05368 1.419082,-12.28258 1.419082,-12.28258 7.740337,-6.884379 15.545262,-3.95799 13.10517,5.47433 -2.305529,2.85792 -9.078927,7.12732 -14.524252,6.80825 z M 25.064684,84.897711 c 6.563662,-2.97447 12.297008,-1.28809 12.297008,-1.28809 8.403945,6.0565 7.246345,14.31122 -2.490933,13.98246 -3.291183,-1.62828 -8.932395,-7.31013 -9.806075,-12.69437 z M 114.82273,-1.3926567 c -7.12914,1.05091996 -11.03769,5.5718 -11.03769,5.5718 -3.789222,9.6410197 1.65154,15.9559797 9.66173,10.4098397 1.88637,-3.15036 3.55515,-10.9811897 1.37596,-15.9816397 z m -27.538862,5.7192 c 7.12914,1.05092 11.03769,5.5718 11.03769,5.5718 3.789222,9.6410197 -1.65154,15.9559697 -9.66173,10.4098397 -1.88637,-3.15036 -3.55515,-10.9811897 -1.37596,-15.9816397 z"
       sodipodi:nodetypes="cccccccccccccccccccccccccccccccccccccccccccccccccccccccc" />
  </g>
</svg>
