<?xml version="1.0" encoding="UTF-8" standalone="no"?>
<svg
   xmlns:dc="http://purl.org/dc/elements/1.1/"
   xmlns:cc="http://creativecommons.org/ns#"
   xmlns:rdf="http://www.w3.org/1999/02/22-rdf-syntax-ns#"
   xmlns:svg="http://www.w3.org/2000/svg"
   xmlns="http://www.w3.org/2000/svg"
   xmlns:sodipodi="http://sodipodi.sourceforge.net/DTD/sodipodi-0.dtd"
   xmlns:inkscape="http://www.inkscape.org/namespaces/inkscape"
   id="wugTree1"
   width="137.5px"
   height="148.5px"
   viewBox="0 0 250 270"
   version="1.1"
   inkscape:version="0.91 r13725"
   sodipodi:docname="tree.svg">
  <metadata
     id="metadata160">
    <rdf:RDF>
      <cc:Work
         rdf:about="">
        <dc:format>image/svg+xml</dc:format>
        <dc:type
           rdf:resource="http://purl.org/dc/dcmitype/StillImage" />
        <dc:title />
      </cc:Work>
    </rdf:RDF>
  </metadata>
  <defs
     id="defs158">
    <inkscape:perspective
       sodipodi:type="inkscape:persp3d"
       inkscape:vp_x="0 : 135 : 1"
       inkscape:vp_y="0 : 1000 : 0"
       inkscape:vp_z="250 : 135 : 1"
       inkscape:persp3d-origin="125 : 90 : 1"
       id="perspective3424" />
    <defs
       id="defs4441">
      <linearGradient
         id="00-_13ff04-_0a8e02"
         x1="80.525803"
         y1="67.289993"
         x2="225.97935"
         y2="67.289993"
         gradientTransform="matrix(0.78793906,0,0,1.2691337,0,-10.909091)"
         gradientUnits="userSpaceOnUse">
        <stop
           offset="0%"
           stop-color="#13ff04"
           style="-webkit-tap-highlight-color: rgba(0, 0, 0, 0);"
           id="stop4444" />
        <stop
           offset="100%"
           stop-color="#0a8e02"
           style="-webkit-tap-highlight-color: rgba(0, 0, 0, 0);"
           id="stop4446" />
      </linearGradient>
    </defs>
    <defs
       id="defs4125">
      <linearGradient
         id="710-_27ff0b-_158906"
         x1="50.055428"
         y1="238.16666"
         x2="144.38617"
         y2="238.16666"
         gradientTransform="matrix(1.2314719,0,0,0.81203642,0,-10.909091)"
         gradientUnits="userSpaceOnUse">
        <stop
           offset="0%"
           stop-color="#27ff0b"
           style="-webkit-tap-highlight-color: rgba(0, 0, 0, 0);"
           id="stop4128" />
        <stop
           offset="100%"
           stop-color="#158906"
           style="-webkit-tap-highlight-color: rgba(0, 0, 0, 0);"
           id="stop4130" />
      </linearGradient>
    </defs>
    <defs
       id="defs3809">
      <linearGradient
         id="1420-_33ff22-_20a215"
         x1="223.49814"
         y1="39.125912"
         x2="308.07242"
         y2="39.125912"
         gradientTransform="scale(0.45814883,2.1826969)"
         gradientUnits="userSpaceOnUse">
        <stop
           offset="0%"
           stop-color="#33ff22"
           style="-webkit-tap-highlight-color: rgba(0, 0, 0, 0);"
           id="stop3812" />
        <stop
           offset="100%"
           stop-color="#20a215"
           style="-webkit-tap-highlight-color: rgba(0, 0, 0, 0);"
           id="stop3814" />
      </linearGradient>
    </defs>
    <defs
       id="defs7">
      <linearGradient
         gradientTransform="matrix(0.72894546,0,0,1.3718447,0,-10.909091)"
         y2="140.97804"
         x2="195.69746"
         y1="140.97804"
         x1="139.86024"
         id="2130-_0655ff-_0436a1"
         gradientUnits="userSpaceOnUse">
        <stop
           id="stop10"
           style="-webkit-tap-highlight-color: rgba(0, 0, 0, 0);"
           stop-color="#0655ff"
           offset="0%" />
        <stop
           id="stop12"
           style="-webkit-tap-highlight-color: rgba(0, 0, 0, 0);"
           stop-color="#0436a1"
           offset="100%" />
      </linearGradient>
    </defs>
    <linearGradient
       gradientTransform="matrix(0.72894547,0,0,1.3718447,0.02859581,0.06507533)"
       y2="140.97804"
       x2="195.69746"
       y1="140.97804"
       x1="139.86024"
       id="2130-_0655ff-_0436a1-6"
       gradientUnits="userSpaceOnUse">
      <stop
         id="stop10-9"
         style="-webkit-tap-highlight-color: rgba(0, 0, 0, 0);"
         stop-color="#0655ff"
         offset="0%" />
      <stop
         id="stop12-6"
         style="-webkit-tap-highlight-color: rgba(0, 0, 0, 0);"
         stop-color="#0436a1"
         offset="100%" />
    </linearGradient>
  </defs>
  <sodipodi:namedview
     pagecolor="#ffffff"
     bordercolor="#666666"
     borderopacity="1"
     objecttolerance="10"
     gridtolerance="10"
     guidetolerance="10"
     inkscape:pageopacity="0"
     inkscape:pageshadow="2"
     inkscape:window-width="1436"
     inkscape:window-height="856"
     id="namedview156"
     showgrid="false"
     inkscape:zoom="3.269124"
     inkscape:cx="20.938336"
     inkscape:cy="45.713213"
     inkscape:window-x="11"
     inkscape:window-y="23"
     inkscape:window-maximized="0"
     inkscape:current-layer="layer1" />
  <g
     inkscape:groupmode="layer"
     id="layer1"
     inkscape:label="00"
     style="display:inline">
    <path
       id="trunk-00"
       style="opacity:1;fill:url(#2130-_0655ff-_0436a1);fill-opacity:1;stroke:#000000;stroke-width:2"
       d="m 103.65,258.09092 c 3.5,-6.3 6.3,-13.3 9.1,-20.3 2.8,-9.8 3.5,-20.3 2.8,-30.1 -0.7,-4.2 -2.1,-8.4 -4.2,-11.9 2.1,3.5 4.9,-2.1 4.2,-4.9 0.7,-2.1 0.7,-7 0.7,-8.4 0,4.2 0,8.4 1.4,11.9 3.5,1.4 5.6,-2.1 6.3,-4.2 0.7,-0.7 2.1,-5.6 1.4,-2.1 -1.4,6.3 -2.8,11.9 -2.8,18.2 0.7,3.5 5.6,0 5.6,0.7 -2.1,12.6 -3.5,26.6 1.4,39.2 2.1,4.9 5.6,9.1 9.8,11.9 -11.9,0 -23.8,0 -35.7,0 z"
       inkscape:connector-curvature="0" />
    <path
       style="display:inline;fill:none;stroke:#000000;stroke-width:2"
       d="m 128.17859,207.05599 c 22,-19 40,-3 40,20 -2,11 -11,20 -22,18 -8,-1 -15,-10 -13,-19 1,-7 8,-13 14,-11 5,1 9,6 8,12 -1,4 -5,7 -8,6 -2,-1 -4,-3 -3,-6 1,-1 2,-3 4,-2"
       id="path3418" />
    <path
       style="display:inline;fill:none;stroke:#000000;stroke-width:2"
       d="m 125.37859,188.15599 c 2,-5 6,-8 10,-11 6,-4 12,-8 20,-10 2,0 4,1 6,1 6,1 11,5 13,10 1,4 0,10 -4,12 -3,2 -8,0 -9,-3 -1,-3 0,-7 3,-8 3,-1 5,2 4,4 0,2 -5,2 -4,0 0,-1 2,-1 1,0"
       id="path3416" />
    <path
       style="display:inline;fill:none;stroke:#000000;stroke-width:2"
       d="m 125.37859,188.15599 c 5,-8 13,-16 23,-19 17,-6 37,2 44,18 4,8 3,19 -2,26 -3,5 -10,7 -16,4 -6,-2 -11,-9 -9,-15 1,-5 8,-9 13,-6 4,2 7,8 3,11 -3,3 -8,1 -8,-3 -1,-4 6,-3 4,0"
       id="path3414" />
    <path
       style="display:inline;fill:none;stroke:#000000;stroke-width:2"
       d="m 116.27859,182.55599 c -1,-15 1,-35 13,-44 4,-3 11,-6 17,-5 8,2 15,8 13,17 -1,7 -8,12 -15,11 -5,-1 -9,-6 -8,-11 1,-4 5,-7 9,-6 3,1 5,3 4,6 -1,2 -2,3 -4,3 -1,0 -2,-2 -1,-3 0,-1 1,-1 2,-1"
       id="path3412" />
    <path
       style="display:inline;fill:none;stroke:#000000;stroke-width:2"
       d="m 116.27859,182.55599 c 1,-12 -2,-24 -10,-33 -8.999998,-9 -22.999998,-12 -34.999998,-9 -5,1 -9.999998,4 -14.999998,7 -3,4 -4,10 0,14 5,5 14.999998,3 17.999998,-4 1,-3 -1,-7 -5,-8 -3,0 -7,2 -6,6 0,4 7,2 5,-1 0,-1 -3,0 -1,1"
       id="path3408" />
    <path
       style="display:inline;fill:none;stroke:#000000;stroke-width:2"
       d="m 116.27859,182.55599 c 0,-2 -1,-5 -2,-7 -4,-8 -10,-15 -17.999998,-17 -6,-2 -13,-1 -18,2 -4,2 -8,7 -8,12 0,5 5,10 10,9 4,0 8,-5 7,-9 0,-4 -5,-7 -9,-5 -3,1 -4,5 -2,8 2,2 5,2 6,-1 1,-2 -1,-4 -3,-4 -2,0 -2,4 0,3"
       id="path3406" />
    <path
       style="display:inline;fill:none;stroke:#000000;stroke-width:2"
       d="m 111.37859,195.85599 c -3,-3 -6,-7 -10,-8 -7.999998,-3 -16.999998,0 -21.999998,6 -4,6 -5,15 0,21 3,3 8,5 12,4 4,-1 7,-6 6,-10 0,-3 -3,-6 -6,-5 -2,0 -4,3 -3,5 0,1 3,2 3,0"
       id="path3404" />
    <path
       style="fill:#a4fb05;stroke:#000000;stroke-width:2"
       d="m 174.64999,242.99091 a 4.5,4.5 0 0 1 -4.5,4.5 4.5,4.5 0 0 1 -4.5,-4.5 4.5,4.5 0 0 1 4.5,-4.5 4.5,4.5 0 0 1 4.5,4.5 z"
       id="path3494" />
    <path
       style="fill:#a4fb05;stroke:#000000;stroke-width:2"
       d="m 186.64999,237.99091 a 4.5,4.5 0 0 1 -4.5,4.5 4.5,4.5 0 0 1 -4.5,-4.5 4.5,4.5 0 0 1 4.5,-4.5 4.5,4.5 0 0 1 4.5,4.5 z"
       id="path3492" />
    <path
       style="fill:#a4fb05;stroke:#000000;stroke-width:2"
       d="m 145.64999,216.99091 a 4.5,4.5 0 0 1 -4.5,4.5 4.5,4.5 0 0 1 -4.5,-4.5 4.5,4.5 0 0 1 4.5,-4.5 4.5,4.5 0 0 1 4.5,4.5 z"
       id="path3486" />
    <path
       style="fill:#a4fb05;stroke:#000000;stroke-width:2"
       d="m 157.64999,211.99091 a 4.5,4.5 0 0 1 -4.5,4.5 4.5,4.5 0 0 1 -4.5,-4.5 4.5,4.5 0 0 1 4.5,-4.5 4.5,4.5 0 0 1 4.5,4.5 z"
       id="path3484" />
    <path
       style="fill:#a4fb05;stroke:#000000;stroke-width:2"
       d="m 99.849998,221.79092 a 4.5,4.5 0 0 1 -4.5,4.5 4.5,4.5 0 0 1 -4.5,-4.5 4.5,4.5 0 0 1 4.5,-4.5 4.5,4.5 0 0 1 4.5,4.5 z"
       id="path3482" />
    <path
       style="fill:#a4fb05;stroke:#000000;stroke-width:2"
       d="m 111.85,216.79092 a 4.5,4.5 0 0 1 -4.5,4.5 4.5,4.5 0 0 1 -4.5,-4.5 4.5,4.5 0 0 1 4.5,-4.5 4.5,4.5 0 0 1 4.5,4.5 z"
       id="path3480" />
    <path
       style="fill:#a4fb05;stroke:#000000;stroke-width:2"
       d="m 185.85001,189.09092 a 4.5,4.5 0 0 1 -4.5,4.5 4.5,4.5 0 0 1 -4.5,-4.5 4.5,4.5 0 0 1 4.5,-4.5 4.5,4.5 0 0 1 4.5,4.5 z"
       id="path3474" />
    <path
       style="fill:#a4fb05;stroke:#000000;stroke-width:2"
       d="m 197.85001,184.09092 a 4.5,4.5 0 0 1 -4.5,4.5 4.5,4.5 0 0 1 -4.5,-4.5 4.5,4.5 0 0 1 4.5,-4.5 4.5,4.5 0 0 1 4.5,4.5 z"
       id="path3472" />
    <path
       style="fill:#a4fb05;stroke:#000000;stroke-width:2"
       d="m 164.75,161.49091 a 4.5,4.5 0 0 1 -4.5,4.5 4.5,4.5 0 0 1 -4.5,-4.5 4.5,4.5 0 0 1 4.5,-4.5 4.5,4.5 0 0 1 4.5,4.5 z"
       id="path3470" />
    <path
       style="fill:#a4fb05;stroke:#000000;stroke-width:2"
       d="m 176.75,156.49091 a 4.5,4.5 0 0 1 -4.5,4.5 4.5,4.5 0 0 1 -4.5,-4.5 4.5,4.5 0 0 1 4.5,-4.5 4.5,4.5 0 0 1 4.5,4.5 z"
       id="path3468" />
    <path
       style="fill:#a4fb05;stroke:#000000;stroke-width:2"
       d="m 123.75,174.49091 a 4.5,4.5 0 0 1 -4.5,4.5 4.5,4.5 0 0 1 -4.5,-4.5 4.5,4.5 0 0 1 4.5,-4.5 4.5,4.5 0 0 1 4.5,4.5 z"
       id="path3466" />
    <path
       style="fill:#a4fb05;stroke:#000000;stroke-width:2"
       d="m 135.75,169.49091 a 4.5,4.5 0 0 1 -4.5,4.5 4.5,4.5 0 0 1 -4.5,-4.5 4.5,4.5 0 0 1 4.5,-4.5 4.5,4.5 0 0 1 4.5,4.5 z"
       id="path3464" />
    <path
       style="fill:#a4fb05;stroke:#000000;stroke-width:2"
       d="m 122.75,144.49091 a 4.5,4.5 0 0 1 -4.5,4.5 4.5,4.5 0 0 1 -4.5,-4.5 4.5,4.5 0 0 1 4.5,-4.5 4.5,4.5 0 0 1 4.5,4.5 z"
       id="path3462" />
    <path
       style="fill:#a4fb05;stroke:#000000;stroke-width:2"
       d="m 88.75,157.49091 a 4.5,4.5 0 0 1 -4.5,4.5 4.5,4.5 0 0 1 -4.5,-4.5 4.5,4.5 0 0 1 4.5,-4.5 4.5,4.5 0 0 1 4.5,4.5 z"
       id="path3460" />
    <path
       style="fill:#a4fb05;stroke:#000000;stroke-width:2"
       d="m 76.75,152.49091 a 4.5,4.5 0 0 1 -4.5,4.5 4.5,4.5 0 0 1 -4.5,-4.5 4.5,4.5 0 0 1 4.5,-4.5 4.5,4.5 0 0 1 4.5,4.5 z"
       id="path3458" />
    <path
       style="fill:#a4fb05;stroke:#000000;stroke-width:2"
       d="m 134.75,139.49091 a 4.5,4.5 0 0 1 -4.5,4.5 4.5,4.5 0 0 1 -4.5,-4.5 4.5,4.5 0 0 1 4.5,-4.5 4.5,4.5 0 0 1 4.5,4.5 z"
       id="fruits-00" />
  </g>
  <g
     inkscape:groupmode="layer"
     id="layer7"
     inkscape:label="01"
     style="display:none">
    <path
       inkscape:connector-curvature="0"
       d="m 111.41111,106.89716 c -9,-12.000018 -31.999998,-13.000018 -43.999998,-6 -4,3 -11,0 -16,-2.000004 -3,-2.00001 -6,-5.000014 -7,-9.000018 0,-4.000002 2,-8.000002 6,-9.000002 2,-1 5,0 7,2 2,2 2,6.000004 0,8.000002 -1,2.000004 -4,2.000004 -6,0 -1,-1 -1,-4.000002 0,-5.000002 1,-1 3,0 3,1 1,1 -2,2.000004 -1,1 m 57.999998,19.000024 c -11,-12.000018 -26.999998,-14.000018 -39.999998,-8.000004 -5,2.000004 -10,6.000004 -13,11.000004 -7,11 -9,24 -8,37 1,9 8,17 17,17 8,0 16,-7 16,-15 1,-7 -5,-15 -13,-15 -7,0 -12,6 -11,13 1,5 6,9 11,8 4,-1 7,-7 4,-11 -2,-4 -9,-2 -8,2 0,3 6,3 4,0 m 40.999998,-39 c -3,-3 -6,-7.000004 -10,-8.000004 -7.999998,-3.000014 -16.999998,0 -21.999998,6.000004 -4,6 -5,15 0,21 3,3 8,5 12,4 4,-1 7.000004,-6 6.000004,-10 0,-3 -3.000004,-6 -6.000004,-5 -2,0 -4,3 -3,5 0,1 3,2 3,0 M 116.31111,74.597136 c 0,-2 -1,-5 -2,-7.000002 -4,-8.000002 -10,-15.000002 -17.999998,-17.000002 -6,-2 -13,-1 -18,2 -4,2 -8,7 -8,12 0,5.000004 5,10.000004 10,9.000004 4,0 8,-5 7,-9.000004 0,-4 -5,-7 -9,-5 -3,1 -4,5 -2,8.000002 2,2.000002 5,2.000002 6,-1.000002 1,-2 -1,-4 -3,-4 -2,0 -2,4 0,3 m 36.999998,9.000004 c 1,-12.000004 -2,-24.000004 -10,-33.000004 -8.999994,-9 -22.999998,-12 -34.999998,-9 -5,1 -10,4 -15,7 -3,4 -4,10 0,14 5,5 15,3 18,-4 1,-3 -1,-7 -5,-8 -3,0 -7,2 -6,6 0,4 7,2 5,-1 0,-1 -3,0 -1,1 m 48.999998,27.000004 c 2,-24.000004 -15,-45.000004 -10,-53.000004 1,-2 4,-3 8,-3 4,0 7,5 6,9 -1,3 -4,5 -7,4 -2,-1 -4,-3 -3,-5 0,-2 2,-3 4,-2 1,0 2,2 1,3 0,1 -1,1 -2,1 0,0 -1,-1 0,-1 0,0 0,0 1,0 m 2,47.000004 c -1,-15.000004 1,-35.000004 12.99999,-44.000004 4,-3 11,-6 17,-5 8,2 15,8 13,17 -1,7 -8,12 -15,11 -5,-1 -9,-6 -8,-11 1,-4 5,-7 9,-6 3,1 5,3 4,6 -1,2 -2,3 -4,3 -1,0 -2,-2 -1,-3 0,-1 1,-1 2,-1 m -20.9,46.600004 c 5,-8 13,-16 23,-19 17,-6.000004 37,2 44,18 4,8.000006 3,19.000024 -2,26.000024 -3,5 -10,7 -16,4 -6,-2 -11,-9 -9,-15 1,-5.000014 8,-9.000018 13,-6.000018 4,2.000014 7,8.000018 3,11.000018 -3,3 -8,1 -8,-3 -1,-4 6,-3 4,0 m -52,-16.000024 c 2,-5 6,-8 10,-11 6,-4 12,-8 20,-10.000002 2,0 4,1 6,1 6,1.000002 11,5.000002 13,10.000002 1,4 0,10 -4,12.000002 -3,2 -8,0 -9,-3.000002 -1,-3 0,-7 3,-8 3,-1 5,2 4,4 0,2 -5,2 -4,0 0,-1 2,-1 1,0 m -37.2,50.900024 c 22,-19 40,-3 40,20 -2,11 -11,20 -22,18 -8,-1 -15,-10 -13,-19 1,-7 8,-13 14,-11 5,1 9,6 8,12 -1,4 -5,7 -8,6 -2,-1 -4,-3 -3,-6 1,-1 2,-3 4,-2"
       style="display:inline;fill:none;stroke:#000000;stroke-width:2"
       id="branches-01" />
    <path
       d="m 103.71111,258.19715 c 3.5,-15.3 6.3,-32.3 9.1,-49.3 2.8,-23.8 3.5,-49.29999 2.8,-73.09999 -0.7,-10.2 -2.1,-20.4 -4.2,-28.9 2.1,8.5 4.9,-5.1 4.2,-11.900018 0.7,-5.100004 0.7,-17.000006 0.7,-20.400006 0,10.2 0,20.400006 1.4,28.900024 3.5,3.4 5.59999,-5.100004 6.29999,-10.200018 0.7,-1.700004 2.1,-13.600006 1.4,-5.100006 -1.4,15.300024 -2.8,28.900024 -2.8,44.200024 0.7,8.5 5.6,0 5.6,1.7 -2.1,30.6 -3.5,64.59999 1.4,95.19999 2.1,11.9 5.6,22.1 9.8,28.9 -11.9,0 -23.79999,0 -35.69999,0 z"
       style="display:inline;opacity:1;fill:none;fill-opacity:1;stroke:#000000;stroke-width:2"
       id="trunk-01"
       inkscape:connector-curvature="0"
       inkscape:label="#trunk-01" />
    <path
       id="leaves-01"
       style="display:inline;fill:none;stroke:#000000;stroke-width:1.99996817"
       d="m 197.49942,147.90202 c -5.40618,-7.14803 -12.67274,-8.70983 -12.67274,-8.70983 -4.49317,1.2424 -7.46054,1.8307 -11.07624,6.22431 -1.37635,4.2583 0.83133,8.28878 5.49512,10.53431 4.56336,0.17507 14.10186,-2.68394 18.25386,-8.04879 z M 149.65111,96.329742 c -7.59177,4.763438 -9.78037,11.866598 -9.78037,11.866598 0.8465,4.58439 1.17422,7.59179 5.23644,11.57639 4.12239,1.74193 8.32989,-0.10651 10.97302,-4.55718 0.57173,-4.5309 -1.44599,-14.28234 -6.42909,-18.885808 z M 23.415612,145.80206 c 2.82699,-8.50465 9.2083,-12.31531 9.2083,-12.31531 12.6266,-2.55856 19.18588,5.46918 10.66292,14.08198 -4.26594,1.62994 -14.21745,1.98242 -19.87122,-1.76667 z m 4.45956,-40.34028 c 8.7785,-1.8048 15.26951,1.81567 15.26951,1.81567 8.52982,9.65486 4.85808,19.34944 -6.86245,16.27576 -3.54474,-2.87912 -8.82641,-11.32061 -8.40706,-18.09143 z M 102.8748,68.566626 c 5.9523,6.70029 6.06228,14.13209 6.06228,14.13209 -4.09676,12.214726 -14.328678,13.88208 -17.526948,2.19459 0.72111,-4.5095 5.391084,-13.30446 11.464668,-16.32668 z m 120.6529,18.78561 c -7.52516,-4.86746 -14.88755,-3.84933 -14.88755,-3.84933 -3.7971,2.70443 -6.38419,4.2723 -8.2788,9.637666 0.16333,4.472214 3.61653,7.504338 8.76708,8.019028 4.34792,-1.396504 12.33294,-7.345898 14.39927,-13.807364 z M 211.72972,61.136242 c -8.95619,0.32908 -14.40317,5.38602 -14.40317,5.38602 -1.55921,4.393284 -2.77915,7.161524 -1.25366,12.643324 2.69896,3.56975 7.26684,4.07284 11.78117,1.5402 2.76064,-3.63784 5.88917,-13.091381 3.87566,-19.569544 z M 188.4111,44.197132 c -7.97815,4.08324 -10.77777,10.96844 -10.77777,10.96844 0.44351,4.6407 0.50774,7.66519 4.207,11.988802 3.95476,2.094742 8.30737,0.62026 11.3285,-3.582952 0.96464,-4.46375 -0.19507,-14.3539 -4.75773,-19.37429 z m -0.9849,-18.444 c -7.52516,-4.86745 -14.88755,-3.84933 -14.88755,-3.84933 -3.7971,2.70444 -6.38419,4.2723 -8.2788,9.63767 0.16333,4.47219 3.61653,7.50431 8.76708,8.019 4.34793,-1.3965 12.33294,-7.34588 14.39927,-13.80734 z M 162.19416,-1.2334467 c -8.56573,2.6361699 -12.51807,8.9306991 -12.51807,8.9306991 -0.36886,4.6471596 -0.83065,7.6368296 2.0618,12.5369096 3.531,2.74944 8.07342,2.05299 11.77831,-1.56186 1.72488,-4.22844 2.29973,-14.1695892 -1.32204,-19.9057487 z M 140.3111,0.59713324 C 132.33295,4.6803728 129.53333,11.565572 129.53333,11.565572 c 0.44351,4.6407 0.50774,7.66519 4.207,11.9888 3.95476,2.09474 8.30737,0.62026 11.3285,-3.58295 0.96464,-4.46375 -0.19507,-14.3538992 -4.75773,-19.37428876 z M 88.311112,6.5971324 c 7.88487,4.2605696 10.529894,11.2066296 10.529894,11.2066296 0.32771,12.87926 -8.716994,17.94538 -15.719524,8.05647 -0.86462,-4.4842 0.51588,-14.34595 5.18963,-19.2630996 z m -29.37558,0.82858 c 8.86653,1.30704 13.72761,6.9296496 13.72761,6.9296496 4.71265,11.99057 -2.05404,19.84449 -12.01632,12.94674 -2.34608,-3.9181 -4.42155,-13.65732 -1.71129,-19.8763896 z"
       inkscape:connector-curvature="0" />
    <path
       id="fruits-01"
       style="display:inline;fill:none;stroke:#000000;stroke-width:2"
       d="m 174.71109,170.09713 a 4.5,4.5 0 0 1 -4.5,4.5 4.5,4.5 0 0 1 -4.5,-4.5 4.5,4.5 0 0 1 4.5,-4.5 4.5,4.5 0 0 1 4.5,4.5 z m 12,-5 a 4.5,4.5 0 0 1 -4.5,4.5 4.5,4.5 0 0 1 -4.5,-4.5 4.5,4.5 0 0 1 4.5,-4.5 4.5,4.5 0 0 1 4.5,4.5 z m -124.799988,-4.2 a 4.5,4.5 0 0 1 -4.5,4.5 4.5,4.5 0 0 1 -4.5,-4.5 4.5,4.5 0 0 1 4.5,-4.5 4.5,4.5 0 0 1 4.5,4.5 z m -12,-5 a 4.5,4.5 0 0 1 -4.5,4.5 4.5,4.5 0 0 1 -4.5,-4.5 4.5,4.5 0 0 1 4.5,-4.5 4.5,4.5 0 0 1 4.5,4.5 z m 95.799988,-11.79998 a 4.5,4.5 0 0 1 -4.5,4.5 4.5,4.5 0 0 1 -4.5,-4.5 4.5,4.5 0 0 1 4.5,-4.5 4.5,4.5 0 0 1 4.5,4.5 z m 12,-5 a 4.5,4.5 0 0 1 -4.5,4.5 4.5,4.5 0 0 1 -4.5,-4.5 4.5,4.5 0 0 1 4.5,-4.5 4.5,4.5 0 0 1 4.5,4.5 z m -57.799988,-6.20002 a 4.5,4.5 0 0 1 -4.5,4.5 4.5,4.5 0 0 1 -4.5,-4.5 4.5,4.5 0 0 1 4.5,-4.5 4.5,4.5 0 0 1 4.5,4.5 z m 11.999998,-5 a 4.5,4.5 0 0 1 -4.5,4.5 4.5,4.5 0 0 1 -4.5,-4.5 4.5,4.5 0 0 1 4.5,-4.5 4.5,4.5 0 0 1 4.5,4.5 z M 77.911102,114.89714 a 4.5,4.5 0 0 1 -4.5,4.5 4.5,4.5 0 0 1 -4.5,-4.5 4.5,4.5 0 0 1 4.5,-4.5 4.5,4.5 0 0 1 4.5,4.5 z m -12.000004,-5 a 4.5,4.5 0 0 1 -4.5,4.5 4.5,4.5 0 0 1 -4.5,-4.5 4.5,4.5 0 0 1 4.5,-4.5 4.5,4.5 0 0 1 4.5,4.5 z M 185.9111,89.197128 a 4.5,4.5 0 0 1 -4.5,4.500004 4.5,4.5 0 0 1 -4.5,-4.500004 4.5,4.5 0 0 1 4.5,-4.500004 4.5,4.5 0 0 1 4.5,4.500004 z m 12,-4.999996 a 4.5,4.5 0 0 1 -4.5,4.5 4.5,4.5 0 0 1 -4.5,-4.5 4.5,4.5 0 0 1 4.5,-4.5 4.5,4.5 0 0 1 4.5,4.5 z m -33.1,-30.599998 a 4.5,4.5 0 0 1 -4.5,4.5 4.5,4.5 0 0 1 -4.5,-4.5 4.5,4.5 0 0 1 4.5,-4.5 4.5,4.5 0 0 1 4.5,4.5 z m 12,-5.000004 a 4.5,4.5 0 0 1 -4.5,4.5 4.5,4.5 0 0 1 -4.5,-4.5 4.5,4.5 0 0 1 4.5,-4.5 4.5,4.5 0 0 1 4.5,4.5 z m -53,18.000004 a 4.5,4.5 0 0 1 -4.5,4.5 4.5,4.5 0 0 1 -4.5,-4.5 4.5,4.5 0 0 1 4.5,-4.5 4.5,4.5 0 0 1 4.5,4.5 z m 12,-5 a 4.5,4.5 0 0 1 -4.5,4.5 4.5,4.5 0 0 1 -4.5,-4.5 4.5,4.5 0 0 1 4.5,-4.5 4.5,4.5 0 0 1 4.5,4.5 z m -13,-25.000004 a 4.5,4.5 0 0 1 -4.5,4.5 4.5,4.5 0 0 1 -4.5,-4.5 4.5,4.5 0 0 1 4.5,-4.5 4.5,4.5 0 0 1 4.5,4.5 z m 12,-4.999996 a 4.5,4.5 0 0 1 -4.5,4.5 4.5,4.5 0 0 1 -4.5,-4.5 4.5,4.5 0 0 1 4.5,-4.5 4.5,4.5 0 0 1 4.5,4.5 z M 88.811096,49.59713 a 4.5,4.5 0 0 1 -4.5,4.5 4.5,4.5 0 0 1 -4.5,-4.5 4.5,4.5 0 0 1 4.5,-4.5 4.5,4.5 0 0 1 4.5,4.5 z m -12,-5 a 4.5,4.5 0 0 1 -4.5,4.5 4.5,4.5 0 0 1 -4.5,-4.5 4.5,4.5 0 0 1 4.5,-4.5 4.5,4.5 0 0 1 4.5,4.5 z m -20,18.000004 a 4.5,4.5 0 0 1 -4.5,4.5 4.5,4.5 0 0 1 -4.5,-4.5 4.5,4.5 0 0 1 4.5,-4.5 4.5,4.5 0 0 1 4.5,4.5 z m -12,-5 a 4.5,4.5 0 0 1 -4.5,4.5 4.5,4.5 0 0 1 -4.5,-4.5 4.5,4.5 0 0 1 4.5,-4.5 4.5,4.5 0 0 1 4.5,4.5 z"
       inkscape:connector-curvature="0" />
  </g>
  <g
     inkscape:groupmode="layer"
     id="layer3"
     inkscape:label="10"
     style="display:none">
    <path
       inkscape:connector-curvature="0"
       d="m 89.6,195.79092 c -11,-12 -27,-14 -40,-8 -5,2 -10,6 -13,11 -7,11 -9,24 -8,37 1,9 8,17 17,17 8,0 16,-7 16,-15 1,-7 -5,-15 -13,-15 -7,0 -12,6 -11,13 1,5 6,9 11,8 4,-1 7,-7 4,-11 -2,-4 -9,-2 -8,2 0,3 6,3 4,0 m 41,-39 c -9,-12 -32,-13 -44,-6 -4,3 -11,0 -16,-2 -3,-2 -6,-5 -7,-9 0,-4 2,-8 6,-9 2,-1 5,0 7,2 2,2 2,6 0,8 -1,2 -4,2 -6,0 -1,-1 -1,-4 0,-5 1,-1 3,0 3,1 1,1 -2,2 -1,1 m 58,19 c -3,-3 -6,-7 -10,-8 -8,-3 -17,0 -22,6 -4,6 -5,15 0,21 3,3 8,5 12,4 4,-1 7,-6 6,-10 0,-3 -3,-6 -6,-5 -2,0 -4,3 -3,5 0,1 3,2 3,0 m 35.4,-26.3 c 0,-2 -1,-5 -2,-7 -4,-8 -10,-15 -18,-17 -6,-2 -13,-1 -18,2 -4,2 -8,7 -8,12 0,5 5,10 10,9 4,0 8,-5 7,-9 0,-4 -5,-7 -9,-5 -3,1 -4,5 -2,8 2,2 5,2 6,-1 1,-2 -1,-4 -3,-4 -2,0 -2,4 0,3 m 37,9 c 1,-12 -2,-24 -10,-33 -9,-9 -23,-12 -35,-9 -5,1 -10,4 -15,7 -3,4 -4,10 0,14 5,5 15,3 18,-4 1,-3 -1,-7 -5,-8 -3,0 -7,2 -6,6 0,4 7,2 5,-1 0,-1 -3,0 -1,1 m 49,27 c 2,-24 -15,-45 -10,-53 1,-2 4,-3 8,-3 4,0 7,5 6,9 -1,3 -4,5 -7,4 -2,-1 -4,-3 -3,-5 0,-2 2,-3 4,-2 1,0 2,2 1,3 0,1 -1,1 -2,1 0,0 -1,-1 0,-1 0,0 0,0 1,0 m 2,47 c -1,-15 1,-35 13,-44 4,-3 11,-6 17,-5 8,2 15,8 13,17 -1,7 -8,12 -15,11 -5,-1 -9,-6 -8,-11 1,-4 5,-7 9,-6 3,1 5,3 4,6 -1,2 -2,3 -4,3 -1,0 -2,-2 -1,-3 0,-1 1,-1 2,-1 m -1.4,38.6 c 5,-8 13,-16 23,-19 17,-6 37,2 44,18 4,8 3,19 -2,26 -3,5 -10,7 -16,4 -6,-2 -11,-9 -9,-15 1,-5 8,-9 13,-6 4,2 7,8 3,11 -3,3 -8,1 -8,-3 -1,-4 6,-3 4,0 m -52,-16 c 2,-5 6,-8 10,-11 6,-4 12,-8 20,-10 2,0 4,1 6,1 6,1 11,5 13,10 1,4 0,10 -4,12 -3,2 -8,0 -9,-3 -1,-3 0,-7 3,-8 3,-1 5,2 4,4 0,2 -5,2 -4,0 0,-1 2,-1 1,0 m -31.2,23.9 c 22,-19 40,-3 40,20 -2,11 -11,20 -22,18 -8,-1 -15,-10 -13,-19 1,-7 8,-13 14,-11 5,1 9,6 8,12 -1,4 -5,7 -8,6 -2,-1 -4,-3 -3,-6 1,-1 2,-3 4,-2"
       style="fill:none;stroke:#000000;stroke-width:2"
       id="branches-10" />
    <path
       d="m 65.4,258.09092 c 11,-6.3 19.8,-13.3 28.6,-20.3 8.8,-9.8 11,-20.3 8.8,-30.1 -2.2,-4.2 -6.6,-8.4 -13.2,-11.9 6.6,3.5 15.4,-2.1 13.2,-4.9 2.2,-2.1 2.2,-7 2.2,-8.4 0,4.2 0,8.4 4.4,11.9 11,1.4 17.6,-2.1 19.8,-4.2 2.2,-0.7 6.6,-5.6 4.4,-2.1 -4.4,6.3 -8.8,11.9 -8.8,18.2 2.2,3.5 17.6,0 17.6,0.7 -6.6,12.6 -11,26.6 4.4,39.2 6.6,4.9 17.6,9.1 30.8,11.9 -37.4,0 -74.8,0 -112.2,0 z"
       style="opacity:1;fill:url(#710-_27ff0b-_158906);fill-opacity:1;stroke:#000000;stroke-width:2"
       id="trunk-10"
       inkscape:connector-curvature="0"
       inkscape:label="#trunk-10" />
    <path
       id="leaves-10"
       style="fill:#15b5db;stroke:#000000;stroke-width:1.99996805"
       d="m 211.68822,220.79218 c -5.40618,-7.14803 -12.67274,-8.70983 -12.67274,-8.70983 -4.49317,1.2424 -7.46054,1.8307 -11.07624,6.22431 -1.37635,4.2583 0.83133,8.28878 5.49512,10.53431 4.56336,0.17507 14.10186,-2.68394 18.25386,-8.04879 z m -47.84486,-51.56886 c -7.59177,4.76342 -9.78037,11.86658 -9.78037,11.86658 0.8465,4.58439 1.17422,7.59179 5.23644,11.57639 4.12239,1.74193 8.32989,-0.1065 10.97302,-4.55718 0.57173,-4.5309 -1.44599,-14.28234 -6.42909,-18.88579 z M 1.6028,234.69992 c 2.8269959,-8.50465 9.2083,-12.31531 9.2083,-12.31531 12.626605,-2.55856 19.18588,5.46918 10.662921,14.08198 -4.265942,1.62994 -14.2174487,1.98242 -19.871221,-1.76667 z m 4.46336,-40.34808 c 8.778505,-1.8048 15.269518,1.81567 15.269518,1.81567 8.529814,9.65486 4.858075,19.34944 -6.862454,16.27576 -3.544743,-2.87912 -8.8264125,-11.32061 -8.407064,-18.09143 z m 74.99916,-36.89033 c 5.952297,6.70028 6.06227,14.13209 6.06227,14.13209 -4.096758,12.21472 -14.328675,13.88207 -17.526946,2.19459 0.721113,-4.5095 5.391088,-13.30446 11.464676,-16.32668 z m 150.65388,29.78431 c -7.52516,-4.86746 -14.88755,-3.84933 -14.88755,-3.84933 -3.7971,2.70443 -6.38419,4.2723 -8.2788,9.63766 0.16333,4.4722 3.61653,7.50432 8.76708,8.01901 4.34793,-1.3965 12.33294,-7.34588 14.39927,-13.80734 z m -11.79882,-26.21674 c -8.95617,0.32907 -14.40316,5.38601 -14.40316,5.38601 -1.5592,4.3933 -2.77914,7.16153 -1.25366,12.64333 2.69896,3.56974 7.26685,4.07284 11.78118,1.5402 2.76063,-3.63784 5.88916,-13.09138 3.87564,-19.56954 z M 196.6,144.09092 c -7.97815,4.08324 -10.77777,10.96844 -10.77777,10.96844 0.44351,4.6407 0.50774,7.66519 4.207,11.9888 3.95476,2.09474 8.30737,0.62026 11.3285,-3.58295 0.96464,-4.46375 -0.19507,-14.3539 -4.75773,-19.37429 z m -20.4822,-10.4437 c -7.52516,-4.86746 -14.88755,-3.84933 -14.88755,-3.84933 -3.7971,2.70443 -6.38419,4.2723 -8.2788,9.63766 0.16333,4.4722 3.61654,7.50432 8.76708,8.01901 4.34793,-1.3965 12.33294,-7.34588 14.39927,-13.80734 z m -25.22954,-26.98718 c -8.56573,2.63617 -12.51807,8.9307 -12.51807,8.9307 -0.36886,4.64715 -0.83065,7.63682 2.0618,12.5369 3.531,2.74945 8.07342,2.053 11.77831,-1.56186 1.72488,-4.22844 2.29973,-14.16958 -1.32204,-19.90574 z M 129,108.49092 c -7.97815,4.08324 -10.77777,10.96844 -10.77777,10.96844 0.44351,4.6407 0.50774,7.66519 4.207,11.9888 3.95476,2.09474 8.30737,0.62026 11.3285,-3.58295 0.96464,-4.46375 -0.19507,-14.3539 -4.75773,-19.37429 z m -52,6 c 7.88487,4.26057 10.52989,11.20663 10.52989,11.20663 0.32771,12.87926 -8.71699,17.94538 -15.71952,8.05647 -0.86462,-4.4842 0.51588,-14.34595 5.18963,-19.2631 z m -29.3778,0.82918 c 8.866527,1.30703 13.727605,6.92965 13.727605,6.92965 4.712656,11.99056 -2.054035,19.84448 -12.01632,12.94674 -2.34608,-3.9181 -4.421543,-13.65732 -1.711285,-19.87639 z"
       inkscape:connector-curvature="0" />
    <path
       id="fruits-10"
       style="fill:#e65329;stroke:#000000;stroke-width:2"
       d="m 188.89999,242.99091 a 4.5,4.5 0 0 1 -4.5,4.5 4.5,4.5 0 0 1 -4.5,-4.5 4.5,4.5 0 0 1 4.5,-4.5 4.5,4.5 0 0 1 4.5,4.5 z m 12,-5 a 4.5,4.5 0 0 1 -4.5,4.5 4.5,4.5 0 0 1 -4.5,-4.5 4.5,4.5 0 0 1 4.5,-4.5 4.5,4.5 0 0 1 4.5,4.5 z M 40.099998,249.79093 a 4.5,4.5 0 0 1 -4.5,4.5 4.5,4.5 0 0 1 -4.5,-4.5 4.5,4.5 0 0 1 4.5,-4.5 4.5,4.5 0 0 1 4.5,4.5 z M 28.1,244.79092 a 4.5,4.5 0 0 1 -4.5,4.5 4.5,4.5 0 0 1 -4.5,-4.5 4.5,4.5 0 0 1 4.5,-4.5 4.5,4.5 0 0 1 4.5,4.5 z m 131.79999,-27.80001 a 4.5,4.5 0 0 1 -4.5,4.5 4.5,4.5 0 0 1 -4.5,-4.5 4.5,4.5 0 0 1 4.5,-4.5 4.5,4.5 0 0 1 4.5,4.5 z m 12,-5 a 4.5,4.5 0 0 1 -4.5,4.5 4.5,4.5 0 0 1 -4.5,-4.5 4.5,4.5 0 0 1 4.5,-4.5 4.5,4.5 0 0 1 4.5,4.5 z m -93.799992,9.80001 a 4.5,4.5 0 0 1 -4.5,4.5 4.5,4.5 0 0 1 -4.5,-4.5 4.5,4.5 0 0 1 4.5,-4.5 4.5,4.5 0 0 1 4.5,4.5 z m 12,-5 a 4.5,4.5 0 0 1 -4.5,4.5 4.5,4.5 0 0 1 -4.5,-4.5 4.5,4.5 0 0 1 4.5,-4.5 4.5,4.5 0 0 1 4.5,4.5 z m -34,-13 a 4.5,4.5 0 0 1 -4.5,4.5 4.5,4.5 0 0 1 -4.5,-4.5 4.5,4.5 0 0 1 4.5,-4.5 4.5,4.5 0 0 1 4.5,4.5 z m -12,-5 a 4.5,4.5 0 0 1 -4.5,4.5 4.5,4.5 0 0 1 -4.5,-4.5 4.5,4.5 0 0 1 4.5,-4.5 4.5,4.5 0 0 1 4.5,4.5 z m 150.000012,-9.7 a 4.5,4.5 0 0 1 -4.5,4.5 4.5,4.5 0 0 1 -4.5,-4.5 4.5,4.5 0 0 1 4.5,-4.5 4.5,4.5 0 0 1 4.5,4.5 z m 12,-5 a 4.5,4.5 0 0 1 -4.5,4.5 4.5,4.5 0 0 1 -4.5,-4.5 4.5,4.5 0 0 1 4.5,-4.5 4.5,4.5 0 0 1 4.5,4.5 z M 153.5,161.49091 a 4.5,4.5 0 0 1 -4.5,4.5 4.5,4.5 0 0 1 -4.5,-4.5 4.5,4.5 0 0 1 4.5,-4.5 4.5,4.5 0 0 1 4.5,4.5 z m 12,-5 a 4.5,4.5 0 0 1 -4.5,4.5 4.5,4.5 0 0 1 -4.5,-4.5 4.5,4.5 0 0 1 4.5,-4.5 4.5,4.5 0 0 1 4.5,4.5 z m -53,18 a 4.5,4.5 0 0 1 -4.5,4.5 4.5,4.5 0 0 1 -4.5,-4.5 4.5,4.5 0 0 1 4.5,-4.5 4.5,4.5 0 0 1 4.5,4.5 z m 12,-5 a 4.5,4.5 0 0 1 -4.5,4.5 4.5,4.5 0 0 1 -4.5,-4.5 4.5,4.5 0 0 1 4.5,-4.5 4.5,4.5 0 0 1 4.5,4.5 z m -13,-25 a 4.5,4.5 0 0 1 -4.5,4.5 4.5,4.5 0 0 1 -4.5,-4.5 4.5,4.5 0 0 1 4.5,-4.5 4.5,4.5 0 0 1 4.5,4.5 z m 12,-5 a 4.5,4.5 0 0 1 -4.5,4.5 4.5,4.5 0 0 1 -4.5,-4.5 4.5,4.5 0 0 1 4.5,-4.5 4.5,4.5 0 0 1 4.5,4.5 z m -46,18 a 4.5,4.5 0 0 1 -4.5,4.5 4.5,4.5 0 0 1 -4.5,-4.5 4.5,4.5 0 0 1 4.5,-4.5 4.5,4.5 0 0 1 4.5,4.5 z m -12,-5 a 4.5,4.5 0 0 1 -4.5,4.5 4.5,4.5 0 0 1 -4.5,-4.5 4.5,4.5 0 0 1 4.5,-4.5 4.5,4.5 0 0 1 4.5,4.5 z m -20,18 a 4.5,4.5 0 0 1 -4.5,4.5 4.5,4.5 0 0 1 -4.5,-4.5 4.5,4.5 0 0 1 4.5,-4.5 4.5,4.5 0 0 1 4.5,4.5 z m -12,-5 a 4.5,4.5 0 0 1 -4.5,4.5 4.5,4.5 0 0 1 -4.5,-4.5 4.5,4.5 0 0 1 4.5,-4.5 4.5,4.5 0 0 1 4.5,4.5 z"
       inkscape:connector-curvature="0" />
  </g>
  <g
     inkscape:groupmode="layer"
     id="layer4"
     inkscape:label="11"
     style="display:none">
    <path
       inkscape:connector-curvature="0"
       d="m 89.6,106.79092 c -9,-12.000008 -32,-13.000008 -44,-6 -4,3 -11,0 -16,-2.000004 -3,-2 -6,-5.000004 -7,-9.000008 0,-4 2,-8 6,-9 2,-1 5,0 7,2 2,2 2,6 0,8 -1,2.000004 -4,2.000004 -6,0 -1,-1 -1,-4 0,-5 1,-1 3,0 3,1 1,1 -2,2 -1,1 m 58,19.000012 c -11,-12.000008 -27,-14.000008 -40,-8.000004 -5,2.000004 -10,6.000004 -13,11.000004 -7,11 -9,24 -8,37 1,9 8,17 17,17 8,0 16,-7 16,-15 1,-7 -5,-15 -13,-15 -7,0 -12,6 -11,13 1,5 6,9 11,8 4,-1 7,-7 4,-11 -2,-4 -9,-2 -8,2 0,3 6,3 4,0 m 41,-39 c -3,-3 -6,-7.000004 -10,-8.000004 -8,-3.000004 -17,0 -22,6.000004 -4,6 -5,15 0,21 3,3 8,5 12,4 4,-1 7,-6 6,-10 0,-3 -3,-6 -6,-5 -2,0 -4,3 -3,5 0,1 3,2 3,0 M 105,74.490908 c 0,-2 -1,-5 -2,-7 -4,-8 -10,-15 -18,-17 -6,-2 -13,-1 -18,2 -4,2 -8,7 -8,12 0,5 5,10 10,9 4,0 8,-5 7,-9 0,-4 -5,-7 -9,-5 -3,1 -4,5 -2,8 2,2 5,2 6,-1 1,-2 -1,-4 -3,-4 -2,0 -2,4 0,3 m 37,9 c 1,-12 -2,-24 -10,-33 -9,-9 -23,-12 -35,-9 -5,1 -10,4 -15,7 -3,4 -4,10 0,14 5,5 15,3 18,-4 1,-3 -1,-7 -5,-8 -3,0 -7,2 -6,6 0,4 7,2 5,-1 0,-1 -3,0 -1,1 m 49,27 c 2,-24 -15,-45 -10,-53 1,-2 4,-3 8,-3 4,0 7,5 6,9 -1,3 -4,5 -7,4 -2,-1 -4,-3 -3,-5 0,-2 2,-3 4,-2 1,0 2,2 1,3 0,1 -1,1 -2,1 0,0 -1,-1 0,-1 0,0 0,0 1,0 m 2,47 c -1,-15 1,-35 13,-44 4,-3 11,-6 17,-5 8,2 15,8 13,17 -1,7 -8,12 -15,11 -5,-1 -9,-6 -8,-11 1,-4 5,-7 9,-6 3,1 5,3 4,6 -1,2 -2,3 -4,3 -1,0 -2,-2 -1,-3 0,-1 1,-1 2,-1 m -1.4,46.6 c 5,-8 13,-16 23,-19 17,-6 37,2 44,18 4,8.000004 3,19.000012 -2,26.000012 -3,5 -10,7 -16,4 -6,-2 -11,-9 -9,-15 1,-5.000004 8,-9.000008 13,-6.000008 4,2.000004 7,8.000008 3,11.000008 -3,3 -8,1 -8,-3 -1,-4 6,-3 4,0 m -52,-16.000012 c 2,-5 6,-8 10,-11 6,-4 12,-8 20,-10 2,0 4,1 6,1 6,1 11,5 13,10 1,4 0,10 -4,12 -3,2 -8,0 -9,-3 -1,-3 0,-7 3,-8 3,-1 5,2 4,4 0,2 -5,2 -4,0 0,-1 2,-1 1,0 m -31.2,50.900012 c 22,-19 40,-3 40,20 -2,11 -11,20 -22,18 -8,-1 -15,-10 -13,-19 1,-7 8,-13 14,-11 5,1 9,6 8,12 -1,4 -5,7 -8,6 -2,-1 -4,-3 -3,-6 1,-1 2,-3 4,-2"
       style="fill:none;stroke:#000000;stroke-width:2"
       id="branches-11" />
    <path
       d="m 65.4,258.09092 c 11,-15.3 19.8,-32.3 28.6,-49.3 8.8,-23.8 11,-49.3 8.8,-73.1 -2.2,-10.2 -6.6,-20.4 -13.2,-28.9 6.6,8.5 15.4,-5.1 13.2,-11.900008 2.2,-5.100004 2.2,-17.000004 2.2,-20.400004 0,10.2 0,20.400004 4.4,28.900012 11,3.4 17.6,-5.100004 19.8,-10.200008 2.2,-1.700004 6.6,-13.600004 4.4,-5.100004 -4.4,15.300012 -8.8,28.900012 -8.8,44.200012 2.2,8.5 17.6,0 17.6,1.7 -6.6,30.6 -11,64.6 4.4,95.2 6.6,11.9 17.6,22.1 30.8,28.9 -37.4,0 -74.8,0 -112.2,0 z"
       style="opacity:1;fill:url(#00-_13ff04-_0a8e02);fill-opacity:1;stroke:#000000;stroke-width:2"
       id="trunk-11"
       inkscape:connector-curvature="0" />
    <path
       id="leaves-11"
       style="fill:#2ed9eb;stroke:#000000;stroke-width:1.99996805"
       d="m 211.68762,147.79568 c -5.40618,-7.14803 -12.67274,-8.70983 -12.67274,-8.70983 -4.49317,1.2424 -7.46054,1.8307 -11.07624,6.22431 -1.37635,4.2583 0.83133,8.28878 5.49512,10.53431 4.56336,0.17507 14.10186,-2.68394 18.25386,-8.04879 z M 163.84006,96.222912 c -7.59177,4.763428 -9.78037,11.866588 -9.78037,11.866588 0.8465,4.58439 1.17422,7.59179 5.23644,11.57639 4.12239,1.74193 8.32989,-0.1065 10.97302,-4.55718 0.57173,-4.5309 -1.44599,-14.28234 -6.42909,-18.885798 z M 1.6035,145.69562 c 2.8269959,-8.50465 9.2083,-12.31531 9.2083,-12.31531 12.626605,-2.55856 19.18588,5.46918 10.662921,14.08198 -4.265942,1.62994 -14.2174487,1.98242 -19.871221,-1.76667 z m 4.46156,-40.33978 c 8.778505,-1.8048 15.269518,1.81567 15.269518,1.81567 8.529814,9.65486 4.858075,19.34944 -6.862454,16.27576 C 10.927381,120.56815 5.6457115,112.12666 6.06506,105.35584 Z M 81.06352,68.460798 c 5.952297,6.700283 6.06227,14.132093 6.06227,14.132093 C 83.029032,94.807612 72.797115,96.474966 69.598844,84.78748 70.319957,80.277977 74.989932,71.483021 81.06352,68.460798 Z m 150.65308,18.78501 c -7.52516,-4.867458 -14.88755,-3.849329 -14.88755,-3.849329 -3.7971,2.70443 -6.38419,4.272298 -8.2788,9.637663 0.16333,4.472204 3.61653,7.504328 8.76708,8.019018 4.34793,-1.396504 12.33294,-7.345888 14.39927,-13.807352 z m -11.79802,-26.21594 c -8.95617,0.329074 -14.40316,5.386012 -14.40316,5.386012 -1.5592,4.393293 -2.77914,7.161532 -1.25366,12.643327 2.69896,3.569745 7.26685,4.072836 11.78118,1.540197 2.76063,-3.63784 5.88916,-13.091376 3.87564,-19.569536 z M 196.6,44.090908 c -7.97815,4.08324 -10.77777,10.96844 -10.77777,10.96844 0.44351,4.6407 0.50774,7.66519 4.207,11.9888 3.95476,2.09474 8.30737,0.62026 11.3285,-3.58295 0.96464,-4.46375 -0.19507,-14.3539 -4.75773,-19.37429 z m -20.4849,-18.4437 c -7.52516,-4.867458 -14.88755,-3.849329 -14.88755,-3.849329 -3.7971,2.70443 -6.38419,4.272298 -8.2788,9.637662 0.16333,4.472192 3.61653,7.504313 8.76708,8.019006 4.34793,-1.396497 12.33294,-7.34588 14.39927,-13.807339 z M 150.88306,-1.3391708 c -8.56573,2.636168 -12.51807,8.9306982 -12.51807,8.9306982 -0.36886,4.6471546 -0.83065,7.6368226 2.0618,12.5369046 3.531,2.749447 8.07342,2.052992 11.77831,-1.561861 1.72488,-4.22844 2.29973,-14.1695842 -1.32204,-19.9057418 z M 129,0.49090924 C 121.02185,4.5741488 118.22223,11.459348 118.22223,11.459348 c 0.44351,4.6407 0.50774,7.66519 4.207,11.9888 3.95476,2.09474 8.30737,0.62026 11.3285,-3.58295 C 134.72237,15.401448 133.56266,5.5112988 129,0.49090924 Z M 77,6.4909084 C 84.88487,10.751478 87.52989,17.697538 87.52989,17.697538 87.8576,30.576798 78.8129,35.642918 71.81037,25.754008 70.94575,21.269808 72.32625,11.408058 77,6.4909084 Z m -29.3757,0.82838 C 56.490827,8.6263204 61.351905,14.248936 61.351905,14.248936 66.064561,26.2395 59.29787,34.09342 49.335585,27.195677 46.989505,23.277574 44.914042,13.538356 47.6243,7.3192884 Z"
       inkscape:connector-curvature="0" />
    <path
       id="fruits-11"
       style="fill:#eb6014;stroke:#000000;stroke-width:2"
       d="m 188.89999,169.99091 a 4.5,4.5 0 0 1 -4.5,4.5 4.5,4.5 0 0 1 -4.5,-4.5 4.5,4.5 0 0 1 4.5,-4.5 4.5,4.5 0 0 1 4.5,4.5 z m 12,-5 a 4.5,4.5 0 0 1 -4.5,4.5 4.5,4.5 0 0 1 -4.5,-4.5 4.5,4.5 0 0 1 4.5,-4.5 4.5,4.5 0 0 1 4.5,4.5 z M 40.099998,160.79092 a 4.5,4.5 0 0 1 -4.5,4.5 4.5,4.5 0 0 1 -4.5,-4.5 4.5,4.5 0 0 1 4.5,-4.5 4.5,4.5 0 0 1 4.5,4.5 z m -11.999998,-5 a 4.5,4.5 0 0 1 -4.5,4.5 4.5,4.5 0 0 1 -4.5,-4.5 4.5,4.5 0 0 1 4.5,-4.5 4.5,4.5 0 0 1 4.5,4.5 z m 131.79999,-11.80001 a 4.5,4.5 0 0 1 -4.5,4.5 4.5,4.5 0 0 1 -4.5,-4.5 4.5,4.5 0 0 1 4.5,-4.5 4.5,4.5 0 0 1 4.5,4.5 z m 12,-5 a 4.5,4.5 0 0 1 -4.5,4.5 4.5,4.5 0 0 1 -4.5,-4.5 4.5,4.5 0 0 1 4.5,-4.5 4.5,4.5 0 0 1 4.5,4.5 z m -93.799992,-6.19999 a 4.5,4.5 0 0 1 -4.5,4.5 4.5,4.5 0 0 1 -4.5,-4.5 4.5,4.5 0 0 1 4.5,-4.5 4.5,4.5 0 0 1 4.5,4.5 z m 12,-5 a 4.5,4.5 0 0 1 -4.5,4.5 4.5,4.5 0 0 1 -4.5,-4.5 4.5,4.5 0 0 1 4.5,-4.5 4.5,4.5 0 0 1 4.5,4.5 z m -34,-13 a 4.5,4.5 0 0 1 -4.5,4.5 4.5,4.5 0 0 1 -4.5,-4.5 4.5,4.5 0 0 1 4.5,-4.5 4.5,4.5 0 0 1 4.5,4.5 z m -12,-5 a 4.5,4.5 0 0 1 -4.5,4.5 4.5,4.5 0 0 1 -4.5,-4.5 4.5,4.5 0 0 1 4.5,-4.5 4.5,4.5 0 0 1 4.5,4.5 z M 194.10001,89.090908 a 4.5,4.5 0 0 1 -4.5,4.500004 4.5,4.5 0 0 1 -4.5,-4.500004 4.5,4.5 0 0 1 4.5,-4.5 4.5,4.5 0 0 1 4.5,4.5 z m 12,-5 a 4.5,4.5 0 0 1 -4.5,4.5 4.5,4.5 0 0 1 -4.5,-4.5 4.5,4.5 0 0 1 4.5,-4.5 4.5,4.5 0 0 1 4.5,4.5 z M 153.5,53.49091 a 4.5,4.5 0 0 1 -4.5,4.5 4.5,4.5 0 0 1 -4.5,-4.5 4.5,4.5 0 0 1 4.5,-4.5 4.5,4.5 0 0 1 4.5,4.5 z m 12,-5 a 4.5,4.5 0 0 1 -4.5,4.5 4.5,4.5 0 0 1 -4.5,-4.5 4.5,4.5 0 0 1 4.5,-4.5 4.5,4.5 0 0 1 4.5,4.5 z m -53,18 a 4.5,4.5 0 0 1 -4.5,4.5 4.5,4.5 0 0 1 -4.5,-4.5 4.5,4.5 0 0 1 4.5,-4.5 4.5,4.5 0 0 1 4.5,4.5 z m 12,-5 a 4.5,4.5 0 0 1 -4.5,4.5 4.5,4.5 0 0 1 -4.5,-4.5 4.5,4.5 0 0 1 4.5,-4.5 4.5,4.5 0 0 1 4.5,4.5 z m -13,-25 a 4.5,4.5 0 0 1 -4.5,4.5 4.5,4.5 0 0 1 -4.5,-4.5 4.5,4.5 0 0 1 4.5,-4.5 4.5,4.5 0 0 1 4.5,4.5 z m 12,-5 a 4.5,4.5 0 0 1 -4.5,4.5 4.5,4.5 0 0 1 -4.5,-4.5 4.5,4.5 0 0 1 4.5,-4.5 4.5,4.5 0 0 1 4.5,4.5 z m -46,18 a 4.5,4.5 0 0 1 -4.5,4.5 4.5,4.5 0 0 1 -4.5,-4.5 4.5,4.5 0 0 1 4.5,-4.5 4.5,4.5 0 0 1 4.5,4.5 z m -12,-5 a 4.5,4.5 0 0 1 -4.5,4.5 4.5,4.5 0 0 1 -4.5,-4.5 4.5,4.5 0 0 1 4.5,-4.5 4.5,4.5 0 0 1 4.5,4.5 z m -20,18 a 4.5,4.5 0 0 1 -4.5,4.5 4.5,4.5 0 0 1 -4.5,-4.5 4.5,4.5 0 0 1 4.5,-4.5 4.5,4.5 0 0 1 4.5,4.5 z m -12,-5 a 4.5,4.5 0 0 1 -4.5,4.5 4.5,4.5 0 0 1 -4.5,-4.5 4.5,4.5 0 0 1 4.5,-4.5 4.5,4.5 0 0 1 4.5,4.5 z"
       inkscape:connector-curvature="0" />
  </g>
</svg>
