<?xml version="1.0" standalone="no"?>
<svg xmlns:xlink="http://www.w3.org/1999/xlink" xmlns="http://www.w3.org/2000/svg" id="fepTree3" width="137.5px" height="148.5px" viewBox="0 0 250 270"><svg height="270" version="1.1" width="250" xmlns="http://www.w3.org/2000/svg" style="overflow: hidden; position: relative;"><desc style="-webkit-tap-highlight-color: rgba(0, 0, 0, 0);">Created with Raphaël 2.1.0</desc><defs style="-webkit-tap-highlight-color: rgba(0, 0, 0, 0);"><linearGradient id="1420-_33ff22-_20a215" x1="0" y1="0" x2="1" y2="0" gradientTransform="matrix(1,0,0,1,0,0)" style="-webkit-tap-highlight-color: rgba(0, 0, 0, 0);"><stop offset="0%" stop-color="#33ff22" style="-webkit-tap-highlight-color: rgba(0, 0, 0, 0);"/><stop offset="100%" stop-color="#20a215" style="-webkit-tap-highlight-color: rgba(0, 0, 0, 0);"/></linearGradient></defs><path fill="url(#1420-_33ff22-_20a215)" stroke="#000000" d="M103.65,269C107.15,253.7,109.95,236.7,112.75,219.7C115.55,195.9,116.25,170.4,115.55,146.60000000000002C114.85,136.4,113.45,126.20000000000002,111.35,117.70000000000002C113.45,126.20000000000002,116.25,112.6,115.55,105.80000000000001C116.25,100.70000000000002,116.25,88.80000000000001,116.25,85.4C116.25,95.6,116.25,105.80000000000001,117.65,114.30000000000001C121.15,117.70000000000002,123.25,109.20000000000002,123.95,104.1C124.65,102.4,126.05,90.5,125.35,99C123.95,114.30000000000001,122.55,127.9,122.55,143.2C123.25,151.7,128.15,143.2,128.15,144.9C126.05,175.5,124.65,209.5,129.55,240.1C131.65,252,135.15,262.2,139.35,269C127.45,269,115.55,269,103.65,269Z" stroke-width="2" opacity="1" fill-opacity="1" style="-webkit-tap-highlight-color: rgba(0, 0, 0, 0); opacity: 1; fill-opacity: 1;"/><path fill="none" stroke="#000000" d="M112.75,219.7C112.75,216.7,112.75,213.7,111.75,210.7C110.75,205.7,107.75,201.7,103.75,198.7C99.75,196.7,94.75,196.7,91.75,199.7C88.75,201.7,87.75,206.7,89.75,209.7C90.75,212.7,93.75,213.7,96.75,212.7C99.75,211.7,101.75,207.7,99.75,205.7C98.75,203.7,96.75,203.7,94.75,204.7C93.75,205.7,93.75,207.7,95.75,208.7C96.75,209.7,97.75,205.7,95.75,206.7" stroke-width="2" style="-webkit-tap-highlight-color: rgba(0, 0, 0, 0);"/><path fill="none" stroke="#000000" d="M111.35,117.70000000000002C102.35,105.70000000000002,79.35,104.70000000000002,67.35,111.70000000000002C63.349999999999994,114.70000000000002,56.349999999999994,111.70000000000002,51.349999999999994,109.70000000000002C48.349999999999994,107.70000000000002,45.349999999999994,104.70000000000002,44.349999999999994,100.70000000000002C44.349999999999994,96.70000000000002,46.349999999999994,92.70000000000002,50.349999999999994,91.70000000000002C52.349999999999994,90.70000000000002,55.349999999999994,91.70000000000002,57.349999999999994,93.70000000000002C59.349999999999994,95.70000000000002,59.349999999999994,99.70000000000002,57.349999999999994,101.70000000000002C56.349999999999994,103.70000000000002,53.349999999999994,103.70000000000002,51.349999999999994,101.70000000000002C50.349999999999994,100.70000000000002,50.349999999999994,97.70000000000002,51.349999999999994,96.70000000000002C52.349999999999994,95.70000000000002,54.349999999999994,96.70000000000002,54.349999999999994,97.70000000000002C55.349999999999994,98.70000000000002,52.349999999999994,99.70000000000002,53.349999999999994,98.70000000000002" stroke-width="2" style="-webkit-tap-highlight-color: rgba(0, 0, 0, 0);"/><path fill="none" stroke="#000000" d="M111.35,117.70000000000002C100.35,105.70000000000002,84.35,103.70000000000002,71.35,109.70000000000002C66.35,111.70000000000002,61.349999999999994,115.70000000000002,58.349999999999994,120.70000000000002C51.349999999999994,131.70000000000002,49.349999999999994,144.70000000000002,50.349999999999994,157.70000000000002C51.349999999999994,166.70000000000002,58.349999999999994,174.70000000000002,67.35,174.70000000000002C75.35,174.70000000000002,83.35,167.70000000000002,83.35,159.70000000000002C84.35,152.70000000000002,78.35,144.70000000000002,70.35,144.70000000000002C63.349999999999994,144.70000000000002,58.349999999999994,150.70000000000002,59.349999999999994,157.70000000000002C60.349999999999994,162.70000000000002,65.35,166.70000000000002,70.35,165.70000000000002C74.35,164.70000000000002,77.35,158.70000000000002,74.35,154.70000000000002C72.35,150.70000000000002,65.35,152.70000000000002,66.35,156.70000000000002C66.35,159.70000000000002,72.35,159.70000000000002,70.35,156.70000000000002" stroke-width="2" style="-webkit-tap-highlight-color: rgba(0, 0, 0, 0);"/><path fill="none" stroke="#000000" d="M111.35,117.70000000000002C108.35,114.70000000000002,105.35,110.70000000000002,101.35,109.70000000000002C93.35,106.70000000000002,84.35,109.70000000000002,79.35,115.70000000000002C75.35,121.70000000000002,74.35,130.70000000000002,79.35,136.70000000000002C82.35,139.70000000000002,87.35,141.70000000000002,91.35,140.70000000000002C95.35,139.70000000000002,98.35,134.70000000000002,97.35,130.70000000000002C97.35,127.70000000000002,94.35,124.70000000000002,91.35,125.70000000000002C89.35,125.70000000000002,87.35,128.70000000000002,88.35,130.70000000000002C88.35,131.70000000000002,91.35,132.70000000000002,91.35,130.70000000000002" stroke-width="2" style="-webkit-tap-highlight-color: rgba(0, 0, 0, 0);"/><path fill="none" stroke="#000000" d="M116.25,85.4C116.25,83.4,115.25,80.4,114.25,78.4C110.25,70.4,104.25,63.400000000000006,96.25,61.400000000000006C90.25,59.400000000000006,83.25,60.400000000000006,78.25,63.400000000000006C74.25,65.4,70.25,70.4,70.25,75.4C70.25,80.4,75.25,85.4,80.25,84.4C84.25,84.4,88.25,79.4,87.25,75.4C87.25,71.4,82.25,68.4,78.25,70.4C75.25,71.4,74.25,75.4,76.25,78.4C78.25,80.4,81.25,80.4,82.25,77.4C83.25,75.4,81.25,73.4,79.25,73.4C77.25,73.4,77.25,77.4,79.25,76.4" stroke-width="2" style="-webkit-tap-highlight-color: rgba(0, 0, 0, 0);"/><path fill="none" stroke="#000000" d="M116.25,85.4C117.25,73.4,114.25,61.400000000000006,106.25,52.400000000000006C97.25,43.400000000000006,83.25,40.400000000000006,71.25,43.400000000000006C66.25,44.400000000000006,61.25,47.400000000000006,56.25,50.400000000000006C53.25,54.400000000000006,52.25,60.400000000000006,56.25,64.4C61.25,69.4,71.25,67.4,74.25,60.400000000000006C75.25,57.400000000000006,73.25,53.400000000000006,69.25,52.400000000000006C66.25,52.400000000000006,62.25,54.400000000000006,63.25,58.400000000000006C63.25,62.400000000000006,70.25,60.400000000000006,68.25,57.400000000000006C68.25,56.400000000000006,65.25,57.400000000000006,67.25,58.400000000000006" stroke-width="2" style="-webkit-tap-highlight-color: rgba(0, 0, 0, 0);"/><path fill="none" stroke="#000000" d="M116.25,85.4C118.25,61.400000000000006,101.25,40.400000000000006,106.25,32.400000000000006C107.25,30.400000000000006,110.25,29.400000000000006,114.25,29.400000000000006C118.25,29.400000000000006,121.25,34.400000000000006,120.25,38.400000000000006C119.25,41.400000000000006,116.25,43.400000000000006,113.25,42.400000000000006C111.25,41.400000000000006,109.25,39.400000000000006,110.25,37.400000000000006C110.25,35.400000000000006,112.25,34.400000000000006,114.25,35.400000000000006C115.25,35.400000000000006,116.25,37.400000000000006,115.25,38.400000000000006C115.25,39.400000000000006,114.25,39.400000000000006,113.25,39.400000000000006C113.25,39.400000000000006,112.25,38.400000000000006,113.25,38.400000000000006C113.25,38.400000000000006,113.25,38.400000000000006,114.25,38.400000000000006" stroke-width="2" style="-webkit-tap-highlight-color: rgba(0, 0, 0, 0);"/><path fill="none" stroke="#000000" d="M116.25,85.4C115.25,70.4,117.25,50.400000000000006,129.25,41.400000000000006C133.25,38.400000000000006,140.25,35.400000000000006,146.25,36.400000000000006C154.25,38.400000000000006,161.25,44.400000000000006,159.25,53.400000000000006C158.25,60.400000000000006,151.25,65.4,144.25,64.4C139.25,63.400000000000006,135.25,58.400000000000006,136.25,53.400000000000006C137.25,49.400000000000006,141.25,46.400000000000006,145.25,47.400000000000006C148.25,48.400000000000006,150.25,50.400000000000006,149.25,53.400000000000006C148.25,55.400000000000006,147.25,56.400000000000006,145.25,56.400000000000006C144.25,56.400000000000006,143.25,54.400000000000006,144.25,53.400000000000006C144.25,52.400000000000006,145.25,52.400000000000006,146.25,52.400000000000006" stroke-width="2" style="-webkit-tap-highlight-color: rgba(0, 0, 0, 0);"/><path fill="none" stroke="#000000" d="M125.35,99C130.35,91,138.35,83,148.35,80C165.35,74,185.35,82,192.35,98C196.35,106,195.35,117,190.35,124C187.35,129,180.35,131,174.35,128C168.35,126,163.35,119,165.35,113C166.35,108,173.35,104,178.35,107C182.35,109,185.35,115,181.35,118C178.35,121,173.35,119,173.35,115C172.35,111,179.35,112,177.35,115" stroke-width="2" style="-webkit-tap-highlight-color: rgba(0, 0, 0, 0);"/><path fill="none" stroke="#000000" d="M125.35,99C127.35,94,131.35,91,135.35,88C141.35,84,147.35,80,155.35,78C157.35,78,159.35,79,161.35,79C167.35,80,172.35,84,174.35,89C175.35,93,174.35,99,170.35,101C167.35,103,162.35,101,161.35,98C160.35,95,161.35,91,164.35,90C167.35,89,169.35,92,168.35,94C168.35,96,163.35,96,164.35,94C164.35,93,166.35,93,165.35,94" stroke-width="2" style="-webkit-tap-highlight-color: rgba(0, 0, 0, 0);"/><path fill="none" stroke="#000000" d="M128.15,144.9C150.15,125.9,168.15,141.9,168.15,164.9C166.15,175.9,157.15,184.9,146.15,182.9C138.15,181.9,131.15,172.9,133.15,163.9C134.15,156.9,141.15,150.9,147.15,152.9C152.15,153.9,156.15,158.9,155.15,164.9C154.15,168.9,150.15,171.9,147.15,170.9C145.15,169.9,143.15,167.9,144.15,164.9C145.15,163.9,146.15,161.9,148.15,162.9" stroke-width="2" style="-webkit-tap-highlight-color: rgba(0, 0, 0, 0);"/><path fill="#1fc4e8" stroke="#000000" d="M68.25,13.400000000000006C76.13487,17.660570000000007,78.77989,24.606630000000006,78.77989,24.606630000000006C79.10759999999999,37.485890000000005,70.0629,42.55201000000001,63.06036999999999,32.66310000000001C62.19574999999999,28.178900000000006,63.576249999999995,18.317150000000005,68.24999999999999,13.400000000000006Z" stroke-width="2" transform="matrix(0.9397,-0.342,0.342,0.9397,-9.8429,28.9781)" style="-webkit-tap-highlight-color: rgba(0, 0, 0, 0);"/><path fill="none" stroke="#000000" d="M77.25,42.400000000000006C72.58468,37.080490000000005,69.11802,29.729170000000003,69.15589,23.199920000000006" stroke-width="2" transform="matrix(0.9397,-0.342,0.342,0.9397,-9.8429,28.9781)" style="-webkit-tap-highlight-color: rgba(0, 0, 0, 0);"/><path fill="#1fc4e8" stroke="#000000" d="M88.25,17.400000000000006C96.13487,21.660570000000007,98.77989,28.606630000000006,98.77989,28.606630000000006C99.10759999999999,41.485890000000005,90.0629,46.55201000000001,83.06036999999999,36.66310000000001C82.19574999999999,32.178900000000006,83.57624999999999,22.317150000000005,88.24999999999999,17.400000000000006Z" stroke-width="2" transform="matrix(1,0,0,1,0,0)" style="-webkit-tap-highlight-color: rgba(0, 0, 0, 0);"/><path fill="none" stroke="#000000" d="M97.25,46.400000000000006C92.58468,41.080490000000005,89.11802,33.72917,89.15589,27.199920000000006" stroke-width="2" transform="matrix(1,0,0,1,0,0)" style="-webkit-tap-highlight-color: rgba(0, 0, 0, 0);"/><path fill="#1fc4e8" stroke="#000000" d="M140.25,11.400000000000006C132.27185,15.483240000000006,129.47223,22.368440000000007,129.47223,22.368440000000007C129.91574,27.009140000000006,129.97997,30.033630000000006,133.67923,34.357240000000004C137.63398999999998,36.451980000000006,141.98659999999998,34.977500000000006,145.00772999999998,30.774290000000004C145.97236999999998,26.310540000000003,144.81266,16.420390000000005,140.24999999999997,11.400000000000006Z" stroke-width="2" transform="matrix(1,0,0,1,0,0)" style="-webkit-tap-highlight-color: rgba(0, 0, 0, 0);"/><path fill="none" stroke="#000000" d="M130.25,40.400000000000006C134.71508,36.0855,138.84388,27.457020000000007,138.77128,21.385640000000006" stroke-width="2" transform="matrix(1,0,0,1,0,0)" style="-webkit-tap-highlight-color: rgba(0, 0, 0, 0);"/><path fill="#1fc4e8" stroke="#000000" d="M157.25,7.400000000000006C149.27185,11.483240000000006,146.47223,18.368440000000007,146.47223,18.368440000000007C146.91574,23.009140000000006,146.97997,26.033630000000006,150.67923,30.357240000000004C154.63398999999998,32.451980000000006,158.98659999999998,30.977500000000006,162.00772999999998,26.774290000000004C162.97236999999998,22.310540000000003,161.81266,12.420390000000005,157.24999999999997,7.400000000000006Z" stroke-width="2" transform="matrix(0.9848,0.1736,-0.1736,0.9848,8.5579,-25.0167)" style="-webkit-tap-highlight-color: rgba(0, 0, 0, 0);"/><path fill="none" stroke="#000000" d="M147.25,36.400000000000006C151.71508,32.0855,155.84388,23.457020000000007,155.77128,17.385640000000006" stroke-width="2" transform="matrix(0.9848,0.1736,-0.1736,0.9848,8.5579,-25.0167)" style="-webkit-tap-highlight-color: rgba(0, 0, 0, 0);"/><path fill="#1fc4e8" stroke="#000000" d="M167.25,13.400000000000006C159.27185,17.483240000000006,156.47223,24.368440000000007,156.47223,24.368440000000007C156.91574,29.009140000000006,156.97997,32.03363000000001,160.67923,36.357240000000004C164.63398999999998,38.451980000000006,168.98659999999998,36.977500000000006,172.00772999999998,32.77429000000001C172.97236999999998,28.310540000000007,171.81266,18.42039000000001,167.24999999999997,13.40000000000001Z" stroke-width="2" transform="matrix(0.5,0.866,-0.866,0.5,115.3445,-114.9825)" style="-webkit-tap-highlight-color: rgba(0, 0, 0, 0);"/><path fill="none" stroke="#000000" d="M157.25,42.400000000000006C161.71508,38.0855,165.84388,29.457020000000007,165.77128,23.385640000000006" stroke-width="2" transform="matrix(0.5,0.866,-0.866,0.5,115.3445,-114.9825)" style="-webkit-tap-highlight-color: rgba(0, 0, 0, 0);"/><path fill="#1fc4e8" stroke="#000000" d="M188.35,55C180.37185,59.08324,177.57223,65.96844,177.57223,65.96844C178.01574,70.60914,178.07997,73.63363,181.77922999999998,77.95724C185.73398999999998,80.05198,190.08659999999998,78.5775,193.10772999999998,74.37429C194.07236999999998,69.91054,192.91266,60.020390000000006,188.34999999999997,55Z" stroke-width="2" transform="matrix(1,0,0,1,0,0)" style="-webkit-tap-highlight-color: rgba(0, 0, 0, 0);"/><path fill="none" stroke="#000000" d="M178.35,84C182.81508,79.6855,186.94388,71.05702,186.87127999999998,64.98564" stroke-width="2" transform="matrix(1,0,0,1,0,0)" style="-webkit-tap-highlight-color: rgba(0, 0, 0, 0);"/><path fill="#1fc4e8" stroke="#000000" d="M200.35,65C192.37185,69.08324,189.57223,75.96844,189.57223,75.96844C190.01574,80.60914,190.07997,83.63363,193.77922999999998,87.95724C197.73398999999998,90.05198,202.08659999999998,88.5775,205.10772999999998,84.37429C206.07236999999998,79.91054,204.91266,70.02039,200.34999999999997,65Z" stroke-width="2" transform="matrix(0.9063,0.4226,-0.4226,0.9063,57.5604,-71.6383)" style="-webkit-tap-highlight-color: rgba(0, 0, 0, 0);"/><path fill="none" stroke="#000000" d="M190.35,94C194.81508,89.6855,198.94388,81.05702,198.87127999999998,74.98564" stroke-width="2" transform="matrix(0.9063,0.4226,-0.4226,0.9063,57.5604,-71.6383)" style="-webkit-tap-highlight-color: rgba(0, 0, 0, 0);"/><path fill="#1fc4e8" stroke="#000000" d="M203.35,75C195.37185,79.08324,192.57223,85.96844,192.57223,85.96844C193.01574,90.60914,193.07997,93.63363,196.77922999999998,97.95724C200.73398999999998,100.05198,205.08659999999998,98.5775,208.10772999999998,94.37429C209.07236999999998,89.91054,207.91266,80.02039,203.34999999999997,75Z" stroke-width="2" transform="matrix(0.5,0.866,-0.866,0.5,186.7416,-115.446)" style="-webkit-tap-highlight-color: rgba(0, 0, 0, 0);"/><path fill="none" stroke="#000000" d="M193.35,104C197.81508,99.6855,201.94388,91.05702,201.87127999999998,84.98564" stroke-width="2" transform="matrix(0.5,0.866,-0.866,0.5,186.7416,-115.446)" style="-webkit-tap-highlight-color: rgba(0, 0, 0, 0);"/><path fill="#1fc4e8" stroke="#000000" d="M92.35,80.70000000000002C100.23487,84.96057000000002,102.87988999999999,91.90663000000002,102.87988999999999,91.90663000000002C103.20759999999999,104.78589000000002,94.1629,109.85201000000002,87.16036999999999,99.96310000000003C86.29574999999998,95.47890000000002,87.67624999999998,85.61715000000002,92.34999999999998,80.70000000000002Z" stroke-width="2" transform="matrix(0.9397,0.342,-0.342,0.9397,43.6318,-28.048)" style="-webkit-tap-highlight-color: rgba(0, 0, 0, 0);"/><path fill="none" stroke="#000000" d="M101.35,109.70000000000002C96.68468,104.38049000000002,93.21802,97.02917000000002,93.25589,90.49992000000002" stroke-width="2" transform="matrix(0.9397,0.342,-0.342,0.9397,43.6318,-28.048)" style="-webkit-tap-highlight-color: rgba(0, 0, 0, 0);"/><path fill="#1fc4e8" stroke="#000000" d="M44.349999999999994,103.70000000000002C52.234869999999994,107.96057000000002,54.879889999999996,114.90663000000002,54.879889999999996,114.90663000000002C55.2076,127.78589000000002,46.16289999999999,132.85201,39.16037,122.96310000000003C38.29575,118.47890000000002,39.67625,108.61715000000002,44.35,103.70000000000002Z" stroke-width="2" transform="matrix(0.766,-0.6428,0.6428,0.766,-72.8164,65.3386)" style="-webkit-tap-highlight-color: rgba(0, 0, 0, 0);"/><path fill="none" stroke="#000000" d="M53.349999999999994,132.70000000000002C48.68467999999999,127.38049000000002,45.218019999999996,120.02917000000002,45.255889999999994,113.49992000000002" stroke-width="2" transform="matrix(0.766,-0.6428,0.6428,0.766,-72.8164,65.3386)" style="-webkit-tap-highlight-color: rgba(0, 0, 0, 0);"/><path fill="#1fc4e8" stroke="#000000" d="M41.349999999999994,113.70000000000002C49.234869999999994,117.96057000000002,51.879889999999996,124.90663000000002,51.879889999999996,124.90663000000002C52.2076,137.78589000000002,43.16289999999999,142.85201,36.16037,132.96310000000003C35.29575,128.47890000000004,36.67625,118.61715000000002,41.35,113.70000000000002Z" stroke-width="2" transform="matrix(-0.1736,-0.9848,0.9848,-0.1736,-81.4389,217.0647)" style="-webkit-tap-highlight-color: rgba(0, 0, 0, 0);"/><path fill="none" stroke="#000000" d="M50.349999999999994,142.70000000000002C45.68467999999999,137.38049,42.218019999999996,130.02917000000002,42.255889999999994,123.49992000000002" stroke-width="2" transform="matrix(-0.1736,-0.9848,0.9848,-0.1736,-81.4389,217.0647)" style="-webkit-tap-highlight-color: rgba(0, 0, 0, 0);"/><path fill="#1fc4e8" stroke="#000000" d="M152.15,107.9C144.17185,111.98324000000001,141.37223,118.86844,141.37223,118.86844C141.81574,123.50914,141.87997000000001,126.53363,145.57923,130.85724000000002C149.53399,132.95198000000002,153.8866,131.47750000000002,156.90773,127.27429000000002C157.87237,122.81054000000002,156.71266,112.92039000000003,152.14999999999998,107.90000000000002Z" stroke-width="2" transform="matrix(0.9962,-0.0872,0.0872,0.9962,-11.3907,12.9101)" style="-webkit-tap-highlight-color: rgba(0, 0, 0, 0);"/><path fill="none" stroke="#000000" d="M142.15,136.9C146.61508,132.5855,150.74388000000002,123.95702,150.67128,117.88564000000001" stroke-width="2" transform="matrix(0.9962,-0.0872,0.0872,0.9962,-11.3907,12.9101)" style="-webkit-tap-highlight-color: rgba(0, 0, 0, 0);"/><path fill="#1fc4e8" stroke="#000000" d="M177.15,124.9C169.17185,128.98324,166.37223,135.86844,166.37223,135.86844C166.81574,140.50914,166.87997000000001,143.53363,170.57923,147.85724C174.53399,149.95198,178.8866,148.4775,181.90773,144.27428999999998C182.87237,139.81053999999997,181.71266,129.92038999999997,177.14999999999998,124.89999999999998Z" stroke-width="2" transform="matrix(0.1736,0.9848,-0.9848,0.1736,289.6866,-37.4351)" style="-webkit-tap-highlight-color: rgba(0, 0, 0, 0);"/><path fill="none" stroke="#000000" d="M167.15,153.9C171.61508,149.5855,175.74388000000002,140.95702,175.67128,134.88564" stroke-width="2" transform="matrix(0.1736,0.9848,-0.9848,0.1736,289.6866,-37.4351)" style="-webkit-tap-highlight-color: rgba(0, 0, 0, 0);"/><path fill="none" stroke="#000000" d="M41.25,64.4C41.55,57.400000000000006,47.25,57.400000000000006,52.25,56.400000000000006C50.25,60.400000000000006,48.25,64.4,53.25,69.4" stroke-width="2" style="-webkit-tap-highlight-color: rgba(0, 0, 0, 0);"/><circle cx="40.25" cy="68.4" r="4.5" fill="#e5811a" stroke="#000000" stroke-width="2" style="-webkit-tap-highlight-color: rgba(0, 0, 0, 0);"/><circle cx="52.25" cy="73.4" r="4.5" fill="#e5811a" stroke="#000000" stroke-width="2" style="-webkit-tap-highlight-color: rgba(0, 0, 0, 0);"/><path fill="none" stroke="#000000" d="M73.25,51.400000000000006C73.55,44.400000000000006,79.25,44.400000000000006,84.25,43.400000000000006C82.25,47.400000000000006,80.25,51.400000000000006,85.25,56.400000000000006" stroke-width="2" style="-webkit-tap-highlight-color: rgba(0, 0, 0, 0);"/><circle cx="72.25" cy="55.400000000000006" r="4.5" fill="#e5811a" stroke="#000000" stroke-width="2" style="-webkit-tap-highlight-color: rgba(0, 0, 0, 0);"/><circle cx="84.25" cy="60.400000000000006" r="4.5" fill="#e5811a" stroke="#000000" stroke-width="2" style="-webkit-tap-highlight-color: rgba(0, 0, 0, 0);"/><path fill="none" stroke="#000000" d="M129.25,38.400000000000006C128.95,31.400000000000006,123.25,31.400000000000006,118.25,30.400000000000006C120.25,34.400000000000006,122.25,38.400000000000006,117.25,43.400000000000006" stroke-width="2" style="-webkit-tap-highlight-color: rgba(0, 0, 0, 0);"/><circle cx="130.25" cy="42.400000000000006" r="4.5" fill="#e5811a" stroke="#000000" stroke-width="2" style="-webkit-tap-highlight-color: rgba(0, 0, 0, 0);"/><circle cx="118.25" cy="47.400000000000006" r="4.5" fill="#e5811a" stroke="#000000" stroke-width="2" style="-webkit-tap-highlight-color: rgba(0, 0, 0, 0);"/><path fill="none" stroke="#000000" d="M130.25,68.4C129.95,61.400000000000006,124.25,61.400000000000006,119.25,60.400000000000006C121.25,64.4,123.25,68.4,118.25,73.4" stroke-width="2" style="-webkit-tap-highlight-color: rgba(0, 0, 0, 0);"/><circle cx="131.25" cy="72.4" r="4.5" fill="#e5811a" stroke="#000000" stroke-width="2" style="-webkit-tap-highlight-color: rgba(0, 0, 0, 0);"/><circle cx="119.25" cy="77.4" r="4.5" fill="#e5811a" stroke="#000000" stroke-width="2" style="-webkit-tap-highlight-color: rgba(0, 0, 0, 0);"/><path fill="none" stroke="#000000" d="M171.25,55.400000000000006C170.95,48.400000000000006,165.25,48.400000000000006,160.25,47.400000000000006C162.25,51.400000000000006,164.25,55.400000000000006,159.25,60.400000000000006" stroke-width="2" style="-webkit-tap-highlight-color: rgba(0, 0, 0, 0);"/><circle cx="172.25" cy="59.400000000000006" r="4.5" fill="#e5811a" stroke="#000000" stroke-width="2" style="-webkit-tap-highlight-color: rgba(0, 0, 0, 0);"/><circle cx="160.25" cy="64.4" r="4.5" fill="#e5811a" stroke="#000000" stroke-width="2" style="-webkit-tap-highlight-color: rgba(0, 0, 0, 0);"/><path fill="none" stroke="#000000" d="M192.35,91C192.04999999999998,84,186.35,84,181.35,83C183.35,87,185.35,91,180.35,96" stroke-width="2" style="-webkit-tap-highlight-color: rgba(0, 0, 0, 0);"/><circle cx="193.35" cy="95" r="4.5" fill="#e5811a" stroke="#000000" stroke-width="2" style="-webkit-tap-highlight-color: rgba(0, 0, 0, 0);"/><circle cx="181.35" cy="100" r="4.5" fill="#e5811a" stroke="#000000" stroke-width="2" style="-webkit-tap-highlight-color: rgba(0, 0, 0, 0);"/><path fill="none" stroke="#000000" d="M62.349999999999994,116.70000000000002C62.64999999999999,109.70000000000002,68.35,109.70000000000002,73.35,108.70000000000002C71.35,112.70000000000002,69.35,116.70000000000002,74.35,121.70000000000002" stroke-width="2" style="-webkit-tap-highlight-color: rgba(0, 0, 0, 0);"/><circle cx="61.349999999999994" cy="120.70000000000002" r="4.5" fill="#e5811a" stroke="#000000" stroke-width="2" style="-webkit-tap-highlight-color: rgba(0, 0, 0, 0);"/><circle cx="73.35" cy="125.70000000000002" r="4.5" fill="#e5811a" stroke="#000000" stroke-width="2" style="-webkit-tap-highlight-color: rgba(0, 0, 0, 0);"/><path fill="none" stroke="#000000" d="M106.35,134.70000000000002C106.05,127.70000000000002,100.35,127.70000000000002,95.35,126.70000000000002C97.35,130.70000000000002,99.35,134.70000000000002,94.35,139.70000000000002" stroke-width="2" style="-webkit-tap-highlight-color: rgba(0, 0, 0, 0);"/><circle cx="107.35" cy="138.70000000000002" r="4.5" fill="#e5811a" stroke="#000000" stroke-width="2" style="-webkit-tap-highlight-color: rgba(0, 0, 0, 0);"/><circle cx="95.35" cy="143.70000000000002" r="4.5" fill="#e5811a" stroke="#000000" stroke-width="2" style="-webkit-tap-highlight-color: rgba(0, 0, 0, 0);"/><path fill="none" stroke="#000000" d="M152.15,145.9C151.85,138.9,146.15,138.9,141.15,137.9C143.15,141.9,145.15,145.9,140.15,150.9" stroke-width="2" style="-webkit-tap-highlight-color: rgba(0, 0, 0, 0);"/><circle cx="153.15" cy="149.9" r="4.5" fill="#e5811a" stroke="#000000" stroke-width="2" style="-webkit-tap-highlight-color: rgba(0, 0, 0, 0);"/><circle cx="141.15" cy="154.9" r="4.5" fill="#e5811a" stroke="#000000" stroke-width="2" style="-webkit-tap-highlight-color: rgba(0, 0, 0, 0);"/><path fill="none" stroke="#000000" d="M46.349999999999994,162.70000000000002C46.64999999999999,155.70000000000002,52.349999999999994,155.70000000000002,57.349999999999994,154.70000000000002C55.349999999999994,158.70000000000002,53.349999999999994,162.70000000000002,58.349999999999994,167.70000000000002" stroke-width="2" style="-webkit-tap-highlight-color: rgba(0, 0, 0, 0);"/><circle cx="45.349999999999994" cy="166.70000000000002" r="4.5" fill="#e5811a" stroke="#000000" stroke-width="2" style="-webkit-tap-highlight-color: rgba(0, 0, 0, 0);"/><circle cx="57.349999999999994" cy="171.70000000000002" r="4.5" fill="#e5811a" stroke="#000000" stroke-width="2" style="-webkit-tap-highlight-color: rgba(0, 0, 0, 0);"/><path fill="none" stroke="#000000" d="M181.15,171.9C180.85,164.9,175.15,164.9,170.15,163.9C172.15,167.9,174.15,171.9,169.15,176.9" stroke-width="2" style="-webkit-tap-highlight-color: rgba(0, 0, 0, 0);"/><circle cx="182.15" cy="175.9" r="4.5" fill="#e5811a" stroke="#000000" stroke-width="2" style="-webkit-tap-highlight-color: rgba(0, 0, 0, 0);"/><circle cx="170.15" cy="180.9" r="4.5" fill="#e5811a" stroke="#000000" stroke-width="2" style="-webkit-tap-highlight-color: rgba(0, 0, 0, 0);"/></svg></svg>