<?xml version="1.0" standalone="no"?>
<svg xmlns:xlink="http://www.w3.org/1999/xlink" xmlns="http://www.w3.org/2000/svg" id="fepTree2" width="137.5px" height="148.5px" viewBox="0 0 250 270"><svg height="270" version="1.1" width="250" xmlns="http://www.w3.org/2000/svg" style="overflow: hidden; position: relative; left: -0.5px;"><desc style="-webkit-tap-highlight-color: rgba(0, 0, 0, 0);">Created with Raphaël 2.1.0</desc><defs style="-webkit-tap-highlight-color: rgba(0, 0, 0, 0);"><linearGradient id="710-_27ff0b-_158906" x1="0" y1="0" x2="1" y2="0" gradientTransform="matrix(1,0,0,1,0,0)" style="-webkit-tap-highlight-color: rgba(0, 0, 0, 0);"><stop offset="0%" stop-color="#27ff0b" style="-webkit-tap-highlight-color: rgba(0, 0, 0, 0);"/><stop offset="100%" stop-color="#158906" style="-webkit-tap-highlight-color: rgba(0, 0, 0, 0);"/></linearGradient></defs><path fill="url(#710-_27ff0b-_158906)" stroke="#000000" d="M65.4,269C76.4,262.7,85.19999999999999,255.7,94,248.7C102.8,238.9,105,228.4,102.8,218.6C100.6,214.4,96.2,210.2,89.6,206.7C96.2,210.2,105,204.60000000000002,102.8,201.8C105,199.7,105,194.8,105,193.4C105,197.60000000000002,105,201.8,109.4,205.3C120.4,206.7,127,203.2,129.2,201.10000000000002C131.4,200.4,135.8,195.5,133.6,199C129.2,205.3,124.8,210.9,124.8,217.2C127,220.7,142.4,217.2,142.4,217.9C135.8,230.5,131.4,244.5,146.8,257.1C153.4,262,164.4,266.2,177.6,269C140.2,269,102.8,269,65.4,269Z" stroke-width="2" opacity="1" fill-opacity="1" style="-webkit-tap-highlight-color: rgba(0, 0, 0, 0); opacity: 1; fill-opacity: 1;"/><path fill="none" stroke="#000000" d="M94,248.7C94,245.7,94,242.7,93,239.7C92,234.7,89,230.7,85,227.7C81,225.7,76,225.7,73,228.7C70,230.7,69,235.7,71,238.7C72,241.7,75,242.7,78,241.7C81,240.7,83,236.7,81,234.7C80,232.7,78,232.7,76,233.7C75,234.7,75,236.7,77,237.7C78,238.7,79,234.7,77,235.7" stroke-width="2" style="-webkit-tap-highlight-color: rgba(0, 0, 0, 0);"/><path fill="none" stroke="#000000" d="M89.6,206.7C80.6,194.7,57.599999999999994,193.7,45.599999999999994,200.7C41.599999999999994,203.7,34.599999999999994,200.7,29.599999999999994,198.7C26.599999999999994,196.7,23.599999999999994,193.7,22.599999999999994,189.7C22.599999999999994,185.7,24.599999999999994,181.7,28.599999999999994,180.7C30.599999999999994,179.7,33.599999999999994,180.7,35.599999999999994,182.7C37.599999999999994,184.7,37.599999999999994,188.7,35.599999999999994,190.7C34.599999999999994,192.7,31.599999999999994,192.7,29.599999999999994,190.7C28.599999999999994,189.7,28.599999999999994,186.7,29.599999999999994,185.7C30.599999999999994,184.7,32.599999999999994,185.7,32.599999999999994,186.7C33.599999999999994,187.7,30.599999999999994,188.7,31.599999999999994,187.7" stroke-width="2" style="-webkit-tap-highlight-color: rgba(0, 0, 0, 0);"/><path fill="none" stroke="#000000" d="M89.6,206.7C78.6,194.7,62.599999999999994,192.7,49.599999999999994,198.7C44.599999999999994,200.7,39.599999999999994,204.7,36.599999999999994,209.7C29.599999999999994,220.7,27.599999999999994,233.7,28.599999999999994,246.7C29.599999999999994,255.7,36.599999999999994,263.7,45.599999999999994,263.7C53.599999999999994,263.7,61.599999999999994,256.7,61.599999999999994,248.7C62.599999999999994,241.7,56.599999999999994,233.7,48.599999999999994,233.7C41.599999999999994,233.7,36.599999999999994,239.7,37.599999999999994,246.7C38.599999999999994,251.7,43.599999999999994,255.7,48.599999999999994,254.7C52.599999999999994,253.7,55.599999999999994,247.7,52.599999999999994,243.7C50.599999999999994,239.7,43.599999999999994,241.7,44.599999999999994,245.7C44.599999999999994,248.7,50.599999999999994,248.7,48.599999999999994,245.7" stroke-width="2" style="-webkit-tap-highlight-color: rgba(0, 0, 0, 0);"/><path fill="none" stroke="#000000" d="M89.6,206.7C86.6,203.7,83.6,199.7,79.6,198.7C71.6,195.7,62.599999999999994,198.7,57.599999999999994,204.7C53.599999999999994,210.7,52.599999999999994,219.7,57.599999999999994,225.7C60.599999999999994,228.7,65.6,230.7,69.6,229.7C73.6,228.7,76.6,223.7,75.6,219.7C75.6,216.7,72.6,213.7,69.6,214.7C67.6,214.7,65.6,217.7,66.6,219.7C66.6,220.7,69.6,221.7,69.6,219.7" stroke-width="2" style="-webkit-tap-highlight-color: rgba(0, 0, 0, 0);"/><path fill="none" stroke="#000000" d="M105,193.4C105,191.4,104,188.4,103,186.4C99,178.4,93,171.4,85,169.4C79,167.4,72,168.4,67,171.4C63,173.4,59,178.4,59,183.4C59,188.4,64,193.4,69,192.4C73,192.4,77,187.4,76,183.4C76,179.4,71,176.4,67,178.4C64,179.4,63,183.4,65,186.4C67,188.4,70,188.4,71,185.4C72,183.4,70,181.4,68,181.4C66,181.4,66,185.4,68,184.4" stroke-width="2" style="-webkit-tap-highlight-color: rgba(0, 0, 0, 0);"/><path fill="none" stroke="#000000" d="M105,193.4C106,181.4,103,169.4,95,160.4C86,151.4,72,148.4,60,151.4C55,152.4,50,155.4,45,158.4C42,162.4,41,168.4,45,172.4C50,177.4,60,175.4,63,168.4C64,165.4,62,161.4,58,160.4C55,160.4,51,162.4,52,166.4C52,170.4,59,168.4,57,165.4C57,164.4,54,165.4,56,166.4" stroke-width="2" style="-webkit-tap-highlight-color: rgba(0, 0, 0, 0);"/><path fill="none" stroke="#000000" d="M105,193.4C107,169.4,90,148.4,95,140.4C96,138.4,99,137.4,103,137.4C107,137.4,110,142.4,109,146.4C108,149.4,105,151.4,102,150.4C100,149.4,98,147.4,99,145.4C99,143.4,101,142.4,103,143.4C104,143.4,105,145.4,104,146.4C104,147.4,103,147.4,102,147.4C102,147.4,101,146.4,102,146.4C102,146.4,102,146.4,103,146.4" stroke-width="2" style="-webkit-tap-highlight-color: rgba(0, 0, 0, 0);"/><path fill="none" stroke="#000000" d="M105,193.4C104,178.4,106,158.4,118,149.4C122,146.4,129,143.4,135,144.4C143,146.4,150,152.4,148,161.4C147,168.4,140,173.4,133,172.4C128,171.4,124,166.4,125,161.4C126,157.4,130,154.4,134,155.4C137,156.4,139,158.4,138,161.4C137,163.4,136,164.4,134,164.4C133,164.4,132,162.4,133,161.4C133,160.4,134,160.4,135,160.4" stroke-width="2" style="-webkit-tap-highlight-color: rgba(0, 0, 0, 0);"/><path fill="none" stroke="#000000" d="M133.6,199C138.6,191,146.6,183,156.6,180C173.6,174,193.6,182,200.6,198C204.6,206,203.6,217,198.6,224C195.6,229,188.6,231,182.6,228C176.6,226,171.6,219,173.6,213C174.6,208,181.6,204,186.6,207C190.6,209,193.6,215,189.6,218C186.6,221,181.6,219,181.6,215C180.6,211,187.6,212,185.6,215" stroke-width="2" style="-webkit-tap-highlight-color: rgba(0, 0, 0, 0);"/><path fill="none" stroke="#000000" d="M133.6,199C135.6,194,139.6,191,143.6,188C149.6,184,155.6,180,163.6,178C165.6,178,167.6,179,169.6,179C175.6,180,180.6,184,182.6,189C183.6,193,182.6,199,178.6,201C175.6,203,170.6,201,169.6,198C168.6,195,169.6,191,172.6,190C175.6,189,177.6,192,176.6,194C176.6,196,171.6,196,172.6,194C172.6,193,174.6,193,173.6,194" stroke-width="2" style="-webkit-tap-highlight-color: rgba(0, 0, 0, 0);"/><path fill="none" stroke="#000000" d="M142.4,217.9C164.4,198.9,182.4,214.9,182.4,237.9C180.4,248.9,171.4,257.9,160.4,255.9C152.4,254.9,145.4,245.9,147.4,236.9C148.4,229.9,155.4,223.9,161.4,225.9C166.4,226.9,170.4,231.9,169.4,237.9C168.4,241.9,164.4,244.9,161.4,243.9C159.4,242.9,157.4,240.9,158.4,237.9C159.4,236.9,160.4,234.9,162.4,235.9" stroke-width="2" style="-webkit-tap-highlight-color: rgba(0, 0, 0, 0);"/><path fill="#15b5db" stroke="#000000" d="M57,121.4C64.88487,125.66057,67.52989,132.60663,67.52989,132.60663C67.85759999999999,145.48588999999998,58.8129,150.55201,51.81036999999999,140.6631C50.94574999999999,136.1789,52.326249999999995,126.31714999999998,56.99999999999999,121.39999999999998Z" stroke-width="2" transform="matrix(0.9397,-0.342,0.342,0.9397,-47.4595,31.6436)" style="-webkit-tap-highlight-color: rgba(0, 0, 0, 0);"/><path fill="none" stroke="#000000" d="M66,150.4C61.33468,145.08049,57.86802,137.72917,57.90589,131.19992000000002" stroke-width="2" transform="matrix(0.9397,-0.342,0.342,0.9397,-47.4595,31.6436)" style="-webkit-tap-highlight-color: rgba(0, 0, 0, 0);"/><path fill="#15b5db" stroke="#000000" d="M77,125.4C84.88487,129.66057,87.52989,136.60663,87.52989,136.60663C87.85759999999999,149.48588999999998,78.8129,154.55201,71.81036999999999,144.6631C70.94574999999999,140.1789,72.32624999999999,130.31715,76.99999999999999,125.39999999999998Z" stroke-width="2" transform="matrix(1,0,0,1,0,0)" style="-webkit-tap-highlight-color: rgba(0, 0, 0, 0);"/><path fill="none" stroke="#000000" d="M86,154.4C81.33468,149.08049,77.86802,141.72917,77.90589,135.19992000000002" stroke-width="2" transform="matrix(1,0,0,1,0,0)" style="-webkit-tap-highlight-color: rgba(0, 0, 0, 0);"/><path fill="#15b5db" stroke="#000000" d="M129,119.4C121.02185,123.48324000000001,118.22223,130.36844,118.22223,130.36844C118.66574,135.00914,118.72997,138.03363,122.42922999999999,142.35724C126.38398999999998,144.45198,130.73659999999998,142.9775,133.75772999999998,138.77428999999998C134.72236999999998,134.31053999999997,133.56266,124.42038999999998,128.99999999999997,119.39999999999998Z" stroke-width="2" transform="matrix(1,0,0,1,0,0)" style="-webkit-tap-highlight-color: rgba(0, 0, 0, 0);"/><path fill="none" stroke="#000000" d="M119,148.4C123.46508,144.0855,127.59388,135.45702,127.52128,129.38564" stroke-width="2" transform="matrix(1,0,0,1,0,0)" style="-webkit-tap-highlight-color: rgba(0, 0, 0, 0);"/><path fill="#15b5db" stroke="#000000" d="M146,115.4C138.02185,119.48324000000001,135.22223,126.36844,135.22223,126.36844C135.66574,131.00914,135.72997,134.03363000000002,139.42923,138.35724000000002C143.38398999999998,140.45198000000002,147.73659999999998,138.97750000000002,150.75772999999998,134.77429C151.72236999999998,130.31054,150.56266,120.42039000000001,145.99999999999997,115.4Z" stroke-width="2" transform="matrix(0.9848,0.1736,-0.1736,0.9848,27.1409,-21.4224)" style="-webkit-tap-highlight-color: rgba(0, 0, 0, 0);"/><path fill="none" stroke="#000000" d="M136,144.4C140.46508,140.0855,144.59388,131.45702,144.52128,125.38564000000001" stroke-width="2" transform="matrix(0.9848,0.1736,-0.1736,0.9848,27.1409,-21.4224)" style="-webkit-tap-highlight-color: rgba(0, 0, 0, 0);"/><path fill="#15b5db" stroke="#000000" d="M156,121.4C148.02185,125.48324000000001,145.22223,132.36844,145.22223,132.36844C145.66574,137.00914,145.72997,140.03363,149.42923,144.35724C153.38398999999998,146.45198,157.73659999999998,144.9775,160.75772999999998,140.77428999999998C161.72236999999998,136.31053999999997,160.56266,126.42038999999998,155.99999999999997,121.39999999999998Z" stroke-width="2" transform="matrix(0.5,0.866,-0.866,0.5,203.2502,-51.2397)" style="-webkit-tap-highlight-color: rgba(0, 0, 0, 0);"/><path fill="none" stroke="#000000" d="M146,150.4C150.46508,146.0855,154.59388,137.45702,154.52128,131.38564" stroke-width="2" transform="matrix(0.5,0.866,-0.866,0.5,203.2502,-51.2397)" style="-webkit-tap-highlight-color: rgba(0, 0, 0, 0);"/><path fill="#15b5db" stroke="#000000" d="M196.6,155C188.62185,159.08324,185.82223,165.96844,185.82223,165.96844C186.26574,170.60914,186.32997,173.63362999999998,190.02922999999998,177.95723999999998C193.98398999999998,180.05198,198.33659999999998,178.5775,201.35772999999998,174.37428999999997C202.32236999999998,169.91053999999997,201.16266,160.02038999999996,196.59999999999997,154.99999999999997Z" stroke-width="2" transform="matrix(1,0,0,1,0,0)" style="-webkit-tap-highlight-color: rgba(0, 0, 0, 0);"/><path fill="none" stroke="#000000" d="M186.6,184C191.06508,179.6855,195.19388,171.05702,195.12127999999998,164.98564" stroke-width="2" transform="matrix(1,0,0,1,0,0)" style="-webkit-tap-highlight-color: rgba(0, 0, 0, 0);"/><path fill="#15b5db" stroke="#000000" d="M208.6,165C200.62185,169.08324,197.82223,175.96844,197.82223,175.96844C198.26574,180.60914,198.32997,183.63362999999998,202.02922999999998,187.95723999999998C205.98398999999998,190.05198,210.33659999999998,188.5775,213.35772999999998,184.37428999999997C214.32236999999998,179.91053999999997,213.16266,170.02038999999996,208.59999999999997,164.99999999999997Z" stroke-width="2" transform="matrix(0.9063,0.4226,-0.4226,0.9063,100.5952,-65.7557)" style="-webkit-tap-highlight-color: rgba(0, 0, 0, 0);"/><path fill="none" stroke="#000000" d="M198.6,194C203.06508,189.6855,207.19388,181.05702,207.12127999999998,174.98564" stroke-width="2" transform="matrix(0.9063,0.4226,-0.4226,0.9063,100.5952,-65.7557)" style="-webkit-tap-highlight-color: rgba(0, 0, 0, 0);"/><path fill="#15b5db" stroke="#000000" d="M211.6,175C203.62185,179.08324,200.82223,185.96844,200.82223,185.96844C201.26574,190.60914,201.32997,193.63362999999998,205.02922999999998,197.95723999999998C208.98398999999998,200.05198,213.33659999999998,198.5775,216.35772999999998,194.37428999999997C217.32236999999998,189.91053999999997,216.16266,180.02038999999996,211.59999999999997,174.99999999999997Z" stroke-width="2" transform="matrix(0.5,0.866,-0.866,0.5,277.4692,-72.5907)" style="-webkit-tap-highlight-color: rgba(0, 0, 0, 0);"/><path fill="none" stroke="#000000" d="M201.6,204C206.06508,199.6855,210.19388,191.05702,210.12127999999998,184.98564" stroke-width="2" transform="matrix(0.5,0.866,-0.866,0.5,277.4692,-72.5907)" style="-webkit-tap-highlight-color: rgba(0, 0, 0, 0);"/><path fill="#15b5db" stroke="#000000" d="M70.6,169.7C78.48487,173.96057,81.12988999999999,180.90662999999998,81.12988999999999,180.90662999999998C81.45759999999999,193.78588999999997,72.4129,198.85200999999998,65.41036999999999,188.96309999999997C64.54574999999998,184.47889999999998,65.92624999999998,174.61714999999998,70.59999999999998,169.69999999999996Z" stroke-width="2" transform="matrix(0.9397,0.342,-0.342,0.9397,72.7599,-15.2417)" style="-webkit-tap-highlight-color: rgba(0, 0, 0, 0);"/><path fill="none" stroke="#000000" d="M79.6,198.7C74.93468,193.38048999999998,71.46802,186.02917,71.50589,179.49991999999997" stroke-width="2" transform="matrix(0.9397,0.342,-0.342,0.9397,72.7599,-15.2417)" style="-webkit-tap-highlight-color: rgba(0, 0, 0, 0);"/><path fill="#15b5db" stroke="#000000" d="M22.599999999999994,192.7C30.484869999999994,196.96057,33.129889999999996,203.90662999999998,33.129889999999996,203.90662999999998C33.4576,216.78588999999997,24.412899999999997,221.85200999999998,17.410369999999997,211.96309999999997C16.545749999999998,207.47889999999998,17.926249999999996,197.61714999999998,22.599999999999998,192.69999999999996Z" stroke-width="2" transform="matrix(0.766,-0.6428,0.6428,0.766,-135.113,72.18)" style="-webkit-tap-highlight-color: rgba(0, 0, 0, 0);"/><path fill="none" stroke="#000000" d="M31.599999999999994,221.7C26.934679999999993,216.38048999999998,23.468019999999996,209.02917,23.505889999999994,202.49991999999997" stroke-width="2" transform="matrix(0.766,-0.6428,0.6428,0.766,-135.113,72.18)" style="-webkit-tap-highlight-color: rgba(0, 0, 0, 0);"/><path fill="#15b5db" stroke="#000000" d="M19.599999999999994,202.7C27.484869999999994,206.96057,30.129889999999996,213.90662999999998,30.129889999999996,213.90662999999998C30.457599999999996,226.78588999999997,21.412899999999997,231.85200999999998,14.410369999999997,221.96309999999997C13.545749999999996,217.47889999999998,14.926249999999996,207.61714999999998,19.599999999999998,202.69999999999996Z" stroke-width="2" transform="matrix(-0.1736,-0.9848,0.9848,-0.1736,-194.6136,300.0998)" style="-webkit-tap-highlight-color: rgba(0, 0, 0, 0);"/><path fill="none" stroke="#000000" d="M28.599999999999994,231.7C23.934679999999993,226.38048999999998,20.468019999999996,219.02917,20.505889999999994,212.49991999999997" stroke-width="2" transform="matrix(-0.1736,-0.9848,0.9848,-0.1736,-194.6136,300.0998)" style="-webkit-tap-highlight-color: rgba(0, 0, 0, 0);"/><path fill="#15b5db" stroke="#000000" d="M166.4,180.9C158.42185,184.98324,155.62223,191.86844,155.62223,191.86844C156.06574,196.50914,156.12997000000001,199.53363,159.82923,203.85724C163.78399,205.95198,168.1366,204.4775,171.15773,200.27428999999998C172.12237,195.81053999999997,170.96266,185.92038999999997,166.39999999999998,180.89999999999998Z" stroke-width="2" transform="matrix(0.9962,-0.0872,0.0872,0.9962,-17.6988,14.4299)" style="-webkit-tap-highlight-color: rgba(0, 0, 0, 0);"/><path fill="none" stroke="#000000" d="M156.4,209.9C160.86508,205.5855,164.99388000000002,196.95702,164.92128,190.88564" stroke-width="2" transform="matrix(0.9962,-0.0872,0.0872,0.9962,-17.6988,14.4299)" style="-webkit-tap-highlight-color: rgba(0, 0, 0, 0);"/><path fill="#15b5db" stroke="#000000" d="M191.4,197.9C183.42185,201.98324,180.62223,208.86844,180.62223,208.86844C181.06574,213.50914,181.12997000000001,216.53363,184.82923,220.85724C188.78399,222.95198,193.1366,221.4775,196.15773,217.27428999999998C197.12237,212.81053999999997,195.96266,202.92038999999997,191.39999999999998,197.89999999999998Z" stroke-width="2" transform="matrix(0.1736,0.9848,-0.9848,0.1736,373.3531,8.8551)" style="-webkit-tap-highlight-color: rgba(0, 0, 0, 0);"/><path fill="none" stroke="#000000" d="M181.4,226.9C185.86508,222.5855,189.99388000000002,213.95702,189.92128,207.88564" stroke-width="2" transform="matrix(0.1736,0.9848,-0.9848,0.1736,373.3531,8.8551)" style="-webkit-tap-highlight-color: rgba(0, 0, 0, 0);"/><path fill="none" stroke="#000000" d="M30,172.4C30.3,165.4,36,165.4,41,164.4C39,168.4,37,172.4,42,177.4" stroke-width="2" style="-webkit-tap-highlight-color: rgba(0, 0, 0, 0);"/><circle cx="29" cy="176.4" r="4.5" fill="#e65329" stroke="#000000" stroke-width="2" style="-webkit-tap-highlight-color: rgba(0, 0, 0, 0);"/><circle cx="41" cy="181.4" r="4.5" fill="#e65329" stroke="#000000" stroke-width="2" style="-webkit-tap-highlight-color: rgba(0, 0, 0, 0);"/><path fill="none" stroke="#000000" d="M62,159.4C62.3,152.4,68,152.4,73,151.4C71,155.4,69,159.4,74,164.4" stroke-width="2" style="-webkit-tap-highlight-color: rgba(0, 0, 0, 0);"/><circle cx="61" cy="163.4" r="4.5" fill="#e65329" stroke="#000000" stroke-width="2" style="-webkit-tap-highlight-color: rgba(0, 0, 0, 0);"/><circle cx="73" cy="168.4" r="4.5" fill="#e65329" stroke="#000000" stroke-width="2" style="-webkit-tap-highlight-color: rgba(0, 0, 0, 0);"/><path fill="none" stroke="#000000" d="M118,146.4C117.7,139.4,112,139.4,107,138.4C109,142.4,111,146.4,106,151.4" stroke-width="2" style="-webkit-tap-highlight-color: rgba(0, 0, 0, 0);"/><circle cx="119" cy="150.4" r="4.5" fill="#e65329" stroke="#000000" stroke-width="2" style="-webkit-tap-highlight-color: rgba(0, 0, 0, 0);"/><circle cx="107" cy="155.4" r="4.5" fill="#e65329" stroke="#000000" stroke-width="2" style="-webkit-tap-highlight-color: rgba(0, 0, 0, 0);"/><path fill="none" stroke="#000000" d="M119,176.4C118.7,169.4,113,169.4,108,168.4C110,172.4,112,176.4,107,181.4" stroke-width="2" style="-webkit-tap-highlight-color: rgba(0, 0, 0, 0);"/><circle cx="120" cy="180.4" r="4.5" fill="#e65329" stroke="#000000" stroke-width="2" style="-webkit-tap-highlight-color: rgba(0, 0, 0, 0);"/><circle cx="108" cy="185.4" r="4.5" fill="#e65329" stroke="#000000" stroke-width="2" style="-webkit-tap-highlight-color: rgba(0, 0, 0, 0);"/><path fill="none" stroke="#000000" d="M160,163.4C159.7,156.4,154,156.4,149,155.4C151,159.4,153,163.4,148,168.4" stroke-width="2" style="-webkit-tap-highlight-color: rgba(0, 0, 0, 0);"/><circle cx="161" cy="167.4" r="4.5" fill="#e65329" stroke="#000000" stroke-width="2" style="-webkit-tap-highlight-color: rgba(0, 0, 0, 0);"/><circle cx="149" cy="172.4" r="4.5" fill="#e65329" stroke="#000000" stroke-width="2" style="-webkit-tap-highlight-color: rgba(0, 0, 0, 0);"/><path fill="none" stroke="#000000" d="M200.6,191C200.29999999999998,184,194.6,184,189.6,183C191.6,187,193.6,191,188.6,196" stroke-width="2" style="-webkit-tap-highlight-color: rgba(0, 0, 0, 0);"/><circle cx="201.6" cy="195" r="4.5" fill="#e65329" stroke="#000000" stroke-width="2" style="-webkit-tap-highlight-color: rgba(0, 0, 0, 0);"/><circle cx="189.6" cy="200" r="4.5" fill="#e65329" stroke="#000000" stroke-width="2" style="-webkit-tap-highlight-color: rgba(0, 0, 0, 0);"/><path fill="none" stroke="#000000" d="M40.599999999999994,205.7C40.89999999999999,198.7,46.599999999999994,198.7,51.599999999999994,197.7C49.599999999999994,201.7,47.599999999999994,205.7,52.599999999999994,210.7" stroke-width="2" style="-webkit-tap-highlight-color: rgba(0, 0, 0, 0);"/><circle cx="39.599999999999994" cy="209.7" r="4.5" fill="#e65329" stroke="#000000" stroke-width="2" style="-webkit-tap-highlight-color: rgba(0, 0, 0, 0);"/><circle cx="51.599999999999994" cy="214.7" r="4.5" fill="#e65329" stroke="#000000" stroke-width="2" style="-webkit-tap-highlight-color: rgba(0, 0, 0, 0);"/><path fill="none" stroke="#000000" d="M84.6,223.7C84.3,216.7,78.6,216.7,73.6,215.7C75.6,219.7,77.6,223.7,72.6,228.7" stroke-width="2" style="-webkit-tap-highlight-color: rgba(0, 0, 0, 0);"/><circle cx="85.6" cy="227.7" r="4.5" fill="#e65329" stroke="#000000" stroke-width="2" style="-webkit-tap-highlight-color: rgba(0, 0, 0, 0);"/><circle cx="73.6" cy="232.7" r="4.5" fill="#e65329" stroke="#000000" stroke-width="2" style="-webkit-tap-highlight-color: rgba(0, 0, 0, 0);"/><path fill="none" stroke="#000000" d="M166.4,218.9C166.1,211.9,160.4,211.9,155.4,210.9C157.4,214.9,159.4,218.9,154.4,223.9" stroke-width="2" style="-webkit-tap-highlight-color: rgba(0, 0, 0, 0);"/><circle cx="167.4" cy="222.9" r="4.5" fill="#e65329" stroke="#000000" stroke-width="2" style="-webkit-tap-highlight-color: rgba(0, 0, 0, 0);"/><circle cx="155.4" cy="227.9" r="4.5" fill="#e65329" stroke="#000000" stroke-width="2" style="-webkit-tap-highlight-color: rgba(0, 0, 0, 0);"/><path fill="none" stroke="#000000" d="M24.599999999999994,251.7C24.899999999999995,244.7,30.599999999999994,244.7,35.599999999999994,243.7C33.599999999999994,247.7,31.599999999999994,251.7,36.599999999999994,256.7" stroke-width="2" style="-webkit-tap-highlight-color: rgba(0, 0, 0, 0);"/><circle cx="23.599999999999994" cy="255.7" r="4.5" fill="#e65329" stroke="#000000" stroke-width="2" style="-webkit-tap-highlight-color: rgba(0, 0, 0, 0);"/><circle cx="35.599999999999994" cy="260.7" r="4.5" fill="#e65329" stroke="#000000" stroke-width="2" style="-webkit-tap-highlight-color: rgba(0, 0, 0, 0);"/><path fill="none" stroke="#000000" d="M195.4,244.9C195.1,237.9,189.4,237.9,184.4,236.9C186.4,240.9,188.4,244.9,183.4,249.9" stroke-width="2" style="-webkit-tap-highlight-color: rgba(0, 0, 0, 0);"/><circle cx="196.4" cy="248.9" r="4.5" fill="#e65329" stroke="#000000" stroke-width="2" style="-webkit-tap-highlight-color: rgba(0, 0, 0, 0);"/><circle cx="184.4" cy="253.9" r="4.5" fill="#e65329" stroke="#000000" stroke-width="2" style="-webkit-tap-highlight-color: rgba(0, 0, 0, 0);"/></svg></svg>