<?xml version="1.0" standalone="no"?>
<svg xmlns:xlink="http://www.w3.org/1999/xlink" xmlns="http://www.w3.org/2000/svg" id="fepTree1" width="137.5px" height="148.5px" viewBox="0 0 250 270"><svg height="270" version="1.1" width="250" xmlns="http://www.w3.org/2000/svg" style="overflow: hidden; position: relative;"><desc style="-webkit-tap-highlight-color: rgba(0, 0, 0, 0);">Created with Raphaël 2.1.0</desc><defs style="-webkit-tap-highlight-color: rgba(0, 0, 0, 0);"><linearGradient id="00-_13ff04-_0a8e02" x1="0" y1="0" x2="1" y2="0" gradientTransform="matrix(1,0,0,1,0,0)" style="-webkit-tap-highlight-color: rgba(0, 0, 0, 0);"><stop offset="0%" stop-color="#13ff04" style="-webkit-tap-highlight-color: rgba(0, 0, 0, 0);"/><stop offset="100%" stop-color="#0a8e02" style="-webkit-tap-highlight-color: rgba(0, 0, 0, 0);"/></linearGradient></defs><path fill="url(#00-_13ff04-_0a8e02)" stroke="#000000" d="M65.4,269C76.4,253.7,85.19999999999999,236.7,94,219.7C102.8,195.9,105,170.4,102.8,146.60000000000002C100.6,136.4,96.2,126.20000000000002,89.6,117.70000000000002C96.2,126.20000000000002,105,112.6,102.8,105.80000000000001C105,100.70000000000002,105,88.80000000000001,105,85.4C105,95.6,105,105.80000000000001,109.4,114.30000000000001C120.4,117.70000000000002,127,109.20000000000002,129.2,104.1C131.4,102.4,135.8,90.5,133.6,99C129.2,114.30000000000001,124.8,127.9,124.8,143.2C127,151.7,142.4,143.2,142.4,144.9C135.8,175.5,131.4,209.5,146.8,240.1C153.4,252,164.4,262.2,177.6,269C140.2,269,102.8,269,65.4,269Z" stroke-width="2" opacity="1" fill-opacity="1" style="-webkit-tap-highlight-color: rgba(0, 0, 0, 0); opacity: 1; fill-opacity: 1;"/><path fill="none" stroke="#000000" d="M94,219.7C94,216.7,94,213.7,93,210.7C92,205.7,89,201.7,85,198.7C81,196.7,76,196.7,73,199.7C70,201.7,69,206.7,71,209.7C72,212.7,75,213.7,78,212.7C81,211.7,83,207.7,81,205.7C80,203.7,78,203.7,76,204.7C75,205.7,75,207.7,77,208.7C78,209.7,79,205.7,77,206.7" stroke-width="2" style="-webkit-tap-highlight-color: rgba(0, 0, 0, 0);"/><path fill="none" stroke="#000000" d="M89.6,117.70000000000002C80.6,105.70000000000002,57.599999999999994,104.70000000000002,45.599999999999994,111.70000000000002C41.599999999999994,114.70000000000002,34.599999999999994,111.70000000000002,29.599999999999994,109.70000000000002C26.599999999999994,107.70000000000002,23.599999999999994,104.70000000000002,22.599999999999994,100.70000000000002C22.599999999999994,96.70000000000002,24.599999999999994,92.70000000000002,28.599999999999994,91.70000000000002C30.599999999999994,90.70000000000002,33.599999999999994,91.70000000000002,35.599999999999994,93.70000000000002C37.599999999999994,95.70000000000002,37.599999999999994,99.70000000000002,35.599999999999994,101.70000000000002C34.599999999999994,103.70000000000002,31.599999999999994,103.70000000000002,29.599999999999994,101.70000000000002C28.599999999999994,100.70000000000002,28.599999999999994,97.70000000000002,29.599999999999994,96.70000000000002C30.599999999999994,95.70000000000002,32.599999999999994,96.70000000000002,32.599999999999994,97.70000000000002C33.599999999999994,98.70000000000002,30.599999999999994,99.70000000000002,31.599999999999994,98.70000000000002" stroke-width="2" style="-webkit-tap-highlight-color: rgba(0, 0, 0, 0);"/><path fill="none" stroke="#000000" d="M89.6,117.70000000000002C78.6,105.70000000000002,62.599999999999994,103.70000000000002,49.599999999999994,109.70000000000002C44.599999999999994,111.70000000000002,39.599999999999994,115.70000000000002,36.599999999999994,120.70000000000002C29.599999999999994,131.70000000000002,27.599999999999994,144.70000000000002,28.599999999999994,157.70000000000002C29.599999999999994,166.70000000000002,36.599999999999994,174.70000000000002,45.599999999999994,174.70000000000002C53.599999999999994,174.70000000000002,61.599999999999994,167.70000000000002,61.599999999999994,159.70000000000002C62.599999999999994,152.70000000000002,56.599999999999994,144.70000000000002,48.599999999999994,144.70000000000002C41.599999999999994,144.70000000000002,36.599999999999994,150.70000000000002,37.599999999999994,157.70000000000002C38.599999999999994,162.70000000000002,43.599999999999994,166.70000000000002,48.599999999999994,165.70000000000002C52.599999999999994,164.70000000000002,55.599999999999994,158.70000000000002,52.599999999999994,154.70000000000002C50.599999999999994,150.70000000000002,43.599999999999994,152.70000000000002,44.599999999999994,156.70000000000002C44.599999999999994,159.70000000000002,50.599999999999994,159.70000000000002,48.599999999999994,156.70000000000002" stroke-width="2" style="-webkit-tap-highlight-color: rgba(0, 0, 0, 0);"/><path fill="none" stroke="#000000" d="M89.6,117.70000000000002C86.6,114.70000000000002,83.6,110.70000000000002,79.6,109.70000000000002C71.6,106.70000000000002,62.599999999999994,109.70000000000002,57.599999999999994,115.70000000000002C53.599999999999994,121.70000000000002,52.599999999999994,130.70000000000002,57.599999999999994,136.70000000000002C60.599999999999994,139.70000000000002,65.6,141.70000000000002,69.6,140.70000000000002C73.6,139.70000000000002,76.6,134.70000000000002,75.6,130.70000000000002C75.6,127.70000000000002,72.6,124.70000000000002,69.6,125.70000000000002C67.6,125.70000000000002,65.6,128.70000000000002,66.6,130.70000000000002C66.6,131.70000000000002,69.6,132.70000000000002,69.6,130.70000000000002" stroke-width="2" style="-webkit-tap-highlight-color: rgba(0, 0, 0, 0);"/><path fill="none" stroke="#000000" d="M105,85.4C105,83.4,104,80.4,103,78.4C99,70.4,93,63.400000000000006,85,61.400000000000006C79,59.400000000000006,72,60.400000000000006,67,63.400000000000006C63,65.4,59,70.4,59,75.4C59,80.4,64,85.4,69,84.4C73,84.4,77,79.4,76,75.4C76,71.4,71,68.4,67,70.4C64,71.4,63,75.4,65,78.4C67,80.4,70,80.4,71,77.4C72,75.4,70,73.4,68,73.4C66,73.4,66,77.4,68,76.4" stroke-width="2" style="-webkit-tap-highlight-color: rgba(0, 0, 0, 0);"/><path fill="none" stroke="#000000" d="M105,85.4C106,73.4,103,61.400000000000006,95,52.400000000000006C86,43.400000000000006,72,40.400000000000006,60,43.400000000000006C55,44.400000000000006,50,47.400000000000006,45,50.400000000000006C42,54.400000000000006,41,60.400000000000006,45,64.4C50,69.4,60,67.4,63,60.400000000000006C64,57.400000000000006,62,53.400000000000006,58,52.400000000000006C55,52.400000000000006,51,54.400000000000006,52,58.400000000000006C52,62.400000000000006,59,60.400000000000006,57,57.400000000000006C57,56.400000000000006,54,57.400000000000006,56,58.400000000000006" stroke-width="2" style="-webkit-tap-highlight-color: rgba(0, 0, 0, 0);"/><path fill="none" stroke="#000000" d="M105,85.4C107,61.400000000000006,90,40.400000000000006,95,32.400000000000006C96,30.400000000000006,99,29.400000000000006,103,29.400000000000006C107,29.400000000000006,110,34.400000000000006,109,38.400000000000006C108,41.400000000000006,105,43.400000000000006,102,42.400000000000006C100,41.400000000000006,98,39.400000000000006,99,37.400000000000006C99,35.400000000000006,101,34.400000000000006,103,35.400000000000006C104,35.400000000000006,105,37.400000000000006,104,38.400000000000006C104,39.400000000000006,103,39.400000000000006,102,39.400000000000006C102,39.400000000000006,101,38.400000000000006,102,38.400000000000006C102,38.400000000000006,102,38.400000000000006,103,38.400000000000006" stroke-width="2" style="-webkit-tap-highlight-color: rgba(0, 0, 0, 0);"/><path fill="none" stroke="#000000" d="M105,85.4C104,70.4,106,50.400000000000006,118,41.400000000000006C122,38.400000000000006,129,35.400000000000006,135,36.400000000000006C143,38.400000000000006,150,44.400000000000006,148,53.400000000000006C147,60.400000000000006,140,65.4,133,64.4C128,63.400000000000006,124,58.400000000000006,125,53.400000000000006C126,49.400000000000006,130,46.400000000000006,134,47.400000000000006C137,48.400000000000006,139,50.400000000000006,138,53.400000000000006C137,55.400000000000006,136,56.400000000000006,134,56.400000000000006C133,56.400000000000006,132,54.400000000000006,133,53.400000000000006C133,52.400000000000006,134,52.400000000000006,135,52.400000000000006" stroke-width="2" style="-webkit-tap-highlight-color: rgba(0, 0, 0, 0);"/><path fill="none" stroke="#000000" d="M133.6,99C138.6,91,146.6,83,156.6,80C173.6,74,193.6,82,200.6,98C204.6,106,203.6,117,198.6,124C195.6,129,188.6,131,182.6,128C176.6,126,171.6,119,173.6,113C174.6,108,181.6,104,186.6,107C190.6,109,193.6,115,189.6,118C186.6,121,181.6,119,181.6,115C180.6,111,187.6,112,185.6,115" stroke-width="2" style="-webkit-tap-highlight-color: rgba(0, 0, 0, 0);"/><path fill="none" stroke="#000000" d="M133.6,99C135.6,94,139.6,91,143.6,88C149.6,84,155.6,80,163.6,78C165.6,78,167.6,79,169.6,79C175.6,80,180.6,84,182.6,89C183.6,93,182.6,99,178.6,101C175.6,103,170.6,101,169.6,98C168.6,95,169.6,91,172.6,90C175.6,89,177.6,92,176.6,94C176.6,96,171.6,96,172.6,94C172.6,93,174.6,93,173.6,94" stroke-width="2" style="-webkit-tap-highlight-color: rgba(0, 0, 0, 0);"/><path fill="none" stroke="#000000" d="M142.4,144.9C164.4,125.9,182.4,141.9,182.4,164.9C180.4,175.9,171.4,184.9,160.4,182.9C152.4,181.9,145.4,172.9,147.4,163.9C148.4,156.9,155.4,150.9,161.4,152.9C166.4,153.9,170.4,158.9,169.4,164.9C168.4,168.9,164.4,171.9,161.4,170.9C159.4,169.9,157.4,167.9,158.4,164.9C159.4,163.9,160.4,161.9,162.4,162.9" stroke-width="2" style="-webkit-tap-highlight-color: rgba(0, 0, 0, 0);"/><path fill="#2ed9eb" stroke="#000000" d="M57,13.400000000000006C64.88487,17.660570000000007,67.52989,24.606630000000006,67.52989,24.606630000000006C67.85759999999999,37.485890000000005,58.8129,42.55201000000001,51.81036999999999,32.66310000000001C50.94574999999999,28.178900000000006,52.326249999999995,18.317150000000005,56.99999999999999,13.400000000000006Z" stroke-width="2" transform="matrix(0.9397,-0.342,0.342,0.9397,-10.5214,25.1304)" style="-webkit-tap-highlight-color: rgba(0, 0, 0, 0);"/><path fill="none" stroke="#000000" d="M66,42.400000000000006C61.33468,37.080490000000005,57.86802,29.729170000000003,57.90589,23.199920000000006" stroke-width="2" transform="matrix(0.9397,-0.342,0.342,0.9397,-10.5214,25.1304)" style="-webkit-tap-highlight-color: rgba(0, 0, 0, 0);"/><path fill="#2ed9eb" stroke="#000000" d="M77,17.400000000000006C84.88487,21.660570000000007,87.52989,28.606630000000006,87.52989,28.606630000000006C87.85759999999999,41.485890000000005,78.8129,46.55201000000001,71.81036999999999,36.66310000000001C70.94574999999999,32.178900000000006,72.32624999999999,22.317150000000005,76.99999999999999,17.400000000000006Z" stroke-width="2" transform="matrix(1,0,0,1,0,0)" style="-webkit-tap-highlight-color: rgba(0, 0, 0, 0);"/><path fill="none" stroke="#000000" d="M86,46.400000000000006C81.33468,41.080490000000005,77.86802,33.72917,77.90589,27.199920000000006" stroke-width="2" transform="matrix(1,0,0,1,0,0)" style="-webkit-tap-highlight-color: rgba(0, 0, 0, 0);"/><path fill="#2ed9eb" stroke="#000000" d="M129,11.400000000000006C121.02185,15.483240000000006,118.22223,22.368440000000007,118.22223,22.368440000000007C118.66574,27.009140000000006,118.72997,30.033630000000006,122.42922999999999,34.357240000000004C126.38398999999998,36.451980000000006,130.73659999999998,34.977500000000006,133.75772999999998,30.774290000000004C134.72236999999998,26.310540000000003,133.56266,16.420390000000005,128.99999999999997,11.400000000000006Z" stroke-width="2" transform="matrix(1,0,0,1,0,0)" style="-webkit-tap-highlight-color: rgba(0, 0, 0, 0);"/><path fill="none" stroke="#000000" d="M119,40.400000000000006C123.46508,36.0855,127.59388,27.457020000000007,127.52128,21.385640000000006" stroke-width="2" transform="matrix(1,0,0,1,0,0)" style="-webkit-tap-highlight-color: rgba(0, 0, 0, 0);"/><path fill="#2ed9eb" stroke="#000000" d="M146,7.400000000000006C138.02185,11.483240000000006,135.22223,18.368440000000007,135.22223,18.368440000000007C135.66574,23.009140000000006,135.72997,26.033630000000006,139.42923,30.357240000000004C143.38398999999998,32.451980000000006,147.73659999999998,30.977500000000006,150.75772999999998,26.774290000000004C151.72236999999998,22.310540000000003,150.56266,12.420390000000005,145.99999999999997,7.400000000000006Z" stroke-width="2" transform="matrix(0.9848,0.1736,-0.1736,0.9848,8.3869,-23.0632)" style="-webkit-tap-highlight-color: rgba(0, 0, 0, 0);"/><path fill="none" stroke="#000000" d="M136,36.400000000000006C140.46508,32.0855,144.59388,23.457020000000007,144.52128,17.385640000000006" stroke-width="2" transform="matrix(0.9848,0.1736,-0.1736,0.9848,8.3869,-23.0632)" style="-webkit-tap-highlight-color: rgba(0, 0, 0, 0);"/><path fill="#2ed9eb" stroke="#000000" d="M156,13.400000000000006C148.02185,17.483240000000006,145.22223,24.368440000000007,145.22223,24.368440000000007C145.66574,29.009140000000006,145.72997,32.03363000000001,149.42923,36.357240000000004C153.38398999999998,38.451980000000006,157.73659999999998,36.977500000000006,160.75772999999998,32.77429000000001C161.72236999999998,28.310540000000007,160.56266,18.42039000000001,155.99999999999997,13.40000000000001Z" stroke-width="2" transform="matrix(0.5,0.866,-0.866,0.5,109.7195,-105.2397)" style="-webkit-tap-highlight-color: rgba(0, 0, 0, 0);"/><path fill="none" stroke="#000000" d="M146,42.400000000000006C150.46508,38.0855,154.59388,29.457020000000007,154.52128,23.385640000000006" stroke-width="2" transform="matrix(0.5,0.866,-0.866,0.5,109.7195,-105.2397)" style="-webkit-tap-highlight-color: rgba(0, 0, 0, 0);"/><path fill="#2ed9eb" stroke="#000000" d="M196.6,55C188.62185,59.08324,185.82223,65.96844,185.82223,65.96844C186.26574,70.60914,186.32997,73.63363,190.02922999999998,77.95724C193.98398999999998,80.05198,198.33659999999998,78.5775,201.35772999999998,74.37429C202.32236999999998,69.91054,201.16266,60.020390000000006,196.59999999999997,55Z" stroke-width="2" transform="matrix(1,0,0,1,0,0)" style="-webkit-tap-highlight-color: rgba(0, 0, 0, 0);"/><path fill="none" stroke="#000000" d="M186.6,84C191.06508,79.6855,195.19388,71.05702,195.12127999999998,64.98564" stroke-width="2" transform="matrix(1,0,0,1,0,0)" style="-webkit-tap-highlight-color: rgba(0, 0, 0, 0);"/><path fill="#2ed9eb" stroke="#000000" d="M208.6,65C200.62185,69.08324,197.82223,75.96844,197.82223,75.96844C198.26574,80.60914,198.32997,83.63363,202.02922999999998,87.95724C205.98398999999998,90.05198,210.33659999999998,88.5775,213.35772999999998,84.37429C214.32236999999998,79.91054,213.16266,70.02039,208.59999999999997,65Z" stroke-width="2" transform="matrix(0.9063,0.4226,-0.4226,0.9063,58.3334,-75.1249)" style="-webkit-tap-highlight-color: rgba(0, 0, 0, 0);"/><path fill="none" stroke="#000000" d="M198.6,94C203.06508,89.6855,207.19388,81.05702,207.12127999999998,74.98564" stroke-width="2" transform="matrix(0.9063,0.4226,-0.4226,0.9063,58.3334,-75.1249)" style="-webkit-tap-highlight-color: rgba(0, 0, 0, 0);"/><path fill="#2ed9eb" stroke="#000000" d="M211.6,75C203.62185,79.08324,200.82223,85.96844,200.82223,85.96844C201.26574,90.60914,201.32997,93.63363,205.02922999999998,97.95724C208.98398999999998,100.05198,213.33659999999998,98.5775,216.35772999999998,94.37429C217.32236999999998,89.91054,216.16266,80.02039,211.59999999999997,75Z" stroke-width="2" transform="matrix(0.5,0.866,-0.866,0.5,190.8666,-122.5907)" style="-webkit-tap-highlight-color: rgba(0, 0, 0, 0);"/><path fill="none" stroke="#000000" d="M201.6,104C206.06508,99.6855,210.19388,91.05702,210.12127999999998,84.98564" stroke-width="2" transform="matrix(0.5,0.866,-0.866,0.5,190.8666,-122.5907)" style="-webkit-tap-highlight-color: rgba(0, 0, 0, 0);"/><path fill="#2ed9eb" stroke="#000000" d="M70.6,80.70000000000002C78.48487,84.96057000000002,81.12988999999999,91.90663000000002,81.12988999999999,91.90663000000002C81.45759999999999,104.78589000000002,72.4129,109.85201000000002,65.41036999999999,99.96310000000003C64.54574999999998,95.47890000000002,65.92624999999998,85.61715000000002,70.59999999999998,80.70000000000002Z" stroke-width="2" transform="matrix(0.9397,0.342,-0.342,0.9397,42.3201,-20.6091)" style="-webkit-tap-highlight-color: rgba(0, 0, 0, 0);"/><path fill="none" stroke="#000000" d="M79.6,109.70000000000002C74.93468,104.38049000000002,71.46802,97.02917000000002,71.50589,90.49992000000002" stroke-width="2" transform="matrix(0.9397,0.342,-0.342,0.9397,42.3201,-20.6091)" style="-webkit-tap-highlight-color: rgba(0, 0, 0, 0);"/><path fill="#2ed9eb" stroke="#000000" d="M22.599999999999994,103.70000000000002C30.484869999999994,107.96057000000002,33.129889999999996,114.90663000000002,33.129889999999996,114.90663000000002C33.4576,127.78589000000002,24.412899999999997,132.85201,17.410369999999997,122.96310000000003C16.545749999999998,118.47890000000002,17.926249999999996,108.61715000000002,22.599999999999998,103.70000000000002Z" stroke-width="2" transform="matrix(0.766,-0.6428,0.6428,0.766,-77.9049,51.358)" style="-webkit-tap-highlight-color: rgba(0, 0, 0, 0);"/><path fill="none" stroke="#000000" d="M31.599999999999994,132.70000000000002C26.934679999999993,127.38049000000002,23.468019999999996,120.02917000000002,23.505889999999994,113.49992000000002" stroke-width="2" transform="matrix(0.766,-0.6428,0.6428,0.766,-77.9049,51.358)" style="-webkit-tap-highlight-color: rgba(0, 0, 0, 0);"/><path fill="#2ed9eb" stroke="#000000" d="M19.599999999999994,113.70000000000002C27.484869999999994,117.96057000000002,30.129889999999996,124.90663000000002,30.129889999999996,124.90663000000002C30.457599999999996,137.78589000000002,21.412899999999997,142.85201,14.410369999999997,132.96310000000003C13.545749999999996,128.47890000000004,14.926249999999996,118.61715000000002,19.599999999999998,113.70000000000002Z" stroke-width="2" transform="matrix(-0.1736,-0.9848,0.9848,-0.1736,-106.9657,195.6451)" style="-webkit-tap-highlight-color: rgba(0, 0, 0, 0);"/><path fill="none" stroke="#000000" d="M28.599999999999994,142.70000000000002C23.934679999999993,137.38049,20.468019999999996,130.02917000000002,20.505889999999994,123.49992000000002" stroke-width="2" transform="matrix(-0.1736,-0.9848,0.9848,-0.1736,-106.9657,195.6451)" style="-webkit-tap-highlight-color: rgba(0, 0, 0, 0);"/><path fill="#2ed9eb" stroke="#000000" d="M166.4,107.9C158.42185,111.98324000000001,155.62223,118.86844,155.62223,118.86844C156.06574,123.50914,156.12997000000001,126.53363,159.82923,130.85724000000002C163.78399,132.95198000000002,168.1366,131.47750000000002,171.15773,127.27429000000002C172.12237,122.81054000000002,170.96266,112.92039000000003,166.39999999999998,107.90000000000002Z" stroke-width="2" transform="matrix(0.9962,-0.0872,0.0872,0.9962,-11.3365,14.1521)" style="-webkit-tap-highlight-color: rgba(0, 0, 0, 0);"/><path fill="none" stroke="#000000" d="M156.4,136.9C160.86508,132.5855,164.99388000000002,123.95702,164.92128,117.88564000000001" stroke-width="2" transform="matrix(0.9962,-0.0872,0.0872,0.9962,-11.3365,14.1521)" style="-webkit-tap-highlight-color: rgba(0, 0, 0, 0);"/><path fill="#2ed9eb" stroke="#000000" d="M191.4,124.9C183.42185,128.98324,180.62223,135.86844,180.62223,135.86844C181.06574,140.50914,181.12997000000001,143.53363,184.82923,147.85724C188.78399,149.95198,193.1366,148.4775,196.15773,144.27428999999998C197.12237,139.81053999999997,195.96266,129.92038999999997,191.39999999999998,124.89999999999998Z" stroke-width="2" transform="matrix(0.1736,0.9848,-0.9848,0.1736,301.4621,-51.4686)" style="-webkit-tap-highlight-color: rgba(0, 0, 0, 0);"/><path fill="none" stroke="#000000" d="M181.4,153.9C185.86508,149.5855,189.99388000000002,140.95702,189.92128,134.88564" stroke-width="2" transform="matrix(0.1736,0.9848,-0.9848,0.1736,301.4621,-51.4686)" style="-webkit-tap-highlight-color: rgba(0, 0, 0, 0);"/><path fill="none" stroke="#000000" d="M30,64.4C30.3,57.400000000000006,36,57.400000000000006,41,56.400000000000006C39,60.400000000000006,37,64.4,42,69.4" stroke-width="2" style="-webkit-tap-highlight-color: rgba(0, 0, 0, 0);"/><circle cx="29" cy="68.4" r="4.5" fill="#eb6014" stroke="#000000" stroke-width="2" style="-webkit-tap-highlight-color: rgba(0, 0, 0, 0);"/><circle cx="41" cy="73.4" r="4.5" fill="#eb6014" stroke="#000000" stroke-width="2" style="-webkit-tap-highlight-color: rgba(0, 0, 0, 0);"/><path fill="none" stroke="#000000" d="M62,51.400000000000006C62.3,44.400000000000006,68,44.400000000000006,73,43.400000000000006C71,47.400000000000006,69,51.400000000000006,74,56.400000000000006" stroke-width="2" style="-webkit-tap-highlight-color: rgba(0, 0, 0, 0);"/><circle cx="61" cy="55.400000000000006" r="4.5" fill="#eb6014" stroke="#000000" stroke-width="2" style="-webkit-tap-highlight-color: rgba(0, 0, 0, 0);"/><circle cx="73" cy="60.400000000000006" r="4.5" fill="#eb6014" stroke="#000000" stroke-width="2" style="-webkit-tap-highlight-color: rgba(0, 0, 0, 0);"/><path fill="none" stroke="#000000" d="M118,38.400000000000006C117.7,31.400000000000006,112,31.400000000000006,107,30.400000000000006C109,34.400000000000006,111,38.400000000000006,106,43.400000000000006" stroke-width="2" style="-webkit-tap-highlight-color: rgba(0, 0, 0, 0);"/><circle cx="119" cy="42.400000000000006" r="4.5" fill="#eb6014" stroke="#000000" stroke-width="2" style="-webkit-tap-highlight-color: rgba(0, 0, 0, 0);"/><circle cx="107" cy="47.400000000000006" r="4.5" fill="#eb6014" stroke="#000000" stroke-width="2" style="-webkit-tap-highlight-color: rgba(0, 0, 0, 0);"/><path fill="none" stroke="#000000" d="M119,68.4C118.7,61.400000000000006,113,61.400000000000006,108,60.400000000000006C110,64.4,112,68.4,107,73.4" stroke-width="2" style="-webkit-tap-highlight-color: rgba(0, 0, 0, 0);"/><circle cx="120" cy="72.4" r="4.5" fill="#eb6014" stroke="#000000" stroke-width="2" style="-webkit-tap-highlight-color: rgba(0, 0, 0, 0);"/><circle cx="108" cy="77.4" r="4.5" fill="#eb6014" stroke="#000000" stroke-width="2" style="-webkit-tap-highlight-color: rgba(0, 0, 0, 0);"/><path fill="none" stroke="#000000" d="M160,55.400000000000006C159.7,48.400000000000006,154,48.400000000000006,149,47.400000000000006C151,51.400000000000006,153,55.400000000000006,148,60.400000000000006" stroke-width="2" style="-webkit-tap-highlight-color: rgba(0, 0, 0, 0);"/><circle cx="161" cy="59.400000000000006" r="4.5" fill="#eb6014" stroke="#000000" stroke-width="2" style="-webkit-tap-highlight-color: rgba(0, 0, 0, 0);"/><circle cx="149" cy="64.4" r="4.5" fill="#eb6014" stroke="#000000" stroke-width="2" style="-webkit-tap-highlight-color: rgba(0, 0, 0, 0);"/><path fill="none" stroke="#000000" d="M200.6,91C200.29999999999998,84,194.6,84,189.6,83C191.6,87,193.6,91,188.6,96" stroke-width="2" style="-webkit-tap-highlight-color: rgba(0, 0, 0, 0);"/><circle cx="201.6" cy="95" r="4.5" fill="#eb6014" stroke="#000000" stroke-width="2" style="-webkit-tap-highlight-color: rgba(0, 0, 0, 0);"/><circle cx="189.6" cy="100" r="4.5" fill="#eb6014" stroke="#000000" stroke-width="2" style="-webkit-tap-highlight-color: rgba(0, 0, 0, 0);"/><path fill="none" stroke="#000000" d="M40.599999999999994,116.70000000000002C40.89999999999999,109.70000000000002,46.599999999999994,109.70000000000002,51.599999999999994,108.70000000000002C49.599999999999994,112.70000000000002,47.599999999999994,116.70000000000002,52.599999999999994,121.70000000000002" stroke-width="2" style="-webkit-tap-highlight-color: rgba(0, 0, 0, 0);"/><circle cx="39.599999999999994" cy="120.70000000000002" r="4.5" fill="#eb6014" stroke="#000000" stroke-width="2" style="-webkit-tap-highlight-color: rgba(0, 0, 0, 0);"/><circle cx="51.599999999999994" cy="125.70000000000002" r="4.5" fill="#eb6014" stroke="#000000" stroke-width="2" style="-webkit-tap-highlight-color: rgba(0, 0, 0, 0);"/><path fill="none" stroke="#000000" d="M84.6,134.70000000000002C84.3,127.70000000000002,78.6,127.70000000000002,73.6,126.70000000000002C75.6,130.70000000000002,77.6,134.70000000000002,72.6,139.70000000000002" stroke-width="2" style="-webkit-tap-highlight-color: rgba(0, 0, 0, 0);"/><circle cx="85.6" cy="138.70000000000002" r="4.5" fill="#eb6014" stroke="#000000" stroke-width="2" style="-webkit-tap-highlight-color: rgba(0, 0, 0, 0);"/><circle cx="73.6" cy="143.70000000000002" r="4.5" fill="#eb6014" stroke="#000000" stroke-width="2" style="-webkit-tap-highlight-color: rgba(0, 0, 0, 0);"/><path fill="none" stroke="#000000" d="M166.4,145.9C166.1,138.9,160.4,138.9,155.4,137.9C157.4,141.9,159.4,145.9,154.4,150.9" stroke-width="2" style="-webkit-tap-highlight-color: rgba(0, 0, 0, 0);"/><circle cx="167.4" cy="149.9" r="4.5" fill="#eb6014" stroke="#000000" stroke-width="2" style="-webkit-tap-highlight-color: rgba(0, 0, 0, 0);"/><circle cx="155.4" cy="154.9" r="4.5" fill="#eb6014" stroke="#000000" stroke-width="2" style="-webkit-tap-highlight-color: rgba(0, 0, 0, 0);"/><path fill="none" stroke="#000000" d="M24.599999999999994,162.70000000000002C24.899999999999995,155.70000000000002,30.599999999999994,155.70000000000002,35.599999999999994,154.70000000000002C33.599999999999994,158.70000000000002,31.599999999999994,162.70000000000002,36.599999999999994,167.70000000000002" stroke-width="2" style="-webkit-tap-highlight-color: rgba(0, 0, 0, 0);"/><circle cx="23.599999999999994" cy="166.70000000000002" r="4.5" fill="#eb6014" stroke="#000000" stroke-width="2" style="-webkit-tap-highlight-color: rgba(0, 0, 0, 0);"/><circle cx="35.599999999999994" cy="171.70000000000002" r="4.5" fill="#eb6014" stroke="#000000" stroke-width="2" style="-webkit-tap-highlight-color: rgba(0, 0, 0, 0);"/><path fill="none" stroke="#000000" d="M195.4,171.9C195.1,164.9,189.4,164.9,184.4,163.9C186.4,167.9,188.4,171.9,183.4,176.9" stroke-width="2" style="-webkit-tap-highlight-color: rgba(0, 0, 0, 0);"/><circle cx="196.4" cy="175.9" r="4.5" fill="#eb6014" stroke="#000000" stroke-width="2" style="-webkit-tap-highlight-color: rgba(0, 0, 0, 0);"/><circle cx="184.4" cy="180.9" r="4.5" fill="#eb6014" stroke="#000000" stroke-width="2" style="-webkit-tap-highlight-color: rgba(0, 0, 0, 0);"/></svg></svg>