<?xml version="1.0" encoding="UTF-8" standalone="no"?>
<svg
   xmlns:dc="http://purl.org/dc/elements/1.1/"
   xmlns:cc="http://creativecommons.org/ns#"
   xmlns:rdf="http://www.w3.org/1999/02/22-rdf-syntax-ns#"
   xmlns:svg="http://www.w3.org/2000/svg"
   xmlns="http://www.w3.org/2000/svg"
   xmlns:sodipodi="http://sodipodi.sourceforge.net/DTD/sodipodi-0.dtd"
   xmlns:inkscape="http://www.inkscape.org/namespaces/inkscape"
   id="wugTree1"
   width="123.80623"
   height="133.94817"
   viewBox="0 0 225.10223 243.54212"
   version="1.1"
   inkscape:version="0.91 r"
   sodipodi:docname="treetest.svg"
   style="enable-background:new">
  <metadata
     id="metadata160">
    <rdf:RDF>
      <cc:Work
         rdf:about="">
        <dc:format>image/svg+xml</dc:format>
        <dc:type
           rdf:resource="http://purl.org/dc/dcmitype/StillImage" />
        <dc:title></dc:title>
      </cc:Work>
    </rdf:RDF>
  </metadata>
  <defs
     id="defs158">
    <linearGradient
       gradientUnits="userSpaceOnUse"
       id="linearGradient4266"
       x1="139.86024"
       y1="140.97804"
       x2="195.69746"
       y2="140.97804"
       gradientTransform="matrix(0.72894546,0,0,1.3718447,0,-10.909091)">
      <stop
         offset="0%"
         stop-color="#0655ff"
         style="-webkit-tap-highlight-color:rgba(0, 0, 0, 0);stop-color:#000000;stop-opacity:1"
         id="stop4268" />
      <stop
         offset="100%"
         stop-color="#0436a1"
         style="-webkit-tap-highlight-color: rgba(0, 0, 0, 0);"
         id="stop4270" />
    </linearGradient>
    <inkscape:perspective
       sodipodi:type="inkscape:persp3d"
       inkscape:vp_x="0 : 135 : 1"
       inkscape:vp_y="0 : 1000 : 0"
       inkscape:vp_z="250 : 135 : 1"
       inkscape:persp3d-origin="125 : 90 : 1"
       id="perspective3424" />
    <defs
       id="defs4441">
      <linearGradient
         id="00-_13ff04-_0a8e02"
         x1="80.525803"
         y1="67.289993"
         x2="225.97935"
         y2="67.289993"
         gradientTransform="matrix(0.78793906,0,0,1.2691337,0,-10.909091)"
         gradientUnits="userSpaceOnUse">
        <stop
           offset="0%"
           stop-color="#13ff04"
           style="-webkit-tap-highlight-color: rgba(0, 0, 0, 0);"
           id="stop4444" />
        <stop
           offset="100%"
           stop-color="#0a8e02"
           style="-webkit-tap-highlight-color: rgba(0, 0, 0, 0);"
           id="stop4446" />
      </linearGradient>
    </defs>
    <defs
       id="defs4125">
      <linearGradient
         id="710-_27ff0b-_158906"
         x1="50.055428"
         y1="238.16666"
         x2="144.38617"
         y2="238.16666"
         gradientTransform="matrix(1.2314719,0,0,0.81203642,0,-10.909091)"
         gradientUnits="userSpaceOnUse">
        <stop
           offset="0%"
           stop-color="#27ff0b"
           style="-webkit-tap-highlight-color: rgba(0, 0, 0, 0);"
           id="stop4128" />
        <stop
           offset="100%"
           stop-color="#158906"
           style="-webkit-tap-highlight-color: rgba(0, 0, 0, 0);"
           id="stop4130" />
      </linearGradient>
    </defs>
    <defs
       id="defs3809">
      <linearGradient
         id="1420-_33ff22-_20a215"
         x1="223.49814"
         y1="39.125912"
         x2="308.07242"
         y2="39.125912"
         gradientTransform="scale(0.45814883,2.1826969)"
         gradientUnits="userSpaceOnUse">
        <stop
           offset="0%"
           stop-color="#33ff22"
           style="-webkit-tap-highlight-color: rgba(0, 0, 0, 0);"
           id="stop3812" />
        <stop
           offset="100%"
           stop-color="#20a215"
           style="-webkit-tap-highlight-color: rgba(0, 0, 0, 0);"
           id="stop3814" />
      </linearGradient>
    </defs>
    <defs
       id="defs7">
      <linearGradient
         gradientTransform="matrix(0.72894546,0,0,1.3718447,0,-10.909091)"
         y2="140.97804"
         x2="195.69746"
         y1="140.97804"
         x1="139.86024"
         id="2130-_0655ff-_0436a1"
         gradientUnits="userSpaceOnUse">
        <stop
           id="stop10"
           style="-webkit-tap-highlight-color: rgba(0, 0, 0, 0);"
           stop-color="#0655ff"
           offset="0%" />
        <stop
           id="stop12"
           style="-webkit-tap-highlight-color: rgba(0, 0, 0, 0);"
           stop-color="#0436a1"
           offset="100%" />
      </linearGradient>
    </defs>
    <linearGradient
       gradientTransform="matrix(0.72894547,0,0,1.3718447,0.02859581,0.06507533)"
       y2="140.97804"
       x2="195.69746"
       y1="140.97804"
       x1="139.86024"
       id="2130-_0655ff-_0436a1-6"
       gradientUnits="userSpaceOnUse">
      <stop
         id="stop10-9"
         style="-webkit-tap-highlight-color: rgba(0, 0, 0, 0);"
         stop-color="#0655ff"
         offset="0%" />
      <stop
         id="stop12-6"
         style="-webkit-tap-highlight-color: rgba(0, 0, 0, 0);"
         stop-color="#0436a1"
         offset="100%" />
    </linearGradient>
    <linearGradient
       id="00-_13ff04-_0a8e02-2"
       x1="80.525803"
       y1="67.289993"
       x2="225.97935"
       y2="67.289993"
       gradientTransform="matrix(0.78793906,0,0,1.2691337,-14.1529,-21.107242)"
       gradientUnits="userSpaceOnUse">
      <stop
         offset="0%"
         stop-color="#13ff04"
         style="-webkit-tap-highlight-color: rgba(0, 0, 0, 0);"
         id="stop4444-9" />
      <stop
         offset="100%"
         stop-color="#0a8e02"
         style="-webkit-tap-highlight-color: rgba(0, 0, 0, 0);"
         id="stop4446-1" />
    </linearGradient>
    <linearGradient
       gradientTransform="matrix(0.72894546,0,0,1.3718447,0,-10.909091)"
       y2="140.97804"
       x2="195.69746"
       y1="140.97804"
       x1="139.86024"
       id="linearGradient4261"
       gradientUnits="userSpaceOnUse">
      <stop
         id="stop10-0"
         style="-webkit-tap-highlight-color: rgba(0, 0, 0, 0);"
         stop-color="#0655ff"
         offset="0%" />
      <stop
         id="stop12-62"
         style="-webkit-tap-highlight-color: rgba(0, 0, 0, 0);"
         stop-color="#0436a1"
         offset="100%" />
    </linearGradient>
    <linearGradient
       id="00-_13ff04-_0a8e02-9"
       x1="80.525803"
       y1="67.289993"
       x2="225.97935"
       y2="67.289993"
       gradientTransform="matrix(0.78793906,0,0,1.2691337,-14.1529,-22.219578)"
       gradientUnits="userSpaceOnUse">
      <stop
         offset="0%"
         stop-color="#13ff04"
         style="-webkit-tap-highlight-color: rgba(0, 0, 0, 0);"
         id="stop4444-2" />
      <stop
         offset="100%"
         stop-color="#0a8e02"
         style="-webkit-tap-highlight-color: rgba(0, 0, 0, 0);"
         id="stop4446-0" />
    </linearGradient>
    <linearGradient
       id="710-_27ff0b-_158906-9"
       x1="50.055428"
       y1="238.16666"
       x2="144.38617"
       y2="238.16666"
       gradientTransform="matrix(1.2314719,0,0,0.81203643,-16.253904,-22.861611)"
       gradientUnits="userSpaceOnUse">
      <stop
         offset="0%"
         stop-color="#27ff0b"
         style="-webkit-tap-highlight-color: rgba(0, 0, 0, 0);"
         id="stop4128-2" />
      <stop
         offset="100%"
         stop-color="#158906"
         style="-webkit-tap-highlight-color: rgba(0, 0, 0, 0);"
         id="stop4130-2" />
    </linearGradient>
  </defs>
  <sodipodi:namedview
     pagecolor="#ffffff"
     bordercolor="#666666"
     borderopacity="1"
     objecttolerance="10"
     gridtolerance="10"
     guidetolerance="10"
     inkscape:pageopacity="0"
     inkscape:pageshadow="2"
     inkscape:window-width="1436"
     inkscape:window-height="861"
     id="namedview156"
     showgrid="false"
     inkscape:zoom="2.8284271"
     inkscape:cx="116.95349"
     inkscape:cy="84.657238"
     inkscape:window-x="0"
     inkscape:window-y="1458"
     inkscape:window-maximized="0"
     inkscape:current-layer="g3510"
     fit-margin-top="0"
     fit-margin-left="0"
     fit-margin-right="0"
     fit-margin-bottom="0" />
  <g
     inkscape:groupmode="layer"
     id="layer1"
     inkscape:label="00"
     style="display:none"
     transform="translate(-4.2006413,-5.4144548)">
    <path
       id="branches-00"
       style="display:inline;fill:none;stroke:#000000;stroke-width:1.80242562"
       d="m 105.07037,190.4609 c -2.70364,-2.70363 -5.407275,-6.30849 -9.012121,-7.20971 -7.209703,-2.70364 -15.320619,0 -19.826683,5.40728 -3.604851,5.40728 -4.506064,13.5182 0,18.92548 2.703639,2.70364 7.209703,4.50606 10.814554,3.60484 3.604852,-0.9012 6.308486,-5.40728 5.407279,-9.01212 0,-2.70364 -2.70364,-5.40728 -5.407279,-4.50606 -1.802425,0 -3.604851,2.70364 -2.703638,4.50606 0,0.90121 2.703638,1.80242 2.703638,0 m 22.44019,-23.7019 c 0,-1.80242 -0.9012,-4.50606 -1.80242,-6.3085 -3.60484,-7.2097 -9.012123,-13.51818 -16.221826,-15.32061 -5.407278,-1.80243 -11.715768,-0.90121 -16.221832,1.80243 -3.604851,1.80242 -7.209702,6.30848 -7.209702,10.81455 0,4.50607 4.506064,9.01213 9.012128,8.11091 3.604852,0 7.209703,-4.50606 6.30849,-8.11091 0,-3.60485 -4.506064,-6.30849 -8.110916,-4.50607 -2.703638,0.90122 -3.604851,4.50607 -1.802426,7.2097 1.802426,1.80244 4.506065,1.80244 5.407278,-0.9012 0.901212,-1.80243 -0.901213,-3.60486 -2.703639,-3.60486 -1.802425,0 -1.802425,3.60486 0,2.70364 m 33.344865,8.11092 c -0.9012,-13.5182 0.90122,-31.54246 11.71578,-39.65336 3.60484,-2.70364 9.91334,-5.40728 15.32062,-4.50608 7.2097,1.80244 13.51818,7.20972 11.71576,15.32062 -0.90122,6.3085 -7.2097,10.81456 -13.5182,9.91334 -4.50606,-0.9012 -8.1109,-5.40726 -7.2097,-9.91334 0.90122,-3.60484 4.50607,-6.30848 8.11092,-5.40727 2.70364,0.90121 4.50606,2.70363 3.60486,5.40727 -0.90122,1.80244 -1.80244,2.70364 -3.60486,2.70364 -0.90122,0 -1.80242,-1.80242 -0.90122,-2.70364 0,-0.9012 0.90122,-0.9012 1.80244,-0.9012 m -18.83536,34.78682 c 4.50607,-7.20972 11.71578,-14.41942 20.7279,-17.12306 15.32062,-5.40727 33.34488,1.80244 39.65336,16.22184 3.60486,7.2097 2.70364,17.12304 -1.80242,23.43154 -2.70364,4.50606 -9.01212,6.30848 -14.4194,3.60484 -5.40728,-1.80242 -9.91334,-8.11092 -8.11092,-13.51818 0.90122,-4.50608 7.2097,-8.11092 11.71576,-5.40728 3.60486,1.80242 6.3085,7.2097 2.70364,9.91334 -2.70364,2.70364 -7.2097,0.9012 -7.2097,-2.70364 -0.90121,-3.60486 5.40728,-2.70364 3.60486,0 m -44.33968,2.61352 c 19.82668,-17.12305 36.04852,-2.70364 36.04852,18.02426 -1.80243,9.91334 -9.91334,18.02424 -19.82668,16.22182 -7.20971,-0.90122 -13.5182,-9.01212 -11.71578,-17.12304 0.90122,-6.3085 7.2097,-11.71576 12.61698,-9.91334 4.50607,0.9012 8.11092,5.40728 7.2097,10.81456 -0.9012,3.60484 -4.50606,6.30848 -7.2097,5.40726 -1.80242,-0.9012 -3.60484,-2.70364 -2.70364,-5.40726 0.90122,-0.90122 1.80244,-2.70364 3.60486,-1.80244"
       inkscape:connector-curvature="0" />
    <path
       id="fruits-00"
       style="fill:#a4fb05;stroke:#000000;stroke-width:1.80242562"
       d="m 126.133,139.66397 a 4.0554578,4.0554578 0 0 1 -4.05546,4.05546 4.0554578,4.0554578 0 0 1 -4.05546,-4.05546 4.0554578,4.0554578 0 0 1 4.05546,-4.05546 4.0554578,4.0554578 0 0 1 4.05546,4.05546 z m -52.77158,19.23414 a 4.0554578,4.0554578 0 0 1 -4.055458,4.05546 4.0554578,4.0554578 0 0 1 -4.055458,-4.05546 4.0554578,4.0554578 0 0 1 4.055458,-4.05545 4.0554578,4.0554578 0 0 1 4.055458,4.05545 z m 11.31578,-3.01232 a 4.0554578,4.0554578 0 0 1 -4.055458,4.05546 4.0554578,4.0554578 0 0 1 -4.055458,-4.05546 4.0554578,4.0554578 0 0 1 4.055458,-4.05546 4.0554578,4.0554578 0 0 1 4.055458,4.05546 z m 30.64124,-11.71576 a 4.0554578,4.0554578 0 0 1 -4.05546,4.05546 4.0554578,4.0554578 0 0 1 -4.05546,-4.05546 4.0554578,4.0554578 0 0 1 4.05546,-4.05546 4.0554578,4.0554578 0 0 1 4.05546,4.05546 z m 36.77705,-0.0248 a 4.0554578,4.0554578 0 0 1 -4.05546,4.05546 4.0554578,4.0554578 0 0 1 -4.05546,-4.05546 4.0554578,4.0554578 0 0 1 4.05546,-4.05546 4.0554578,4.0554578 0 0 1 4.05546,4.05546 z m -12.81947,0.9975 a 4.0554578,4.0554578 0 0 1 -4.05546,4.05546 4.0554578,4.0554578 0 0 1 -4.05544,-4.05546 4.0554578,4.0554578 0 0 1 4.05544,-4.05546 4.0554578,4.0554578 0 0 1 4.05546,4.05546 z m 24.70792,19.36522 a 4.0554578,4.0554578 0 0 1 -4.05546,4.05545 4.0554578,4.0554578 0 0 1 -4.05546,-4.05545 4.0554578,4.0554578 0 0 1 4.05546,-4.05546 4.0554578,4.0554578 0 0 1 4.05546,4.05546 z m -11.81702,0.99748 a 4.0554578,4.0554578 0 0 1 -4.05546,4.05545 4.0554578,4.0554578 0 0 1 -4.05546,-4.05545 4.0554578,4.0554578 0 0 1 4.05546,-4.05546 4.0554578,4.0554578 0 0 1 4.05546,4.05546 z m 6.27256,26.88336 a 4.0554578,4.0554578 0 0 1 -4.05546,4.05545 4.0554578,4.0554578 0 0 1 -4.05546,-4.05545 4.0554578,4.0554578 0 0 1 4.05546,-4.05546 4.0554578,4.0554578 0 0 1 4.05546,4.05546 z m 10.73814,-4.51599 a 4.0554578,4.0554578 0 0 1 -4.05546,4.05545 4.0554578,4.0554578 0 0 1 -4.05546,-4.05545 4.0554578,4.0554578 0 0 1 4.05546,-4.05546 4.0554578,4.0554578 0 0 1 4.05546,4.05546 z m -68.69466,17.4452 a 4.0554578,4.0554578 0 0 1 -4.055459,4.05546 4.0554578,4.0554578 0 0 1 -4.055453,-4.05546 4.0554578,4.0554578 0 0 1 4.055453,-4.05546 4.0554578,4.0554578 0 0 1 4.055459,4.05546 z m -8.809656,7.51342 a 4.0554578,4.0554578 0 0 1 -4.055455,4.05546 4.0554578,4.0554578 0 0 1 -4.055458,-4.05546 4.0554578,4.0554578 0 0 1 4.055458,-4.05546 4.0554578,4.0554578 0 0 1 4.055455,4.05546 z m 55.097446,-7.82945 a 4.0554578,4.0554578 0 0 1 -4.05546,4.05546 4.0554578,4.0554578 0 0 1 -4.05545,-4.05546 4.0554578,4.0554578 0 0 1 4.05545,-4.05546 4.0554578,4.0554578 0 0 1 4.05546,4.05546 z m -10.81454,4.50607 a 4.0554578,4.0554578 0 0 1 -4.05546,4.05545 4.0554578,4.0554578 0 0 1 -4.05546,-4.05545 4.0554578,4.0554578 0 0 1 4.05546,-4.05546 4.0554578,4.0554578 0 0 1 4.05546,4.05546 z"
       inkscape:connector-curvature="0" />
    <path
       style="display:inline;fill:none;fill-rule:evenodd;stroke:#000000;stroke-width:1.81818175px;stroke-linecap:butt;stroke-linejoin:miter;stroke-opacity:1;enable-background:new"
       d="m 97.8947,246.20088 31.88748,0.39367 c -10.12021,-7.99218 -13.2289,-21.77348 -9.84182,-46.45337 -4.11899,1.32935 -6.67764,1.9003 -2.36204,-16.92791 -7.15734,13.79554 -7.55235,0.68462 -8.66079,-9.05447 1.50176,12.79883 -0.50704,16.66957 -3.59082,16.20812 4.45459,11.29992 5.16797,35.1193 -7.43201,55.83396 z"
       id="trunk-00"
       inkscape:connector-curvature="0"
       sodipodi:nodetypes="ccccccc"
       inkscape:label="#trunk-00" />
  </g>
  <g
     style="display:none"
     inkscape:label="10"
     id="g3410"
     inkscape:groupmode="layer"
     transform="translate(-4.2006413,-5.4144548)">
    <path
       d="m 49.146096,246.13841 c 11,-6.3 19.800001,-13.3 28.6,-20.3 8.799999,-9.80001 10.999999,-20.30001 8.799999,-30.10001 -2.2,-4.2 -6.6,-8.39999 -13.199999,-11.89999 6.599999,3.5 15.399999,-2.1 13.199999,-4.9 2.2,-2.1 2.2,-7.00001 2.2,-8.40001 0,4.2 0,8.40001 4.4,11.90001 10.999995,1.4 17.599995,-2.1 19.799995,-4.2 2.2,-0.7 6.6,-5.60001 4.4,-2.1 -4.4,6.3 -8.8,11.9 -8.8,18.19999 2.2,3.5 17.6,0 17.6,0.7 -6.6,12.6 -11,26.60001 4.4,39.20001 6.6,4.9 17.6,9.1 30.8,11.9 -37.4,0 -74.799995,0 -112.199994,0 z"
       style="display:inline;opacity:1;fill:url(#710-_27ff0b-_158906-9);fill-opacity:1;stroke:#000000;stroke-width:2"
       id="trunk-10-8"
       inkscape:connector-curvature="0"
       inkscape:label="#trunk-10" />
    <path
       inkscape:connector-curvature="0"
       d="m 82.501309,190.46016 c -5.231512,-2.68682 -10.463012,-6.26924 -17.43836,-7.16484 -13.950686,-2.68682 -29.645201,0 -38.364376,5.37363 -6.975341,5.37362 -8.719177,13.43406 0,18.80768 5.231504,2.68681 13.950682,4.47802 20.926029,3.58241 6.975336,-0.8956 12.206848,-5.37363 10.46301,-8.95603 0,-2.68683 -5.231511,-5.37364 -10.46301,-4.47802 -3.487675,0 -6.975347,2.68681 -5.231511,4.47802 0,0.89559 5.231511,1.79119 5.231511,0 m 43.421492,-23.55439 c 0,-1.79121 -1.743824,-4.47802 -3.487661,-6.26923 -6.975348,-7.16484 -17.43836,-13.43405 -31.389045,-15.22526 -10.463012,-1.79121 -22.669858,-0.8956 -31.389035,1.79121 -6.975342,1.7912 -13.950683,6.26921 -13.950683,10.74723 0,4.47803 8.719177,8.95605 17.438354,8.06045 6.975341,0 13.950682,-4.47802 12.206847,-8.06045 0,-3.5824 -8.719176,-6.26921 -15.694518,-4.47802 -5.231506,0.89562 -6.975342,4.47802 -3.487672,7.16484 3.487672,1.79121 8.719179,1.79121 10.463014,-0.89561 1.743835,-1.79121 -1.743835,-3.5824 -5.231506,-3.5824 -3.487672,0 -3.487672,3.5824 0,2.68681 m 64.521905,8.06043 c -1.743824,-13.43407 1.74384,-31.34613 22.669876,-39.40657 6.97532,-2.68681 19.18217,-5.37363 29.6452,-4.47802 13.95068,1.79121 26.15753,7.16482 22.66985,15.22527 -1.74384,6.26923 -13.95068,10.74724 -26.15753,9.85164 -8.71918,-0.8956 -15.69452,-5.37362 -13.95068,-9.85164 1.74383,-3.58243 8.71918,-6.26923 15.69451,-5.37362 5.2315,0.8956 8.71917,2.68681 6.97535,5.37362 -1.74385,1.79121 -3.48767,2.6868 -6.97535,2.6868 -1.74383,0 -3.48768,-1.79121 -1.74383,-2.6868 0,-0.89561 1.74383,-0.89561 3.48768,-0.89561 M 106.915,183.56401 c 8.71917,-7.16484 22.66987,-14.32966 40.10821,-17.01647 29.64521,-5.37365 64.52192,1.79119 76.72876,16.12086 6.97533,7.16484 5.2315,17.01647 -3.48767,23.2857 -5.2315,4.47801 -17.43834,6.26922 -27.90137,3.58241 -10.46301,-1.79121 -19.18218,-8.06043 -15.69451,-13.43406 1.74383,-4.47802 13.95068,-8.06042 22.66986,-5.37362 6.97533,1.79122 12.20685,7.16483 5.2315,9.85164 -5.2315,2.68681 -13.95068,0.89561 -13.95068,-2.68681 -1.74384,-3.58241 10.46301,-2.68681 6.97534,0 m -85.7967,2.59725 c 38.36438,-17.01647 69.75341,-2.68681 69.75341,17.91209 -3.48767,9.85164 -19.18218,17.91206 -38.36439,16.12087 -13.95066,-0.89562 -26.15752,-8.95604 -22.66985,-17.01649 1.74384,-6.26921 13.95068,-11.64285 24.4137,-9.85163 8.71917,0.89561 15.69451,5.37361 13.95068,10.74725 -1.74383,3.5824 -8.71917,6.26922 -13.95068,5.37362 -3.48766,-0.89561 -6.97534,-2.68682 -5.2315,-5.37362 1.74384,-0.89562 3.48765,-2.68681 6.97533,-1.79122"
       style="display:inline;fill:none;stroke:#000000;stroke-width:2.49942851"
       id="branches-10" />
    <path
       inkscape:connector-curvature="0"
       d="m 123.25719,139.97937 a 7.8472591,4.0302175 0 0 1 -7.84726,4.03021 7.8472591,4.0302175 0 0 1 -7.84725,-4.03021 7.8472591,4.0302175 0 0 1 7.84725,-4.03022 7.8472591,4.0302175 0 0 1 7.84726,4.03022 z M 21.144874,159.09381 a 7.8472591,4.0302175 0 0 1 -7.847258,4.03022 7.8472591,4.0302175 0 0 1 -7.8472604,-4.03022 7.8472591,4.0302175 0 0 1 7.8472604,-4.0302 7.8472591,4.0302175 0 0 1 7.847258,4.0302 z m 21.89589,-2.99358 a 7.8472591,4.0302175 0 0 1 -7.847258,4.03022 7.8472591,4.0302175 0 0 1 -7.84726,-4.03022 7.8472591,4.0302175 0 0 1 7.84726,-4.0302 7.8472591,4.0302175 0 0 1 7.847258,4.0302 z m 59.290406,-11.64284 a 7.8472591,4.0302175 0 0 1 -7.847259,4.0302 7.8472591,4.0302175 0 0 1 -7.847257,-4.0302 7.8472591,4.0302175 0 0 1 7.847257,-4.03022 7.8472591,4.0302175 0 0 1 7.847259,4.03022 z m 71.16311,-0.0247 a 7.8472591,4.0302175 0 0 1 -7.84725,4.03022 7.8472591,4.0302175 0 0 1 -7.84726,-4.03022 7.8472591,4.0302175 0 0 1 7.84726,-4.03021 7.8472591,4.0302175 0 0 1 7.84725,4.03021 z m -24.80548,0.99129 a 7.8472591,4.0302175 0 0 1 -7.84726,4.03022 7.8472591,4.0302175 0 0 1 -7.84727,-4.03022 7.8472591,4.0302175 0 0 1 7.84727,-4.03021 7.8472591,4.0302175 0 0 1 7.84726,4.03021 z m 47.80948,19.24469 a 7.8472591,4.0302175 0 0 1 -7.84727,4.03022 7.8472591,4.0302175 0 0 1 -7.84724,-4.03022 7.8472591,4.0302175 0 0 1 7.84724,-4.03021 7.8472591,4.0302175 0 0 1 7.84727,4.03021 z M 173.63253,165.66 a 7.8472591,4.0302175 0 0 1 -7.84726,4.03022 7.8472591,4.0302175 0 0 1 -7.84727,-4.03022 7.8472591,4.0302175 0 0 1 7.84727,-4.03022 7.8472591,4.0302175 0 0 1 7.84726,4.03022 z m 12.13729,26.71603 a 7.8472591,4.0302175 0 0 1 -7.84725,4.03023 7.8472591,4.0302175 0 0 1 -7.84726,-4.03023 7.8472591,4.0302175 0 0 1 7.84726,-4.0302 7.8472591,4.0302175 0 0 1 7.84725,4.0302 z m 20.77819,-4.48788 a 7.8472591,4.0302175 0 0 1 -7.84727,4.03021 7.8472591,4.0302175 0 0 1 -7.84726,-4.03021 7.8472591,4.0302175 0 0 1 7.84726,-4.03022 7.8472591,4.0302175 0 0 1 7.84727,4.03022 z M 73.624714,205.22477 a 7.8472591,4.0302175 0 0 1 -7.847261,4.03022 7.8472591,4.0302175 0 0 1 -7.847261,-4.03022 7.8472591,4.0302175 0 0 1 7.847261,-4.0302 7.8472591,4.0302175 0 0 1 7.847261,4.0302 z m -17.046569,7.46666 a 7.8472591,4.0302175 0 0 1 -7.847262,4.03021 7.8472591,4.0302175 0 0 1 -7.847259,-4.03021 7.8472591,4.0302175 0 0 1 7.847259,-4.03022 7.8472591,4.0302175 0 0 1 7.847262,4.03022 z m 106.612845,-7.78077 a 7.8472591,4.0302175 0 0 1 -7.84723,4.03023 7.8472591,4.0302175 0 0 1 -7.84726,-4.03023 7.8472591,4.0302175 0 0 1 7.84726,-4.03021 7.8472591,4.0302175 0 0 1 7.84723,4.03021 z m -20.92601,4.47803 a 7.8472591,4.0302175 0 0 1 -7.84726,4.03022 7.8472591,4.0302175 0 0 1 -7.84725,-4.03022 7.8472591,4.0302175 0 0 1 7.84725,-4.03022 7.8472591,4.0302175 0 0 1 7.84726,4.03022 z"
       style="fill:#a4fb05;stroke:#000000;stroke-width:2.49942851"
       id="fruits-10" />
    <path
       style="display:inline;fill:none;fill-rule:evenodd;stroke:#000000;stroke-width:1.81818175px;stroke-linecap:butt;stroke-linejoin:miter;stroke-opacity:1;enable-background:new"
       d="m 49.80578,245.56371 109.86307,0.5763 c -19.82056,0.0346 -52.11889,-19.57408 -34.04506,-51.09696 -7.86701,1.28386 -25.36958,6.04008 -8.36975,-17.77991 -11.20162,10.34559 -31.178885,6.95674 -27.799618,-4.87037 0.297832,8.71188 -11.519628,12.04984 -15.489166,11.75153 36.061624,26.13462 -8.279169,51.17675 -24.159476,61.41941 z"
       id="trunk-10"
       inkscape:connector-curvature="0"
       sodipodi:nodetypes="ccccccc"
       inkscape:label="#trunk-10" />
  </g>
  <g
     style="display:inline"
     inkscape:label="01"
     id="g3510"
     inkscape:groupmode="layer"
     transform="translate(-4.2006413,-5.4144548)">
    <path
       inkscape:connector-curvature="0"
       d="m 102.62697,127.44364 c -2.57928,-5.79535 -5.158578,-13.52246 -8.597644,-15.45426 -6.878129,-5.79534 -14.61602,0 -18.914849,11.59068 -3.439063,11.59069 -4.298829,28.97671 0,40.5674 2.579298,5.79533 6.878127,9.6589 10.317189,7.7271 3.439063,-1.93177 6.018359,-11.59066 5.158594,-19.31779 0,-5.79534 -2.579298,-11.59067 -5.158594,-9.6589 -1.719532,0 -3.439062,5.79534 -2.579297,9.6589 0,1.93178 2.579297,3.86358 2.579297,0 m 21.408144,-50.80583 c 0,-3.863558 -0.85975,-9.658906 -1.71951,-13.522474 -3.43907,-15.454239 -8.597654,-28.976699 -15.475782,-32.84026 -5.158595,-3.863561 -11.176955,-1.931781 -15.475782,3.863561 -3.439064,3.863559 -6.878126,13.52246 -6.878126,23.181362 0,9.658905 4.298828,19.317811 8.597658,17.386036 3.439062,0 6.878124,-9.658909 6.018358,-17.386036 0,-7.72712 -4.298828,-13.522461 -7.73789,-9.658902 -2.579298,1.931782 -3.439064,9.658902 -1.719531,15.454239 1.719531,3.863568 4.298828,3.863568 5.158593,-1.931779 0.859765,-3.863558 -0.859765,-7.727118 -2.579297,-7.727118 -1.719532,0 -1.719532,7.727118 0,5.795341 m 31.811309,17.38603 c -0.85975,-28.976713 0.85978,-67.612317 11.17698,-84.998338 3.43905,-5.79534 9.45742,-11.5906804 14.61601,-9.6588998 6.87812,3.8635598 12.89649,15.4542398 11.17695,32.8402628 -0.85976,13.52246 -6.87812,23.181361 -12.89648,21.249581 -4.29884,-1.931779 -7.73788,-11.590681 -6.87814,-21.249581 0.85977,-7.727122 4.29884,-13.522464 7.7379,-11.590682 2.57929,1.931781 4.29883,5.79534 3.43907,11.590682 -0.85978,3.863559 -1.71954,5.79534 -3.43907,5.79534 -0.85976,0 -1.71953,-3.863561 -0.85976,-5.79534 0,-1.931781 0.85976,-1.931781 1.71953,-1.931781 m -17.96911,74.566746 c 4.29883,-15.454271 11.17696,-30.908512 19.77462,-36.703853 14.61602,-11.590682 31.81134,3.863561 37.82967,34.772073 3.43909,15.45423 2.57932,36.70383 -1.71951,50.22629 -2.57931,9.6589 -8.59766,13.52245 -13.75626,7.7271 -5.15859,-3.86354 -9.45742,-17.38602 -7.73788,-28.9767 0.85974,-9.65889 6.87812,-17.38601 11.17695,-11.59067 3.43905,3.86355 6.01837,15.45424 2.57929,21.24958 -2.57929,5.79533 -6.87812,1.93177 -6.87812,-5.79534 -0.85978,-7.72712 5.1586,-5.79534 3.43905,0 m -42.30047,5.60216 c 18.91485,-36.70382 34.39063,-5.79534 34.39063,38.6356 -1.71953,21.2496 -9.45741,38.63562 -18.91483,34.77204 -6.87814,-1.93177 -12.89648,-19.31779 -11.17697,-36.70382 0.85977,-13.52245 6.87814,-25.11314 12.03673,-21.24958 4.29883,1.93179 7.73789,11.59068 6.87812,23.18136 -0.85976,7.72713 -4.29883,13.52246 -6.87812,11.59069 -1.71953,-1.93178 -3.43908,-5.79534 -2.57931,-11.59069 0.85978,-1.93178 1.71955,-5.79534 3.43907,-3.86355"
       style="display:inline;fill:none;stroke:#000000;stroke-width:2.57750154"
       id="branches-01" />
    <path
       inkscape:connector-curvature="0"
       d="m 122.7209,18.558661 a 3.8689457,8.6930112 0 0 1 -3.86894,8.693011 3.8689457,8.6930112 0 0 1 -3.86894,-8.693011 3.8689457,8.6930112 0 0 1 3.86894,-8.6930088 3.8689457,8.6930112 0 0 1 3.86894,8.6930088 z M 72.37633,59.787719 a 3.8689457,8.6930112 0 0 1 -3.868946,8.693012 3.8689457,8.6930112 0 0 1 -3.868945,-8.693012 3.8689457,8.6930112 0 0 1 3.868945,-8.69301 3.8689457,8.6930112 0 0 1 3.868946,8.69301 z m 10.795362,-6.457013 a 3.8689457,8.6930112 0 0 1 -3.868946,8.693011 3.8689457,8.6930112 0 0 1 -3.868944,-8.693011 3.8689457,8.6930112 0 0 1 3.868944,-8.693013 3.8689457,8.6930112 0 0 1 3.868946,8.693013 z M 112.40372,28.217562 a 3.8689457,8.6930112 0 0 1 -3.86894,8.693011 3.8689457,8.6930112 0 0 1 -3.86895,-8.693011 3.8689457,8.6930112 0 0 1 3.86895,-8.693011 3.8689457,8.6930112 0 0 1 3.86894,8.693011 z m 35.08567,-0.05333 a 3.8689457,8.6930112 0 0 1 -3.86895,8.693012 3.8689457,8.6930112 0 0 1 -3.86896,-8.693012 3.8689457,8.6930112 0 0 1 3.86896,-8.693011 3.8689457,8.6930112 0 0 1 3.86895,8.693011 z m -12.22991,2.138171 a 3.8689457,8.6930112 0 0 1 -3.86894,8.693012 3.8689457,8.6930112 0 0 1 -3.86894,-8.693012 3.8689457,8.6930112 0 0 1 3.86894,-8.69301 3.8689457,8.6930112 0 0 1 3.86894,8.69301 z m 23.57158,41.509999 a 3.8689457,8.6930112 0 0 1 -3.86894,8.69301 3.8689457,8.6930112 0 0 1 -3.86895,-8.69301 3.8689457,8.6930112 0 0 1 3.86895,-8.693012 3.8689457,8.6930112 0 0 1 3.86894,8.693012 z m -11.27354,2.138131 a 3.8689457,8.6930112 0 0 1 -3.86894,8.693013 3.8689457,8.6930112 0 0 1 -3.86894,-8.693013 3.8689457,8.6930112 0 0 1 3.86894,-8.693009 3.8689457,8.6930112 0 0 1 3.86894,8.693009 z m 5.98408,57.625407 a 3.8689457,8.6930112 0 0 1 -3.86894,8.69303 3.8689457,8.6930112 0 0 1 -3.86895,-8.69303 3.8689457,8.6930112 0 0 1 3.86895,-8.693 3.8689457,8.6930112 0 0 1 3.86894,8.693 z m 10.24431,-9.68018 a 3.8689457,8.6930112 0 0 1 -3.86895,8.69301 3.8689457,8.6930112 0 0 1 -3.86894,-8.69301 3.8689457,8.6930112 0 0 1 3.86894,-8.69301 3.8689457,8.6930112 0 0 1 3.86895,8.69301 z m -65.535366,37.39441 a 3.8689457,8.6930112 0 0 1 -3.868946,8.693 3.8689457,8.6930112 0 0 1 -3.86895,-8.693 3.8689457,8.6930112 0 0 1 3.86895,-8.69303 3.8689457,8.6930112 0 0 1 3.868946,8.69303 z m -8.404498,16.10524 a 3.8689457,8.6930112 0 0 1 -3.868946,8.69302 3.8689457,8.6930112 0 0 1 -3.868945,-8.69302 3.8689457,8.6930112 0 0 1 3.868945,-8.693 3.8689457,8.6930112 0 0 1 3.868946,8.693 z m 52.563484,-16.78267 a 3.8689457,8.6930112 0 0 1 -3.86895,8.69302 3.8689457,8.6930112 0 0 1 -3.86894,-8.69302 3.8689457,8.6930112 0 0 1 3.86894,-8.69301 3.8689457,8.6930112 0 0 1 3.86895,8.69301 z m -10.31717,9.65891 a 3.8689457,8.6930112 0 0 1 -3.86896,8.69301 3.8689457,8.6930112 0 0 1 -3.86894,-8.69301 3.8689457,8.6930112 0 0 1 3.86894,-8.69301 3.8689457,8.6930112 0 0 1 3.86896,8.69301 z"
       style="fill:#a4fb05;stroke:#000000;stroke-width:2.57750154"
       id="fruits-01" />
    <path
       style="display:inline;fill:none;fill-rule:evenodd;stroke:#000000;stroke-width:1.81818175px;stroke-linecap:butt;stroke-linejoin:miter;stroke-opacity:1;enable-background:new"
       d="m 92.8947,247.10997 38.25112,0.39367 c -13.75237,-2.22417 -19.19277,-97.20246 -13.42304,-125.01093 -6.68109,15.12988 -6.72371,-28.449666 -2.04063,-47.581004 -8.1605,34.533134 -8.0521,15.080728 -8.16724,-12.692803 1.57748,12.813897 0.36185,41.147377 -6.07941,33.657708 4.68956,10.181529 6.70112,111.869909 -8.5408,151.233359 z"
       id="trunk-01"
       inkscape:connector-curvature="0"
       sodipodi:nodetypes="ccccccc"
       inkscape:label="#trunk-01" />
  </g>
  <g
     inkscape:groupmode="layer"
     id="g3420"
     inkscape:label="11"
     style="display:none"
     transform="translate(-4.2006413,-5.4144548)">
    <path
       id="branches-11"
       style="display:inline;fill:none;stroke:#000000;stroke-width:3.63663292"
       d="m 82.981406,127.44252 c -5.157308,-5.76976 -10.314628,-13.46276 -17.191056,-15.38603 -13.752865,-5.76975 -29.224826,0 -37.820361,11.53951 -6.876427,11.53952 -8.595535,28.84879 0,40.38829 5.157322,5.76975 13.752858,9.61627 20.629282,7.693 6.876427,-1.92325 12.033748,-11.53948 10.31464,-19.2325 0,-5.76975 -5.15732,-11.53951 -10.31464,-9.61627 -3.438211,0 -6.876424,5.76977 -5.157316,9.61627 0,1.92325 5.157316,3.84651 5.157316,0 m 42.805741,-50.58154 c 0,-3.846499 -1.719083,-9.616259 -3.438189,-13.46277 C 81.090407,73.014468 70.775756,59.551707 57.022901,55.705204 46.70826,51.858699 34.674506,53.781952 26.078972,59.551707 19.202545,63.39821 12.326118,73.014468 12.326118,82.630728 c 0,9.616263 8.595533,19.232522 17.191071,17.309274 6.876426,0 13.752855,-9.616263 12.033746,-17.309274 0,-7.693007 -8.595535,-13.462762 -15.471963,-9.61626 -5.157321,1.923253 -6.876427,9.61626 -3.438211,15.386012 3.438211,3.846511 8.595533,3.846511 10.314639,-1.923251 1.719106,-3.846501 -1.719106,-7.693005 -5.157322,-7.693005 -3.438212,0 -3.438212,7.693005 0,5.769756 m 63.606934,17.30927 c -1.719083,-28.848782 1.719135,-67.313816 22.348418,-84.623081 6.87641,-5.769755 18.91017,-11.5395085 29.22481,-9.6162574 13.75285,3.8465024 25.7866,15.3860134 22.34839,32.6952774 -1.71909,13.462763 -13.75285,23.079021 -25.7866,21.155769 -8.59555,-1.923251 -15.47194,-11.53951 -13.75286,-21.155769 1.71911,-7.693007 8.59556,-13.462763 15.47194,-11.539509 5.15733,1.923251 8.59555,5.769754 6.87646,11.539509 -1.71913,3.846504 -3.43822,5.769755 -6.87646,5.769755 -1.71908,0 -3.43819,-3.846504 -1.71908,-5.769755 0,-1.92325 1.71908,-1.92325 3.43821,-1.92325 M 107.0489,112.63348 c 8.59555,-15.386048 22.34841,-30.772052 39.53948,-36.541808 29.22481,-11.53951 63.60697,3.846504 75.64068,34.618548 6.87645,15.38603 5.15735,36.54179 -3.43821,50.00457 -5.15731,9.61624 -17.19107,13.46274 -27.50572,7.69298 -10.31461,-3.8465 -18.91017,-17.30927 -15.47194,-28.84876 1.71908,-9.61626 13.75285,-17.30928 22.3484,-11.53951 6.87641,3.8465 12.03376,15.386 5.1573,21.15575 -5.1573,5.76977 -13.75285,1.92325 -13.75285,-5.76975 -1.71911,-7.693 10.31466,-5.76975 6.87642,0 m -84.58006,5.57743 c 37.82034,-36.54179 68.76429,-5.76976 68.76429,38.46505 -3.43824,21.15576 -18.91017,38.46503 -37.82035,34.61852 -13.75286,-1.92325 -25.7866,-19.23252 -22.34842,-36.54178 1.71913,-13.46277 13.75288,-25.00227 24.06752,-21.15577 8.59553,1.92325 15.47196,11.53951 13.75285,23.07903 -1.71909,7.693 -8.59555,13.46276 -13.75285,11.5395 -3.43821,-1.92325 -6.87644,-5.76975 -5.15733,-11.5395 1.71912,-1.92326 3.43823,-5.76976 6.87644,-3.84651"
       inkscape:connector-curvature="0" />
    <path
       id="fruits-11"
       style="fill:#a4fb05;stroke:#000000;stroke-width:3.63663292"
       d="m 123.15935,19.038254 a 7.7359815,8.6546331 0 0 1 -7.73596,8.654633 7.7359815,8.6546331 0 0 1 -7.73598,-8.654633 7.7359815,8.6546331 0 0 1 7.73598,-8.65463 7.7359815,8.6546331 0 0 1 7.73596,8.65463 z M 22.495046,60.085293 a 7.7359815,8.6546331 0 0 1 -7.73598,8.654634 7.7359815,8.6546331 0 0 1 -7.7359817,-8.654634 7.7359815,8.6546331 0 0 1 7.7359817,-8.654632 7.7359815,8.6546331 0 0 1 7.73598,8.654632 z m 21.585397,-6.428507 a 7.7359815,8.6546331 0 0 1 -7.735982,8.654634 7.7359815,8.6546331 0 0 1 -7.73598,-8.654634 7.7359815,8.6546331 0 0 1 7.73598,-8.654633 7.7359815,8.6546331 0 0 1 7.735982,8.654633 z M 102.53006,28.654514 a 7.7359815,8.6546331 0 0 1 -7.735969,8.654631 7.7359815,8.6546331 0 0 1 -7.735975,-8.654631 7.7359815,8.6546331 0 0 1 7.735975,-8.654634 7.7359815,8.6546331 0 0 1 7.735969,8.654634 z m 70.15402,-0.05309 a 7.7359815,8.6546331 0 0 1 -7.736,8.654635 7.7359815,8.6546331 0 0 1 -7.73598,-8.654635 7.7359815,8.6546331 0 0 1 7.73598,-8.654631 7.7359815,8.6546331 0 0 1 7.736,8.654631 z m -24.45376,2.128732 a 7.7359815,8.6546331 0 0 1 -7.73598,8.654634 7.7359815,8.6546331 0 0 1 -7.73598,-8.654634 7.7359815,8.6546331 0 0 1 7.73598,-8.654631 7.7359815,8.6546331 0 0 1 7.73598,8.654631 z m 47.13153,41.326739 a 7.7359815,8.6546331 0 0 1 -7.73598,8.654633 7.7359815,8.6546331 0 0 1 -7.736,-8.654633 7.7359815,8.6546331 0 0 1 7.736,-8.654634 7.7359815,8.6546331 0 0 1 7.73598,8.654634 z m -22.54152,2.128693 a 7.7359815,8.6546331 0 0 1 -7.73599,8.654634 7.7359815,8.6546331 0 0 1 -7.73595,-8.654634 7.7359815,8.6546331 0 0 1 7.73595,-8.654632 7.7359815,8.6546331 0 0 1 7.73599,8.654632 z m 11.96518,57.371012 a 7.7359815,8.6546331 0 0 1 -7.73595,8.65462 7.7359815,8.6546331 0 0 1 -7.73599,-8.65462 7.7359815,8.6546331 0 0 1 7.73599,-8.65465 7.7359815,8.6546331 0 0 1 7.73595,8.65465 z m 20.48357,-9.63747 a 7.7359815,8.6546331 0 0 1 -7.73598,8.65463 7.7359815,8.6546331 0 0 1 -7.73599,-8.65463 7.7359815,8.6546331 0 0 1 7.73599,-8.65461 7.7359815,8.6546331 0 0 1 7.73598,8.65461 z M 74.2307,159.14844 a 7.7359815,8.6546331 0 0 1 -7.735981,8.65464 7.7359815,8.6546331 0 0 1 -7.735992,-8.65464 7.7359815,8.6546331 0 0 1 7.735992,-8.65462 7.7359815,8.6546331 0 0 1 7.735981,8.65462 z m -16.804842,16.03417 a 7.7359815,8.6546331 0 0 1 -7.73598,8.65461 7.7359815,8.6546331 0 0 1 -7.735985,-8.65461 7.7359815,8.6546331 0 0 1 7.735985,-8.65464 7.7359815,8.6546331 0 0 1 7.73598,8.65464 z M 162.52689,158.47402 a 7.7359815,8.6546331 0 0 1 -7.73598,8.65465 7.7359815,8.6546331 0 0 1 -7.73599,-8.65465 7.7359815,8.6546331 0 0 1 7.73599,-8.65464 7.7359815,8.6546331 0 0 1 7.73598,8.65464 z m -20.62928,9.61626 a 7.7359815,8.6546331 0 0 1 -7.73597,8.65464 7.7359815,8.6546331 0 0 1 -7.73598,-8.65464 7.7359815,8.6546331 0 0 1 7.73598,-8.65464 7.7359815,8.6546331 0 0 1 7.73597,8.65464 z"
       inkscape:connector-curvature="0" />
    <path
       style="fill:none;fill-rule:evenodd;stroke:#000000;stroke-width:1.81818175px;stroke-linecap:butt;stroke-linejoin:miter;stroke-opacity:1"
       d="M 50.260326,247.38189 162.85067,246.59454 C 113.36321,218.13139 118.52164,170.49425 127.81381,121.40667 94.578758,139.31714 118.29506,94.119357 119.94036,73.378625 92.134754,117.81385 94.017239,81.288534 90.808597,63.930485 89.248304,79.79137 92.409802,102.77331 76.242713,96.605305 102.74296,138.21801 87.661674,190.05568 50.260326,247.38189 Z"
       id="trunk-11"
       inkscape:connector-curvature="0"
       sodipodi:nodetypes="ccccccc"
       inkscape:label="#trunk-11" />
  </g>
</svg>
