<?xml version="1.0" standalone="no"?>
<svg xmlns:xlink="http://www.w3.org/1999/xlink" xmlns="http://www.w3.org/2000/svg" id="wugTree1" width="137.5px" height="148.5px" viewBox="0 0 250 270"><svg height="270" version="1.1" width="250" xmlns="http://www.w3.org/2000/svg" style="overflow: hidden; position: relative; left: -0.5px;"><desc style="-webkit-tap-highlight-color: rgba(0, 0, 0, 0);">Created with Raphaël 2.1.0</desc><defs style="-webkit-tap-highlight-color: rgba(0, 0, 0, 0);"><linearGradient id="2130-_0655ff-_0436a1" x1="0" y1="0" x2="1" y2="0" gradientTransform="matrix(1,0,0,1,0,0)" style="-webkit-tap-highlight-color: rgba(0, 0, 0, 0);"><stop offset="0%" stop-color="#0655ff" style="-webkit-tap-highlight-color: rgba(0, 0, 0, 0);"/><stop offset="100%" stop-color="#0436a1" style="-webkit-tap-highlight-color: rgba(0, 0, 0, 0);"/></linearGradient></defs><path fill="url(#2130-_0655ff-_0436a1)" stroke="#000000" d="M103.65,269C107.15,262.7,109.95,255.7,112.75,248.7C115.55,238.9,116.25,228.4,115.55,218.6C114.85,214.4,113.45,210.2,111.35,206.7C113.45,210.2,116.25,204.60000000000002,115.55,201.8C116.25,199.7,116.25,194.8,116.25,193.4C116.25,197.60000000000002,116.25,201.8,117.65,205.3C121.15,206.7,123.25,203.2,123.95,201.10000000000002C124.65,200.4,126.05,195.5,125.35,199C123.95,205.3,122.55,210.9,122.55,217.2C123.25,220.7,128.15,217.2,128.15,217.9C126.05,230.5,124.65,244.5,129.55,257.1C131.65,262,135.15,266.2,139.35,269C127.45,269,115.55,269,103.65,269Z" stroke-width="2" opacity="1" fill-opacity="1" style="-webkit-tap-highlight-color: rgba(0, 0, 0, 0); opacity: 1; fill-opacity: 1;"/><path fill="none" stroke="#000000" d="M112.75,248.7C112.75,245.7,112.75,242.7,111.75,239.7C110.75,234.7,107.75,230.7,103.75,227.7C99.75,225.7,94.75,225.7,91.75,228.7C88.75,230.7,87.75,235.7,89.75,238.7C90.75,241.7,93.75,242.7,96.75,241.7C99.75,240.7,101.75,236.7,99.75,234.7C98.75,232.7,96.75,232.7,94.75,233.7C93.75,234.7,93.75,236.7,95.75,237.7C96.75,238.7,97.75,234.7,95.75,235.7" stroke-width="2" style="-webkit-tap-highlight-color: rgba(0, 0, 0, 0);"/><path fill="none" stroke="#000000" d="M111.35,206.7C102.35,194.7,79.35,193.7,67.35,200.7C63.349999999999994,203.7,56.349999999999994,200.7,51.349999999999994,198.7C48.349999999999994,196.7,45.349999999999994,193.7,44.349999999999994,189.7C44.349999999999994,185.7,46.349999999999994,181.7,50.349999999999994,180.7C52.349999999999994,179.7,55.349999999999994,180.7,57.349999999999994,182.7C59.349999999999994,184.7,59.349999999999994,188.7,57.349999999999994,190.7C56.349999999999994,192.7,53.349999999999994,192.7,51.349999999999994,190.7C50.349999999999994,189.7,50.349999999999994,186.7,51.349999999999994,185.7C52.349999999999994,184.7,54.349999999999994,185.7,54.349999999999994,186.7C55.349999999999994,187.7,52.349999999999994,188.7,53.349999999999994,187.7" stroke-width="2" style="-webkit-tap-highlight-color: rgba(0, 0, 0, 0);"/><path fill="none" stroke="#000000" d="M111.35,206.7C100.35,194.7,84.35,192.7,71.35,198.7C66.35,200.7,61.349999999999994,204.7,58.349999999999994,209.7C51.349999999999994,220.7,49.349999999999994,233.7,50.349999999999994,246.7C51.349999999999994,255.7,58.349999999999994,263.7,67.35,263.7C75.35,263.7,83.35,256.7,83.35,248.7C84.35,241.7,78.35,233.7,70.35,233.7C63.349999999999994,233.7,58.349999999999994,239.7,59.349999999999994,246.7C60.349999999999994,251.7,65.35,255.7,70.35,254.7C74.35,253.7,77.35,247.7,74.35,243.7C72.35,239.7,65.35,241.7,66.35,245.7C66.35,248.7,72.35,248.7,70.35,245.7" stroke-width="2" style="-webkit-tap-highlight-color: rgba(0, 0, 0, 0);"/><path fill="none" stroke="#000000" d="M111.35,206.7C108.35,203.7,105.35,199.7,101.35,198.7C93.35,195.7,84.35,198.7,79.35,204.7C75.35,210.7,74.35,219.7,79.35,225.7C82.35,228.7,87.35,230.7,91.35,229.7C95.35,228.7,98.35,223.7,97.35,219.7C97.35,216.7,94.35,213.7,91.35,214.7C89.35,214.7,87.35,217.7,88.35,219.7C88.35,220.7,91.35,221.7,91.35,219.7" stroke-width="2" style="-webkit-tap-highlight-color: rgba(0, 0, 0, 0);"/><path fill="none" stroke="#000000" d="M116.25,193.4C116.25,191.4,115.25,188.4,114.25,186.4C110.25,178.4,104.25,171.4,96.25,169.4C90.25,167.4,83.25,168.4,78.25,171.4C74.25,173.4,70.25,178.4,70.25,183.4C70.25,188.4,75.25,193.4,80.25,192.4C84.25,192.4,88.25,187.4,87.25,183.4C87.25,179.4,82.25,176.4,78.25,178.4C75.25,179.4,74.25,183.4,76.25,186.4C78.25,188.4,81.25,188.4,82.25,185.4C83.25,183.4,81.25,181.4,79.25,181.4C77.25,181.4,77.25,185.4,79.25,184.4" stroke-width="2" style="-webkit-tap-highlight-color: rgba(0, 0, 0, 0);"/><path fill="none" stroke="#000000" d="M116.25,193.4C117.25,181.4,114.25,169.4,106.25,160.4C97.25,151.4,83.25,148.4,71.25,151.4C66.25,152.4,61.25,155.4,56.25,158.4C53.25,162.4,52.25,168.4,56.25,172.4C61.25,177.4,71.25,175.4,74.25,168.4C75.25,165.4,73.25,161.4,69.25,160.4C66.25,160.4,62.25,162.4,63.25,166.4C63.25,170.4,70.25,168.4,68.25,165.4C68.25,164.4,65.25,165.4,67.25,166.4" stroke-width="2" style="-webkit-tap-highlight-color: rgba(0, 0, 0, 0);"/><path fill="none" stroke="#000000" d="M116.25,193.4C118.25,169.4,101.25,148.4,106.25,140.4C107.25,138.4,110.25,137.4,114.25,137.4C118.25,137.4,121.25,142.4,120.25,146.4C119.25,149.4,116.25,151.4,113.25,150.4C111.25,149.4,109.25,147.4,110.25,145.4C110.25,143.4,112.25,142.4,114.25,143.4C115.25,143.4,116.25,145.4,115.25,146.4C115.25,147.4,114.25,147.4,113.25,147.4C113.25,147.4,112.25,146.4,113.25,146.4C113.25,146.4,113.25,146.4,114.25,146.4" stroke-width="2" style="-webkit-tap-highlight-color: rgba(0, 0, 0, 0);"/><path fill="none" stroke="#000000" d="M116.25,193.4C115.25,178.4,117.25,158.4,129.25,149.4C133.25,146.4,140.25,143.4,146.25,144.4C154.25,146.4,161.25,152.4,159.25,161.4C158.25,168.4,151.25,173.4,144.25,172.4C139.25,171.4,135.25,166.4,136.25,161.4C137.25,157.4,141.25,154.4,145.25,155.4C148.25,156.4,150.25,158.4,149.25,161.4C148.25,163.4,147.25,164.4,145.25,164.4C144.25,164.4,143.25,162.4,144.25,161.4C144.25,160.4,145.25,160.4,146.25,160.4" stroke-width="2" style="-webkit-tap-highlight-color: rgba(0, 0, 0, 0);"/><path fill="none" stroke="#000000" d="M125.35,199C130.35,191,138.35,183,148.35,180C165.35,174,185.35,182,192.35,198C196.35,206,195.35,217,190.35,224C187.35,229,180.35,231,174.35,228C168.35,226,163.35,219,165.35,213C166.35,208,173.35,204,178.35,207C182.35,209,185.35,215,181.35,218C178.35,221,173.35,219,173.35,215C172.35,211,179.35,212,177.35,215" stroke-width="2" style="-webkit-tap-highlight-color: rgba(0, 0, 0, 0);"/><path fill="none" stroke="#000000" d="M125.35,199C127.35,194,131.35,191,135.35,188C141.35,184,147.35,180,155.35,178C157.35,178,159.35,179,161.35,179C167.35,180,172.35,184,174.35,189C175.35,193,174.35,199,170.35,201C167.35,203,162.35,201,161.35,198C160.35,195,161.35,191,164.35,190C167.35,189,169.35,192,168.35,194C168.35,196,163.35,196,164.35,194C164.35,193,166.35,193,165.35,194" stroke-width="2" style="-webkit-tap-highlight-color: rgba(0, 0, 0, 0);"/><path fill="none" stroke="#000000" d="M128.15,217.9C150.15,198.9,168.15,214.9,168.15,237.9C166.15,248.9,157.15,257.9,146.15,255.9C138.15,254.9,131.15,245.9,133.15,236.9C134.15,229.9,141.15,223.9,147.15,225.9C152.15,226.9,156.15,231.9,155.15,237.9C154.15,241.9,150.15,244.9,147.15,243.9C145.15,242.9,143.15,240.9,144.15,237.9C145.15,236.9,146.15,234.9,148.15,235.9" stroke-width="2" style="-webkit-tap-highlight-color: rgba(0, 0, 0, 0);"/><path fill="#df22e4" stroke="#000000" d="M68.25,121.4C76.13487,125.66057,78.77989,132.60663,78.77989,132.60663C79.10759999999999,145.48588999999998,70.0629,150.55201,63.06036999999999,140.6631C62.19574999999999,136.1789,63.576249999999995,126.31714999999998,68.24999999999999,121.39999999999998Z" stroke-width="2" transform="matrix(0.9397,-0.342,0.342,0.9397,-46.7811,35.4913)" style="-webkit-tap-highlight-color: rgba(0, 0, 0, 0);"/><path fill="none" stroke="#000000" d="M77.25,150.4C72.58468,145.08049,69.11802,137.72917,69.15589,131.19992000000002" stroke-width="2" transform="matrix(0.9397,-0.342,0.342,0.9397,-46.7811,35.4913)" style="-webkit-tap-highlight-color: rgba(0, 0, 0, 0);"/><path fill="#df22e4" stroke="#000000" d="M88.25,125.4C96.13487,129.66057,98.77989,136.60663,98.77989,136.60663C99.10759999999999,149.48588999999998,90.0629,154.55201,83.06036999999999,144.6631C82.19574999999999,140.1789,83.57624999999999,130.31715,88.24999999999999,125.39999999999998Z" stroke-width="2" transform="matrix(1,0,0,1,0,0)" style="-webkit-tap-highlight-color: rgba(0, 0, 0, 0);"/><path fill="none" stroke="#000000" d="M97.25,154.4C92.58468,149.08049,89.11802,141.72917,89.15589,135.19992000000002" stroke-width="2" transform="matrix(1,0,0,1,0,0)" style="-webkit-tap-highlight-color: rgba(0, 0, 0, 0);"/><path fill="#df22e4" stroke="#000000" d="M140.25,119.4C132.27185,123.48324000000001,129.47223,130.36844,129.47223,130.36844C129.91574,135.00914,129.97997,138.03363,133.67923,142.35724C137.63398999999998,144.45198,141.98659999999998,142.9775,145.00772999999998,138.77428999999998C145.97236999999998,134.31053999999997,144.81266,124.42038999999998,140.24999999999997,119.39999999999998Z" stroke-width="2" transform="matrix(1,0,0,1,0,0)" style="-webkit-tap-highlight-color: rgba(0, 0, 0, 0);"/><path fill="none" stroke="#000000" d="M130.25,148.4C134.71508,144.0855,138.84388,135.45702,138.77128,129.38564" stroke-width="2" transform="matrix(1,0,0,1,0,0)" style="-webkit-tap-highlight-color: rgba(0, 0, 0, 0);"/><path fill="#df22e4" stroke="#000000" d="M157.25,115.4C149.27185,119.48324000000001,146.47223,126.36844,146.47223,126.36844C146.91574,131.00914,146.97997,134.03363000000002,150.67923,138.35724000000002C154.63398999999998,140.45198000000002,158.98659999999998,138.97750000000002,162.00772999999998,134.77429C162.97236999999998,130.31054,161.81266,120.42039000000001,157.24999999999997,115.4Z" stroke-width="2" transform="matrix(0.9848,0.1736,-0.1736,0.9848,27.3119,-23.3759)" style="-webkit-tap-highlight-color: rgba(0, 0, 0, 0);"/><path fill="none" stroke="#000000" d="M147.25,144.4C151.71508,140.0855,155.84388,131.45702,155.77128,125.38564000000001" stroke-width="2" transform="matrix(0.9848,0.1736,-0.1736,0.9848,27.3119,-23.3759)" style="-webkit-tap-highlight-color: rgba(0, 0, 0, 0);"/><path fill="#df22e4" stroke="#000000" d="M167.25,121.4C159.27185,125.48324000000001,156.47223,132.36844,156.47223,132.36844C156.91574,137.00914,156.97997,140.03363,160.67923,144.35724C164.63398999999998,146.45198,168.98659999999998,144.9775,172.00772999999998,140.77428999999998C172.97236999999998,136.31053999999997,171.81266,126.42038999999998,167.24999999999997,121.39999999999998Z" stroke-width="2" transform="matrix(0.5,0.866,-0.866,0.5,208.8752,-60.9825)" style="-webkit-tap-highlight-color: rgba(0, 0, 0, 0);"/><path fill="none" stroke="#000000" d="M157.25,150.4C161.71508,146.0855,165.84388,137.45702,165.77128,131.38564" stroke-width="2" transform="matrix(0.5,0.866,-0.866,0.5,208.8752,-60.9825)" style="-webkit-tap-highlight-color: rgba(0, 0, 0, 0);"/><path fill="#df22e4" stroke="#000000" d="M188.35,155C180.37185,159.08324,177.57223,165.96844,177.57223,165.96844C178.01574,170.60914,178.07997,173.63362999999998,181.77922999999998,177.95723999999998C185.73398999999998,180.05198,190.08659999999998,178.5775,193.10772999999998,174.37428999999997C194.07236999999998,169.91053999999997,192.91266,160.02038999999996,188.34999999999997,154.99999999999997Z" stroke-width="2" transform="matrix(1,0,0,1,0,0)" style="-webkit-tap-highlight-color: rgba(0, 0, 0, 0);"/><path fill="none" stroke="#000000" d="M178.35,184C182.81508,179.6855,186.94388,171.05702,186.87127999999998,164.98564" stroke-width="2" transform="matrix(1,0,0,1,0,0)" style="-webkit-tap-highlight-color: rgba(0, 0, 0, 0);"/><path fill="#df22e4" stroke="#000000" d="M200.35,165C192.37185,169.08324,189.57223,175.96844,189.57223,175.96844C190.01574,180.60914,190.07997,183.63362999999998,193.77922999999998,187.95723999999998C197.73398999999998,190.05198,202.08659999999998,188.5775,205.10772999999998,184.37428999999997C206.07236999999998,179.91053999999997,204.91266,170.02038999999996,200.34999999999997,164.99999999999997Z" stroke-width="2" transform="matrix(0.9063,0.4226,-0.4226,0.9063,99.8223,-62.2691)" style="-webkit-tap-highlight-color: rgba(0, 0, 0, 0);"/><path fill="none" stroke="#000000" d="M190.35,194C194.81508,189.6855,198.94388,181.05702,198.87127999999998,174.98564" stroke-width="2" transform="matrix(0.9063,0.4226,-0.4226,0.9063,99.8223,-62.2691)" style="-webkit-tap-highlight-color: rgba(0, 0, 0, 0);"/><path fill="#df22e4" stroke="#000000" d="M203.35,175C195.37185,179.08324,192.57223,185.96844,192.57223,185.96844C193.01574,190.60914,193.07997,193.63362999999998,196.77922999999998,197.95723999999998C200.73398999999998,200.05198,205.08659999999998,198.5775,208.10772999999998,194.37428999999997C209.07236999999998,189.91053999999997,207.91266,180.02038999999996,203.34999999999997,174.99999999999997Z" stroke-width="2" transform="matrix(0.5,0.866,-0.866,0.5,273.3442,-65.446)" style="-webkit-tap-highlight-color: rgba(0, 0, 0, 0);"/><path fill="none" stroke="#000000" d="M193.35,204C197.81508,199.6855,201.94388,191.05702,201.87127999999998,184.98564" stroke-width="2" transform="matrix(0.5,0.866,-0.866,0.5,273.3442,-65.446)" style="-webkit-tap-highlight-color: rgba(0, 0, 0, 0);"/><path fill="#df22e4" stroke="#000000" d="M92.35,169.7C100.23487,173.96057,102.87988999999999,180.90662999999998,102.87988999999999,180.90662999999998C103.20759999999999,193.78588999999997,94.1629,198.85200999999998,87.16036999999999,188.96309999999997C86.29574999999998,184.47889999999998,87.67624999999998,174.61714999999998,92.34999999999998,169.69999999999996Z" stroke-width="2" transform="matrix(0.9397,0.342,-0.342,0.9397,74.0716,-22.6807)" style="-webkit-tap-highlight-color: rgba(0, 0, 0, 0);"/><path fill="none" stroke="#000000" d="M101.35,198.7C96.68468,193.38048999999998,93.21802,186.02917,93.25589,179.49991999999997" stroke-width="2" transform="matrix(0.9397,0.342,-0.342,0.9397,74.0716,-22.6807)" style="-webkit-tap-highlight-color: rgba(0, 0, 0, 0);"/><path fill="#df22e4" stroke="#000000" d="M44.349999999999994,192.7C52.234869999999994,196.96057,54.879889999999996,203.90662999999998,54.879889999999996,203.90662999999998C55.2076,216.78588999999997,46.16289999999999,221.85200999999998,39.16037,211.96309999999997C38.29575,207.47889999999998,39.67625,197.61714999999998,44.35,192.69999999999996Z" stroke-width="2" transform="matrix(0.766,-0.6428,0.6428,0.766,-130.0245,86.1607)" style="-webkit-tap-highlight-color: rgba(0, 0, 0, 0);"/><path fill="none" stroke="#000000" d="M53.349999999999994,221.7C48.68467999999999,216.38048999999998,45.218019999999996,209.02917,45.255889999999994,202.49991999999997" stroke-width="2" transform="matrix(0.766,-0.6428,0.6428,0.766,-130.0245,86.1607)" style="-webkit-tap-highlight-color: rgba(0, 0, 0, 0);"/><path fill="#df22e4" stroke="#000000" d="M41.349999999999994,202.7C49.234869999999994,206.96057,51.879889999999996,213.90662999999998,51.879889999999996,213.90662999999998C52.2076,226.78588999999997,43.16289999999999,231.85200999999998,36.16037,221.96309999999997C35.29575,217.47889999999998,36.67625,207.61714999999998,41.35,202.69999999999996Z" stroke-width="2" transform="matrix(-0.1736,-0.9848,0.9848,-0.1736,-169.0868,321.5194)" style="-webkit-tap-highlight-color: rgba(0, 0, 0, 0);"/><path fill="none" stroke="#000000" d="M50.349999999999994,231.7C45.68467999999999,226.38048999999998,42.218019999999996,219.02917,42.255889999999994,212.49991999999997" stroke-width="2" transform="matrix(-0.1736,-0.9848,0.9848,-0.1736,-169.0868,321.5194)" style="-webkit-tap-highlight-color: rgba(0, 0, 0, 0);"/><path fill="#df22e4" stroke="#000000" d="M152.15,180.9C144.17185,184.98324,141.37223,191.86844,141.37223,191.86844C141.81574,196.50914,141.87997000000001,199.53363,145.57923,203.85724C149.53399,205.95198,153.8866,204.4775,156.90773,200.27428999999998C157.87237,195.81053999999997,156.71266,185.92038999999997,152.14999999999998,180.89999999999998Z" stroke-width="2" transform="matrix(0.9962,-0.0872,0.0872,0.9962,-17.7531,13.1879)" style="-webkit-tap-highlight-color: rgba(0, 0, 0, 0);"/><path fill="none" stroke="#000000" d="M142.15,209.9C146.61508,205.5855,150.74388000000002,196.95702,150.67128,190.88564" stroke-width="2" transform="matrix(0.9962,-0.0872,0.0872,0.9962,-17.7531,13.1879)" style="-webkit-tap-highlight-color: rgba(0, 0, 0, 0);"/><path fill="#df22e4" stroke="#000000" d="M177.15,197.9C169.17185,201.98324,166.37223,208.86844,166.37223,208.86844C166.81574,213.50914,166.87997000000001,216.53363,170.57923,220.85724C174.53399,222.95198,178.8866,221.4775,181.90773,217.27428999999998C182.87237,212.81053999999997,181.71266,202.92038999999997,177.14999999999998,197.89999999999998Z" stroke-width="2" transform="matrix(0.1736,0.9848,-0.9848,0.1736,361.5776,22.8886)" style="-webkit-tap-highlight-color: rgba(0, 0, 0, 0);"/><path fill="none" stroke="#000000" d="M167.15,226.9C171.61508,222.5855,175.74388000000002,213.95702,175.67128,207.88564" stroke-width="2" transform="matrix(0.1736,0.9848,-0.9848,0.1736,361.5776,22.8886)" style="-webkit-tap-highlight-color: rgba(0, 0, 0, 0);"/><path fill="none" stroke="#000000" d="M41.25,172.4C41.55,165.4,47.25,165.4,52.25,164.4C50.25,168.4,48.25,172.4,53.25,177.4" stroke-width="2" style="-webkit-tap-highlight-color: rgba(0, 0, 0, 0);"/><circle cx="40.25" cy="176.4" r="4.5" fill="#a4fb05" stroke="#000000" stroke-width="2" style="-webkit-tap-highlight-color: rgba(0, 0, 0, 0);"/><circle cx="52.25" cy="181.4" r="4.5" fill="#a4fb05" stroke="#000000" stroke-width="2" style="-webkit-tap-highlight-color: rgba(0, 0, 0, 0);"/><path fill="none" stroke="#000000" d="M73.25,159.4C73.55,152.4,79.25,152.4,84.25,151.4C82.25,155.4,80.25,159.4,85.25,164.4" stroke-width="2" style="-webkit-tap-highlight-color: rgba(0, 0, 0, 0);"/><circle cx="72.25" cy="163.4" r="4.5" fill="#a4fb05" stroke="#000000" stroke-width="2" style="-webkit-tap-highlight-color: rgba(0, 0, 0, 0);"/><circle cx="84.25" cy="168.4" r="4.5" fill="#a4fb05" stroke="#000000" stroke-width="2" style="-webkit-tap-highlight-color: rgba(0, 0, 0, 0);"/><path fill="none" stroke="#000000" d="M129.25,146.4C128.95,139.4,123.25,139.4,118.25,138.4C120.25,142.4,122.25,146.4,117.25,151.4" stroke-width="2" style="-webkit-tap-highlight-color: rgba(0, 0, 0, 0);"/><circle cx="130.25" cy="150.4" r="4.5" fill="#a4fb05" stroke="#000000" stroke-width="2" style="-webkit-tap-highlight-color: rgba(0, 0, 0, 0);"/><circle cx="118.25" cy="155.4" r="4.5" fill="#a4fb05" stroke="#000000" stroke-width="2" style="-webkit-tap-highlight-color: rgba(0, 0, 0, 0);"/><path fill="none" stroke="#000000" d="M130.25,176.4C129.95,169.4,124.25,169.4,119.25,168.4C121.25,172.4,123.25,176.4,118.25,181.4" stroke-width="2" style="-webkit-tap-highlight-color: rgba(0, 0, 0, 0);"/><circle cx="131.25" cy="180.4" r="4.5" fill="#a4fb05" stroke="#000000" stroke-width="2" style="-webkit-tap-highlight-color: rgba(0, 0, 0, 0);"/><circle cx="119.25" cy="185.4" r="4.5" fill="#a4fb05" stroke="#000000" stroke-width="2" style="-webkit-tap-highlight-color: rgba(0, 0, 0, 0);"/><path fill="none" stroke="#000000" d="M171.25,163.4C170.95,156.4,165.25,156.4,160.25,155.4C162.25,159.4,164.25,163.4,159.25,168.4" stroke-width="2" style="-webkit-tap-highlight-color: rgba(0, 0, 0, 0);"/><circle cx="172.25" cy="167.4" r="4.5" fill="#a4fb05" stroke="#000000" stroke-width="2" style="-webkit-tap-highlight-color: rgba(0, 0, 0, 0);"/><circle cx="160.25" cy="172.4" r="4.5" fill="#a4fb05" stroke="#000000" stroke-width="2" style="-webkit-tap-highlight-color: rgba(0, 0, 0, 0);"/><path fill="none" stroke="#000000" d="M192.35,191C192.04999999999998,184,186.35,184,181.35,183C183.35,187,185.35,191,180.35,196" stroke-width="2" style="-webkit-tap-highlight-color: rgba(0, 0, 0, 0);"/><circle cx="193.35" cy="195" r="4.5" fill="#a4fb05" stroke="#000000" stroke-width="2" style="-webkit-tap-highlight-color: rgba(0, 0, 0, 0);"/><circle cx="181.35" cy="200" r="4.5" fill="#a4fb05" stroke="#000000" stroke-width="2" style="-webkit-tap-highlight-color: rgba(0, 0, 0, 0);"/><path fill="none" stroke="#000000" d="M62.349999999999994,205.7C62.64999999999999,198.7,68.35,198.7,73.35,197.7C71.35,201.7,69.35,205.7,74.35,210.7" stroke-width="2" style="-webkit-tap-highlight-color: rgba(0, 0, 0, 0);"/><circle cx="61.349999999999994" cy="209.7" r="4.5" fill="#a4fb05" stroke="#000000" stroke-width="2" style="-webkit-tap-highlight-color: rgba(0, 0, 0, 0);"/><circle cx="73.35" cy="214.7" r="4.5" fill="#a4fb05" stroke="#000000" stroke-width="2" style="-webkit-tap-highlight-color: rgba(0, 0, 0, 0);"/><path fill="none" stroke="#000000" d="M106.35,223.7C106.05,216.7,100.35,216.7,95.35,215.7C97.35,219.7,99.35,223.7,94.35,228.7" stroke-width="2" style="-webkit-tap-highlight-color: rgba(0, 0, 0, 0);"/><circle cx="107.35" cy="227.7" r="4.5" fill="#a4fb05" stroke="#000000" stroke-width="2" style="-webkit-tap-highlight-color: rgba(0, 0, 0, 0);"/><circle cx="95.35" cy="232.7" r="4.5" fill="#a4fb05" stroke="#000000" stroke-width="2" style="-webkit-tap-highlight-color: rgba(0, 0, 0, 0);"/><path fill="none" stroke="#000000" d="M152.15,218.9C151.85,211.9,146.15,211.9,141.15,210.9C143.15,214.9,145.15,218.9,140.15,223.9" stroke-width="2" style="-webkit-tap-highlight-color: rgba(0, 0, 0, 0);"/><circle cx="153.15" cy="222.9" r="4.5" fill="#a4fb05" stroke="#000000" stroke-width="2" style="-webkit-tap-highlight-color: rgba(0, 0, 0, 0);"/><circle cx="141.15" cy="227.9" r="4.5" fill="#a4fb05" stroke="#000000" stroke-width="2" style="-webkit-tap-highlight-color: rgba(0, 0, 0, 0);"/><path fill="none" stroke="#000000" d="M46.349999999999994,251.7C46.64999999999999,244.7,52.349999999999994,244.7,57.349999999999994,243.7C55.349999999999994,247.7,53.349999999999994,251.7,58.349999999999994,256.7" stroke-width="2" style="-webkit-tap-highlight-color: rgba(0, 0, 0, 0);"/><circle cx="45.349999999999994" cy="255.7" r="4.5" fill="#a4fb05" stroke="#000000" stroke-width="2" style="-webkit-tap-highlight-color: rgba(0, 0, 0, 0);"/><circle cx="57.349999999999994" cy="260.7" r="4.5" fill="#a4fb05" stroke="#000000" stroke-width="2" style="-webkit-tap-highlight-color: rgba(0, 0, 0, 0);"/><path fill="none" stroke="#000000" d="M181.15,244.9C180.85,237.9,175.15,237.9,170.15,236.9C172.15,240.9,174.15,244.9,169.15,249.9" stroke-width="2" style="-webkit-tap-highlight-color: rgba(0, 0, 0, 0);"/><circle cx="182.15" cy="248.9" r="4.5" fill="#a4fb05" stroke="#000000" stroke-width="2" style="-webkit-tap-highlight-color: rgba(0, 0, 0, 0);"/><circle cx="170.15" cy="253.9" r="4.5" fill="#a4fb05" stroke="#000000" stroke-width="2" style="-webkit-tap-highlight-color: rgba(0, 0, 0, 0);"/></svg></svg>