<?xml version="1.0" encoding="UTF-8" standalone="no"?>
<!-- Created with Inkscape (http://www.inkscape.org/) -->

<svg
   xmlns:dc="http://purl.org/dc/elements/1.1/"
   xmlns:cc="http://creativecommons.org/ns#"
   xmlns:rdf="http://www.w3.org/1999/02/22-rdf-syntax-ns#"
   xmlns:svg="http://www.w3.org/2000/svg"
   xmlns="http://www.w3.org/2000/svg"
   xmlns:xlink="http://www.w3.org/1999/xlink"
   xmlns:sodipodi="http://sodipodi.sourceforge.net/DTD/sodipodi-0.dtd"
   xmlns:inkscape="http://www.inkscape.org/namespaces/inkscape"
   width="251"
   height="251"
   id="svg2"
   version="1.1"
   inkscape:version="0.48.4 r9939"
   sodipodi:docname="bug.svg">
  <defs
     id="defs4">
    <linearGradient
       gradientUnits="userSpaceOnUse"
       y2="610.34808"
       x2="261.31635"
       y1="610.34808"
       x1="184.64134"
       gradientTransform="matrix(0.69119911,0,0,1.4467611,-43,-11)"
       id="trunk-gradient-6-0">
      <stop
         style="stop-color:#000000;stop-opacity:1"
         id="trunk-dark-stop-1-3"
         offset="0" />
      <stop
         style="stop-color:#49c2ff;stop-opacity:1"
         id="trunk-light-stop-1-60"
         offset="1" />
    </linearGradient>
    <linearGradient
       gradientUnits="userSpaceOnUse"
       y2="610.34808"
       x2="261.31635"
       y1="610.34808"
       x1="184.64134"
       gradientTransform="matrix(0.69119911,0,0,1.4467611,-43,-11)"
       id="trunk-gradient-6-0-4">
      <stop
         style="stop-color:#000000;stop-opacity:1"
         id="trunk-dark-stop-1-3-3"
         offset="0" />
      <stop
         style="stop-color:#49c2ff;stop-opacity:1"
         id="trunk-light-stop-1-60-4"
         offset="1" />
    </linearGradient>
    <linearGradient
       gradientUnits="userSpaceOnUse"
       y2="610.34808"
       x2="261.31635"
       y1="610.34808"
       x1="184.64134"
       gradientTransform="matrix(0.69119911,0,0,1.4467611,-43,-11)"
       id="trunk-gradient-6-0-5">
      <stop
         style="stop-color:#000000;stop-opacity:1"
         id="trunk-dark-stop-1-3-0"
         offset="0" />
      <stop
         style="stop-color:#49c2ff;stop-opacity:1"
         id="trunk-light-stop-1-60-49"
         offset="1" />
    </linearGradient>
    <linearGradient
       inkscape:collect="always"
       xlink:href="#trunk-gradient-6-0-5-5"
       id="linearGradient3936-5-6"
       gradientUnits="userSpaceOnUse"
       gradientTransform="matrix(0.69119911,0,0,1.4467611,-26.418708,-742.65818)"
       x1="184.64134"
       y1="610.34808"
       x2="261.31635"
       y2="610.34808" />
    <linearGradient
       gradientUnits="userSpaceOnUse"
       y2="610.34808"
       x2="261.31635"
       y1="610.34808"
       x1="184.64134"
       gradientTransform="matrix(0.69119911,0,0,1.4467611,-43,-11)"
       id="trunk-gradient-6-0-5-5">
      <stop
         style="stop-color:#000000;stop-opacity:1"
         id="trunk-dark-stop-1-3-0-2"
         offset="0" />
      <stop
         style="stop-color:#49c2ff;stop-opacity:1"
         id="trunk-light-stop-1-60-49-7"
         offset="1" />
    </linearGradient>
    <linearGradient
       inkscape:collect="always"
       xlink:href="#trunk-gradient-6-0-4-1"
       id="linearGradient6358-9"
       x1="61.124382"
       y1="186.85532"
       x2="200.50513"
       y2="186.85532"
       gradientUnits="userSpaceOnUse" />
    <linearGradient
       gradientUnits="userSpaceOnUse"
       y2="610.34808"
       x2="261.31635"
       y1="610.34808"
       x1="184.64134"
       gradientTransform="matrix(0.69119911,0,0,1.4467611,-43,-11)"
       id="trunk-gradient-6-0-4-1">
      <stop
         style="stop-color:#000000;stop-opacity:1"
         id="trunk-dark-stop-1-3-3-2"
         offset="0" />
      <stop
         style="stop-color:#49c2ff;stop-opacity:1"
         id="trunk-light-stop-1-60-4-7"
         offset="1" />
    </linearGradient>
  </defs>
  <sodipodi:namedview
     id="base"
     pagecolor="#ffffff"
     bordercolor="#666666"
     borderopacity="1.0"
     inkscape:pageopacity="0.0"
     inkscape:pageshadow="2"
     inkscape:zoom="2"
     inkscape:cx="194.24104"
     inkscape:cy="126.60222"
     inkscape:document-units="px"
     inkscape:current-layer="layer3"
     showgrid="false"
     fit-margin-bottom="0"
     fit-margin-top="0"
     fit-margin-left="0"
     fit-margin-right="0"
     inkscape:window-width="1440"
     inkscape:window-height="847"
     inkscape:window-x="0"
     inkscape:window-y="540"
     inkscape:window-maximized="1" />
  <metadata
     id="metadata7">
    <rdf:RDF>
      <cc:Work
         rdf:about="">
        <dc:format>image/svg+xml</dc:format>
        <dc:type
           rdf:resource="http://purl.org/dc/dcmitype/StillImage" />
        <dc:title />
      </cc:Work>
    </rdf:RDF>
  </metadata>
  <g
     inkscape:groupmode="layer"
     id="layer2"
     inkscape:label="11"
     style="display:inline">
    <path
       id="target1-11-5-8-9"
       style="fill:#00ff00;stroke:#000000;stroke-width:1.60675204;stroke-linecap:butt;stroke-linejoin:miter;stroke-opacity:1;display:inline"
       d="m 5.919715,163.51459 c 11.961335,-3.66524 10.998423,-18.96404 15.179901,-30.92883 8.983951,-25.7065 34.010716,-45.08578 42.143043,-21.82588 L 52.422914,141.99734 C 64.826665,84.46706 31.942532,110.51215 25.92753,146.10325 22.493687,166.42146 12.388937,179.14831 5.587253,180.07328 z M 71.660253,18.71159 C 76.94653,30.050152 64.93836,39.578219 58.850997,50.695107 45.772234,74.579852 50.132881,106.59369 70.692991,96.97811 L 86.52947,65.334667 C 50.69598,121.07344 52.775239,66.355156 72.12388,45.230502 86.04198,30.034855 87.60394,13.049184 83.73691,7.377798 z"
       inkscape:connector-curvature="0"
       sodipodi:nodetypes="csccscccsccscc" />
    <path
       inkscape:connector-curvature="0"
       id="legs-11-8-1-2-1"
       style="color:#000000;fill:#ffffff;fill-opacity:1;fill-rule:evenodd;stroke:#000000;stroke-width:1.60675204;stroke-linecap:round;stroke-linejoin:round;stroke-miterlimit:4;stroke-opacity:1;stroke-dasharray:none;stroke-dashoffset:0;marker:none;visibility:visible;display:inline;overflow:visible;enable-background:accumulate"
       d="m 140.41679,37.568112 c -3.1517,0.372027 -5.37767,3.460689 -4.97185,6.898717 0.27475,2.327583 1.69033,4.214986 3.55086,5.078263 -1.60839,1.272751 -2.54561,3.437878 -2.27086,5.765462 0.2617,2.21707 1.55997,4.029647 3.28998,4.943624 -1.57529,1.278226 -2.48944,3.419528 -2.21777,5.721018 0.40583,3.43803 3.28977,5.923515 6.44147,5.551486 3.1517,-0.372028 5.37768,-3.460687 4.97185,-6.898717 -0.2617,-2.217067 -1.55996,-4.029645 -3.28998,-4.943625 1.57528,-1.278224 2.48944,-3.419523 2.21777,-5.721018 -0.27475,-2.327585 -1.69033,-4.214984 -3.55085,-5.078263 1.60838,-1.272751 2.5456,-3.43788 2.27086,-5.765461 -0.40583,-3.43803 -3.28977,-5.923515 -6.44148,-5.551486 z m 20.66053,1.315181 c -3.13664,-0.482789 -6.10632,1.899595 -6.63297,5.321197 -0.35655,2.316466 0.50384,4.513256 2.06641,5.841856 -1.88977,0.797225 -3.37094,2.633604 -3.72749,4.950067 -0.33962,2.206478 0.42768,4.299841 1.85094,5.642465 -1.85933,0.811335 -3.31192,2.630907 -3.66447,4.921406 -0.52664,3.421605 1.58918,6.586743 4.72582,7.069529 3.13664,0.482789 6.10633,-1.899595 6.63298,-5.321198 0.33962,-2.206477 -0.42768,-4.299839 -1.85095,-5.642466 1.85934,-0.811334 3.31192,-2.630906 3.66447,-4.921405 0.35655,-2.316464 -0.50384,-4.513255 -2.0664,-5.841856 1.88976,-0.797223 3.37094,-2.633601 3.72748,-4.950065 0.52665,-3.421605 -1.58917,-6.586742 -4.72582,-7.06953 z m 16.82239,6.394579 c -3.08952,-0.725598 -6.23573,1.418274 -7.02724,4.788472 -0.53588,2.281659 0.15083,4.538785 1.60518,5.985043 -1.94612,0.647627 -3.5658,2.363081 -4.10168,4.644739 -0.51041,2.173332 0.0915,4.320092 1.40591,5.769478 -1.91688,0.664069 -3.50675,2.364995 -4.03661,4.62108 -0.79152,3.370195 1.07139,6.690498 4.1609,7.416094 3.08952,0.725599 6.23573,-1.418273 7.02723,-4.788476 0.51043,-2.173323 -0.0915,-4.320083 -1.40588,-5.769471 1.91687,-0.664068 3.50674,-2.364993 4.0366,-4.621079 0.53587,-2.281661 -0.15083,-4.538784 -1.60517,-5.985039 1.9461,-0.647634 3.56578,-2.363088 4.10166,-4.644746 0.79151,-3.370198 -1.07138,-6.690495 -4.1609,-7.416095 z m 18.15152,8.314735 c -2.89957,-1.289995 -6.39089,0.228376 -7.79808,3.391372 -0.95268,2.141385 -0.69975,4.487054 0.45882,6.179547 -2.03285,0.272661 -3.94449,1.655331 -4.89717,3.796715 -0.90745,2.039711 -0.71716,4.261128 0.30331,5.930548 -2.00719,0.29427 -3.88683,1.668237 -4.82884,3.785618 -1.40719,3.162996 -0.19737,6.772862 2.70221,8.062853 2.89957,1.29 6.3909,-0.22837 7.79809,-3.391365 0.90745,-2.039711 0.71714,-4.261136 -0.30333,-5.930552 2.00719,-0.294272 3.88684,-1.668237 4.82884,-3.785617 0.95269,-2.141384 0.69974,-4.487057 -0.45881,-6.179546 2.03283,-0.272665 3.94448,-1.655331 4.89716,-3.796716 1.40719,-3.162997 0.19738,-6.772858 -2.7022,-8.062857 z m 16.98313,9.534104 c -2.67737,-1.703908 -6.3546,-0.717581 -8.2133,2.203024 -1.25837,1.977285 -1.35447,4.334598 -0.45845,6.179582 -2.05083,-0.03043 -4.14564,1.054888 -5.40401,3.032167 -1.19862,1.883404 -1.33833,4.108584 -0.5755,5.910352 -2.02863,-0.0053 -4.09051,1.076175 -5.33478,3.031288 -1.85871,2.920606 -1.19504,6.669516 1.48234,8.373436 2.67737,1.7039 6.35459,0.71758 8.2133,-2.20303 1.1986,-1.88341 1.33832,-4.10858 0.57548,-5.910353 2.02864,0.0053 4.09051,-1.076176 5.33479,-3.031289 1.25835,-1.977288 1.35446,-4.334597 0.45845,-6.179576 2.05082,0.03042 4.14563,-1.054892 5.404,-3.032177 1.8587,-2.920605 1.19506,-6.669511 -1.48232,-8.373424 z m 18.14096,14.83125 c -1.98074,-2.479572 -5.77915,-2.738077 -8.484,-0.577394 -1.8312,1.462815 -2.68602,3.661778 -2.43619,5.697576 -1.9303,-0.693359 -4.26378,-0.345441 -6.09498,1.117367 -1.74426,1.39336 -2.59751,3.45319 -2.45976,5.40491 -1.91747,-0.66236 -4.21853,-0.30745 -6.0292,1.13897 -2.70484,2.16069 -3.29184,5.92237 -1.3111,8.40194 1.98074,2.47957 5.77916,2.73808 8.48399,0.57739 1.74427,-1.39335 2.59752,-3.45318 2.45976,-5.40491 1.91745,0.66236 4.21852,0.30744 6.0292,-1.13897 1.83121,-1.46281 2.68602,-3.66178 2.43619,-5.69757 1.9303,0.69335 4.26378,0.34544 6.09498,-1.11738 2.70484,-2.16068 3.29184,-5.922355 1.31109,-8.401937 z M 71.750609,199.64206 c -1.83388,-2.59008 -1.030117,-6.31147 1.795251,-8.31195 1.91282,-1.35436 4.26252,-1.56662 6.14945,-0.76269 -0.13154,-2.04683 0.84914,-4.19263 2.76194,-5.54699 1.822,-1.29006 4.03757,-1.53935 5.87477,-0.8663 -0.10531,-2.02591 0.87311,-4.13862 2.76448,-5.4778 2.82538,-2.00048 6.60246,-1.52253 8.43635,1.06753 1.83388,2.59008 1.03013,6.31147 -1.79525,8.31196 -1.82199,1.29006 -4.03756,1.53936 -5.87477,0.86631 0.10531,2.0259 -0.87311,4.13862 -2.76448,5.47779 -1.91281,1.35435 -4.26251,1.56662 -6.14944,0.76269 0.13153,2.04682 -0.84914,4.19261 -2.76195,5.54698 -2.82538,2.00049 -6.60245,1.52255 -8.436351,-1.06753 z m 14.603541,13.27059 c -2.45874,-2.00654 -2.67753,-5.80746 -0.48869,-8.48957 1.48187,-1.81581 3.68965,-2.6476 5.72271,-2.37654 -0.67314,-1.93745 -0.30086,-4.26716 1.18101,-6.08298 1.41151,-1.7296 3.48014,-2.56129 5.43034,-2.40309 -0.64229,-1.92427 -0.26334,-4.2215 1.20192,-6.01696 2.18884,-2.68211 5.95645,-3.22975 8.41518,-1.22322 2.45875,2.00656 2.67753,5.80746 0.4887,8.48958 -1.41152,1.7296 -3.48014,2.56128 -5.43035,2.40309 0.64229,1.92427 0.26334,4.2215 -1.20192,6.01696 -1.48186,1.81582 -3.68965,2.64761 -5.7227,2.37655 0.67314,1.93743 0.30085,4.26715 -1.18101,6.08296 -2.18885,2.68212 -5.95645,3.22977 -8.41519,1.22322 z m 17.23124,9.19466 c -2.60753,-1.80898 -3.12167,-5.58129 -1.14837,-8.42572 1.33597,-1.92571 3.47227,-2.9269 5.52025,-2.815 -0.82197,-1.87913 -0.63226,-4.23076 0.7037,-6.15648 1.27252,-1.83426 3.2701,-2.82452 5.2267,-2.81869 -0.79018,-1.86841 -0.59129,-4.18816 0.72969,-6.09229 1.97331,-2.84443 5.68683,-3.68383 8.29435,-1.87485 2.60755,1.80897 3.12168,5.58129 1.14837,8.42571 -1.27252,1.83428 -3.27011,2.82454 -5.2267,2.81869 0.79019,1.86842 0.5913,4.18819 -0.72968,6.09231 -1.33597,1.9257 -3.47226,2.9269 -5.52025,2.815 0.82198,1.87913 0.63226,4.23077 -0.7037,6.15647 -1.97331,2.84443 -5.68681,3.68383 -8.29436,1.87485 z m 17.49519,7.91164 c -2.89956,-1.28999 -4.10939,-4.89986 -2.7022,-8.06285 0.95268,-2.14139 2.86433,-3.52406 4.89718,-3.79673 -1.15857,-1.69248 -1.41151,-4.03815 -0.45883,-6.17954 0.90745,-2.03971 2.68486,-3.38571 4.60811,-3.7455 -1.12533,-1.68791 -1.3633,-4.00398 -0.4213,-6.12136 1.40719,-3.16299 4.89851,-4.68136 7.79809,-3.39137 2.89957,1.29 4.10938,4.89987 2.7022,8.06286 -0.90746,2.03972 -2.68487,3.38571 -4.6081,3.7455 1.12532,1.6879 1.36331,4.00398 0.4213,6.12136 -0.95268,2.14139 -2.86434,3.52405 -4.89717,3.79671 1.15855,1.69249 1.4115,4.03817 0.45882,6.17956 -1.40719,3.16299 -4.89851,4.68137 -7.7981,3.39136 z m 17.66444,5.53818 c -3.05823,-0.84781 -4.78769,-4.23953 -3.86286,-7.57561 0.62613,-2.25856 2.31272,-3.90828 4.28304,-4.47806 -1.39573,-1.50292 -1.99218,-3.78554 -1.36605,-6.04411 0.59639,-2.15131 2.15563,-3.74496 4.0047,-4.38472 -1.36219,-1.50329 -1.93947,-3.75885 -1.32036,-5.99209 0.92484,-3.33609 4.15377,-5.35322 7.21199,-4.5054 3.05825,0.84781 4.78772,4.23952 3.86288,7.57559 -0.59639,2.15134 -2.15563,3.74497 -4.00469,4.38474 1.36218,1.50329 1.93945,3.75885 1.32035,5.9921 -0.62613,2.25855 -2.31271,3.90828 -4.28303,4.47805 1.39572,1.50291 1.99216,3.78555 1.36604,6.04412 -0.92484,3.33607 -4.15375,5.3532 -7.21201,4.50539 z m 23.89646,3.87083 c -3.16795,0.18897 -5.90318,-2.45929 -6.10932,-5.91505 -0.13955,-2.33957 0.92143,-4.44682 2.60083,-5.62432 -1.80745,-0.96953 -3.1114,-2.93571 -3.25095,-5.27531 -0.13293,-2.2285 0.82576,-4.24142 2.36766,-5.44587 -1.77582,-0.98075 -3.05287,-2.92754 -3.19085,-5.2409 -0.20614,-3.45575 2.1949,-6.41037 5.36285,-6.59934 3.16795,-0.18897 5.90319,2.45928 6.10931,5.91504 0.13294,2.2285 -0.82573,4.24142 -2.36766,5.44587 1.77581,0.98076 3.05286,2.92754 3.19085,5.24091 0.13956,2.33958 -0.92143,4.44682 -2.60082,5.62431 1.80743,0.96953 3.11139,2.93572 3.25093,5.2753 0.20614,3.45575 -2.19488,6.41039 -5.36284,6.59935 z"
       sodipodi:nodetypes="sscscssscscsssscscssscscsssscscssscscsssscscssscscsssscscssscscsscscscssscscsccsscscssscscsssscscssscscsssscscssscscsssscscssscscsssscscssscscsscscscssscscscc" />
    <path
       style="color:#000000;fill:#ffffff;fill-opacity:1;fill-rule:evenodd;stroke:#000000;stroke-width:1.60675204;stroke-linecap:round;stroke-linejoin:round;stroke-miterlimit:4;stroke-opacity:1;stroke-dashoffset:0;marker:none;visibility:visible;display:inline;overflow:visible;enable-background:accumulate"
       d="M 108.4686,127.41322 C 101.28469,142.59794 68.144381,208.28958 50.633269,201.3599 30.38409,193.34669 57.804678,123.25905 64.632857,107.91108 71.461042,92.5631 107.11758,21.134242 125.16154,29.886873 140.37336,37.265708 123.21502,96.24352 108.4686,127.41322 z"
       id="head-11-6-8-8"
       inkscape:connector-curvature="0"
       sodipodi:nodetypes="sssss" />
    <path
       style="color:#000000;fill:#ffffff;fill-opacity:1;fill-rule:evenodd;stroke:#000000;stroke-width:1.60675204;stroke-linecap:round;stroke-linejoin:round;stroke-miterlimit:4;stroke-opacity:1;stroke-dashoffset:0;marker:none;visibility:visible;display:inline;overflow:visible;enable-background:accumulate"
       d="m 218.98876,166.91043 c -16.95963,38.12084 -60.29666,55.86021 -96.79598,39.62198 -36.4993,-16.23822 -52.33934,-60.30495 -35.37971,-98.4258 16.95963,-38.120841 60.29667,-55.86021 96.79597,-39.621987 36.49932,16.238227 52.33935,60.304957 35.37972,98.425807 z"
       id="body-11-3-2-9"
       inkscape:connector-curvature="0" />
    <path
       id="eyes-11-7-3-7"
       style="color:#000000;fill:#ffffff;fill-opacity:1;fill-rule:evenodd;stroke:#000000;stroke-width:1.60675204;stroke-linecap:round;stroke-linejoin:round;stroke-miterlimit:4;stroke-opacity:1;stroke-dashoffset:0;marker:none;visibility:visible;display:inline;overflow:visible;enable-background:accumulate"
       d="M 114.80423,61.114715 C 110.86036,70.282772 99.11118,74.514651 91.42337,70.811588 82.29884,66.416482 80.20485,55.777727 83.542,47.646069 c 3.79028,-9.235775 14.55307,-12.781639 22.85058,-9.493151 9.05207,3.587541 12.04363,14.518764 8.41165,22.961797 z M 68.029236,167.8859 c -3.250313,8.59734 -11.970702,12.87108 -19.587974,10.06536 -8.022238,-2.95488 -12.608782,-12.98494 -9.064763,-21.49377 3.985686,-9.56923 12.657037,-14.46782 21.178825,-10.67655 9.255799,4.11783 10.724173,13.50776 7.473912,22.10496 z"
       inkscape:connector-curvature="0"
       sodipodi:nodetypes="ssssssssss" />
    <path
       id="pupils-11-0-8-6"
       style="color:#000000;fill:#000000;fill-opacity:1;fill-rule:evenodd;stroke:#000000;stroke-width:1.60675204;stroke-linecap:round;stroke-linejoin:round;stroke-miterlimit:4;stroke-opacity:1;stroke-dashoffset:0;marker:none;visibility:visible;display:inline;overflow:visible;enable-background:accumulate"
       d="m 53.310288,160.40934 c -1.5623,3.51164 -5.589267,5.13027 -8.994492,3.61531 -3.405225,-1.51495 -4.899217,-5.5898 -3.336917,-9.10145 1.562299,-3.51164 5.589268,-5.13026 8.994492,-3.61531 3.405225,1.51496 4.899216,5.58981 3.336917,9.10145 z M 96.03294,54.674371 c -1.5623,3.51164 -5.58927,5.130269 -8.99449,3.615314 -3.40523,-1.514955 -4.89922,-5.589811 -3.33692,-9.101452 1.5623,-3.511641 5.58927,-5.130267 8.9945,-3.615312 3.40522,1.514955 4.89921,5.589809 3.33691,9.10145 z"
       inkscape:connector-curvature="0"
       sodipodi:nodetypes="ssssssssss" />
    <path
       inkscape:connector-curvature="0"
       d="m 126.51987,118.73747 c -11.90899,-18.51139 -19.1744,-30.8006 -3.4876,-53.42997 15.48894,-17.645344 35.30366,-19.259638 63.5473,-10.417311 34.86562,21.975089 46.34269,44.548021 53.16364,54.427351 -15.25359,14.40821 -47.67004,34.39295 -100.01113,15.29793 z m 8.54301,4.02053 c 51.37736,19.34838 80.56573,3.57281 95.35688,-5.01743 2.01874,3.78106 3.6586,8.60206 4.99142,15.14922 -14.71107,10.28468 -29.8023,10.61939 -47.70434,12.59834 z m -7.57934,-2.71251 c -21.72331,3.54868 -35.71589,6.38039 -42.02117,33.18351 -2.73579,23.31912 9.33209,39.1177 34.81038,54.17579 39.66663,11.18367 64.11755,4.59479 76.02255,3.04647 0.48892,-20.97689 -6.37145,-58.43555 -55.59953,-84.52776 z m 8.70629,3.65353 c 48.77102,25.20677 56.59647,57.44947 60.11932,74.18745 4.16011,-1.03215 8.83895,-3.04202 14.59436,-6.43568 -2.21066,-17.81301 -12.67121,-31.38075 -23.18759,-46.00281 z"
       style="fill:#ffffff;stroke:#000000;stroke-width:1.60675204;stroke-linecap:butt;stroke-linejoin:miter;stroke-opacity:1;display:inline"
       id="target2-11" />
    <path
       style="fill:#e3dbdb;stroke:#000000;stroke-width:1px;stroke-linecap:butt;stroke-linejoin:miter;stroke-opacity:1;display:inline"
       d="M 217.33579,169.87132 249,171.61827 222.70711,157.77512 z"
       id="target3-11"
       inkscape:connector-curvature="0"
       sodipodi:nodetypes="cccc" />
  </g>
  <g
     inkscape:label="10"
     inkscape:groupmode="layer"
     id="layer1"
     transform="translate(0.5,0.5)"
     style="display:none">
    <path
       id="target1-11-5-8-9-8"
       style="fill:#00ff00;stroke:#000000;stroke-width:1.60675204;stroke-linecap:butt;stroke-linejoin:miter;stroke-opacity:1;display:inline"
       d="m 5.419715,163.01459 c 11.961335,-3.66524 10.998423,-18.96404 15.179901,-30.92883 8.983951,-25.7065 34.010716,-45.08578 42.143043,-21.82588 L 51.922914,141.49734 C 64.326665,83.967056 31.442532,110.01215 25.42753,145.60325 21.993687,165.92146 11.888937,178.64831 5.087253,179.57328 z M 71.160253,18.211588 C 76.44653,29.55015 64.43836,39.078218 58.350997,50.195106 45.272234,74.079852 49.632881,106.09369 70.192991,96.47811 L 86.02947,64.834665 C 50.19598,120.57344 52.27524,65.855154 71.62388,44.730501 85.54198,29.534854 87.10394,12.549182 83.23691,6.877797 z"
       inkscape:connector-curvature="0"
       sodipodi:nodetypes="csccscccsccscc" />
    <path
       inkscape:connector-curvature="0"
       id="legs-11-8-1-4"
       style="color:#000000;fill:#ffffff;fill-opacity:1;fill-rule:evenodd;stroke:#000000;stroke-width:1.60675204;stroke-linecap:round;stroke-linejoin:round;stroke-miterlimit:4;stroke-opacity:1;stroke-dasharray:none;stroke-dashoffset:0;marker:none;visibility:visible;display:inline;overflow:visible;enable-background:accumulate"
       d="m 134.22994,56.656791 c -3.1517,0.372027 -3.54188,30.080249 -3.13605,33.518279 0.27475,2.32759 1.69033,4.21498 3.55086,5.07826 -1.60839,1.27276 -2.54561,3.43788 -2.27086,5.76546 0.2617,2.21708 1.55996,4.02965 3.28998,4.94363 -1.57529,1.27823 -2.48944,3.41953 -2.21778,5.72102 0.40583,3.43803 3.28978,5.92351 6.44148,5.55148 3.1517,-0.37202 5.37768,-3.46068 4.97184,-6.89871 -0.2617,-2.21707 -1.55996,-4.02965 -3.28998,-4.94363 1.57529,-1.27822 2.48945,-3.41952 2.21778,-5.72102 -0.27475,-2.32758 -1.69033,-4.21498 -3.55085,-5.07826 1.60838,-1.27275 2.5456,-3.43788 2.27085,-5.76546 -0.40583,-3.43803 -5.12556,-32.543079 -8.27727,-32.171049 z m 30.18199,6.953607 c -3.13665,-0.48279 -12.56245,34.199092 -13.0891,37.620692 -0.35654,2.31647 0.50384,4.51326 2.06641,5.84186 -1.88977,0.79722 -3.37094,2.63361 -3.7275,4.95006 -0.33962,2.20648 0.42769,4.29985 1.85096,5.64248 -1.85934,0.81133 -3.31192,2.6309 -3.66447,4.9214 -0.52665,3.4216 1.58916,6.58674 4.72581,7.06953 3.13664,0.48278 6.10633,-1.8996 6.63298,-5.3212 0.33962,-2.20648 -0.42768,-4.29984 -1.85095,-5.64247 1.85935,-0.81133 3.31192,-2.6309 3.66447,-4.9214 0.35655,-2.31646 -0.50384,-4.51326 -2.06641,-5.84186 1.88977,-0.79722 3.37094,-2.6336 3.72749,-4.95006 0.52665,-3.42161 4.86695,-38.886246 1.73031,-39.369032 z m 23.90288,5.426778 c -3.08952,-0.725599 -20.28351,38.305074 -21.07503,41.675274 -0.53587,2.28166 0.15083,4.53878 1.60518,5.98504 -1.94611,0.64763 -3.5658,2.36308 -4.10167,4.64474 -0.51043,2.17333 0.0915,4.32009 1.4059,5.76947 -1.91687,0.66407 -3.50674,2.365 -4.03661,4.62108 -0.79152,3.37021 1.07139,6.69051 4.1609,7.4161 3.08953,0.7256 6.23573,-1.41827 7.02723,-4.78847 0.51044,-2.17333 -0.0915,-4.32009 -1.40589,-5.76948 1.91689,-0.66406 3.50675,-2.36499 4.03662,-4.62107 0.53585,-2.28167 -0.15084,-4.53879 -1.60519,-5.98505 1.94613,-0.64762 3.5658,-2.36308 4.10166,-4.64474 0.79153,-3.3702 12.97643,-43.577294 9.8869,-44.302894 z m 20.40082,8.816982 c -2.89958,-1.289994 -22.55541,36.561992 -23.9626,39.724992 -0.95268,2.14138 -0.69975,4.48705 0.45882,6.17955 -2.03285,0.27266 -3.94449,1.65533 -4.89717,3.79671 -0.90745,2.03971 -0.71716,4.26113 0.30331,5.93055 -2.00718,0.29428 -3.88683,1.66824 -4.82883,3.78562 -1.40719,3.163 -0.19737,6.77286 2.7022,8.06285 2.89957,1.29 6.3909,-0.22836 7.79809,-3.39136 0.90745,-2.03971 0.71714,-4.26114 -0.30332,-5.93055 2.00718,-0.29428 3.88683,-1.66824 4.82883,-3.78562 0.95269,-2.14139 0.69975,-4.48706 -0.45881,-6.17955 2.03284,-0.27266 3.94448,-1.65533 4.89717,-3.79672 1.40719,-3.16299 16.36189,-43.106473 13.46231,-44.396472 z m 18.81668,14.306662 c -2.67738,-1.70391 -26.43188,28.59951 -28.29058,31.52012 -1.25837,1.97729 -1.35447,4.3346 -0.45845,6.17958 -2.05082,-0.0304 -4.14564,1.05489 -5.404,3.03218 -1.19863,1.88339 -1.33834,4.10857 -0.57551,5.91034 -2.02863,-0.005 -4.09051,1.07618 -5.33477,3.03129 -1.85871,2.92061 -1.19505,6.66952 1.48233,8.37343 2.67737,1.70391 6.35459,0.71758 8.2133,-2.20302 1.19861,-1.8834 1.33833,-4.10858 0.57548,-5.91036 2.02865,0.005 4.09053,-1.07617 5.33478,-3.03129 1.25837,-1.97728 1.35447,-4.33459 0.45846,-6.17957 2.05082,0.0304 4.14564,-1.05489 5.40401,-3.03218 1.8587,-2.9206 21.27232,-35.98661 18.59495,-37.69052 z m 11.33542,14.29813 c -1.98073,-2.47957 -16.76352,18.01789 -19.46836,20.17857 -1.83122,1.46281 -3.37958,4.23251 -3.12979,6.2683 -1.9303,-0.69336 -3.00096,3.73355 -4.83217,5.19636 -1.74425,1.39336 -2.5975,3.45319 -2.45967,5.40494 -1.91747,-0.66236 -4.21853,-0.30744 -6.0292,1.13898 -2.70485,2.16068 -3.29185,5.92236 -1.31111,8.40194 1.98075,2.47956 5.77916,2.73807 8.48401,0.57738 1.74426,-1.39335 2.59751,-3.45318 2.45966,-5.40494 1.91747,0.66236 5.56521,-1.73132 7.37588,-3.17773 1.83121,-1.46281 2.07484,-5.25263 1.82505,-7.2884 1.93029,0.69334 4.87644,-2.01988 6.70763,-3.4827 2.70485,-2.16068 12.35881,-25.33312 10.37806,-27.81271 z M 79.48479,187.4193 c -1.83388,-2.59007 20.52137,-27.93992 23.34674,-29.94041 1.91282,-1.35437 4.26252,-1.56661 6.14945,-0.76269 -0.13154,-2.04682 0.84914,-4.19262 2.76194,-5.54697 1.822,-1.29006 4.03757,-1.53936 5.87477,-0.86632 -0.10531,-2.02591 0.87311,-4.1386 2.76448,-5.47779 2.82538,-2.00049 6.60247,-1.52255 8.43635,1.06754 1.83389,2.59006 1.03012,6.31145 -1.79526,8.31194 -1.82198,1.29006 -4.03755,1.53936 -5.87477,0.86632 0.10532,2.0259 -0.8731,4.13861 -2.76447,5.47778 -1.91282,1.35436 -4.26251,1.56662 -6.14944,0.7627 0.13153,2.04682 -0.84914,4.19261 -2.76195,5.54697 -2.82538,2.0005 -28.15394,23.15101 -29.98784,20.56093 z m 15.77292,17.53051 c -2.45872,-2.00655 21.70268,-34.75324 23.89151,-37.43534 1.48188,-1.81582 3.68965,-2.64761 5.7227,-2.37654 -0.67313,-1.93745 -0.30084,-4.26717 1.18102,-6.08298 1.41151,-1.72961 3.48014,-2.56128 5.43035,-2.40309 -0.64229,-1.92428 -0.26334,-4.2215 1.20192,-6.01697 2.18883,-2.6821 5.95644,-3.22976 8.41519,-1.22321 2.45872,2.00655 2.67751,5.80745 0.48867,8.48957 -1.4115,1.7296 -3.48013,2.56128 -5.43033,2.40308 0.64229,1.92428 0.26335,4.22151 -1.20191,6.01697 -1.48188,1.81582 -3.68966,2.64762 -5.72272,2.37655 0.67314,1.93744 0.30085,4.26716 -1.18101,6.08297 -2.18884,2.68211 -30.33664,32.17554 -32.79539,30.16899 z m 15.95135,12.43121 c -2.60752,-1.80897 19.84654,-37.64227 21.81987,-40.48669 1.33594,-1.9257 3.47225,-2.92691 5.52023,-2.815 -0.82197,-1.87914 -0.63225,-4.23077 0.7037,-6.15647 1.27253,-1.83429 3.27011,-2.82454 5.2267,-2.8187 -0.79019,-1.86841 -0.59129,-4.18817 0.72968,-6.09231 1.97332,-2.84442 5.68684,-3.68382 8.29437,-1.87484 2.60754,1.80897 3.12168,5.58129 1.14835,8.42571 -1.27251,1.83429 -3.27009,2.82454 -5.22669,2.8187 0.7902,1.86843 0.59129,4.18817 -0.72968,6.09231 -1.33596,1.92571 -3.47226,2.9269 -5.52025,2.815 0.822,1.87913 0.63226,4.23075 -0.7037,6.15646 -1.97331,2.84443 -28.65504,35.74481 -31.26258,33.93583 z m 28.25723,8.05851 c -2.89957,-1.28999 8.01442,-34.94612 9.4216,-38.10911 0.95269,-2.14139 2.86434,-3.52405 4.89719,-3.79672 -1.15856,-1.69249 -1.41152,-4.03816 -0.45883,-6.17955 0.90745,-2.03971 2.68487,-3.38571 4.60811,-3.74549 -1.12533,-1.68791 -1.36331,-4.00398 -0.42131,-6.12136 1.40719,-3.163 4.89852,-4.68137 7.79809,-3.39137 2.89957,1.28999 4.10939,4.89985 2.7022,8.06285 -0.90745,2.03971 -2.68486,3.38572 -4.60811,3.7455 1.12534,1.68791 1.36331,4.00398 0.42131,6.12136 -0.95269,2.14139 -2.86432,3.52405 -4.89716,3.79672 1.15856,1.69249 1.41149,4.03816 0.4588,6.17955 -1.40718,3.16299 -17.02231,34.72761 -19.92189,33.43762 z m 24.17681,7.60037 c -3.05823,-0.84781 2.08656,-32.26898 3.0114,-35.60506 0.62613,-2.25857 2.31271,-3.90828 4.28303,-4.47806 -1.39572,-1.50292 -1.99218,-3.78555 -1.36604,-6.04411 0.59639,-2.15131 2.15563,-3.74496 4.00469,-4.38472 -1.36218,-1.50328 -1.93946,-3.75885 -1.32036,-5.9921 0.92484,-3.33609 4.15377,-5.35322 7.21201,-4.50539 3.05824,0.84781 4.78771,4.23952 3.86287,7.57559 -0.5964,2.15133 -2.15563,3.74497 -4.0047,4.38474 1.36218,1.50328 1.93946,3.75885 1.32035,5.99209 -0.62612,2.25856 -2.31271,3.90829 -4.28302,4.47805 1.39572,1.50292 1.99216,3.78556 1.36604,6.04413 -0.92483,3.33607 -11.02802,33.38265 -14.08627,32.53484 z m 23.51056,-1.55073 c -3.16795,0.18896 2.86545,-23.51679 2.65932,-26.97253 -0.13956,-2.33959 0.92143,-4.44683 2.60083,-5.62433 -1.80743,-0.96953 -3.11138,-2.93571 -3.25094,-5.2753 -0.13292,-2.22849 0.82575,-4.24142 2.36775,-5.44584 -1.77583,-0.98075 -3.05288,-2.92753 -3.19087,-5.24089 -0.20612,-3.45577 2.1949,-6.41039 5.36286,-6.59936 3.16795,-0.18896 5.90318,2.45929 6.10932,5.91506 0.13292,2.2285 -0.82576,4.24141 -2.36775,5.44582 1.77581,0.98077 3.05287,2.92756 3.19085,5.24091 0.13956,2.33958 -0.92142,4.44683 -2.60083,5.62433 1.80742,0.96953 3.11138,2.9357 3.25094,5.27528 0.20614,3.45576 -11.00398,26.57058 -14.17193,26.75955 z"
       sodipodi:nodetypes="sscscssscscsssscscssscscsssscscssscscsssscscssscscsssscscssscscsscscscssscscsccsscscssscscsssscscssscscsssscscssscscsssscscssscscsssscscssscscsscscscssscscscc" />
    <path
       style="color:#000000;fill:#ffffff;fill-opacity:1;fill-rule:evenodd;stroke:#000000;stroke-width:1.60675204;stroke-linecap:round;stroke-linejoin:round;stroke-miterlimit:4;stroke-opacity:1;stroke-dashoffset:0;marker:none;visibility:visible;display:inline;overflow:visible;enable-background:accumulate"
       d="M 107.9686,126.91322 C 100.78469,142.09794 67.644381,207.78958 50.133269,200.8599 29.88409,192.84669 57.304678,122.75905 64.132857,107.41108 70.961042,92.0631 106.61758,20.634241 124.66154,29.386871 139.87336,36.765707 122.71502,95.74352 107.9686,126.91322 z"
       id="head-11-6-8-8-5"
       inkscape:connector-curvature="0"
       sodipodi:nodetypes="sssss" />
    <path
       style="color:#000000;fill:#ffffff;fill-opacity:1;fill-rule:evenodd;stroke:#000000;stroke-width:1.60675204;stroke-linecap:round;stroke-linejoin:round;stroke-miterlimit:4;stroke-opacity:1;stroke-dashoffset:0;marker:none;visibility:visible;display:inline;overflow:visible;enable-background:accumulate"
       d="m 218.48876,166.41043 c -16.95963,38.12084 -50.24253,-0.3381 -86.74183,-16.57632 -36.49932,-16.23823 -38.46785,5.6356 -22.71992,-33.00156 14.86303,-36.466075 14.72643,-5.7842 51.22018,10.44529 36.50159,16.23311 75.2012,1.01174 58.24157,39.13259 z"
       id="body-11-3-2-0"
       inkscape:connector-curvature="0"
       sodipodi:nodetypes="sssss" />
    <path
       id="eyes-11-7-3-7-1"
       style="color:#000000;fill:#ffffff;fill-opacity:1;fill-rule:evenodd;stroke:#000000;stroke-width:1.60675204;stroke-linecap:round;stroke-linejoin:round;stroke-miterlimit:4;stroke-opacity:1;stroke-dashoffset:0;marker:none;visibility:visible;display:inline;overflow:visible;enable-background:accumulate"
       d="M 114.30423,60.614714 C 110.36036,69.782771 98.61118,74.01465 90.92337,70.311587 81.79884,65.91648 79.70485,55.277725 83.04201,47.146067 c 3.79027,-9.235775 14.55307,-12.78164 22.85057,-9.49315 9.05207,3.587541 12.04363,14.518763 8.41165,22.961797 z M 67.529236,167.3859 c -3.250313,8.59734 -11.970702,12.87108 -19.587974,10.06536 -8.022238,-2.95488 -12.608782,-12.98494 -9.064763,-21.49377 3.985686,-9.56923 12.657037,-14.46782 21.178825,-10.67655 9.255799,4.11783 10.724173,13.50776 7.473912,22.10496 z"
       inkscape:connector-curvature="0"
       sodipodi:nodetypes="ssssssssss" />
    <path
       id="pupils-11-0-8-6-0"
       style="color:#000000;fill:#000000;fill-opacity:1;fill-rule:evenodd;stroke:#000000;stroke-width:1.60675204;stroke-linecap:round;stroke-linejoin:round;stroke-miterlimit:4;stroke-opacity:1;stroke-dashoffset:0;marker:none;visibility:visible;display:inline;overflow:visible;enable-background:accumulate"
       d="m 52.810288,159.90934 c -1.5623,3.51164 -5.589267,5.13027 -8.994492,3.61531 -3.405225,-1.51495 -4.899217,-5.5898 -3.336917,-9.10145 1.562299,-3.51164 5.589268,-5.13026 8.994492,-3.61531 3.405225,1.51496 4.899216,5.58981 3.336917,9.10145 z M 95.53294,54.174369 c -1.56229,3.51164 -5.58927,5.130269 -8.99449,3.615314 -3.40522,-1.514955 -4.89922,-5.589811 -3.33692,-9.101451 1.5623,-3.511641 5.58927,-5.130268 8.9945,-3.615313 3.40522,1.514955 4.89921,5.58981 3.33691,9.10145 z"
       inkscape:connector-curvature="0"
       sodipodi:nodetypes="ssssssssss" />
    <path
       inkscape:connector-curvature="0"
       d="m 123.96924,126.34061 c -15.78233,-5.57992 -1.04853,-62.495543 15.0916,-89.791112 22.79604,10.742397 30.21436,56.773562 29.70241,80.480362 33.94116,-14.48726 63.65901,-18.09165 70.47996,-8.21232 -15.2536,14.40821 -49.72067,42.4961 -102.06175,23.40107 z m 8.54301,4.02053 c 51.37737,19.34839 82.61636,-4.53033 97.40751,-13.12057 7.07942,-0.38338 7.82729,5.17164 4.99142,15.14922 -12.53202,7.56744 -21.92586,6.34368 -49.75497,20.70148 z m -7.57933,-2.7125 C 95.02572,123.71947 64.088275,175.94 58.473846,203.3744 c 64.893664,10.59019 92.360374,-38.75643 92.350344,-33.65417 14.34138,25.43565 20.64666,60.29654 44.97111,40.23103 0.48892,-20.97689 -8.42207,-50.3324 -57.65016,-76.42462 z m 8.70628,3.65352 c 48.77102,25.20677 58.6471,49.34633 62.16995,66.08431 4.64555,0.68088 10.49408,2.79864 14.59436,-6.43568 -0.48997,-20.27667 -21.25933,-16.92061 -25.23823,-37.89967 z"
       style="fill:#ffffff;stroke:#000000;stroke-width:1.60675204;stroke-linecap:butt;stroke-linejoin:miter;stroke-opacity:1;display:inline"
       id="target2-11-7-6-2-0"
       sodipodi:nodetypes="cccccccccccccccccccccc" />
    <path
       style="fill:#e3dbdb;stroke:#000000;stroke-width:1px;stroke-linecap:butt;stroke-linejoin:miter;stroke-opacity:1;display:inline"
       d="M 216.83579,169.37132 248.5,171.11827 222.20711,157.27512 z"
       id="target3-10"
       inkscape:connector-curvature="0"
       sodipodi:nodetypes="cccc" />
  </g>
  <g
     inkscape:groupmode="layer"
     id="layer3"
     inkscape:label="01"
     style="display:none">
    <path
       inkscape:connector-curvature="0"
       id="legs-11-8-1-5"
       style="color:#000000;fill:#37c871;fill-opacity:1;fill-rule:evenodd;stroke:#000000;stroke-width:1.60675204;stroke-linecap:round;stroke-linejoin:round;stroke-miterlimit:4;stroke-opacity:1;stroke-dasharray:none;stroke-dashoffset:0;marker:none;visibility:visible;display:inline;overflow:visible;enable-background:accumulate"
       d="m 100.80875,52.480733 c -3.15169,0.372027 -5.37767,3.460689 -4.97184,6.898716 0.27475,2.327584 1.69033,4.214985 3.55086,5.078264 -1.60839,1.272751 -2.54561,3.437878 -2.27086,5.765461 0.2617,2.217071 1.55996,4.029648 3.28998,4.943624 -1.57529,1.278227 -2.48944,3.419528 -2.21778,5.721019 0.40583,3.438033 3.28978,5.923513 6.44148,5.551483 3.15169,-0.37202 9.13011,-3.989493 8.72428,-7.427523 -0.2617,-2.217066 -1.55996,-4.029645 -3.28998,-4.943625 1.57529,-1.278224 2.48945,-3.419523 2.21778,-5.721018 -0.27475,-2.327584 -1.69033,-4.214983 -3.55085,-5.078262 1.60837,-1.272752 2.54559,-3.43788 2.27085,-5.765461 -0.40583,-3.43803 -7.04221,-5.394708 -10.19392,-5.022678 z M 133.15008,37.66971 c -3.13664,-0.482789 -10.06249,1.898118 -10.58914,5.319719 -0.35655,2.316466 0.50385,4.513256 2.06641,5.841857 -1.88977,0.797224 -3.37094,2.633603 -3.72749,4.950066 -0.33962,2.206479 0.42768,4.299841 1.85094,5.642465 -1.85933,0.811335 -3.31192,2.630909 -3.66447,4.921406 -0.52664,3.421606 1.58918,6.586743 4.72582,7.069531 3.13665,0.482788 10.0625,-1.898118 10.58915,-5.319722 0.33962,-2.206478 -0.42768,-4.29984 -1.85095,-5.642466 1.85934,-0.811334 3.31192,-2.630908 3.66448,-4.921404 0.35654,-2.316467 -0.50385,-4.513256 -2.06642,-5.841858 1.88977,-0.797223 3.37094,-2.633602 3.72749,-4.950064 0.52665,-3.421607 -1.58917,-6.586742 -4.72582,-7.06953 z m 27.57149,0.515318 c -3.08952,-0.725599 -10.59935,0.356229 -11.39086,3.726427 -0.53587,2.281662 0.15083,4.538786 1.60518,5.985041 -1.94612,0.647632 -3.56581,2.363081 -4.10167,4.644741 -0.51042,2.173331 0.0915,4.320092 1.4059,5.769481 -1.91687,0.664067 -3.50675,2.364992 -4.03661,4.621078 -0.79152,3.370194 9.79864,8.814587 12.88815,9.540184 3.08951,0.725594 6.23573,-1.418274 7.02724,-4.788473 0.51042,-2.173332 -0.0915,-4.320091 -1.4059,-5.769479 1.91687,-0.664068 3.50675,-2.36499 4.03661,-4.621075 0.53586,-2.281667 -0.15083,-4.538784 -1.60518,-5.985044 1.94611,-0.647629 3.56579,-2.363083 4.10167,-4.644742 0.79151,-3.370198 -5.43501,-7.752541 -8.52453,-8.478139 z m 35.32966,15.407579 c -2.89957,-1.289995 -11.20243,-2.791531 -12.60962,0.371466 -0.95268,2.141385 -0.69975,4.487053 0.45883,6.17955 -2.03286,0.272657 -3.9445,1.655327 -4.89718,3.796711 -0.90745,2.039712 -1.61444,4.301582 0.30331,5.930548 -2.00718,0.29428 -3.88682,1.668243 -4.82883,3.785623 -1.40719,3.162997 -0.19737,6.772859 2.70221,8.062858 2.89957,1.289995 11.20243,2.791527 12.60962,-0.371468 0.90745,-2.039711 0.71714,-4.261136 -0.30333,-5.930552 2.00719,-0.294272 3.88684,-1.668237 4.82884,-3.785617 0.95269,-2.141384 0.69974,-4.487057 -0.45881,-6.179546 2.03283,-0.272665 3.94448,-1.655331 4.89716,-3.796716 1.40719,-3.162997 0.19738,-6.772858 -2.7022,-8.062857 z m 29.9497,17.940703 c -2.67737,-1.703907 -10.43211,-3.410929 -12.29082,-0.490324 -1.25836,1.977285 -1.35448,4.334594 -0.45845,6.179578 -2.05083,-0.03042 -4.14565,1.054888 -5.404,3.032175 -1.19862,1.883401 -1.33835,4.108581 -0.57551,5.910351 -2.02863,-0.005 -4.09051,1.07617 -5.33478,3.03129 -1.8587,2.9206 2.88248,9.36287 5.55985,11.06677 2.67737,1.70391 6.35459,0.71758 8.2133,-2.20303 1.19862,-1.8834 1.33834,-4.10857 0.57549,-5.91035 2.02864,0.005 4.09052,-1.07617 5.33478,-3.03129 1.25836,-1.97728 1.35448,-4.33459 0.45846,-6.179568 2.05082,0.03042 4.14564,-1.054893 5.404,-3.032177 1.85871,-2.920606 1.19505,-6.669515 -1.48232,-8.373425 z m 19.56411,26.45558 c -1.98074,-2.47958 -8.10254,-6.40962 -10.80738,-4.24893 -1.83122,1.4628 -2.68603,3.66177 -2.43619,5.69757 -1.9303,-0.69336 -4.26377,-0.34544 -6.09498,1.11737 -1.74425,1.39336 -2.59751,3.45319 -2.45967,5.40495 -1.91746,-0.66236 -4.21853,-0.30745 -6.0292,1.13897 -2.70484,2.16069 -0.96845,9.5939 1.01229,12.07348 1.98074,2.47957 5.77915,2.73808 8.48399,0.57739 1.74426,-1.39336 2.59753,-3.45318 2.45967,-5.40495 1.91746,0.66236 4.21853,0.30745 6.02921,-1.13897 1.83119,-1.46281 2.68602,-3.66177 2.43619,-5.69757 1.9303,0.69336 4.26378,0.34544 6.09497,-1.11738 2.70485,-2.16068 3.29185,-5.92235 1.3111,-8.40193 z M 56.954908,174.5944 c -1.833879,-2.59007 -1.030112,-6.31147 1.795258,-8.31196 1.912813,-1.35435 4.262517,-1.5666 6.149445,-0.76269 -0.131536,-2.04681 0.84914,-4.19262 2.761942,-5.54697 1.821997,-1.29006 4.037571,-1.53936 5.874767,-0.8663 -0.1053,-2.02592 0.87311,-4.13862 2.76449,-5.47781 2.82537,-2.00049 6.60246,-1.52254 8.43634,1.06754 1.83389,2.59006 2.08923,9.86016 -0.73615,11.86066 -1.82199,1.29005 -4.03757,1.53936 -5.87478,0.86631 0.10531,2.0259 -0.87311,4.13863 -2.76447,5.47779 -1.91281,1.35435 -4.262518,1.56662 -6.149446,0.7627 0.131529,2.04682 -0.849144,4.19261 -2.761945,5.54696 -2.825382,2.0005 -7.661548,-2.02615 -9.495451,-4.61623 z m 13.33482,25.01627 c -2.458734,-2.00655 -2.677528,-5.80746 -0.488688,-8.48957 1.481872,-1.81582 3.68965,-2.64761 5.7227,-2.37654 -0.67314,-1.93744 -0.30085,-4.26715 1.18102,-6.08298 1.41151,-1.7296 3.48013,-2.56128 5.43034,-2.40308 -0.64229,-1.92428 -0.26335,-4.2215 1.20191,-6.01697 2.18885,-2.68211 5.95646,-3.22976 8.4152,-1.22322 2.45873,2.00656 4.79718,8.94872 2.60834,11.63083 -1.41151,1.72961 -3.48013,2.56128 -5.43034,2.40308 0.64229,1.92428 0.26334,4.22151 -1.20191,6.01697 -1.48188,1.81582 -3.68966,2.64761 -5.72271,2.37655 0.67314,1.93744 0.30085,4.26716 -1.18101,6.08297 -2.18885,2.68211 -8.07611,0.0885 -10.534852,-1.91804 z M 88.37338,219.7361 c -2.60754,-1.80898 -3.12167,-5.58131 -1.14836,-8.42573 1.33595,-1.9257 3.47225,-2.9269 5.52025,-2.81499 -0.82198,-1.87915 -0.63226,-4.23078 0.70369,-6.15648 1.27253,-1.83427 3.27011,-2.82454 5.22671,-2.81869 -0.7902,-1.86841 -0.5913,-4.18818 0.72967,-6.0923 1.97331,-2.84443 5.68683,-3.68383 8.29437,-1.87486 2.60754,1.80897 7.36247,7.90765 5.38916,10.75206 -1.27253,1.83429 -3.27011,2.82454 -5.22671,2.8187 0.79019,1.86842 0.59131,4.18817 -0.72967,6.0923 -1.33597,1.92571 -3.47225,2.92691 -5.52025,2.815 0.82198,1.87913 0.63226,4.23076 -0.70369,6.15647 -1.97331,2.84444 -9.92763,1.35749 -12.53517,-0.45148 z m 29.19746,16.19541 c -2.89958,-1.29 -4.10938,-4.89987 -2.7022,-8.06286 0.95269,-2.14138 2.86434,-3.52405 4.89718,-3.79671 -1.15856,-1.69251 -1.41151,-4.03817 -0.45882,-6.17955 0.90744,-2.03971 2.68486,-3.38572 4.6081,-3.74551 -1.12533,-1.6879 -1.36331,-4.00398 -0.42131,-6.12136 1.40719,-3.163 4.89853,-4.68137 7.7981,-3.39138 2.89957,1.29 8.10601,5.79865 6.69882,8.96164 -0.90745,2.03972 -2.68487,3.3857 -4.60811,3.74549 1.12533,1.68791 1.36332,4.00398 0.42131,6.12136 -0.95269,2.1414 -2.86433,3.52406 -4.89717,3.79672 1.15856,1.69249 1.4115,4.03816 0.45882,6.17955 -1.40719,3.16299 -8.89514,3.78261 -11.79472,2.49261 z m 35.73309,3.46487 c -3.05824,-0.84782 -7.35675,-5.38248 -6.43191,-8.71856 0.62613,-2.25856 2.3127,-3.90829 4.28302,-4.47806 -1.39572,-1.50291 -1.99215,-3.78554 -1.36603,-6.04411 0.59639,-2.15131 1.42162,-4.07152 4.00469,-4.38472 -1.36217,-1.50329 -1.93947,-3.75886 -1.32036,-5.9921 0.92484,-3.33608 6.72281,-4.21027 9.78105,-3.36245 3.05824,0.84781 4.78771,4.23953 3.86287,7.5756 -0.5964,2.15133 -2.15563,3.74497 -4.00469,4.38473 1.36217,1.50329 1.93945,3.75885 1.32034,5.9921 -0.62612,2.25857 -2.3127,3.90829 -4.28302,4.47806 1.39571,1.50292 1.99216,3.78554 1.36604,6.04411 -0.92483,3.33607 -4.15375,5.35321 -7.212,4.5054 z m 30.9549,-3.10082 c -3.16795,0.18896 -8.92161,-1.60393 -9.12775,-5.05968 -0.13955,-2.33958 0.92143,-4.44684 2.60083,-5.62433 -1.80743,-0.96954 -3.1114,-2.93571 -3.25095,-5.2753 -0.13293,-2.2285 0.82576,-4.24142 2.36766,-5.44587 -1.77581,-0.98075 -3.05287,-2.92754 -3.19085,-5.2409 -0.20614,-3.45575 5.21332,-7.26575 8.38127,-7.45472 3.16795,-0.18896 5.90318,2.4593 6.10932,5.91506 0.13293,2.2285 -0.82575,4.24141 -2.36766,5.44586 1.77579,0.98076 3.05286,2.92755 3.19085,5.2409 0.13956,2.33959 -0.92143,4.44683 -2.60083,5.62434 1.80743,0.96953 3.11139,2.9357 3.25094,5.27527 0.20614,3.45576 -2.19489,6.4104 -5.36285,6.59936 z"
       sodipodi:nodetypes="sscscssscscsssscscssscscsssscscssscscsssscscssscscsssscscssscscsscscscssscscsccsscscssscscsssscscssscscsssscscssscscsssscscssscscsssscscssscscsscscscssscscscc" />
    <path
       id="target1-11-5-8-0"
       style="fill:#ff6600;stroke:#000000;stroke-width:1.60675204;stroke-linecap:butt;stroke-linejoin:miter;stroke-opacity:1;display:inline"
       d="m 5.919715,163.51459 c 11.961335,-3.66524 10.998423,-18.96404 15.179901,-30.92883 8.983951,-25.7065 23.15495,-26.61412 42.4696,-22.5599 l -0.53176,4.1599 C 45.198773,111.78584 31.942532,110.51215 25.92753,146.10325 22.493687,166.42146 12.388937,179.14831 5.587253,180.07328 z M 71.660253,18.71159 C 76.94653,30.050152 64.93836,39.578219 58.850997,50.695107 45.772234,74.579852 50.627139,93.62418 65.836583,104.92941 l 2.163061,-3.87379 C 57.922134,101.86629 52.775239,66.355156 72.12388,45.230502 86.04198,30.034855 87.60394,13.049184 83.73691,7.377798 z"
       inkscape:connector-curvature="0"
       sodipodi:nodetypes="csccscccsccscc" />
    <path
       style="color:#000000;fill:#00aad4;fill-opacity:1;fill-rule:evenodd;stroke:#000000;stroke-width:1.60675204;stroke-linecap:round;stroke-linejoin:round;stroke-miterlimit:4;stroke-opacity:1;stroke-dashoffset:0;marker:none;visibility:visible;display:inline;overflow:visible;enable-background:accumulate"
       d="M 108.4686,127.41322 C 101.64042,142.76119 86.29212,150.83748 74.18722,145.45211 62.08231,140.06675 57.804678,123.25905 64.632857,107.91108 71.461042,92.5631 86.80934,84.4868 98.91425,89.87217 c 12.1049,5.38537 16.38253,22.19307 9.55435,37.54105 z"
       id="head-11-6-8-0"
       inkscape:connector-curvature="0" />
    <path
       style="color:#000000;fill:#ffcc00;fill-opacity:1;fill-rule:evenodd;stroke:#000000;stroke-width:1.60675204;stroke-linecap:round;stroke-linejoin:round;stroke-miterlimit:4;stroke-opacity:1;stroke-dashoffset:0;marker:none;visibility:visible;display:inline;overflow:visible;enable-background:accumulate"
       d="m 218.98876,166.91043 c -16.95963,38.12084 -60.29666,55.86021 -96.79598,39.62198 -36.4993,-16.23822 -52.33934,-60.30495 -35.37971,-98.4258 16.95963,-38.120841 60.29667,-55.86021 96.79597,-39.621987 36.49932,16.238227 52.33935,60.304957 35.37972,98.425807 z"
       id="body-11-3-2-2"
       inkscape:connector-curvature="0" />
    <path
       id="eyes-11-7-3-4"
       style="color:#000000;fill:#ffffff;fill-opacity:1;fill-rule:evenodd;stroke:#000000;stroke-width:1.60675204;stroke-linecap:round;stroke-linejoin:round;stroke-miterlimit:4;stroke-opacity:1;stroke-dashoffset:0;marker:none;visibility:visible;display:inline;overflow:visible;enable-background:accumulate"
       d="m 90.07427,98.91341 c -2.58947,5.82045 -9.5143,8.39198 -15.46704,5.74366 -5.952746,-2.64833 -8.679214,-9.51363 -6.089744,-15.33409 2.589473,-5.820463 9.514304,-8.391987 15.467054,-5.743663 5.95274,2.648323 8.67921,9.513633 6.08973,15.334093 z m -16.03683,34.71514 c -2.589466,5.82045 -9.514303,8.39198 -15.467045,5.74366 -5.952743,-2.64832 -8.67921,-9.51364 -6.089741,-15.33409 2.589473,-5.82046 9.514311,-8.392 15.467054,-5.74367 5.952742,2.64832 8.679212,9.51363 6.089732,15.3341 z"
       inkscape:connector-curvature="0"
       sodipodi:nodetypes="ssssssssss" />
    <path
       id="pupils-11-0-8-5"
       style="color:#000000;fill:#000000;fill-opacity:1;fill-rule:evenodd;stroke:#000000;stroke-width:1.60675204;stroke-linecap:round;stroke-linejoin:round;stroke-miterlimit:4;stroke-opacity:1;stroke-dashoffset:0;marker:none;visibility:visible;display:inline;overflow:visible;enable-background:accumulate"
       d="m 65.394327,129.29471 c -1.562295,3.51164 -5.589268,5.13027 -8.994493,3.61532 -3.405225,-1.51496 -4.899212,-5.58982 -3.336917,-9.10145 1.5623,-3.51165 5.589271,-5.13028 8.994496,-3.61532 3.405225,1.51495 4.899213,5.58981 3.336914,9.10145 z M 80.92753,94.5567 c -1.5623,3.51165 -5.58927,5.13027 -8.994495,3.61532 -3.405225,-1.51496 -4.899214,-5.58981 -3.336915,-9.10145 1.562298,-3.51164 5.58927,-5.130272 8.99449,-3.61532 3.40523,1.51496 4.89922,5.58981 3.33692,9.10145 z"
       inkscape:connector-curvature="0"
       sodipodi:nodetypes="ssssssssss" />
    <path
       inkscape:connector-curvature="0"
       d="m 126.51987,118.73747 c -11.90899,-18.51139 -19.1744,-30.8006 -3.4876,-53.42997 15.48894,-17.645344 35.30366,-19.259638 63.5473,-10.417311 34.86562,21.975089 46.34269,44.548021 53.16364,54.427351 -15.25359,14.40821 -47.67004,34.39295 -100.01113,15.29793 z m 8.54301,4.02053 c 51.37736,19.34838 80.56573,3.57281 95.35688,-5.01743 2.01874,3.78106 3.6586,8.60206 4.99142,15.14922 -14.71107,10.28468 -29.8023,10.61939 -47.70434,12.59834 z m -7.57934,-2.71251 c -21.72331,3.54868 -35.71589,6.38039 -42.02117,33.18351 -2.73579,23.31912 9.33209,39.1177 34.81038,54.17579 39.66663,11.18367 64.11755,4.59479 76.02255,3.04647 0.48892,-20.97689 -6.37145,-58.43555 -55.59953,-84.52776 z m 8.70629,3.65353 c 48.77102,25.20677 56.59647,57.44947 60.11932,74.18745 4.16011,-1.03215 8.83895,-3.04202 14.59436,-6.43568 -2.21066,-17.81301 -12.67121,-31.38075 -23.18759,-46.00281 z"
       style="fill:#c83737;stroke:#000000;stroke-width:1.60675204;stroke-linecap:butt;stroke-linejoin:miter;stroke-opacity:1;display:inline"
       id="target2-11-3" />
    <path
       style="fill:#e3dbdb;stroke:#000000;stroke-width:1px;stroke-linecap:butt;stroke-linejoin:miter;stroke-opacity:1;display:inline"
       d="M 217.33579,169.87132 249,171.61827 222.70711,157.77512 z"
       id="target3-01"
       inkscape:connector-curvature="0"
       sodipodi:nodetypes="cccc" />
  </g>
  <g
     inkscape:groupmode="layer"
     id="layer4"
     inkscape:label="00"
     style="display:none">
    <path
       inkscape:connector-curvature="0"
       id="legs-11-8-1"
       style="color:#000000;fill:#ffffff;fill-opacity:1;fill-rule:evenodd;stroke:#000000;stroke-width:1.60675204;stroke-linecap:round;stroke-linejoin:round;stroke-miterlimit:4;stroke-opacity:1;stroke-dasharray:none;stroke-dashoffset:0;marker:none;visibility:visible;display:inline;overflow:visible;enable-background:accumulate"
       d="m 107.40967,41.485066 c -3.15169,0.372027 -3.54187,30.080251 -3.13604,33.518278 0.27474,2.327584 1.69033,4.214985 3.55085,5.078264 -1.60839,1.272752 -2.54561,3.437878 -2.27086,5.765462 0.26171,2.21707 1.55997,4.02965 3.28998,4.94362 -1.57529,1.27823 -2.48944,3.41953 -2.21777,5.72102 0.40583,3.43803 4.75632,10.5328 7.90803,10.16077 3.15169,-0.37203 6.68389,-6.39674 6.27806,-9.83477 -0.2617,-2.21707 -1.55996,-4.02964 -3.28998,-4.94363 1.57529,-1.27822 2.48945,-3.41952 2.21777,-5.72101 -0.27475,-2.327587 -1.69032,-4.214986 -3.55084,-5.078265 1.60837,-1.272753 2.54559,-3.437882 2.27085,-5.765461 -0.40583,-3.43803 -7.89834,-34.216307 -11.05005,-33.844278 z m 30.18199,6.953604 c -3.13665,-0.482789 -12.56245,34.199097 -13.0891,37.6207 -0.35654,2.31646 0.50385,4.51326 2.06641,5.84186 -1.88977,0.79722 -3.37094,2.6336 -3.72749,4.95006 -0.33962,2.20648 0.42768,4.29984 1.85095,5.64247 -1.85934,0.81133 -3.31192,2.63091 -3.66448,4.9214 -0.52664,3.42161 1.58918,6.58674 4.72582,7.06953 3.13665,0.48279 8.02227,0.71138 8.54892,-2.71022 0.33961,-2.20648 -0.42769,-4.29984 -1.85095,-5.64247 1.85934,-0.81133 3.31192,-2.63091 3.66447,-4.9214 0.35654,-2.31647 -0.50385,-4.51326 -2.06641,-5.84186 1.88977,-0.79723 3.37094,-2.6336 3.72749,-4.95007 0.52665,-3.4216 2.95102,-41.497211 -0.18563,-41.98 z m 23.90289,5.426782 c -3.08952,-0.725599 -18.20431,40.549038 -18.99582,43.919238 -0.53587,2.28166 0.15083,4.53878 1.60518,5.98504 -1.94612,0.64763 -3.5658,2.36308 -4.10168,4.64474 -0.51041,2.17333 0.0915,4.32009 1.40591,5.76948 -1.91687,0.66407 -3.50675,2.36499 -4.03661,4.62107 -0.79153,3.3702 1.07138,6.6905 4.1609,7.4161 3.08952,0.7256 7.94793,0.66241 8.73944,-2.70778 0.51043,-2.17333 -0.0915,-4.3201 -1.4059,-5.76948 1.91688,-0.66407 3.50676,-2.36499 4.03662,-4.62108 0.53585,-2.28167 -0.15083,-4.53878 -1.60519,-5.98504 1.94612,-0.64763 3.56581,-2.36308 4.10167,-4.64474 0.79153,-3.3702 9.185,-47.901951 6.09548,-48.627548 z m 28.67868,12.93938 c -2.89958,-1.289995 -25.61429,36.520068 -27.02148,39.683068 -0.95268,2.14138 -0.69975,4.48705 0.45883,6.17955 -2.03286,0.27265 -3.94449,1.65532 -4.89718,3.79671 -0.90745,2.03971 -0.71716,4.26113 0.30332,5.93054 -2.00718,0.29429 -3.88684,1.66825 -4.82884,3.78562 -1.40719,3.163 2.86151,6.81479 5.76108,8.10479 2.89958,1.28999 6.3909,-0.22837 7.79809,-3.39137 0.90745,-2.03971 0.71714,-4.26114 -0.30332,-5.93055 2.00719,-0.29428 3.88683,-1.66824 4.82884,-3.78562 0.95268,-2.14138 0.69974,-4.48706 -0.45882,-6.17955 2.03284,-0.27266 3.94448,-1.65533 4.89717,-3.79671 1.40719,-3.163 16.36189,-43.106479 13.46231,-44.396478 z m 30.15489,14.514813 c -2.67736,-1.703903 -30.42848,27.700755 -32.28719,30.621365 -1.25836,1.97728 -1.35447,4.33459 -0.45844,6.17958 -2.05084,-0.0304 -4.14565,1.05488 -5.40401,3.03217 -1.19862,1.8834 -1.33834,4.10858 -0.5755,5.91034 -2.02864,-0.005 -4.09051,1.07618 -5.33479,3.03129 -1.8587,2.92061 2.80158,7.56829 5.47896,9.2722 2.67736,1.70391 6.35459,0.71758 8.21329,-2.20303 1.19861,-1.8834 1.33834,-4.10857 0.5755,-5.91034 2.02863,0.005 4.09051,-1.07618 5.33478,-3.0313 1.25836,-1.97728 1.35447,-4.33459 0.45845,-6.17957 2.05083,0.0304 4.14564,-1.05489 5.40401,-3.03218 1.8587,-2.9206 21.27233,-35.986606 18.59494,-37.690525 z m 24.26008,25.763605 c -1.98074,-2.47957 -25.73348,10.51006 -28.43832,12.67075 -1.83121,1.46281 -2.68602,3.66177 -2.43619,5.69757 -1.9303,-0.69336 -4.26378,-0.34544 -6.09498,1.11737 -1.74426,1.39336 -2.59751,3.45318 -2.45976,5.40491 -1.91746,-0.66236 -4.21852,-0.30745 -6.0292,1.13897 -2.70485,2.16068 -0.31534,8.12587 1.6654,10.60545 1.98074,2.47957 5.77915,2.73808 8.484,0.57739 1.74426,-1.39335 2.59751,-3.45318 2.45976,-5.4049 1.91745,0.66235 4.21852,0.30744 6.0292,-1.13897 1.8312,-1.46282 2.68601,-3.66178 2.43618,-5.69758 1.93031,0.69336 4.26379,0.34545 6.09499,-1.11737 2.70483,-2.16069 20.26967,-21.374 18.28892,-23.85359 z M 53.516943,183.17833 c -1.833883,-2.59006 24.558437,-26.14386 27.383807,-28.14435 1.91281,-1.35436 4.26252,-1.56662 6.14944,-0.76268 -0.13153,-2.04682 0.84914,-4.19263 2.76195,-5.54699 1.82199,-1.29005 4.03756,-1.53935 5.87477,-0.8663 -0.10531,-2.02591 0.87311,-4.13862 2.76448,-5.4778 2.82538,-2.00048 8.27421,-0.33914 10.1081,2.25093 1.83388,2.59007 1.03013,6.31146 -1.79525,8.31194 -1.82199,1.29007 -4.03756,1.53937 -5.87477,0.86633 0.10531,2.0259 -0.87311,4.13862 -2.76448,5.47779 -1.91281,1.35434 -4.26251,1.56661 -6.14944,0.76269 0.13153,2.04681 -0.84915,4.19262 -2.76195,5.54697 -2.82538,2.00049 -33.862758,20.17156 -35.696657,17.58147 z m 21.481747,20.50996 c -2.45874,-2.00653 21.70266,-34.75322 23.8915,-37.43534 1.48187,-1.81581 3.68966,-2.64761 5.72271,-2.37654 -0.67314,-1.93744 -0.30086,-4.26715 1.18101,-6.08298 1.41151,-1.7296 3.48014,-2.56127 5.43034,-2.40308 -0.64228,-1.92427 -0.26334,-4.2215 1.20192,-6.01697 2.18885,-2.68211 5.95646,-3.22976 8.41519,-1.22321 2.45873,2.00655 6.63369,5.80892 4.44486,8.49104 -1.41152,1.72961 -3.48014,2.56129 -5.43035,2.40309 0.64229,1.92428 0.26335,4.2215 -1.20192,6.01697 -1.48187,1.81582 -3.68965,2.64761 -5.7227,2.37655 0.67314,1.93744 0.30085,4.26715 -1.18101,6.08297 -2.18885,2.68211 -34.29281,32.17406 -36.75155,30.1675 z m 22.80311,12.84164 c -2.60753,-1.80898 19.84654,-37.64228 21.81986,-40.48671 1.33595,-1.9257 3.47225,-2.92689 5.52024,-2.815 -0.82198,-1.87913 -0.63226,-4.23076 0.7037,-6.15647 1.27253,-1.83427 3.27011,-2.82454 5.22671,-2.8187 -0.7902,-1.8684 -0.5913,-4.18816 0.72967,-6.09229 1.97332,-2.84442 5.68684,-3.68382 8.29437,-1.87486 2.60754,1.80898 6.34383,5.25623 4.37051,8.10065 -1.27252,1.83427 -3.27009,2.82453 -5.2267,2.81868 0.79019,1.86843 0.5913,4.18819 -0.72968,6.09231 -1.33596,1.9257 -3.47225,2.9269 -5.52025,2.815 0.82199,1.87913 0.63227,4.23077 -0.70369,6.15647 -1.97331,2.84443 -31.8772,36.0699 -34.48474,34.26092 z m 35.23034,11.16079 c -2.89957,-1.29 5.77193,-36.82309 7.17912,-39.98608 0.95268,-2.14139 2.86433,-3.52405 4.89718,-3.79672 -1.15856,-1.6925 -1.41151,-4.03816 -0.45883,-6.17954 0.90745,-2.03971 2.68487,-3.38572 4.60812,-3.7455 -1.12534,-1.68791 -1.36331,-4.00398 -0.4213,-6.12136 1.40718,-3.16299 4.8985,-4.68137 7.79809,-3.39137 2.89957,1.28999 6.35187,6.77682 4.94468,9.93982 -0.90745,2.0397 -2.68486,3.38571 -4.6081,3.74549 1.12532,1.68791 1.3633,4.00398 0.4213,6.12136 -0.95269,2.14139 -2.86434,3.52406 -4.89717,3.79672 1.15856,1.69248 1.4115,4.03816 0.45881,6.17955 -1.40718,3.16298 -17.02232,34.72762 -19.9219,33.43763 z m 28.74416,9.19268 c -3.05823,-0.84782 -0.84948,-33.57521 0.0754,-36.91128 0.62613,-2.25856 2.31272,-3.90828 4.28304,-4.47805 -1.39573,-1.50291 -1.99217,-3.78555 -1.36604,-6.04412 0.59639,-2.15132 2.15564,-3.74495 4.00469,-4.38472 -1.36218,-1.50329 -1.93945,-3.75885 -1.32036,-5.99211 0.92484,-3.33607 4.15377,-5.3532 7.21202,-4.50539 3.05823,0.84782 7.72375,5.54576 6.79892,8.88183 -0.5964,2.15132 -2.15564,3.74497 -4.00471,4.38473 1.36218,1.50329 1.93947,3.75885 1.32036,5.99209 -0.62614,2.25858 -2.31272,3.90829 -4.28304,4.47806 1.39572,1.50293 1.99218,3.78555 1.36604,6.04412 -0.92483,3.33607 -11.028,33.38265 -14.08627,32.53484 z m 28.61116,-8.07446 c -3.16795,0.18896 -2.23514,-16.99304 -2.44128,-20.44881 -0.13955,-2.33957 0.92143,-4.44682 2.60083,-5.62432 -1.80744,-0.96953 -3.1114,-2.9357 -3.25095,-5.2753 -0.13293,-2.22849 0.82576,-4.24143 2.36766,-5.44587 -1.77581,-0.98076 -3.05287,-2.92755 -3.19085,-5.2409 -0.20613,-3.45576 2.1949,-6.41038 5.36284,-6.59936 3.16795,-0.18896 9.24817,0.86992 9.45431,4.32568 0.13293,2.22851 -0.82575,4.24142 -2.36766,5.44588 1.77579,0.98075 3.05286,2.92753 3.19085,5.2409 0.13955,2.33957 -0.92143,4.44682 -2.60083,5.62432 1.80744,0.96954 -0.23358,4.52508 -0.094,6.86467 0.20614,3.45575 -5.86293,20.94414 -9.03088,21.13311 z"
       sodipodi:nodetypes="sscscssscscsssscscssscscsssscscssscscsssscscssscscsssscscssscscsscscscssscscsccsscscssscscsssscscssscscsssscscssscscsssscscssscscsssscscssscscsscscscssscscscc" />
    <path
       id="target1-11-5-8"
       style="fill:none;stroke:#000000;stroke-width:1.60675204;stroke-linecap:butt;stroke-linejoin:miter;stroke-opacity:1;display:inline"
       d="m 5.919715,163.51459 c 11.961335,-3.66524 10.998423,-18.96404 15.179901,-30.92883 8.983951,-25.7065 23.15495,-26.61412 42.4696,-22.5599 l -0.53176,4.1599 C 45.198773,111.78584 31.942532,110.51215 25.92753,146.10325 22.493687,166.42146 12.388937,179.14831 5.587253,180.07328 z M 71.660253,18.71159 C 76.94653,30.050152 64.93836,39.578219 58.850997,50.695107 45.772234,74.579852 50.627139,93.62418 65.836583,104.92941 l 2.163061,-3.87379 C 57.922134,101.86629 52.775239,66.355156 72.12388,45.230502 86.04198,30.034855 87.60394,13.049184 83.73691,7.377798 z"
       inkscape:connector-curvature="0"
       sodipodi:nodetypes="csccscccsccscc" />
    <path
       style="color:#000000;fill:#ffffff;fill-opacity:1;fill-rule:evenodd;stroke:#000000;stroke-width:1.60675204;stroke-linecap:round;stroke-linejoin:round;stroke-miterlimit:4;stroke-opacity:1;stroke-dashoffset:0;marker:none;visibility:visible;display:inline;overflow:visible;enable-background:accumulate"
       d="M 108.4686,127.41322 C 101.64042,142.76119 86.29212,150.83748 74.18722,145.45211 62.08231,140.06675 57.804678,123.25905 64.632857,107.91108 71.461042,92.5631 86.80934,84.4868 98.91425,89.87217 c 12.1049,5.38537 16.38253,22.19307 9.55435,37.54105 z"
       id="head-11-6-8"
       inkscape:connector-curvature="0" />
    <path
       style="color:#000000;fill:#ffffff;fill-opacity:1;fill-rule:evenodd;stroke:#000000;stroke-width:1.60675204;stroke-linecap:round;stroke-linejoin:round;stroke-miterlimit:4;stroke-opacity:1;stroke-dashoffset:0;marker:none;visibility:visible;display:inline;overflow:visible;enable-background:accumulate"
       d="m 218.98876,166.91043 c -16.95963,38.12084 -55.21882,0.96517 -91.71813,-15.27306 -36.4993,-16.23822 -42.69944,9.93083 -25.73981,-28.19002 16.95963,-38.12084 14.55907,-9.38209 51.05838,6.85613 36.49931,16.23823 83.35919,-1.5139 66.39956,36.60695 z"
       id="body-11-3-2"
       inkscape:connector-curvature="0"
       sodipodi:nodetypes="sssss" />
    <path
       id="eyes-11-7-3"
       style="color:#000000;fill:#ffffff;fill-opacity:1;fill-rule:evenodd;stroke:#000000;stroke-width:1.60675204;stroke-linecap:round;stroke-linejoin:round;stroke-miterlimit:4;stroke-opacity:1;stroke-dashoffset:0;marker:none;visibility:visible;display:inline;overflow:visible;enable-background:accumulate"
       d="m 90.07427,98.91341 c -2.58947,5.82045 -9.5143,8.39198 -15.46704,5.74366 -5.952746,-2.64833 -8.679214,-9.51363 -6.089744,-15.33409 2.589473,-5.820463 9.514304,-8.391987 15.467054,-5.743663 5.95274,2.648323 8.67921,9.513633 6.08973,15.334093 z m -16.03683,34.71514 c -2.589466,5.82045 -9.514303,8.39198 -15.467045,5.74366 -5.952743,-2.64832 -8.67921,-9.51364 -6.089741,-15.33409 2.589473,-5.82046 9.514311,-8.392 15.467054,-5.74367 5.952742,2.64832 8.679212,9.51363 6.089732,15.3341 z"
       inkscape:connector-curvature="0"
       sodipodi:nodetypes="ssssssssss" />
    <path
       id="pupils-11-0-8"
       style="color:#000000;fill:#000000;fill-opacity:1;fill-rule:evenodd;stroke:#000000;stroke-width:1.60675204;stroke-linecap:round;stroke-linejoin:round;stroke-miterlimit:4;stroke-opacity:1;stroke-dashoffset:0;marker:none;visibility:visible;display:inline;overflow:visible;enable-background:accumulate"
       d="m 65.394327,129.29471 c -1.562295,3.51164 -5.589268,5.13027 -8.994493,3.61532 -3.405225,-1.51496 -4.899212,-5.58982 -3.336917,-9.10145 1.5623,-3.51165 5.589271,-5.13028 8.994496,-3.61532 3.405225,1.51495 4.899213,5.58981 3.336914,9.10145 z M 80.92753,94.5567 c -1.5623,3.51165 -5.58927,5.13027 -8.994495,3.61532 -3.405225,-1.51496 -4.899214,-5.58981 -3.336915,-9.10145 1.562298,-3.51164 5.58927,-5.130272 8.99449,-3.61532 3.40523,1.51496 4.89922,5.58981 3.33692,9.10145 z"
       inkscape:connector-curvature="0"
       sodipodi:nodetypes="ssssssssss" />
    <path
       inkscape:connector-curvature="0"
       d="m 124.46924,126.84061 c -15.78233,-5.57992 -37.30273,-72.909306 -21.1626,-100.204877 54.16552,-1.866484 45.3286,93.343297 49.47884,92.356247 28.51696,-15.14185 80.13678,-19.55377 86.95773,-9.67444 -15.25359,14.40821 -49.72067,42.4961 -102.06175,23.40107 z m 8.54301,4.02053 c 51.37737,19.34839 82.61636,-4.53033 97.40751,-13.12057 7.07942,-0.38338 7.82729,5.17164 4.99142,15.14922 -12.53202,7.56744 -21.92586,6.34368 -49.75497,20.70148 z m -7.57933,-2.7125 c -29.9072,-3.92917 -85.14353,23.85193 -90.757959,51.28633 34.151449,42.57067 98.084089,-21.59754 100.216329,-18.72383 4.46822,33.79295 31.4605,44.88375 61.40401,49.74012 0.48892,-20.97689 -8.42207,-50.3324 -57.65016,-76.42462 z m 8.70628,3.65352 c 48.77102,25.20677 58.6471,49.34633 62.16995,66.08431 4.64555,0.68088 10.49408,2.79864 14.59436,-6.43568 -0.48997,-20.27667 -21.25933,-16.92061 -25.23823,-37.89967 z"
       style="fill:#ffffff;stroke:#000000;stroke-width:1.60675204;stroke-linecap:butt;stroke-linejoin:miter;stroke-opacity:1;display:inline"
       id="target2-11-7-6-2"
       sodipodi:nodetypes="cccccccccccccccccccccc" />
    <path
       style="fill:#e3dbdb;stroke:#000000;stroke-width:1px;stroke-linecap:butt;stroke-linejoin:miter;stroke-opacity:1"
       d="M 217.33579,169.87132 249,171.61827 222.70711,157.77512 z"
       id="target3-00"
       inkscape:connector-curvature="0"
       sodipodi:nodetypes="cccc" />
  </g>
</svg>
