<?xml version="1.0" encoding="UTF-8" standalone="no"?>
<!-- Created with Inkscape (http://www.inkscape.org/) -->

<svg
   xmlns:dc="http://purl.org/dc/elements/1.1/"
   xmlns:cc="http://creativecommons.org/ns#"
   xmlns:rdf="http://www.w3.org/1999/02/22-rdf-syntax-ns#"
   xmlns:svg="http://www.w3.org/2000/svg"
   xmlns="http://www.w3.org/2000/svg"
   xmlns:xlink="http://www.w3.org/1999/xlink"
   xmlns:sodipodi="http://sodipodi.sourceforge.net/DTD/sodipodi-0.dtd"
   xmlns:inkscape="http://www.inkscape.org/namespaces/inkscape"
   width="250"
   height="270"
   id="svg3223"
   version="1.1"
   inkscape:version="0.48.4 r9939"
   sodipodi:docname="flower.svg">
  <defs
     id="defs3225">
    <linearGradient
       id="linearGradient4313">
      <stop
         style="stop-color:#ffa76d;stop-opacity:1;"
         offset="0"
         id="stop4315" />
      <stop
         style="stop-color:#ff6d0b;stop-opacity:1;"
         offset="1"
         id="stop4317" />
    </linearGradient>
    <linearGradient
       id="linearGradient4297">
      <stop
         style="stop-color:#ffa76d;stop-opacity:1;"
         offset="0"
         id="stop4299" />
      <stop
         style="stop-color:#ff6702;stop-opacity:1;"
         offset="1"
         id="stop4301" />
    </linearGradient>
    <linearGradient
       id="linearGradient4297-7">
      <stop
         style="stop-color:#ffa76d;stop-opacity:1;"
         offset="0"
         id="stop4299-5" />
      <stop
         style="stop-color:#ff6702;stop-opacity:1;"
         offset="1"
         id="stop4301-9" />
    </linearGradient>
    <linearGradient
       id="linearGradient4313-0">
      <stop
         style="stop-color:#ffa76d;stop-opacity:1;"
         offset="0"
         id="stop4315-2" />
      <stop
         style="stop-color:#ff6d0b;stop-opacity:1;"
         offset="1"
         id="stop4317-4" />
    </linearGradient>
    <radialGradient
       inkscape:collect="always"
       xlink:href="#linearGradient4297-7"
       id="radialGradient4303-7"
       cx="121.95216"
       cy="134.74532"
       fx="121.95216"
       fy="134.74532"
       r="113.28671"
       gradientTransform="matrix(1,0,0,0.6330017,0,49.451303)"
       gradientUnits="userSpaceOnUse" />
    <linearGradient
       id="linearGradient4348">
      <stop
         style="stop-color:#ffa76d;stop-opacity:1;"
         offset="0"
         id="stop4350" />
      <stop
         style="stop-color:#ff6702;stop-opacity:1;"
         offset="1"
         id="stop4352" />
    </linearGradient>
    <linearGradient
       id="linearGradient4297-4">
      <stop
         style="stop-color:#ffa76d;stop-opacity:1;"
         offset="0"
         id="stop4299-9" />
      <stop
         style="stop-color:#ff6702;stop-opacity:1;"
         offset="1"
         id="stop4301-4" />
    </linearGradient>
    <linearGradient
       id="linearGradient4313-9">
      <stop
         style="stop-color:#ffa76d;stop-opacity:1;"
         offset="0"
         id="stop4315-3" />
      <stop
         style="stop-color:#ff6d0b;stop-opacity:1;"
         offset="1"
         id="stop4317-7" />
    </linearGradient>
    <radialGradient
       inkscape:collect="always"
       xlink:href="#linearGradient4297-4"
       id="radialGradient4303-77"
       cx="121.95216"
       cy="134.74532"
       fx="121.95216"
       fy="134.74532"
       r="113.28671"
       gradientTransform="matrix(1,0,0,0.6330017,0,49.451303)"
       gradientUnits="userSpaceOnUse" />
    <linearGradient
       id="linearGradient4348-3">
      <stop
         style="stop-color:#ffa76d;stop-opacity:1;"
         offset="0"
         id="stop4350-9" />
      <stop
         style="stop-color:#ff6702;stop-opacity:1;"
         offset="1"
         id="stop4352-6" />
    </linearGradient>
    <linearGradient
       id="linearGradient4297-9">
      <stop
         style="stop-color:#ffa76d;stop-opacity:1;"
         offset="0"
         id="stop4299-6" />
      <stop
         style="stop-color:#ff6702;stop-opacity:1;"
         offset="1"
         id="stop4301-0" />
    </linearGradient>
    <linearGradient
       id="linearGradient4313-2">
      <stop
         style="stop-color:#ffa76d;stop-opacity:1;"
         offset="0"
         id="stop4315-1" />
      <stop
         style="stop-color:#ff6d0b;stop-opacity:1;"
         offset="1"
         id="stop4317-2" />
    </linearGradient>
    <radialGradient
       inkscape:collect="always"
       xlink:href="#linearGradient4297-9"
       id="radialGradient4303-8"
       cx="121.95216"
       cy="134.74532"
       fx="121.95216"
       fy="134.74532"
       r="113.28671"
       gradientTransform="matrix(1,0,0,0.6330017,0,49.451303)"
       gradientUnits="userSpaceOnUse" />
    <linearGradient
       id="linearGradient4348-0">
      <stop
         style="stop-color:#ffa76d;stop-opacity:1;"
         offset="0"
         id="stop4350-1" />
      <stop
         style="stop-color:#ff6702;stop-opacity:1;"
         offset="1"
         id="stop4352-67" />
    </linearGradient>
    <linearGradient
       id="linearGradient4297-1">
      <stop
         style="stop-color:#ffa76d;stop-opacity:1;"
         offset="0"
         id="stop4299-0" />
      <stop
         style="stop-color:#ff6702;stop-opacity:1;"
         offset="1"
         id="stop4301-5" />
    </linearGradient>
    <radialGradient
       inkscape:collect="always"
       xlink:href="#linearGradient4297-1"
       id="radialGradient4303-0"
       cx="139.45216"
       cy="99.200386"
       fx="139.45216"
       fy="99.200386"
       r="113.28671"
       gradientTransform="matrix(0.6348647,0.05220104,-0.03607506,0.43874183,54.497567,61.442409)"
       gradientUnits="userSpaceOnUse" />
    <linearGradient
       id="linearGradient4485">
      <stop
         style="stop-color:#ffa76d;stop-opacity:1;"
         offset="0"
         id="stop4487" />
      <stop
         style="stop-color:#ff6702;stop-opacity:1;"
         offset="1"
         id="stop4489" />
    </linearGradient>
    <linearGradient
       id="linearGradient4313-4">
      <stop
         style="stop-color:#ffa76d;stop-opacity:1;"
         offset="0"
         id="stop4315-7" />
      <stop
         style="stop-color:#ff6d0b;stop-opacity:1;"
         offset="1"
         id="stop4317-1" />
    </linearGradient>
    <linearGradient
       id="linearGradient4297-3">
      <stop
         style="stop-color:#ffa76d;stop-opacity:1;"
         offset="0"
         id="stop4299-90" />
      <stop
         style="stop-color:#ff6702;stop-opacity:1;"
         offset="1"
         id="stop4301-49" />
    </linearGradient>
    <radialGradient
       inkscape:collect="always"
       xlink:href="#linearGradient4297-3"
       id="radialGradient4303-4"
       cx="139.45216"
       cy="99.200386"
       fx="139.45216"
       fy="99.200386"
       r="113.28671"
       gradientTransform="matrix(0.6348647,0.05220104,-0.03607506,0.43874183,54.497567,61.442409)"
       gradientUnits="userSpaceOnUse" />
    <linearGradient
       id="linearGradient4485-7">
      <stop
         style="stop-color:#ffa76d;stop-opacity:1;"
         offset="0"
         id="stop4487-2" />
      <stop
         style="stop-color:#ff6702;stop-opacity:1;"
         offset="1"
         id="stop4489-2" />
    </linearGradient>
    <linearGradient
       id="linearGradient4313-5">
      <stop
         style="stop-color:#ffa76d;stop-opacity:1;"
         offset="0"
         id="stop4315-9" />
      <stop
         style="stop-color:#ff6d0b;stop-opacity:1;"
         offset="1"
         id="stop4317-6" />
    </linearGradient>
    <linearGradient
       id="linearGradient4297-39">
      <stop
         style="stop-color:#ffa76d;stop-opacity:1;"
         offset="0"
         id="stop4299-2" />
      <stop
         style="stop-color:#ff6702;stop-opacity:1;"
         offset="1"
         id="stop4301-01" />
    </linearGradient>
    <radialGradient
       inkscape:collect="always"
       xlink:href="#linearGradient4297-39"
       id="radialGradient4303-87"
       cx="139.45216"
       cy="99.200386"
       fx="139.45216"
       fy="99.200386"
       r="113.28671"
       gradientTransform="matrix(0.6348647,0.05220104,-0.03607506,0.43874183,54.497567,61.442409)"
       gradientUnits="userSpaceOnUse" />
    <linearGradient
       id="linearGradient4485-8">
      <stop
         style="stop-color:#ffa76d;stop-opacity:1;"
         offset="0"
         id="stop4487-1" />
      <stop
         style="stop-color:#ff6702;stop-opacity:1;"
         offset="1"
         id="stop4489-4" />
    </linearGradient>
    <linearGradient
       id="linearGradient4313-04">
      <stop
         style="stop-color:#ffa76d;stop-opacity:1;"
         offset="0"
         id="stop4315-0" />
      <stop
         style="stop-color:#ff6d0b;stop-opacity:1;"
         offset="1"
         id="stop4317-20" />
    </linearGradient>
    <linearGradient
       id="linearGradient4297-2">
      <stop
         style="stop-color:#ffa76d;stop-opacity:1;"
         offset="0"
         id="stop4299-8" />
      <stop
         style="stop-color:#ff6702;stop-opacity:1;"
         offset="1"
         id="stop4301-6" />
    </linearGradient>
    <linearGradient
       id="linearGradient4313-6">
      <stop
         style="stop-color:#ffa76d;stop-opacity:1;"
         offset="0"
         id="stop4315-96" />
      <stop
         style="stop-color:#ff6d0b;stop-opacity:1;"
         offset="1"
         id="stop4317-42" />
    </linearGradient>
    <radialGradient
       inkscape:collect="always"
       xlink:href="#linearGradient4297-2"
       id="radialGradient4303-9"
       cx="139.45216"
       cy="99.200386"
       fx="139.45216"
       fy="99.200386"
       r="113.28671"
       gradientTransform="matrix(0.6348647,0.05220104,-0.03607506,0.43874183,54.497567,61.442409)"
       gradientUnits="userSpaceOnUse" />
    <linearGradient
       id="linearGradient4631">
      <stop
         style="stop-color:#ffa76d;stop-opacity:1;"
         offset="0"
         id="stop4633" />
      <stop
         style="stop-color:#ff6702;stop-opacity:1;"
         offset="1"
         id="stop4635" />
    </linearGradient>
    <linearGradient
       id="linearGradient4297-2-1">
      <stop
         style="stop-color:#ffa76d;stop-opacity:1;"
         offset="0"
         id="stop4299-8-3" />
      <stop
         style="stop-color:#ff6702;stop-opacity:1;"
         offset="1"
         id="stop4301-6-0" />
    </linearGradient>
    <linearGradient
       id="linearGradient4313-6-6">
      <stop
         style="stop-color:#ffa76d;stop-opacity:1;"
         offset="0"
         id="stop4315-96-5" />
      <stop
         style="stop-color:#ff6d0b;stop-opacity:1;"
         offset="1"
         id="stop4317-42-3" />
    </linearGradient>
    <radialGradient
       inkscape:collect="always"
       xlink:href="#linearGradient4297-2-1"
       id="radialGradient4778-0"
       gradientUnits="userSpaceOnUse"
       gradientTransform="matrix(0.6348647,0.05220104,-0.03607506,0.43874183,54.614088,71.336651)"
       cx="139.45216"
       cy="99.200386"
       fx="139.45216"
       fy="99.200386"
       r="113.28671" />
    <linearGradient
       id="linearGradient4832">
      <stop
         style="stop-color:#ffa76d;stop-opacity:1;"
         offset="0"
         id="stop4834" />
      <stop
         style="stop-color:#ff6702;stop-opacity:1;"
         offset="1"
         id="stop4836" />
    </linearGradient>
    <linearGradient
       inkscape:collect="always"
       xlink:href="#linearGradient4313-03"
       id="linearGradient4807-0"
       gradientUnits="userSpaceOnUse"
       x1="97"
       y1="32.25"
       x2="168.5"
       y2="102.75"
       gradientTransform="translate(-0.11652132,10.105758)" />
    <linearGradient
       id="linearGradient4313-03">
      <stop
         style="stop-color:#ffa76d;stop-opacity:1;"
         offset="0"
         id="stop4315-12" />
      <stop
         style="stop-color:#ff6d0b;stop-opacity:1;"
         offset="1"
         id="stop4317-8" />
    </linearGradient>
    <linearGradient
       id="linearGradient4297-2-0">
      <stop
         style="stop-color:#ffa76d;stop-opacity:1;"
         offset="0"
         id="stop4299-8-4" />
      <stop
         style="stop-color:#ff6702;stop-opacity:1;"
         offset="1"
         id="stop4301-6-9" />
    </linearGradient>
    <linearGradient
       id="linearGradient4313-6-62">
      <stop
         style="stop-color:#ffa76d;stop-opacity:1;"
         offset="0"
         id="stop4315-96-6" />
      <stop
         style="stop-color:#ff6d0b;stop-opacity:1;"
         offset="1"
         id="stop4317-42-8" />
    </linearGradient>
    <radialGradient
       inkscape:collect="always"
       xlink:href="#linearGradient4297-2-0"
       id="radialGradient4778-4"
       gradientUnits="userSpaceOnUse"
       gradientTransform="matrix(0.6348647,0.05220104,-0.03607506,0.43874183,54.614088,71.336651)"
       cx="139.45216"
       cy="99.200386"
       fx="139.45216"
       fy="99.200386"
       r="113.28671" />
    <linearGradient
       id="linearGradient4952">
      <stop
         style="stop-color:#ffa76d;stop-opacity:1;"
         offset="0"
         id="stop4954" />
      <stop
         style="stop-color:#ff6702;stop-opacity:1;"
         offset="1"
         id="stop4956" />
    </linearGradient>
    <linearGradient
       id="linearGradient4297-2-0-1">
      <stop
         style="stop-color:#ffa76d;stop-opacity:1;"
         offset="0"
         id="stop4299-8-4-0" />
      <stop
         style="stop-color:#ff6702;stop-opacity:1;"
         offset="1"
         id="stop4301-6-9-5" />
    </linearGradient>
    <linearGradient
       inkscape:collect="always"
       xlink:href="#linearGradient4313-6-62-9"
       id="linearGradient4775-3-5"
       gradientUnits="userSpaceOnUse"
       gradientTransform="translate(-15,-28)"
       x1="97"
       y1="32.25"
       x2="168.5"
       y2="102.75" />
    <linearGradient
       id="linearGradient4313-6-62-9">
      <stop
         style="stop-color:#ffa76d;stop-opacity:1;"
         offset="0"
         id="stop4315-96-6-7" />
      <stop
         style="stop-color:#ff6d0b;stop-opacity:1;"
         offset="1"
         id="stop4317-42-8-7" />
    </linearGradient>
    <radialGradient
       inkscape:collect="always"
       xlink:href="#linearGradient4297-2-0-1"
       id="radialGradient5067-2"
       gradientUnits="userSpaceOnUse"
       gradientTransform="matrix(0.6348647,0.05220104,-0.03607506,0.43874183,54.614088,71.336651)"
       cx="139.45216"
       cy="99.200386"
       fx="139.45216"
       fy="99.200386"
       r="113.28671" />
    <linearGradient
       id="linearGradient5225">
      <stop
         style="stop-color:#ffa76d;stop-opacity:1;"
         offset="0"
         id="stop5227" />
      <stop
         style="stop-color:#ff6702;stop-opacity:1;"
         offset="1"
         id="stop5229" />
    </linearGradient>
    <linearGradient
       y2="102.75"
       x2="168.5"
       y1="32.25"
       x1="97"
       gradientTransform="translate(-4.7500001,19.499999)"
       gradientUnits="userSpaceOnUse"
       id="linearGradient4913-4"
       xlink:href="#linearGradient4313-03-1"
       inkscape:collect="always" />
    <linearGradient
       id="linearGradient4313-03-1">
      <stop
         style="stop-color:#ffa76d;stop-opacity:1;"
         offset="0"
         id="stop4315-12-2" />
      <stop
         style="stop-color:#ff6d0b;stop-opacity:1;"
         offset="1"
         id="stop4317-8-0" />
    </linearGradient>
    <linearGradient
       id="linearGradient4313-03-1-2">
      <stop
         style="stop-color:#ffa76d;stop-opacity:1;"
         offset="0"
         id="stop4315-12-2-7" />
      <stop
         style="stop-color:#ff6d0b;stop-opacity:1;"
         offset="1"
         id="stop4317-8-0-6" />
    </linearGradient>
    <linearGradient
       id="linearGradient4297-2-0-1-1">
      <stop
         style="stop-color:#ffa76d;stop-opacity:1;"
         offset="0"
         id="stop4299-8-4-0-9" />
      <stop
         style="stop-color:#ff6702;stop-opacity:1;"
         offset="1"
         id="stop4301-6-9-5-8" />
    </linearGradient>
    <radialGradient
       r="113.28671"
       fy="99.200386"
       fx="139.45216"
       cy="99.200386"
       cx="139.45216"
       gradientTransform="matrix(0.6348647,0.05220104,-0.03607506,0.43874183,54.614088,71.336651)"
       gradientUnits="userSpaceOnUse"
       id="radialGradient5240-0"
       xlink:href="#linearGradient4297-2-0-1-1"
       inkscape:collect="always" />
    <linearGradient
       id="linearGradient3180">
      <stop
         style="stop-color:#ffa76d;stop-opacity:1;"
         offset="0"
         id="stop3182" />
      <stop
         style="stop-color:#ff6702;stop-opacity:1;"
         offset="1"
         id="stop3184" />
    </linearGradient>
    <linearGradient
       id="linearGradient4297-2-4">
      <stop
         style="stop-color:#ffa76d;stop-opacity:1;"
         offset="0"
         id="stop4299-8-8" />
      <stop
         style="stop-color:#ff6702;stop-opacity:1;"
         offset="1"
         id="stop4301-6-8" />
    </linearGradient>
    <linearGradient
       id="linearGradient4313-6-3">
      <stop
         style="stop-color:#ffa76d;stop-opacity:1;"
         offset="0"
         id="stop4315-96-4" />
      <stop
         style="stop-color:#ff6d0b;stop-opacity:1;"
         offset="1"
         id="stop4317-42-1" />
    </linearGradient>
    <radialGradient
       inkscape:collect="always"
       xlink:href="#linearGradient4297-2-4"
       id="radialGradient4778-9"
       gradientUnits="userSpaceOnUse"
       gradientTransform="matrix(0.6348647,0.05220104,-0.03607506,0.43874183,54.614088,71.336651)"
       cx="139.45216"
       cy="99.200386"
       fx="139.45216"
       fy="99.200386"
       r="113.28671" />
    <linearGradient
       id="linearGradient3265">
      <stop
         style="stop-color:#ffa76d;stop-opacity:1;"
         offset="0"
         id="stop3267" />
      <stop
         style="stop-color:#ff6702;stop-opacity:1;"
         offset="1"
         id="stop3269" />
    </linearGradient>
  </defs>
  <sodipodi:namedview
     id="base"
     pagecolor="#ffffff"
     bordercolor="#666666"
     borderopacity="1.0"
     inkscape:pageopacity="0.0"
     inkscape:pageshadow="2"
     inkscape:zoom="5.6568542"
     inkscape:cx="155.16985"
     inkscape:cy="138.23814"
     inkscape:document-units="px"
     inkscape:current-layer="layer7"
     showgrid="false"
     fit-margin-top="0"
     fit-margin-left="0"
     fit-margin-right="0"
     fit-margin-bottom="0"
     inkscape:window-width="1440"
     inkscape:window-height="847"
     inkscape:window-x="0"
     inkscape:window-y="540"
     inkscape:window-maximized="1"
     showguides="true"
     inkscape:guide-bbox="true">
    <sodipodi:guide
       orientation="0,1"
       position="290.5,1.5"
       id="guide3185" />
  </sodipodi:namedview>
  <metadata
     id="metadata3228">
    <rdf:RDF>
      <cc:Work
         rdf:about="">
        <dc:format>image/svg+xml</dc:format>
        <dc:type
           rdf:resource="http://purl.org/dc/dcmitype/StillImage" />
        <dc:title />
      </cc:Work>
    </rdf:RDF>
  </metadata>
  <g
     inkscape:groupmode="layer"
     id="layer8"
     inkscape:label="11"
     style="display:none">
    <path
       style="fill:#ff0000;stroke:#000000;stroke-width:2;stroke-linecap:butt;stroke-linejoin:miter;stroke-opacity:1;display:inline"
       d="m 86.056238,154.36821 c -7.935323,9.67384 -12.257242,18.49599 -16.891805,30.08401 -0.238071,0.59526 -30.320314,-12.09038 -30.546837,-11.48886 -0.171601,0.45568 29.333249,16.14173 29.168417,16.60106 -1.173093,3.26901 -0.101555,-0.0996 -0.907039,3.36496 -0.204563,0.87986 -30.64688,-8.35793 -30.826609,-7.46319 -0.207524,1.03311 30.98341,11.78099 31.062185,12.84575 0.175468,2.37174 0.99119,9.86025 1.961793,11.21691 0.624858,0.8734 -33.70176,1.40756 -33.65181,2.50154 0.05595,1.22528 33.633687,0.71337 33.73378,1.96457 0.456869,5.71104 2.181344,8.99037 3.624819,15.27758 0.285417,1.24316 -29.283805,9.24816 -28.957242,10.51524 0.299005,1.16015 30.115436,-7.16958 30.449618,-5.98901 1.345531,4.75335 2.978832,9.67363 4.921191,14.77231 l 11,0 c -6.360467,-10.79671 -10.245848,-20.97466 -12.12091,-30.65002 -0.1217,-0.62797 25.765071,10.24617 25.660181,9.6224 -0.13256,-0.78832 -26.251796,-13.07331 -26.357966,-13.85503 -0.931753,-6.86045 -1.210683,-3.21627 -2.247607,-9.79366 -0.08009,-0.50802 30.774683,3.23292 30.857343,2.72633 0.0885,-0.5423 -30.329332,-5.32402 -30.341806,-5.87248 -0.161327,-7.09312 0.04329,-3.44377 0.08079,-10.66396 0.0033,-0.631 28.025876,10.85158 28.297316,10.2795 0.27957,-0.58918 -26.934915,-13.17687 -26.64359,-13.76312 4.497662,-9.05088 10.376535,-17.75646 17.009157,-26.2736 -0.53082,0.0169 -7.460712,-5.48137 -8.333372,-5.95923 z"
       id="target1-11"
       inkscape:connector-curvature="0"
       sodipodi:nodetypes="cssssssssssssccssssssssscc" />
    <path
       style="fill:#ff0000;stroke:#000000;stroke-width:2;stroke-linecap:butt;stroke-linejoin:miter;stroke-opacity:1;display:inline"
       d="M 86.501671,154.8517 C 63.86159,181.67307 60.47799,197.80783 80.642135,248.05457 l 11,0 c -21.786141,-37.46083 -21.363638,-67.81551 3.192925,-87.24364 -0.53083,0.0169 -7.460719,-5.48137 -8.333389,-5.95923 z"
       id="stem-11"
       inkscape:connector-curvature="0"
       sodipodi:nodetypes="ccccc" />
    <path
       style="fill:#000080;stroke:#000000;stroke-width:2;stroke-linecap:butt;stroke-linejoin:miter;stroke-opacity:1;display:inline"
       d="m 114.51561,84.191757 c -16.772985,-30.686712 19.0703,-57.27146 28.35182,-80.335106 2.68085,25.840703 27.81757,63.523059 2.48292,88.358504 21.28685,-28.201033 76.71209,-7.338839 102.63384,-8.626697 -23.29259,12.381942 -63.60116,52.116112 -95.66,38.857932 36.47698,9.51818 47.44749,75.8823 58.66244,99.3283 -18.68047,-16.90828 -80.25487,-47.5552 -81.03434,-79.73084 7.05071,35.66404 -23.16575,46.51181 -37.554113,61.64454 C 91.937776,182.40402 79.050352,151.90555 100.8704,132.37465 77.757233,159.10207 54.603923,133.40841 31.468859,131.53944 51.73307,120.56386 64.410667,91.20363 94.983998,105.21012 48.384364,86.309708 39.552441,30.314586 26.290399,6.732896 46.886123,22.798264 103.81754,45.885864 114.51561,84.191757 z"
       id="flowerback-11"
       inkscape:connector-curvature="0"
       sodipodi:nodetypes="ccccccccccccc" />
    <path
       style="fill:#0000ff;stroke:#000000;stroke-width:2;stroke-linecap:butt;stroke-linejoin:miter;stroke-opacity:1;display:inline"
       d="M 103.9447,91.516192 C 74.170841,73.171585 90.714678,29.370383 87.34939,4.738021 c 15.13204,21.117534 57.0554,44.34438 47.35446,78.469669 4.51737,-35.043138 75.26399,-65.522174 97.14212,-79.484388 -14.09755,22.296105 -41.68958,97.920618 -76.1057,102.288578 36.40075,-9.805682 67.72735,42.60089 89.08579,57.40991 -24.60389,-5.43123 -82.18926,-1.74013 -98.80851,-29.30242 23.79501,27.48516 8.56516,73.44384 3.56497,93.71753 -10.94576,-18.25997 -42.89334,-59.93085 -33.617,-87.7071 -6.83389,34.66801 -39.675919,23.82177 -60.69759,33.66116 12.163843,-19.57403 8.628671,-51.35841 42.125213,-54.34034 C 47.550978,126.12219 27.461335,86.803181 4.257513,72.89058 30.107399,76.640685 75.672548,63.543428 103.9447,91.516192 z"
       id="flowerfront-11"
       inkscape:connector-curvature="0"
       sodipodi:nodetypes="ccccccccccccc" />
    <path
       id="target2-01-3"
       style="color:#000000;fill:#ffff00;fill-opacity:1;fill-rule:nonzero;stroke:#000000;stroke-width:2;stroke-linecap:butt;stroke-linejoin:miter;stroke-miterlimit:4;stroke-opacity:1;stroke-dashoffset:0;marker:none;visibility:visible;display:inline;overflow:visible;enable-background:accumulate"
       d="m 41.365743,83.561252 c 0,2.147886 -1.741203,3.889075 -3.889086,3.889075 -2.147883,0 -3.889086,-1.741189 -3.889086,-3.889075 0,-2.147886 1.741203,-3.889102 3.889086,-3.889102 2.147883,0 3.889086,1.741216 3.889086,3.889102 z m 27.223614,4.596189 c 0,2.928921 -2.374375,5.303305 -5.303301,5.303305 -2.928925,0 -5.3033,-2.374384 -5.3033,-5.303305 0,-2.928951 2.374375,-5.303301 5.3033,-5.303301 2.928926,0 5.303301,2.37435 5.303301,5.303301 z M 88.741901,99.91311 c 0,2.78246 -2.25565,5.03811 -5.038142,5.03811 -2.78249,0 -5.03813,-2.25565 -5.03813,-5.03811 0,-2.782494 2.25564,-5.038144 5.03813,-5.038144 2.782492,0 5.038142,2.25565 5.038142,5.038144 z M 75.483645,157.5423 c 0,2.88009 -2.334815,5.21491 -5.214914,5.21491 -2.88013,0 -5.214914,-2.33482 -5.214914,-5.21491 0,-2.88013 2.334784,-5.21492 5.214914,-5.21492 2.880099,0 5.214914,2.33479 5.214914,5.21492 z m 23.864856,-5.83362 c 0,4.1493 -3.36369,7.51299 -7.51302,7.51299 -4.1493,0 -7.512991,-3.36369 -7.512991,-7.51299 0,-4.14933 3.363691,-7.51303 7.512991,-7.51303 4.14933,0 7.51302,3.3637 7.51302,7.51303 z m 5.656859,-12.90471 c 0,2.78248 -2.25566,5.03812 -5.038149,5.03812 -2.78248,0 -5.03812,-2.25564 -5.03812,-5.03812 0,-2.78249 2.25564,-5.03815 5.03812,-5.03815 2.782489,0 5.038149,2.25566 5.038149,5.03815 z m 44.7245,45.60839 c 0,3.75878 -3.04712,6.80589 -6.80591,6.80589 -3.75878,0 -6.80589,-3.04711 -6.80589,-6.80589 0,-3.75879 3.04711,-6.80591 6.80589,-6.80591 3.75879,0 6.80591,3.04712 6.80591,6.80591 z m -8.83884,-15.64475 c 0,3.22182 -2.61179,5.83363 -5.83363,5.83363 -3.22182,0 -5.83363,-2.61181 -5.83363,-5.83363 0,-3.22182 2.61181,-5.83363 5.83363,-5.83363 3.22184,0 5.83363,2.61181 5.83363,5.83363 z m 1.59099,-14.4073 c 0,2.00144 -1.62248,3.62393 -3.62391,3.62393 -2.00144,0 -3.62393,-1.62249 -3.62393,-3.62393 0,-2.00143 1.62249,-3.62391 3.62393,-3.62391 2.00143,0 3.62391,1.62248 3.62391,3.62391 z m 77.78175,-6.01042 c 0,2.97776 -2.41395,5.39171 -5.39168,5.39171 -2.97776,0 -5.3917,-2.41395 -5.3917,-5.39171 0,-2.97773 2.41394,-5.39167 5.3917,-5.39167 2.97773,0 5.39168,2.41394 5.39168,5.39167 z m -36.23922,-5.56845 c 0,3.22182 -2.61179,5.83362 -5.83364,5.83362 -3.22182,0 -5.83362,-2.6118 -5.83362,-5.83362 0,-3.22182 2.6118,-5.83362 5.83362,-5.83362 3.22185,0 5.83364,2.6118 5.83364,5.83362 z m -16.97055,-15.46797 c 0,2.78251 -2.25567,5.03815 -5.03815,5.03815 -2.78249,0 -5.03813,-2.25564 -5.03813,-5.03815 0,-2.78246 2.25564,-5.03813 5.03813,-5.03813 2.78248,0 5.03815,2.25567 5.03815,5.03813 z m 37.8302,-91.039991 c 0,3.270641 -2.73052,5.922018 -6.09877,5.922018 -3.36829,0 -6.09881,-2.651377 -6.09881,-5.922018 0,-3.270642 2.73052,-5.922021 6.09881,-5.922021 3.36825,0 6.09877,2.651379 6.09877,5.922021 z m -16.08667,24.925505 c 0,4.344574 -3.52199,7.866564 -7.86657,7.866564 -4.34457,0 -7.86656,-3.52199 -7.86656,-7.866564 0,-4.344577 3.52199,-7.86657 7.86656,-7.86657 4.34458,0 7.86657,3.521993 7.86657,7.86657 z M 163.872,73.219813 c 0,3.36828 -2.73052,6.0988 -6.09879,6.0988 -3.36828,0 -6.0988,-2.73052 -6.0988,-6.0988 0,-3.368275 2.73052,-6.098798 6.0988,-6.098798 3.36827,0 6.09879,2.730523 6.09879,6.098798 z M 106.77311,59.519614 c 0,2.343144 -1.89948,4.242644 -4.24263,4.242644 -2.34314,0 -4.242648,-1.8995 -4.242648,-4.242644 0,-2.343145 1.899508,-4.242639 4.242648,-4.242639 2.34315,0 4.24263,1.899494 4.24263,4.242639 z m 12.02083,11.136931 c 0,2.831301 -2.29523,5.126529 -5.12652,5.126529 -2.8313,0 -5.12653,-2.295228 -5.12653,-5.126529 0,-2.8313 2.29523,-5.126522 5.12653,-5.126522 2.83129,0 5.12652,2.295222 5.12652,5.126522 z M 106.2428,38.041247 c 0,3.07538 -2.25567,5.568466 -5.03815,5.568466 -2.782478,0 -5.038128,-2.493086 -5.038128,-5.568466 0,-3.075378 2.25565,-5.568466 5.038128,-5.568466 2.78248,0 5.03815,2.493088 5.03815,5.568466 z"
       inkscape:connector-curvature="0"
       sodipodi:nodetypes="ssssssssssssssssssssssssssssssssssssssssssssssssssssssssssssssssssssssssssssssssssssssssss" />
    <path
       style="color:#000000;fill:#00ffff;fill-opacity:1;fill-rule:nonzero;stroke:#000000;stroke-width:2;stroke-linecap:butt;stroke-linejoin:miter;stroke-miterlimit:4;stroke-opacity:1;stroke-dashoffset:0;marker:none;visibility:visible;display:inline;overflow:visible;enable-background:accumulate"
       d="m 140.60719,86.275861 c 14.18195,7.842412 19.32116,25.696689 11.47875,39.878629 -7.84242,14.18196 -25.69669,19.32117 -39.87864,11.47875 -14.181947,-7.84241 -19.321157,-25.69667 -11.47874,-39.878629 7.84241,-14.181952 25.69668,-19.321157 39.87863,-11.47875 z"
       id="center-11"
       inkscape:connector-curvature="0" />
    <path
       id="target3-11"
       style="fill:#ff00ff;stroke:#000000;stroke-width:2;stroke-linecap:butt;stroke-linejoin:miter;stroke-opacity:1"
       d="m 97.5,109.5 3,-9.5 c 0,0 -11.298092,-31.879456 -25,-39 -10.509496,-5.461526 -25.046965,-4.068827 -35.5,1.5 -12.415342,6.614241 -24.573951,19.939155 -25,34 -0.288429,9.51899 7.136434,19.44531 15.5,24 7.172094,3.90583 17.930817,4.85183 24.5,0 5.470442,-4.04033 8.50089,-13.1758 6,-19.5 -1.976534,-4.99822 -8.799801,-9.358979 -14,-8 -3.760995,0.982868 -7.145004,6.285155 -6,10 0.702886,2.28044 4.297275,3.91785 6.5,3 1.80071,-0.75033 3.197363,-3.95991 2,-5.5 -1.028078,-1.32235 -4.23275,1.98892 -5,0.5 -0.81155,-1.574889 1.748658,-3.732249 3.5,-4 3.475455,-0.531339 7.793607,2.197618 9,5.5 1.627613,4.45543 -0.65194,10.72648 -4.5,13.5 -5.543488,3.99552 -14.541648,3.34552 -20.5,0 C 25.021341,112.0816 19.041439,103.49032 19.5,95.5 20.214406,83.051633 31.341054,71.563285 42.5,66 51.599839,61.463281 64.19205,60.419753 73,65.5 c 14.541616,8.387309 24.5,44 24.5,44 z m 52.72832,-14.884912 c 0,0 33.30187,-0.623217 41.07541,-14.058927 5.30211,-9.163961 5.2228,-26.175089 -2.51478,-33.40769 -4.31679,-4.035051 -13.12722,-6.738046 -20.37303,0.01446 -2.60709,2.429571 -0.89923,9.764339 3.06854,9.285295 1.14396,-0.138116 0.21424,-3.026667 1.35387,-3.19665 2.10137,-0.313432 4.98798,2.96328 4.11214,4.908636 -1.58639,3.523524 -8.86421,2.992032 -11.54445,0.207926 -3.47257,-3.607138 -2.89582,-11.613237 0.75132,-15.025719 6.45819,-6.042671 16.92537,-4.299204 23.95525,1.090594 10.17502,7.801157 8.03778,34.792957 7.17487,32.650854 11.41373,-8.30284 -5.14148,-34.223331 2.18947,-47.110731 4.85627,-8.537092 11.40074,-12.956469 21.18887,-13.006607 11.14945,-0.0571 23.66468,8.82225 26.04878,19.782072 1.79212,8.238484 0.54098,12.776719 -7.30421,19.910153 -5.45262,4.957933 -15.93267,3.942412 -21.05402,-1.383174 -6.05887,-6.300469 -6.11333,-16.35317 0.69583,-21.793819 3.99539,-3.192401 10.13723,-2.42008 13.15223,1.733767 2.416,3.328602 2.75371,9.611201 -0.38468,12.247389 -2.54916,2.14125 -8.21089,2.013191 -9.94073,-0.846337 -1.12543,-1.860431 0.54197,-5.083863 2.49216,-6.020923 1.06272,-0.51063 2.88189,-0.07131 3.39687,0.996241 0.44158,0.915422 -1.80655,2.060094 -1.13829,2.824271 0.80191,0.917012 2.92907,0.136818 3.51772,-0.928518 1.22737,-2.221218 -0.0984,-5.92807 -2.23241,-7.297662 -2.14758,-1.378314 -5.93609,-0.916907 -7.5613,1.049414 -3.36752,4.074303 -3.10751,12.251526 0.73153,15.896217 4.24748,4.032445 12.85532,3.335558 17.50203,-0.203075 7.15133,-5.445985 6.72299,-12.059933 3.39862,-20.456636 -2.85776,-7.218108 -12.24524,-13.007194 -19.95815,-12.714117 -9.7764,0.371485 -14.47169,2.586643 -18.96863,11.316398 -7.33514,14.239447 6.91949,33.659196 -1.71096,47.142164 C 192.10137,92.66624 153.8669,101.01757 153.8669,101.01757 z M 126.625,141.5 c -0.63676,0.0439 15.12574,-0.21583 24.125,16.75 5.35729,10.09982 -8.85963,29.00777 -21.25,33.25 -6.49369,2.22331 -17.14108,-0.97025 -20.5,-12 -1.20855,-3.96853 4.78503,-10.31432 8.5,-7.5 1.07107,0.8114 -1.54815,3.1592 -0.5,4 1.93269,1.55035 6.748,-0.0352 7,-2.5 0.45642,-4.46437 -7.17949,-8.21329 -11.5,-7 -5.59772,1.57196 -9.68273,9.93457 -8,15.5 2.97971,9.85502 14.53247,14.26568 24.75,13 14.7888,-1.83193 28.36696,-30.13906 26.25,-28.5 6.65106,15.0354 -25.11947,31.2721 -25.25,48.5 -0.0865,11.41238 3.92605,19.69138 13.75,25.5 11.19027,6.61648 28.96317,5.0808 37.75,-4.5 6.60505,-7.20187 7.99028,-12.4859 4.25,-24.25 -2.5996,-8.17638 -13.74109,-13.32411 -22,-11 -9.77076,2.74956 -15.68384,12.79182 -12,22.25 2.16156,5.54976 8.79429,8.38904 14.25,6 4.37182,-1.91441 8.37299,-8.01183 6.75,-12.5 -1.31828,-3.64553 -7.09227,-6.84801 -10.5,-5 -2.21709,1.20233 -2.41708,5.41362 -1,7.5 0.7722,1.13692 2.85948,1.76688 4,1 0.97799,-0.6576 -0.61803,-3.12732 0.5,-3.5 1.34164,-0.44721 3.02827,1.58607 3,3 -0.0589,2.94805 -3.55369,5.8829 -6.5,6 -2.96507,0.11785 -6.50987,-2.57334 -7,-5.5 -1.01557,-6.06417 4.01148,-14.106 10,-15.5 6.62564,-1.5423 14.88456,4.22009 17.5,10.5 4.02518,9.66483 -0.26031,16.041 -8.5,22.5 -7.08314,5.55239 -19.90663,5.83123 -27.5,1 -9.62488,-6.12376 -13.06048,-11.10593 -12.5,-22.5 0.91422,-18.58532 26.58054,-29.66075 25.75,-48.25 -0.88985,-19.91684 -23.13299,-28.16421 -23.13299,-28.16421 z"
       inkscape:connector-curvature="0"
       sodipodi:nodetypes="ccssssssssssssssssssccssssssssscsssssssssscscsssssssscccssssssssscsssssssssssscsssssssscc" />
  </g>
  <g
     inkscape:groupmode="layer"
     id="layer5"
     inkscape:label="10"
     style="display:none">
    <path
       style="fill:#ff0000;stroke:#000000;stroke-width:1px;stroke-linecap:butt;stroke-linejoin:miter;stroke-opacity:1;display:inline"
       d="m 99.35953,133.29713 c -7.935314,9.67384 -14.732107,20.08698 -19.36667,31.675 -0.238071,0.59526 -27.84544,-13.68137 -28.071963,-13.07985 -0.171601,0.45568 27.035152,15.78818 26.87032,16.24751 -1.173093,3.26901 -3.298254,12.00615 -4.103738,15.47067 -0.204563,0.87986 -30.64688,-8.35793 -30.826609,-7.46319 -0.207524,1.03311 30.351734,10.20127 30.178301,11.25476 -0.885192,5.37694 -0.06947,6.14793 0.01725,12.10079 0.01564,1.07379 -33.70176,1.40756 -33.65181,2.50154 0.05595,1.22528 33.633687,0.71337 33.73378,1.96457 0.456869,5.71104 2.004567,16.94532 3.448042,23.23253 0.285417,1.24316 -29.283805,9.24816 -28.957242,10.51524 0.299005,1.16015 30.115436,-7.16958 30.449618,-5.98901 C 80.42434,236.48104 82.057641,241.40132 84,246.5 l 11,0 c -6.360467,-10.79671 -10.245848,-20.97466 -12.12091,-30.65002 -0.1217,-0.62797 34.26507,-8.75383 34.16018,-9.3776 -0.13256,-0.78832 -34.751795,5.92669 -34.857965,5.14497 -0.931753,-6.86045 -0.85713,-13.46932 0.05049,-19.86993 0.07221,-0.5092 30.774685,3.23292 30.857345,2.72633 0.0885,-0.5423 -30.442075,-5.33312 -30.341808,-5.87248 1.252887,-6.73957 3.416765,-13.25138 6.282696,-19.58769 0.260044,-0.57493 28.025872,10.85158 28.297312,10.2795 0.27957,-0.58918 -26.934911,-13.17687 -26.643586,-13.76312 4.497662,-9.05088 10.376536,-17.75646 17.009156,-26.2736 -0.53082,0.0169 -7.46071,-5.48137 -8.33337,-5.95923 z"
       id="target1-10"
       inkscape:connector-curvature="0"
       sodipodi:nodetypes="cssssssssssssccssssssssscc" />
    <path
       style="fill:#ff0000;stroke:#000000;stroke-width:1px;stroke-linecap:butt;stroke-linejoin:miter;stroke-opacity:1;display:inline"
       d="M 99.35953,133.29713 C 76.719454,160.1185 63.835854,196.25326 84,246.5 l 11,0 c -21.786141,-37.46083 -11.863639,-87.81551 12.69291,-107.24364 -0.53082,0.0169 -7.46071,-5.48137 -8.33338,-5.95923 z"
       id="stem-10"
       inkscape:connector-curvature="0"
       sodipodi:nodetypes="ccccc" />
    <path
       style="fill:#000080;stroke:#000000;stroke-width:1px;stroke-linecap:butt;stroke-linejoin:miter;stroke-opacity:1;display:inline"
       d="m 117.85897,76.988886 c -6.50106,-16.638085 15.12673,-25.240046 24.3178,-33.480881 4.78191,12.078697 23.2089,27.373417 6.1757,42.716867 15.33541,-15.982091 31.07894,4.728448 43.78993,8.485768 -10.45147,7.53413 -17.86116,30.31828 -38.01655,21.99751 19.3318,3.27302 12.19168,25.94341 16.04805,40.55608 -14.15197,-5.98804 -35.85516,-3.00761 -39.17713,-21.85828 0.27048,16.08016 -14.84964,24.24967 -28.33953,33.25712 -2.45042,-14.61909 -15.228091,-28.92741 -0.33742,-44.06833 -13.29886,17.30743 -35.699647,-5.0586 -49.601173,-7.77831 12.058296,-7.273 27.574696,-30.902483 44.793154,-19.59767 C 77.155423,90.849968 83.034698,67.436269 78.372228,53.967052 91.06416,59.246557 113.33496,58.620917 117.85897,76.988886 z"
       id="flowerback-10"
       inkscape:connector-curvature="0"
       sodipodi:nodetypes="ccccccccccccc" />
    <path
       style="fill:#0000ff;stroke:#000000;stroke-width:1px;stroke-linecap:butt;stroke-linejoin:miter;stroke-opacity:1;display:inline"
       d="M 96.227186,77.445123 C 81.903383,66.771868 102.41495,55.095158 105.84939,43.23802 c 10.4515,7.71542 36.30288,1.74278 29.97578,23.777281 4.54866,-21.677453 26.74811,-3.250072 39.5208,-6.792 -4.87786,11.924881 13.62642,32.348439 -7.87778,35.960149 18.13311,-7.457987 11.35001,18.3832 22.35787,28.73834 -15.17615,2.41236 -23.52505,25.97692 -36.32323,11.74352 8.74265,13.49854 -8.24479,18.8882 -14.92031,33.67159 -9.81851,-11.10492 -31.06212,-7.28633 -26.44543,-28.01471 -2.11927,21.72361 -30.13581,5.41628 -43.36916,10.46877 6.379272,-12.55404 -1.452511,-38.69372 19.139932,-38.21902 C 67.266577,119.94604 68.34386,94.84889 57.257513,85.890579 70.819909,83.650102 82.66479,64.257613 96.227186,77.445123 z"
       id="flowerfront-10"
       inkscape:connector-curvature="0"
       sodipodi:nodetypes="ccccccccccccc" />
    <path
       id="target2-01-6"
       style="color:#000000;fill:#ffff00;fill-opacity:1;fill-rule:nonzero;stroke:#000000;stroke-width:0;stroke-linecap:butt;stroke-linejoin:miter;stroke-miterlimit:4;stroke-opacity:1;stroke-dashoffset:0;marker:none;visibility:visible;display:inline;overflow:visible;enable-background:accumulate"
       d="m 72.047092,88.782446 c 0,2.147886 -1.741203,3.889074 -3.889086,3.889074 -2.147883,0 -3.889086,-1.741188 -3.889086,-3.889074 0,-2.147886 1.741203,-3.889102 3.889086,-3.889102 2.147883,0 3.889086,1.741216 3.889086,3.889102 z m 15.223614,-5.903811 c 0,2.928921 -2.374375,5.303305 -5.303301,5.303305 -2.928925,0 -5.3033,-2.374384 -5.3033,-5.303305 0,-2.928951 2.374375,-5.303301 5.3033,-5.303301 2.928926,0 5.303301,2.37435 5.303301,5.303301 z M 83.54825,106.5093 c 0,2.78246 -2.25565,5.03811 -5.038142,5.03811 -2.78249,0 -5.03813,-2.25565 -5.03813,-5.03811 0,-2.78249 2.25564,-5.03814 5.03813,-5.03814 2.782492,0 5.038142,2.25565 5.038142,5.03814 z m 1.059764,24.89454 c 0,2.88009 -2.334815,5.21491 -5.214914,5.21491 -2.88013,0 -5.214914,-2.33482 -5.214914,-5.21491 0,-2.88013 2.334784,-5.21492 5.214914,-5.21492 2.880099,0 5.214914,2.33479 5.214914,5.21492 z m -2.260144,14.54138 c 0.04148,2.48882 -2.494285,4.37626 -3.63802,4.26299 -2.5243,-0.25 -3.507659,-0.6601 -4.012991,-3.38799 -0.375,-2.02433 1.613341,-4.63483 3.887991,-4.38803 1.874486,0.20338 3.731094,1.59758 3.76302,3.51303 z m 18.03186,-2.40471 c 0,2.78248 -2.25566,5.03812 -5.03815,5.03812 -2.78248,0 -5.03812,-2.25564 -5.03812,-5.03812 0,-2.78249 2.25564,-5.03815 5.03812,-5.03815 2.78249,0 5.03815,2.25566 5.03815,5.03815 z m 41.08972,16.91233 c -0.10487,1.76009 -2.04712,3.68089 -4.43091,3.80589 -3.75362,0.19683 -5.18089,-1.67211 -5.18089,-4.05589 0,-2.50879 2.30657,-4.69738 4.68089,-4.43091 1.75223,0.19665 5.07238,2.30658 4.93091,4.68091 z m -12.33884,-7.01975 c 0,3.22182 -2.61179,5.83363 -5.83363,5.83363 -3.22182,0 -5.83363,-2.61181 -5.83363,-5.83363 0,-3.22182 2.61181,-5.83363 5.83363,-5.83363 3.22184,0 5.83363,2.61181 5.83363,5.83363 z m 21.46599,-6.6573 c 0,2.00144 -1.62248,3.62393 -3.62391,3.62393 -2.00144,0 -3.62393,-1.62249 -3.62393,-3.62393 0,-2.00143 1.62249,-3.62391 3.62393,-3.62391 2.00143,0 3.62391,1.62248 3.62391,3.62391 z m 34.16411,-25.59684 c 0,2.97776 -2.41395,5.39171 -5.39168,5.39171 -2.97776,0 -5.3917,-2.41395 -5.3917,-5.39171 0,-2.97773 2.41394,-5.39167 5.3917,-5.39167 2.97773,0 5.39168,2.41394 5.39168,5.39167 z m -11.61422,9.80655 c 0,3.22182 -2.61179,5.83362 -5.83364,5.83362 -3.22182,0 -5.83362,-2.6118 -5.83362,-5.83362 0,-3.22182 2.6118,-5.83362 5.83362,-5.83362 3.22185,0 5.83364,2.6118 5.83364,5.83362 z m 6.27945,-22.71797 c 0,2.78251 -2.25567,5.03815 -5.03815,5.03815 -2.78249,0 -5.03813,-2.25564 -5.03813,-5.03815 0,-2.78246 2.25564,-5.03813 5.03813,-5.03813 2.78248,0 5.03815,2.25567 5.03815,5.03813 z m -6.34442,-40.620314 c 0,3.270641 -2.73052,5.922018 -6.09877,5.922018 -3.36829,0 -6.09881,-2.651377 -6.09881,-5.922018 0,-3.270642 2.73052,-5.922021 6.09881,-5.922021 3.36825,0 6.09877,2.651379 6.09877,5.922021 z m 3.4599,17.482486 c 0,2.344574 -1.41839,4.084642 -5.28814,6.059583 -1.46957,0.75 -5.54811,-0.342826 -5.39169,-4.684583 0.125,-3.469577 2.54712,-6.223804 5.39169,-6.098804 4.34039,0.190732 5.28814,2.504227 5.28814,4.723804 z M 154.06933,63.21855 c 0,3.36828 -0.73052,4.4738 -4.09879,4.4738 -3.36828,0 -5.5988,-0.73052 -5.5988,-4.0988 0,-3.368275 1.10552,-4.973798 4.4738,-4.973798 3.36827,0 5.22379,1.230523 5.22379,4.598798 z m -49.71043,0.614772 c 0,2.343144 -1.89948,4.242644 -4.24263,4.242644 -2.343142,0 -4.242652,-1.8995 -4.242652,-4.242644 0,-2.343145 1.89951,-4.242639 4.242652,-4.242639 2.34315,0 4.24263,1.899494 4.24263,4.242639 z m 23.68809,-5.480078 c 0,2.831301 -2.29523,5.126529 -5.12652,5.126529 -2.8313,0 -5.12653,-2.295228 -5.12653,-5.126529 0,-2.8313 2.29523,-5.126522 5.12653,-5.126522 2.83129,0 5.12652,2.295222 5.12652,5.126522 z M 115.1423,49.779576 c -0.11114,1.963194 -2.26092,2.922789 -5.03815,3.093593 -2.03248,0.125 -4.89945,-0.275673 -5.39169,-2.386486 -0.51181,-2.194744 2.96276,-3.800699 5.74524,-3.800699 2.78248,0 4.79359,1.168172 4.6846,3.093592 z"
       inkscape:connector-curvature="0"
       sodipodi:nodetypes="ssssssssssssssssssssssssssssssssssssssssssssssssssssssssssssssssssssssssssssssssssssssssss" />
    <path
       style="color:#000000;fill:#00ffff;fill-opacity:1;fill-rule:nonzero;stroke:#000000;stroke-width:2.46448278;stroke-linecap:butt;stroke-linejoin:miter;stroke-miterlimit:4;stroke-opacity:1;stroke-dashoffset:0;marker:none;visibility:visible;display:inline;overflow:visible;enable-background:accumulate"
       d="m 146.31795,70.03064 c 19.8249,10.77393 27.00898,35.30218 16.0461,54.78538 -10.96288,19.48322 -35.92129,26.54348 -55.7462,15.76954 C 86.792963,129.81164 79.60888,105.2834 90.571767,85.800183 101.53464,66.316974 126.49306,59.256717 146.31795,70.03064 z"
       id="center-10"
       inkscape:connector-curvature="0" />
    <path
       id="target3-11-3"
       style="fill:#ff00ff;stroke:#000000;stroke-width:2;stroke-linecap:butt;stroke-linejoin:miter;stroke-opacity:1;display:inline"
       d="m 87.246952,94.297204 3,-9.5 c 0,0 -1.045044,-16.676655 -14.746952,-23.797199 -10.509496,-5.461526 -25.046965,-4.068827 -35.5,1.5 -12.415342,6.614241 -24.573951,19.939155 -25,34 -0.288429,9.518985 7.136434,19.445305 15.5,23.999995 7.172094,3.90583 17.930817,4.85183 24.5,0 5.470442,-4.04033 8.50089,-13.1758 6,-19.5 C 59.023466,96.001785 52.200199,91.641026 47,93.000005 43.239005,93.982873 39.854996,99.28516 41,103 c 0.702886,2.28044 4.297275,3.91785 6.5,3 1.80071,-0.75033 3.197363,-3.95991 2,-5.5 -1.028078,-1.322345 -4.23275,1.98892 -5,0.5 -0.81155,-1.574884 1.748658,-3.732244 3.5,-3.999995 3.475455,-0.531339 7.793607,2.197618 9,5.499995 1.627613,4.45543 -0.65194,10.72648 -4.5,13.5 -5.543488,3.99552 -14.541648,3.34552 -20.5,0 -6.978659,-3.9184 -12.958561,-12.50968 -12.5,-20.499995 0.714406,-12.448367 11.841054,-23.936715 23,-29.5 9.099839,-4.536719 21.69205,-5.580247 30.5,-0.5 14.541616,8.387309 14.246952,28.797199 14.246952,28.797199 z m 75.709288,-8.520946 c 0,0 20.57395,8.215618 28.34749,-5.220092 5.30211,-9.163961 5.2228,-26.175089 -2.51478,-33.40769 -4.31679,-4.035051 -13.12722,-6.738046 -20.37303,0.01446 -2.60709,2.429571 -0.89923,9.764339 3.06854,9.285295 1.14396,-0.138116 0.21424,-3.026667 1.35387,-3.19665 2.10137,-0.313432 4.98798,2.96328 4.11214,4.908636 -1.58639,3.523524 -8.86421,2.992032 -11.54445,0.207926 -3.47257,-3.607138 -2.89582,-11.613237 0.75132,-15.025719 6.45819,-6.042671 16.92537,-4.299204 23.95525,1.090594 10.17502,7.801157 8.03778,34.792957 7.17487,32.650854 11.41373,-8.30284 -5.14148,-34.223331 2.18947,-47.110731 4.85627,-8.537092 11.40074,-12.956469 21.18887,-13.006607 11.14945,-0.0571 23.66468,8.82225 26.04878,19.782072 1.79212,8.238484 0.54098,12.776719 -7.30421,19.910153 -5.45262,4.957933 -15.93267,3.942412 -21.05402,-1.383174 -6.05887,-6.300469 -6.11333,-16.35317 0.69583,-21.793819 3.99539,-3.192401 10.13723,-2.42008 13.15223,1.733767 2.416,3.328602 2.75371,9.611201 -0.38468,12.247389 -2.54916,2.14125 -8.21089,2.013191 -9.94073,-0.846337 -1.12543,-1.860431 0.54197,-5.083863 2.49216,-6.020923 1.06272,-0.51063 2.88189,-0.07131 3.39687,0.996241 0.44158,0.915422 -1.80655,2.060094 -1.13829,2.824271 0.80191,0.917012 2.92907,0.136818 3.51772,-0.928518 1.22737,-2.221218 -0.0984,-5.92807 -2.23241,-7.297662 -2.14758,-1.378314 -5.93609,-0.916907 -7.5613,1.049414 -3.36752,4.074303 -3.10751,12.251526 0.73153,15.896217 4.24748,4.032445 12.85532,3.335558 17.50203,-0.203075 7.15133,-5.445985 6.72299,-12.059933 3.39862,-20.456636 -2.85776,-7.218108 -12.24524,-13.007194 -19.95815,-12.714117 -9.7764,0.371485 -14.47169,2.586643 -18.96863,11.316398 -7.33514,14.239447 6.91949,33.659196 -1.71096,47.142164 -9.24682,14.445886 -34.75337,13.958376 -34.75337,13.958376 z m -34.91703,59.966382 c -0.63676,0.0439 13.71153,-4.45847 22.71079,12.50736 5.35729,10.09982 -8.85963,29.00777 -21.25,33.25 -6.49369,2.22331 -17.14108,-0.97025 -20.5,-12 -1.20855,-3.96853 4.78503,-10.31432 8.5,-7.5 1.07107,0.8114 -1.54815,3.1592 -0.5,4 1.93269,1.55035 6.748,-0.0352 7,-2.5 0.45642,-4.46437 -7.17949,-8.21329 -11.5,-7 -5.59772,1.57196 -9.68273,9.93457 -8,15.5 2.97971,9.85502 14.53247,14.26568 24.75,13 14.7888,-1.83193 28.36696,-30.13906 26.25,-28.5 6.65106,15.0354 -25.11947,31.2721 -25.25,48.5 -0.0865,11.41238 3.92605,19.69138 13.75,25.5 11.19027,6.61648 28.96317,5.0808 37.75,-4.5 6.60505,-7.20187 7.99028,-12.4859 4.25,-24.25 -2.5996,-8.17638 -13.74109,-13.32411 -22,-11 -9.77076,2.74956 -15.68384,12.79182 -12,22.25 2.16156,5.54976 8.79429,8.38904 14.25,6 4.37182,-1.91441 8.37299,-8.01183 6.75,-12.5 -1.31828,-3.64553 -7.09227,-6.84801 -10.5,-5 -2.21709,1.20233 -2.41708,5.41362 -1,7.5 0.7722,1.13692 2.85948,1.76688 4,1 0.97799,-0.6576 -0.61803,-3.12732 0.5,-3.5 1.34164,-0.44721 3.02827,1.58607 3,3 -0.0589,2.94805 -3.55369,5.8829 -6.5,6 -2.96507,0.11785 -6.50987,-2.57334 -7,-5.5 -1.01557,-6.06417 4.01148,-14.106 10,-15.5 6.62564,-1.5423 14.88456,4.22009 17.5,10.5 4.02518,9.66483 -0.26031,16.041 -8.5,22.5 -7.08314,5.55239 -19.90663,5.83123 -27.5,1 -9.62488,-6.12376 -13.06048,-11.10593 -12.5,-22.5 0.91422,-18.58532 26.58054,-29.66075 25.75,-48.25 -0.88985,-19.91684 -21.71878,-23.92157 -21.71878,-23.92157 z"
       inkscape:connector-curvature="0"
       sodipodi:nodetypes="ccssssssssssssssssssccssssssssscsssssssssscscsssssssscccssssssssscsssssssssssscsssssssscc" />
  </g>
  <g
     inkscape:groupmode="layer"
     id="layer1"
     inkscape:label="Layer"
     style="display:none">
    <path
       inkscape:connector-curvature="0"
       id="target3"
       style="fill:#ff00ff;stroke:#000000;stroke-width:2;stroke-linecap:butt;stroke-linejoin:miter;stroke-opacity:1;display:inline"
       d="m -370.21244,-45.250504 3,-9.5 c 0,0 -0.7981,-18.379451 -14.5,-25.499995 -10.5095,-5.461526 -25.04697,-4.068827 -35.5,1.5 -12.41535,6.614241 -24.57396,19.939155 -25,34 -0.28843,9.518985 7.13643,19.445305 15.5,23.999995 7.17209,3.90583 17.93081,4.85183 24.5,0 5.47044,-4.04033 8.50089,-13.1758 6,-19.5 -1.97654,-4.998215 -8.79981,-9.358974 -14,-7.999995 -3.761,0.982868 -7.14501,6.285155 -6,9.999995 0.70288,2.28044 4.29727,3.91785 6.5,3 1.80071,-0.75033 3.19736,-3.95991 2,-5.5 -1.02808,-1.322345 -4.23275,1.98892 -5,0.5 -0.81155,-1.574884 1.74865,-3.732244 3.5,-3.999995 3.47545,-0.531339 7.7936,2.197618 9,5.499995 1.62761,4.45543 -0.65194,10.72648 -4.5,13.5 -5.54349,3.99552 -14.54165,3.34552 -20.5,0 -6.97866,-3.9184 -12.95857,-12.50968 -12.5,-20.499995 0.7144,-12.448367 11.84105,-23.936715 23,-29.5 9.09983,-4.536719 21.69205,-5.580247 30.5,-0.5 14.54161,8.387309 14,30.499995 14,30.499995 z m 75.22831,-10.884907 c 0,0 21.30187,8.876783 29.07541,-4.558927 5.30211,-9.163961 5.2228,-26.175089 -2.51478,-33.40769 -4.31679,-4.035052 -13.12722,-6.738042 -20.37303,0.01446 -2.60709,2.429571 -0.89923,9.764339 3.06854,9.285295 1.14396,-0.138116 0.21424,-3.026667 1.35387,-3.19665 2.10137,-0.313432 4.98798,2.96328 4.11214,4.908636 -1.58639,3.523524 -8.86421,2.992032 -11.54445,0.207926 -3.47257,-3.607138 -2.89582,-11.613237 0.75132,-15.025719 6.45819,-6.04267 16.92537,-4.2992 23.95525,1.09059 10.17502,7.801161 8.03778,34.792961 7.17487,32.650858 11.41373,-8.30284 -5.14148,-34.223328 2.18947,-47.110728 4.85627,-8.53709 11.40074,-12.95647 21.18887,-13.00661 11.14945,-0.0571 23.66468,8.82225 26.04878,19.78207 1.79212,8.23849 0.54098,12.776721 -7.30421,19.910155 -5.45262,4.957933 -15.93267,3.942412 -21.05402,-1.383174 -6.05887,-6.300469 -6.11333,-16.353171 0.69583,-21.793821 3.99539,-3.1924 10.13723,-2.42008 13.15223,1.73377 2.416,3.3286 2.75371,9.6112 -0.38468,12.247388 -2.54916,2.14125 -8.21089,2.013191 -9.94073,-0.846337 -1.12543,-1.860431 0.54197,-5.083861 2.49216,-6.020921 1.06272,-0.51063 2.88189,-0.0713 3.39687,0.99624 0.44158,0.91542 -1.80655,2.06009 -1.13829,2.82427 0.80191,0.917012 2.92907,0.13682 3.51772,-0.92852 1.22737,-2.22122 -0.0984,-5.92807 -2.23241,-7.29766 -2.14758,-1.37831 -5.93609,-0.91691 -7.5613,1.04941 -3.36752,4.07431 -3.10751,12.25153 0.73153,15.896221 4.24748,4.032445 12.85532,3.335558 17.50203,-0.203075 7.15133,-5.445985 6.72299,-12.059936 3.39862,-20.456636 -2.85776,-7.21811 -12.24524,-13.00719 -19.95815,-12.71412 -9.7764,0.37149 -14.47169,2.58665 -18.96863,11.3164 -7.33514,14.239448 6.91949,33.659197 -1.71096,47.142165 -9.24682,14.445886 -35.48129,13.297211 -35.48129,13.297211 z m -42.22832,59.8849073 c 0,0 24.50452,19.4622297 24.5,37.4999997 -0.003,12.30289 -9.99616,29.3039 -22,32 -6.69691,1.50415 -17.14107,-0.97025 -20.49999,-12 -1.20855,-3.96853 4.78503,-10.31432 8.5,-7.5 1.07107,0.8114 -1.54815,3.1592 -0.5,4 1.93269,1.55035 6.74799,-0.0352 6.99999,-2.5 0.45642,-4.46437 -7.17948,-8.21329 -11.49999,-7 -5.59773,1.57196 -9.68273,9.93457 -8,15.5 2.97971,9.85502 14.53247,14.26568 24.74999,13 14.7888,-1.83193 28.36696,-30.13906 26.25,-28.5 6.65106,15.0354 -25.11947,31.2721 -25.25,48.5 -0.0865,11.412384 3.92605,19.691384 13.75,25.500004 11.19027,6.61648 28.96317,5.0808 37.75,-4.5 6.60505,-7.20187 7.99028,-12.4859 4.25,-24.250004 -2.5996,-8.17638 -13.74109,-13.32411 -22,-11 -9.77076,2.74956 -15.68384,12.79182 -12,22.250004 2.16156,5.54976 8.79429,8.38904 14.25,6 4.37182,-1.91441 8.37299,-8.01183 6.75,-12.500004 -1.31828,-3.64553 -7.09227,-6.84801 -10.5,-5 -2.21709,1.20233 -2.41708,5.41362 -1,7.500004 0.7722,1.13692 2.85948,1.76688 4,1 0.97799,-0.6576 -0.61803,-3.127324 0.5,-3.500004 1.34164,-0.44721 3.02827,1.58607 3,3.000004 -0.0589,2.94805 -3.55369,5.8829 -6.5,6 -2.96507,0.11785 -6.50987,-2.57334 -7,-5.5 -1.01557,-6.064174 4.01148,-14.106004 10,-15.500004 6.62564,-1.5423 14.88456,4.22009 17.5,10.5 4.02518,9.664834 -0.26031,16.041004 -8.5,22.500004 -7.08314,5.55239 -19.90663,5.83123 -27.5,1 -9.62488,-6.12376 -13.06048,-11.10593 -12.5,-22.500004 0.91422,-18.58532 26.58054,-29.66075 25.75,-48.25 -0.88985,-19.91684 -22.75,-44.7499997 -22.75,-44.7499997 z"
       sodipodi:nodetypes="ccssssssssssssssssssccssssssssscsssssssssscscsssssssscccssssssssscsssssssssssscsssssssscc" />
    <path
       id="target3-01"
       style="fill:#ff00ff;stroke:#000000;stroke-width:2;stroke-linecap:butt;stroke-linejoin:miter;stroke-opacity:1;display:inline"
       d="m -18.913458,-153.7453 c 0.51329,-1.95161 0.64486,-4.09408 2.02773,-5.61091 0,0 -30.124808,-38.77374 -43.826716,-45.89429 -10.509496,-5.46152 -25.046965,-4.06883 -35.499996,1.5 -12.41535,6.61424 -24.57396,19.93916 -25,34 -0.28843,9.51899 7.13643,19.44531 15.5,24 7.17209,3.90583 17.930813,4.85183 24.499996,0 5.470442,-4.04033 8.50089,-13.1758 6,-19.5 -1.976534,-4.99822 -8.799801,-9.35898 -13.999996,-8 -3.761,0.98287 -7.14501,6.28516 -6,10 0.70288,2.28044 4.29727,3.91785 6.499996,3 1.80071,-0.75033 3.197363,-3.95991 2,-5.5 -1.028078,-1.32235 -4.232746,1.98892 -4.999996,0.5 -0.81155,-1.57489 1.74865,-3.73225 3.499996,-4 3.475455,-0.53134 7.793607,2.19762 9,5.5 1.627613,4.45543 -0.65194,10.72648 -4.5,13.5 -5.543486,3.99552 -14.541646,3.34552 -20.499996,0 -6.97866,-3.9184 -12.95857,-12.50968 -12.5,-20.5 0.7144,-12.44837 11.84105,-23.93671 23,-29.5 9.099835,-4.53672 21.692046,-5.58025 30.499996,-0.5 14.541616,8.38731 44.298986,47.0052 44.298986,47.0052 z m 14.10611,-7.9785 c 0,0 52.12509,-10.53483 59.89863,-23.97054 5.30211,-9.16396 5.2228,-26.17509 -2.51478,-33.40769 -4.31679,-4.03505 -13.12722,-6.73804 -20.37303,0.0145 -2.60709,2.42957 -0.89923,9.76434 3.06854,9.2853 1.14396,-0.13812 0.21424,-3.02667 1.35387,-3.19665 2.10137,-0.31343 4.98798,2.96328 4.11214,4.90863 -1.58639,3.52353 -8.86421,2.99204 -11.54445,0.20793 -3.47257,-3.60714 -2.89582,-11.61324 0.75132,-15.02572 6.45819,-6.04267 16.92537,-4.2992 23.95525,1.09059 10.17502,7.80116 8.03778,34.79296 7.17487,32.65086 11.41373,-8.30284 -5.14148,-34.22333 2.18947,-47.11073 4.85627,-8.53709 11.40074,-12.95647 21.18887,-13.00661 11.14945,-0.0571 23.664678,8.82225 26.048778,19.78207 1.79212,8.23849 0.54098,12.77672 -7.30421,19.91016 -5.452618,4.95793 -15.932668,3.94241 -21.054018,-1.38318 -6.05887,-6.30047 -6.11333,-16.35317 0.69583,-21.79382 3.99539,-3.1924 10.13723,-2.42008 13.15223,1.73377 2.416,3.3286 2.75371,9.6112 -0.38468,12.24739 -2.54916,2.14125 -8.21089,2.01319 -9.94073,-0.84634 -1.12543,-1.86043 0.54197,-5.08386 2.49216,-6.02092 1.06272,-0.51063 2.88189,-0.0713 3.39687,0.99624 0.44158,0.91542 -1.80655,2.06009 -1.13829,2.82427 0.80191,0.91701 2.92907,0.13682 3.51772,-0.92852 1.22737,-2.22122 -0.0984,-5.92807 -2.23241,-7.29766 -2.14758,-1.37831 -5.93609,-0.91691 -7.5613,1.04941 -3.36752,4.07431 -3.10751,12.25153 0.73153,15.89622 4.24748,4.03245 12.85532,3.33556 17.502028,-0.20307 7.15133,-5.44599 6.72299,-12.05994 3.39862,-20.45664 -2.85776,-7.21811 -12.245238,-13.00719 -19.958148,-12.71412 -9.7764,0.37149 -14.47169,2.58665 -18.96863,11.3164 -7.33514,14.23945 6.91949,33.6592 -1.71096,47.14217 -9.24682,14.44588 -65.86257,33.15076 -65.86257,33.15076 -0.56067,-3.56117 -2.53905,-5.20052 -4.08052,-6.84442 z m -7.17978,16.47241 c 0,0 20.2791996,43.46312 20.2746796,61.50089 -0.003,12.302886 -9.9961596,29.303896 -21.9999996,31.999996 -6.69691,1.50415 -17.141076,-0.97025 -20.499996,-12 -1.20855,-3.96853 4.78503,-10.31432 8.5,-7.5 1.07107,0.8114 -1.54815,3.1592 -0.5,4 1.93269,1.55035 6.747996,-0.0352 6.999996,-2.5 0.45642,-4.46437 -7.179486,-8.21329 -11.499996,-7 -5.597723,1.57196 -9.68273,9.93457 -8,15.5 2.97971,9.85502 14.53247,14.26568 24.749996,13 14.7888,-1.83193 28.36696,-30.13906 26.25,-28.5 6.65106,15.0354 -25.11947,31.2721 -25.25,48.5 -0.0865,11.41238 3.92605,19.69138 13.75,25.5 11.19027,6.61648 28.96317,5.0808 37.75,-4.5 6.60505,-7.20187 7.99028,-12.4859 4.25,-24.25 -2.5996,-8.17638 -13.74109,-13.32411 -22,-11 -9.77076,2.74956 -15.6838404,12.79182 -12.0000004,22.25 2.1615604,5.54976 8.7942904,8.38904 14.2500004,6 4.37182,-1.91441 8.37299,-8.01183 6.75,-12.5 -1.31828,-3.64553 -7.09227,-6.84801 -10.5,-5 -2.21709,1.20233 -2.41708,5.41362 -1,7.5 0.7722,1.13692 2.85948,1.76688 4,1 0.97799,-0.6576 -0.61803,-3.12732 0.5,-3.5 1.34164,-0.44721 3.02827,1.58607 3,3 -0.0589,2.94805 -3.55369,5.8829 -6.5,6 -2.96507,0.11785 -6.50987,-2.57334 -7,-5.5 -1.01557,-6.06417 4.01148,-14.106 10,-15.5 6.62564,-1.5423 14.88456,4.22009 17.5,10.5 4.02518,9.66483 -0.26031,16.041 -8.5,22.5 -7.08314,5.55239 -19.90663,5.83123 -27.5000004,1 -9.6248796,-6.12376 -13.0604796,-11.10593 -12.4999996,-22.5 0.91422,-18.58532 26.58054,-29.66075 25.75,-48.25 -0.88985,-19.916836 -23.46922,-70.167706 -23.46922,-70.167706 -1.1408,0.50418 -3.54787,0.77311 -5.55546,0.41682 z"
       inkscape:connector-curvature="0"
       sodipodi:nodetypes="ccssssssssssssssssssccssssssssscsssssssssscscsssssssscccssssssssscsssssssssssscsssssssscc" />
    <path
       id="target3-apple"
       style="fill:#ff00ff;stroke:#000000;stroke-width:2;stroke-linecap:butt;stroke-linejoin:miter;stroke-opacity:1;display:inline"
       d="m -536.91346,187.2547 c 0.51329,-1.95161 0.64486,-4.09408 2.02773,-5.61091 0,0 -30.12481,-38.77374 -43.82671,-45.89429 -10.5095,-5.46152 -25.04697,-4.06883 -35.5,1.5 -12.41535,6.61424 -24.57396,19.93916 -25,34 -0.28843,9.51899 7.13643,19.44531 15.5,24 7.17209,3.90583 17.93081,4.85183 24.5,0 5.47044,-4.04033 8.50089,-13.1758 6,-19.5 -1.97654,-4.99822 -8.79981,-9.35898 -14,-8 -3.761,0.98287 -7.14501,6.28516 -6,10 0.70288,2.28044 4.29727,3.91785 6.5,3 1.80071,-0.75033 3.19736,-3.95991 2,-5.5 -1.02808,-1.32235 -4.23275,1.98892 -5,0.5 -0.81155,-1.57489 1.74865,-3.73225 3.5,-4 3.47545,-0.53134 7.7936,2.19762 9,5.5 1.62761,4.45543 -0.65194,10.72648 -4.5,13.5 -5.54349,3.99552 -14.54165,3.34552 -20.5,0 -6.97866,-3.9184 -12.95857,-12.50968 -12.5,-20.5 0.7144,-12.44837 11.84105,-23.93671 23,-29.5 9.09983,-4.53672 21.69205,-5.58025 30.5,-0.5 14.54161,8.38731 44.29898,47.0052 44.29898,47.0052 z m 16.93454,-5.50363 c 0,0 49.29666,-13.0097 57.0702,-26.44541 5.30211,-9.16396 5.2228,-26.17509 -2.51478,-33.40769 -4.31679,-4.03505 -13.12722,-6.73804 -20.37303,0.0145 -2.60709,2.42957 -0.89923,9.76434 3.06854,9.2853 1.14396,-0.13812 0.21424,-3.02667 1.35387,-3.19665 2.10137,-0.31343 4.98798,2.96328 4.11214,4.90863 -1.58639,3.52353 -8.86421,2.99204 -11.54445,0.20793 -3.47257,-3.60714 -2.89582,-11.61324 0.75132,-15.02572 6.45819,-6.04267 16.92537,-4.2992 23.95525,1.09059 10.17502,7.80116 8.03778,34.79296 7.17487,32.65086 11.41373,-8.30284 -5.14148,-34.22333 2.18947,-47.11073 4.85627,-8.53709 11.40074,-12.95647 21.18887,-13.00661 11.14945,-0.0571 23.66468,8.82225 26.04878,19.78207 1.79212,8.23849 0.54098,12.77672 -7.30421,19.91016 -5.45262,4.95793 -15.93267,3.94241 -21.05402,-1.38318 -6.05887,-6.30047 -6.11333,-16.35317 0.69583,-21.79382 3.99539,-3.1924 10.13723,-2.42008 13.15223,1.73377 2.416,3.3286 2.75371,9.6112 -0.38468,12.24739 -2.54916,2.14125 -8.21089,2.01319 -9.94073,-0.84634 -1.12543,-1.86043 0.54197,-5.08386 2.49216,-6.02092 1.06272,-0.51063 2.88189,-0.0713 3.39687,0.99624 0.44158,0.91542 -1.80655,2.06009 -1.13829,2.82427 0.80191,0.91701 2.92907,0.13682 3.51772,-0.92852 1.22737,-2.22122 -0.0984,-5.92807 -2.23241,-7.29766 -2.14758,-1.37831 -5.93609,-0.91691 -7.5613,1.04941 -3.36752,4.07431 -3.10751,12.25153 0.73153,15.89622 4.24748,4.03245 12.85532,3.33556 17.50203,-0.20307 7.15133,-5.44599 6.72299,-12.05994 3.39862,-20.45664 -2.85776,-7.21811 -12.24524,-13.00719 -19.95815,-12.71412 -9.7764,0.37149 -14.47169,2.58665 -18.96863,11.3164 -7.33514,14.23945 6.91949,33.6592 -1.71096,47.14217 -9.24682,14.44588 -65.86257,33.15076 -65.86257,33.15076 -0.56067,-3.56117 0.28938,-2.72565 -1.25209,-4.36955 z m -10.00821,13.99754 c 0,0 22.04697,42.75601 22.04245,60.79378 -0.003,12.30289 -11.76393,30.01101 -23.76777,32.70711 -6.69691,1.50415 -17.14107,-0.97025 -20.49999,-12 -1.20855,-3.96853 4.78503,-10.31432 8.5,-7.5 1.07107,0.8114 -1.54815,3.1592 -0.5,4 1.93269,1.55035 6.74799,-0.0352 6.99999,-2.5 0.45642,-4.46437 -7.17948,-8.21329 -11.49999,-7 -5.59773,1.57196 -9.68273,9.93457 -8,15.5 2.97971,9.85502 14.45451,13.05211 24.74999,13 15.37351,-0.0778 29.77216,-31.58031 27.31066,-30.97487 6.34049,18.57865 -26.31793,35.3191 -26.31066,50.97487 0.005,11.41271 3.92605,19.69138 13.75,25.5 11.19027,6.61648 28.96317,5.0808 37.75,-4.5 6.60505,-7.20187 7.99028,-12.4859 4.25,-24.25 -2.5996,-8.17638 -13.74109,-13.32411 -22,-11 -9.77076,2.74956 -15.68384,12.79182 -12,22.25 2.16156,5.54976 8.79429,8.38904 14.25,6 4.37182,-1.91441 8.37299,-8.01183 6.75,-12.5 -1.31828,-3.64553 -7.09227,-6.84801 -10.5,-5 -2.21709,1.20233 -2.41708,5.41362 -1,7.5 0.7722,1.13692 2.85948,1.76688 4,1 0.97799,-0.6576 -0.61803,-3.12732 0.5,-3.5 1.34164,-0.44721 3.02827,1.58607 3,3 -0.0589,2.94805 -3.55369,5.8829 -6.5,6 -2.96507,0.11785 -6.50987,-2.57334 -7,-5.5 -1.01557,-6.06417 4.01148,-14.106 10,-15.5 6.62564,-1.5423 14.88456,4.22009 17.5,10.5 4.02518,9.66483 -0.26031,16.041 -8.5,22.5 -7.08314,5.55239 -19.90663,5.83123 -27.5,1 -9.62488,-6.12376 -13.06048,-11.10593 -12.5,-22.5 0.91422,-18.58532 26.58054,-27.53943 25.75,-46.12868 -0.88985,-19.91684 -24.88343,-71.93548 -24.88343,-71.93548 -1.1408,0.50418 -2.13366,0.41956 -4.14125,0.0633 z"
       inkscape:connector-curvature="0"
       sodipodi:nodetypes="ccssssssssssssssssssccssssssssscsssssssssscscsssssssscccssssssssscsssssssssssscsssssssscc" />
  </g>
  <g
     inkscape:groupmode="layer"
     id="layer7"
     inkscape:label="01"
     style="display:inline">
    <path
       style="fill:#ff0000;stroke:#000000;stroke-width:1px;stroke-linecap:butt;stroke-linejoin:miter;stroke-opacity:1;display:inline"
       d="m 104.35953,130.29713 c -7.935314,9.67384 -14.732107,20.08698 -19.36667,31.675 -0.238071,0.59526 -27.84544,-13.68137 -28.071963,-13.07985 -0.171601,0.45568 27.035152,15.78818 26.87032,16.24751 -1.173093,3.26901 -3.298254,12.00615 -4.103738,15.47067 -0.204563,0.87986 -30.64688,-8.35793 -30.826609,-7.46319 -0.207524,1.03311 30.351734,10.20127 30.178301,11.25476 -0.885192,5.37694 -0.06947,6.14793 0.01725,12.10079 0.01564,1.07379 -33.70176,1.40756 -33.65181,2.50154 0.05595,1.22528 33.633687,0.71337 33.73378,1.96457 0.456869,5.71104 2.004567,16.94532 3.448042,23.23253 0.285417,1.24316 -29.283805,9.24816 -28.957242,10.51524 0.299005,1.16015 30.115436,-7.16958 30.449618,-5.98901 C 85.42434,233.48104 87.057641,238.40132 89,243.5 l 11,0 c -6.360467,-10.79671 -10.245848,-20.97466 -12.12091,-30.65002 -0.1217,-0.62797 34.26507,-8.75383 34.16018,-9.3776 -0.13256,-0.78832 -34.751795,5.92669 -34.857965,5.14497 -0.931753,-6.86045 -0.85713,-13.46932 0.05049,-19.86993 0.07221,-0.5092 30.774685,3.23292 30.857345,2.72633 0.0885,-0.5423 -30.442075,-5.33312 -30.341808,-5.87248 1.252887,-6.73957 3.416765,-13.25138 6.282696,-19.58769 0.260044,-0.57493 28.025872,10.85158 28.297312,10.2795 0.27957,-0.58918 -26.934911,-13.17687 -26.643586,-13.76312 4.497666,-9.05088 10.376536,-17.75646 17.009156,-26.2736 -0.53082,0.0169 -7.46071,-5.48137 -8.33337,-5.95923 z"
       id="target1-01"
       inkscape:connector-curvature="0"
       sodipodi:nodetypes="cssssssssssssccssssssssscc" />
    <path
       style="fill:#ff0000;stroke:#000000;stroke-width:1px;stroke-linecap:butt;stroke-linejoin:miter;stroke-opacity:1;display:inline"
       d="M 104.57992,130.82395 C 81.939835,157.64532 69.056235,193.78008 89.220381,244.02682 l 11.000009,0 C 78.43424,206.56599 88.356742,156.21131 112.9133,136.78318 c -0.53083,0.0169 -7.46071,-5.48137 -8.33338,-5.95923 z"
       id="stem-01"
       inkscape:connector-curvature="0"
       sodipodi:nodetypes="ccccc" />
    <path
       style="fill:#000080;stroke:#000000;stroke-width:1px;stroke-linecap:butt;stroke-linejoin:miter;stroke-opacity:1;display:inline"
       d="m 121.15255,102.43352 c -9.93879,-33.391914 23.50983,-77.059227 31.53358,-101.790081 -4.31863,25.975812 6.50404,81.5626 -21.4827,105.127141 21.3256,-24.579273 86.10238,-13.076581 111.12447,-16.349021 -24.46192,6.4803 -76.42004,43.336091 -109.87932,24.519821 34.88181,17.01771 67.27511,82.82927 80.5507,105.22466 -16.30513,-20.07094 -89.02794,-64.18193 -88.36048,-99.32646 6.67721,31.26124 -20.8955,58.14281 -31.445798,76.86595 4.67419,-20.36864 -2.09354,-57.86295 23.699748,-80.18706 -23.215535,25.88766 -51.318971,9.63367 -74.901699,9.95713 C 64.653395,120.76144 82.494917,89.892465 115.38294,107.76013 82.483565,94.679 49.486282,36.588314 34.729253,15.278356 52.26946,34.040246 116.62009,63.539409 121.15255,102.43352 z"
       id="flowerback-01"
       inkscape:connector-curvature="0"
       sodipodi:nodetypes="ccccccccccccc" />
    <path
       style="fill:#0000ff;stroke:#000000;stroke-width:1px;stroke-linecap:butt;stroke-linejoin:miter;stroke-opacity:1;display:inline"
       d="M 119.50105,106.54221 C 93.031594,83.88901 101.60663,25.791817 94.924769,0.6651675 105.39431,24.826751 140.47272,68.909765 129.7541,103.89056 c 4.57303,-32.218143 80.90909,-67.705068 100.15,-84.033005 -17.02952,18.71832 -56.35498,87.866435 -94.66993,90.220185 38.53372,-4.63641 90.02761,35.32992 113.33201,46.93593 -24.58754,-8.00952 -98.1787,-7.86233 -116.69077,-37.74354 22.57365,22.63362 10.56458,55.86378 11.86397,77.3155 -7.12792,-19.6449 -29.72191,-43.15272 -20.17246,-75.90127 -5.4504,34.34276 -45.612101,26.96135 -65.244426,40.03122 15.933771,-17.0982 21.902865,-43.72777 59.223196,-46.56826 C 82.813443,121.01433 31.391264,84.456824 7.4316112,74.566464 32.346123,80.806212 94.586538,76.333564 119.50105,106.54221 z"
       id="flowerfront-01"
       inkscape:connector-curvature="0"
       sodipodi:nodetypes="ccccccccccccc" />
    <path
       id="target2-01"
       style="color:#000000;fill:#ffff00;fill-opacity:1;fill-rule:nonzero;stroke:#000000;stroke-width:0;stroke-linecap:butt;stroke-linejoin:miter;stroke-miterlimit:4;stroke-opacity:1;stroke-dashoffset:0;marker:none;visibility:visible;display:inline;overflow:visible;enable-background:accumulate"
       d="m 56.922092,88.157449 c 0,2.147886 -1.741203,3.889075 -3.889086,3.889075 -2.147883,0 -3.889086,-1.741189 -3.889086,-3.889075 0,-2.147886 1.741203,-3.889102 3.889086,-3.889102 2.147883,0 3.889086,1.741216 3.889086,3.889102 z m 27.223614,4.596189 c 0,2.928921 -2.374375,5.303305 -5.303301,5.303305 -2.928925,0 -5.3033,-2.374384 -5.3033,-5.303305 0,-2.928951 2.374375,-5.303301 5.3033,-5.303301 2.928926,0 5.303301,2.37435 5.303301,5.303301 z M 104.29825,104.5093 c 0,2.78246 -2.25565,5.03811 -5.038142,5.03811 -2.78249,0 -5.03813,-2.25565 -5.03813,-5.03811 0,-2.78249 2.25564,-5.03814 5.03813,-5.03814 2.782492,0 5.038142,2.25565 5.038142,5.03814 z m -16.440236,36.76954 c 0,2.88009 -2.334815,5.21491 -5.214914,5.21491 -2.88013,0 -5.214914,-2.33482 -5.214914,-5.21491 0,-2.88013 2.334784,-5.21492 5.214914,-5.21492 2.880099,0 5.214914,2.33479 5.214914,5.21492 z m 23.864856,-5.83362 c 0,4.1493 -3.36369,7.51299 -7.51302,7.51299 -4.1493,0 -7.512991,-3.36369 -7.512991,-7.51299 0,-4.14933 3.363691,-7.51303 7.512991,-7.51303 4.14933,0 7.51302,3.3637 7.51302,7.51303 z m 5.65686,-12.90471 c 0,2.78248 -2.25566,5.03812 -5.03815,5.03812 -2.78248,0 -5.03812,-2.25564 -5.03812,-5.03812 0,-2.78249 2.25564,-5.03815 5.03812,-5.03815 2.78249,0 5.03815,2.25566 5.03815,5.03815 z m 26.33972,38.53733 c 0,3.75878 -3.04712,6.80589 -6.80591,6.80589 -3.75878,0 -6.80589,-3.04711 -6.80589,-6.80589 0,-3.75879 3.04711,-6.80591 6.80589,-6.80591 3.75879,0 6.80591,3.04712 6.80591,6.80591 z m -8.83884,-15.64475 c 0,3.22182 -2.61179,5.83363 -5.83363,5.83363 -3.22182,0 -5.83363,-2.61181 -5.83363,-5.83363 0,-3.22182 2.61181,-5.83363 5.83363,-5.83363 3.22184,0 5.83363,2.61181 5.83363,5.83363 z m 1.59099,-14.4073 c 0,2.00144 -1.62248,3.62393 -3.62391,3.62393 -2.00144,0 -3.62393,-1.62249 -3.62393,-3.62393 0,-2.00143 1.62249,-3.62391 3.62393,-3.62391 2.00143,0 3.62391,1.62248 3.62391,3.62391 z m 73.53911,7.77816 c 0,2.97776 -2.41395,5.39171 -5.39168,5.39171 -2.97776,0 -5.3917,-2.41395 -5.3917,-5.39171 0,-2.97773 2.41394,-5.39167 5.3917,-5.39167 2.97773,0 5.39168,2.41394 5.39168,5.39167 z m -36.23922,-5.56845 c 0,3.22182 -2.61179,5.83362 -5.83364,5.83362 -3.22182,0 -5.83362,-2.6118 -5.83362,-5.83362 0,-3.22182 2.6118,-5.83362 5.83362,-5.83362 3.22185,0 5.83364,2.6118 5.83364,5.83362 z m -16.97055,-15.46797 c 0,2.78251 -2.25567,5.03815 -5.03815,5.03815 -2.78249,0 -5.03813,-2.25564 -5.03813,-5.03815 0,-2.78246 2.25564,-5.03813 5.03813,-5.03813 2.78248,0 5.03815,2.25567 5.03815,5.03813 z m 30.40558,-56.745311 c 0,3.270641 -2.73052,5.922018 -6.09877,5.922018 -3.36829,0 -6.09881,-2.651377 -6.09881,-5.922018 0,-3.270642 2.73052,-5.922021 6.09881,-5.922021 3.36825,0 6.09877,2.651379 6.09877,5.922021 z m -16.08667,24.925505 c 0,4.344574 -3.52199,7.866564 -7.86657,7.866564 -4.34457,0 -7.86656,-3.52199 -7.86656,-7.866564 0,-4.344577 3.52199,-7.86657 7.86656,-7.86657 4.34458,0 7.86657,3.521993 7.86657,7.86657 z m -24.92552,12.020829 c 0,3.368277 -2.73052,6.098797 -6.09879,6.098797 -3.36828,0 -6.0988,-2.73052 -6.0988,-6.098797 0,-3.368275 2.73052,-6.098798 6.0988,-6.098798 3.36827,0 6.09879,2.730523 6.09879,6.098798 z M 117.02616,76.136626 c 0,2.343144 -1.89948,4.242644 -4.24263,4.242644 -2.34314,0 -4.24265,-1.8995 -4.24265,-4.242644 0,-2.343145 1.89951,-4.242639 4.24265,-4.242639 2.34315,0 4.24263,1.899494 4.24263,4.242639 z m 12.02083,11.136931 c 0,2.831301 -2.29523,5.126529 -5.12652,5.126529 -2.8313,0 -5.12653,-2.295228 -5.12653,-5.126529 0,-2.8313 2.29523,-5.126522 5.12653,-5.126522 2.83129,0 5.12652,2.295222 5.12652,5.126522 z M 116.49585,54.658259 c 0,3.07538 -2.25567,5.568466 -5.03815,5.568466 -2.78248,0 -5.03813,-2.493086 -5.03813,-5.568466 0,-3.075378 2.25565,-5.568466 5.03813,-5.568466 2.78248,0 5.03815,2.493088 5.03815,5.568466 z"
       inkscape:connector-curvature="0" />
    <path
       style="color:#000000;fill:#00ffff;fill-opacity:1;fill-rule:nonzero;stroke:#000000;stroke-width:1.77838612;stroke-linecap:butt;stroke-linejoin:miter;stroke-miterlimit:4;stroke-opacity:1;stroke-dashoffset:0;marker:none;visibility:visible;display:inline;overflow:visible;enable-background:accumulate"
       d="m 132.2428,105.5804 c 3.75036,3.17042 4.22049,8.78081 1.05007,12.53116 -3.17041,3.75036 -8.78082,4.2205 -12.53117,1.05008 -3.75036,-3.17042 -4.22049,-8.78081 -1.05007,-12.53118 3.17042,-3.75035 8.78082,-4.22048 12.53117,-1.05006 z"
       id="center-01"
       inkscape:connector-curvature="0" />
    <path
       id="target3-11-8"
       style="fill:#ff00ff;stroke:#000000;stroke-width:2;stroke-linecap:butt;stroke-linejoin:miter;stroke-opacity:1;display:inline"
       d="m 117.29899,112.15165 1.40901,-5.43413 c 0,0 -29.506092,-38.596971 -43.208,-45.717515 -10.509496,-5.461526 -25.046965,-4.068827 -35.5,1.5 -12.415342,6.614241 -24.573951,19.939155 -25,34 -0.288429,9.518985 7.136434,19.445305 15.5,23.999995 7.172094,3.90583 17.930817,4.85183 24.5,0 5.470442,-4.04033 8.50089,-13.1758 6,-19.5 C 59.023466,96.001785 52.200199,91.641026 47,93.000005 43.239005,93.982873 39.854996,99.28516 41,103 c 0.702886,2.28044 4.297275,3.91785 6.5,3 1.80071,-0.75033 3.197363,-3.95991 2,-5.5 -1.028078,-1.322345 -4.23275,1.98892 -5,0.5 -0.81155,-1.574884 1.748658,-3.732244 3.5,-3.999995 3.475455,-0.531339 7.793607,2.197618 9,5.499995 1.627613,4.45543 -0.65194,10.72648 -4.5,13.5 -5.543488,3.99552 -14.541648,3.34552 -20.5,0 -6.978659,-3.9184 -12.958561,-12.50968 -12.5,-20.499995 0.714406,-12.448367 11.841054,-23.936715 23,-29.5 9.099839,-4.536719 21.69205,-5.580247 30.5,-0.5 14.541616,8.387309 44.29899,46.651645 44.29899,46.651645 z m 16.13555,-6.22285 c 0,0 50.09565,-11.936924 57.86919,-25.372634 5.30211,-9.163961 5.2228,-26.175089 -2.51478,-33.40769 -4.31679,-4.035051 -13.12722,-6.738046 -20.37303,0.01446 -2.60709,2.429571 -0.89923,9.764339 3.06854,9.285295 1.14396,-0.138116 0.21424,-3.026667 1.35387,-3.19665 2.10137,-0.313432 4.98798,2.96328 4.11214,4.908636 -1.58639,3.523524 -8.86421,2.992032 -11.54445,0.207926 -3.47257,-3.607138 -2.89582,-11.613237 0.75132,-15.025719 6.45819,-6.042671 16.92537,-4.299204 23.95525,1.090594 10.17502,7.801157 8.03778,34.792957 7.17487,32.650854 11.41373,-8.30284 -5.14148,-34.223331 2.18947,-47.110731 4.85627,-8.537092 11.40074,-12.956469 21.18887,-13.006607 11.14945,-0.0571 23.66468,8.82225 26.04878,19.782072 1.79212,8.238484 0.54098,12.776719 -7.30421,19.910153 -5.45262,4.957933 -15.93267,3.942412 -21.05402,-1.383174 -6.05887,-6.300469 -6.11333,-16.35317 0.69583,-21.793819 3.99539,-3.192401 10.13723,-2.42008 13.15223,1.733767 2.416,3.328602 2.75371,9.611201 -0.38468,12.247389 -2.54916,2.14125 -8.21089,2.013191 -9.94073,-0.846337 -1.12543,-1.860431 0.54197,-5.083863 2.49216,-6.020923 1.06272,-0.51063 2.88189,-0.07131 3.39687,0.996241 0.44158,0.915422 -1.80655,2.060094 -1.13829,2.824271 0.80191,0.917012 2.92907,0.136818 3.51772,-0.928518 1.22737,-2.221218 -0.0984,-5.92807 -2.23241,-7.297662 -2.14758,-1.378314 -5.93609,-0.916907 -7.5613,1.049414 -3.36752,4.074303 -3.10751,12.251526 0.73153,15.896217 4.24748,4.032445 12.85532,3.335558 17.50203,-0.203075 7.15133,-5.445985 6.72299,-12.059933 3.39862,-20.456636 -2.85776,-7.218108 -12.24524,-13.007194 -19.95815,-12.714117 -9.7764,0.371485 -14.47169,2.586643 -18.96863,11.316398 -7.33514,14.239447 6.91949,33.659196 -1.71096,47.142164 -9.24682,14.445886 -65.86606,31.812821 -65.86606,31.812821 z m -4.68822,15.24188 c -0.63676,0.0439 13.00442,20.11349 22.00368,37.07932 5.35729,10.09982 -8.85963,29.00777 -21.25,33.25 -6.49369,2.22331 -17.14108,-0.97025 -20.5,-12 -1.20855,-3.96853 4.78503,-10.31432 8.5,-7.5 1.07107,0.8114 -1.54815,3.1592 -0.5,4 1.93269,1.55035 6.748,-0.0352 7,-2.5 0.45642,-4.46437 -7.17949,-8.21329 -11.5,-7 -5.59772,1.57196 -9.68273,9.93457 -8,15.5 2.97971,9.85502 14.53247,14.26568 24.75,13 14.7888,-1.83193 28.36696,-30.13906 26.25,-28.5 6.65106,15.0354 -25.11947,31.2721 -25.25,48.5 -0.0865,11.41238 3.92605,19.69138 13.75,25.5 11.19027,6.61648 28.96317,5.0808 37.75,-4.5 6.60505,-7.20187 7.99028,-12.4859 4.25,-24.25 -2.5996,-8.17638 -13.74109,-13.32411 -22,-11 -9.77076,2.74956 -15.68384,12.79182 -12,22.25 2.16156,5.54976 8.79429,8.38904 14.25,6 4.37182,-1.91441 8.37299,-8.01183 6.75,-12.5 -1.31828,-3.64553 -7.09227,-6.84801 -10.5,-5 -2.21709,1.20233 -2.41708,5.41362 -1,7.5 0.7722,1.13692 2.85948,1.76688 4,1 0.97799,-0.6576 -0.61803,-3.12732 0.5,-3.5 1.34164,-0.44721 3.02827,1.58607 3,3 -0.0589,2.94805 -3.55369,5.8829 -6.5,6 -2.96507,0.11785 -6.50987,-2.57334 -7,-5.5 -1.01557,-6.06417 4.01148,-14.106 10,-15.5 6.62564,-1.5423 14.88456,4.22009 17.5,10.5 4.02518,9.66483 -0.26031,16.041 -8.5,22.5 -7.08314,5.55239 -19.90663,5.83123 -27.5,1 -9.62488,-6.12376 -13.06048,-11.10593 -12.5,-22.5 0.91422,-18.58532 28.24378,-29.81007 25.75,-48.25 -2.30952,-17.07749 -27.51439,-48.03925 -27.19886,-48.67031 z"
       inkscape:connector-curvature="0"
       sodipodi:nodetypes="ccssssssssssssssssssccssssssssscsssssssssscscsssssssscccssssssssscsssssssssssscsssssssscc" />
  </g>
  <g
     inkscape:groupmode="layer"
     id="layer6"
     inkscape:label="00"
     style="display:none">
    <path
       style="fill:#ff0000;stroke:#000000;stroke-width:1px;stroke-linecap:butt;stroke-linejoin:miter;stroke-opacity:1;display:inline"
       d="m 114.49251,119.39856 c -7.93531,9.67384 -14.73211,20.08698 -19.36667,31.675 -0.23807,0.59526 -27.84544,-13.68137 -28.071963,-13.07985 -0.171601,0.45568 27.035153,15.78818 26.87032,16.24751 -1.173093,3.26901 -3.298254,12.00615 -4.103738,15.47067 -0.204563,0.87986 -30.64688,-8.35793 -30.826609,-7.46319 -0.207524,1.03311 30.351734,10.20127 30.178301,11.25476 -0.885192,5.37694 -0.06947,6.14793 0.01725,12.10079 0.01564,1.07379 -33.70176,1.40757 -33.65181,2.50154 0.05595,1.22528 33.633687,0.71337 33.73378,1.96457 0.456869,5.71104 2.004567,16.94532 3.448042,23.23253 0.285417,1.24316 -29.283805,9.24816 -28.957242,10.51524 0.299005,1.16015 30.115436,-7.16958 30.449619,-5.98901 1.34553,4.75335 2.97883,9.67363 4.92119,14.77231 l 11,0 c -6.36047,-10.79671 -10.24585,-20.97466 -12.12091,-30.65002 -0.1217,-0.62797 34.26507,-8.75383 34.16018,-9.3776 -0.13256,-0.78832 -34.75179,5.92669 -34.85796,5.14497 -0.93176,-6.86045 -0.85713,-13.46932 0.0505,-19.86992 0.0722,-0.50921 30.77468,3.23291 30.85734,2.72632 0.0885,-0.5423 -30.44207,-5.33312 -30.34181,-5.87248 1.25289,-6.73957 3.41677,-13.25138 6.2827,-19.58769 0.26004,-0.57493 28.02587,10.85158 28.29731,10.2795 0.27957,-0.58918 -26.93491,-13.17687 -26.64359,-13.76312 4.49767,-9.05088 10.37653,-17.75646 17.00916,-26.2736 -0.53082,0.0169 -7.46071,-5.48137 -8.33338,-5.95923 z"
       id="target1-00"
       inkscape:connector-curvature="0"
       sodipodi:nodetypes="cssssssssssssccssssssssscc" />
    <path
       style="fill:#ff0000;stroke:#000000;stroke-width:1px;stroke-linecap:butt;stroke-linejoin:miter;stroke-opacity:1;display:inline"
       d="M 114.75328,118.77192 C 92.113193,145.59329 79.229593,181.72805 99.393737,231.97479 l 11.353563,0 c -21.786149,-37.46083 -14.338524,-80.74444 10.21804,-100.17257 -0.53083,0.0169 -6.40005,-11.49178 -6.21206,-13.0303 z"
       id="stem-00"
       inkscape:connector-curvature="0"
       sodipodi:nodetypes="ccccc" />
    <path
       style="fill:#000080;stroke:#000000;stroke-width:1px;stroke-linecap:butt;stroke-linejoin:miter;stroke-opacity:1;display:inline"
       d="m 123.58303,105.36281 c -5.86747,-14.542069 7.60991,-21.03818 11.42943,-30.236975 0.33906,9.747952 11.09965,19.787468 -1.17087,32.867225 13.10235,-13.665276 22.29823,-2.60268 33.35248,-3.00296 -9.96473,4.86236 -14.342,21.65709 -31.54232,11.06743 15.71074,7.84818 11.88899,17.78766 17.35428,26.73279 -8.2796,-6.49223 -20.62009,-1.94509 -24.73512,-20.30593 4.40307,17.83725 -9.60851,20.56347 -14.53569,30.74434 1.06981,-11.05508 -11.20788,-20.70856 6.5775,-33.51891 -12.20353,12.85683 -23.412928,1.12991 -35.108619,1.42862 10.553062,-3.81004 12.354702,-16.60026 32.993589,-10.06081 -20.175405,-3.1849 -15.12095,-18.667051 -22.42962,-28.123309 9.48067,7.120611 24.39739,5.167652 27.81496,22.408489 z"
       id="flowerback-00"
       inkscape:connector-curvature="0"
       sodipodi:nodetypes="ccccccccccccc" />
    <path
       style="fill:#0000ff;stroke:#000000;stroke-width:1px;stroke-linecap:butt;stroke-linejoin:miter;stroke-opacity:1;display:inline"
       d="m 119.50105,106.54221 c -12.16137,-9.899496 -3.49776,-22.097086 -4.5962,-31.99658 5.00504,8.371804 19.27627,11.965432 14.84925,29.34493 4.87259,-18.293957 18.26786,-13.048756 27.75393,-18.738329 -6.37693,9.07046 -2.09812,25.890549 -22.27386,24.925509 17.54732,-0.71603 19.00155,9.83311 28.1075,15.02603 -10.38551,-1.68582 -18.99496,8.2561 -31.46626,-5.83364 12.47063,13.49214 1.51845,22.64673 2.12132,33.94114 -4.40272,-10.19683 -19.81591,-12.71969 -10.42981,-32.52691 -4.47604,17.15195 -19.95525,12.29756 -30.052038,18.208 7.400338,-8.43318 2.800372,-20.50281 24.030808,-24.74504 -19.204388,6.95571 -22.256279,-9.04212 -33.223206,-13.79227 11.740705,1.65594 23.858926,-7.258727 35.178566,6.18716 z"
       id="flowerfront-00"
       inkscape:connector-curvature="0"
       sodipodi:nodetypes="ccccccccccccc" />
    <path
       style="color:#000000;fill:#00ffff;fill-opacity:1;fill-rule:nonzero;stroke:#000000;stroke-width:1.77838612;stroke-linecap:butt;stroke-linejoin:miter;stroke-miterlimit:4;stroke-opacity:1;stroke-dashoffset:0;marker:none;visibility:visible;display:inline;overflow:visible;enable-background:accumulate"
       d="m 132.2428,105.5804 c 3.75036,3.17042 4.22049,8.78081 1.05007,12.53116 -3.17041,3.75036 -8.78082,4.2205 -12.53117,1.05008 -3.75036,-3.17042 -4.22049,-8.78081 -1.05007,-12.53118 3.17042,-3.75035 8.78082,-4.22048 12.53117,-1.05006 z"
       id="center-00"
       inkscape:connector-curvature="0" />
    <path
       id="target2-01-3-3"
       style="color:#000000;fill:#ffff00;fill-opacity:1;fill-rule:nonzero;stroke:#000000;stroke-width:0;stroke-linecap:butt;stroke-linejoin:miter;stroke-miterlimit:4;stroke-opacity:1;stroke-dashoffset:0;marker:none;visibility:visible;display:inline;overflow:visible;enable-background:accumulate"
       d="m 99.244236,104.07527 c 0,2.33083 -1.57024,2.69709 -3.460921,2.66543 -2.064856,-0.0346 -3.320465,-1.1281 -3.284133,-2.75382 0.04021,-1.79938 1.746731,-2.70362 3.284133,-2.66541 1.710879,0.0425 3.460921,0.86493 3.460921,2.7538 z m 9.023574,1.93672 c -0.45198,1.65591 -2.11547,3.17509 -3.59448,2.79898 -0.97775,-0.24865 -3.66077,-1.09012 -3.59449,-3.77125 0.0539,-2.17879 1.83378,-4.0135 3.5061,-4.12482 1.79008,-0.11915 4.29244,2.86381 3.68287,5.09709 z m 6.32279,4.75633 c 0.26517,2.28424 -1.39818,3.36872 -3.23797,3.23797 -1.84121,-0.13085 -3.06854,-0.77644 -3.23797,-3.23797 -0.15706,-2.28179 2.80987,-2.70765 3.7683,-2.70765 0.95843,0 2.43405,0.35083 2.70764,2.70765 z m -7.57199,19.8503 c -0.58295,2.32878 -2.60893,3.76799 -4.00598,3.29885 -1.51307,-0.5081 -2.78086,-2.8726 -2.41499,-4.35951 0.30056,-1.22147 2.24074,-2.90813 3.65243,-2.85695 1.84487,0.0669 3.21173,2.14714 2.76854,3.91761 z m 9.54606,-3.24683 c 0.37378,1.87657 -1.85237,3.94828 -3.91369,3.82528 -1.7326,-0.10338 -3.96667,-1.35356 -3.73688,-3.82528 0.21538,-2.31674 2.17237,-3.11874 3.73688,-3.11818 1.63824,5.9e-4 3.42975,0.68867 3.91369,3.11818 z m 0.35751,-8.59926 c 0.63551,2.07057 -1.28719,2.64928 -2.35411,2.70765 -1.64001,0.0897 -3.36853,-0.85535 -3.06121,-2.53087 0.28454,-1.55127 2.10278,-2.26571 3.06121,-2.26571 0.95842,0 2.07289,1.17269 2.35411,2.08893 z m 15.67045,21.10145 c 0,1.29469 -1.04958,2.34427 -2.34429,2.34427 -1.2947,0 -2.34428,-1.04958 -2.34428,-2.34427 0,-1.29472 1.04958,-2.3443 2.34428,-2.3443 1.29471,0 2.34429,1.04958 2.34429,2.3443 z m -1.01159,-6.80303 c -0.10527,3.26572 -2.9456,3.39133 -4.04232,3.42359 -1.18152,0.0348 -3.84731,-0.86325 -3.68878,-3.33521 0.078,-1.21573 0.78199,-3.48901 3.68878,-3.33521 3.14431,0.16637 4.0793,2.09984 4.04232,3.24683 z m 2.93449,-7.43746 c 0.0792,1.10875 -1.72045,3.16373 -3.45796,3.10443 -1.20994,-0.0413 -3.6404,-1.59056 -3.28118,-2.75087 0.80508,-2.60052 1.63061,-2.47578 3.28118,-2.48569 1.51788,-0.009 3.35247,0.65587 3.45796,2.13213 z m 20.8698,-3.66126 c 0,1.02567 -0.83148,1.85716 -1.85715,1.85716 -1.02569,0 -1.85717,-0.83149 -1.85717,-1.85716 0,-1.02569 0.83148,-1.85717 1.85717,-1.85717 1.02567,0 1.85715,0.83148 1.85715,1.85717 z m -6.29536,-0.50383 c 0.1916,1.28064 -2.17991,2.7718 -3.77716,2.89326 -1.94653,0.14802 -5.60553,-1.20756 -4.66103,-3.60037 0.6236,-1.57982 2.26114,-2.79387 4.21909,-2.62811 1.7555,0.14863 3.97164,1.68129 4.2191,3.33522 z m -4.87323,-7.62603 c -0.17157,2.57355 -1.87343,2.34058 -2.79603,2.4425 -1.06459,0.11759 -3.69222,-0.34515 -3.32636,-2.53089 0.20142,-1.20335 1.18083,-2.39449 3.0612,-2.26571 2.23293,0.15293 3.12635,1.37672 3.06119,2.3541 z m 8.52277,-22.254609 c 0.38954,1.191495 -0.50322,3.686283 -3.69169,3.895996 -2.22689,0.146468 -4.412,-0.530826 -4.57561,-3.100501 -0.11331,-1.779562 1.81988,-2.580914 3.8685,-2.746931 1.40024,-0.113472 4.04872,0.880655 4.3988,1.951436 z m -5.54103,8.585559 c 0,1.49648 -1.21314,2.70964 -2.70963,2.70964 -1.49648,0 -2.70962,-1.21316 -2.70962,-2.70964 0,-1.496485 1.21314,-2.709623 2.70962,-2.709623 1.49649,0 2.70963,1.213138 2.70963,2.709623 z m -7.34812,3.0799 c 0.0229,2.03078 -2.12425,3.24339 -3.33816,3.16138 -1.20003,-0.0811 -4.13263,-1.01045 -3.51493,-3.51493 0.3801,-1.54116 1.17008,-3.58504 3.51493,-3.24977 1.82701,0.26123 3.31379,1.4397 3.33816,3.60332 z m -18.60697,-8.784878 c -0.0242,1.741167 -0.93969,2.86969 -2.69881,2.875586 -1.38763,0.0047 -2.5912,-1.017214 -2.7872,-2.963974 -0.19982,-1.984698 0.65057,-3.236703 2.69881,-3.140751 2.48633,0.116474 2.80693,1.811881 2.7872,3.229139 z m 4.14056,3.836113 c 0,0.975225 -0.79059,1.765815 -1.76584,1.765815 -0.97523,0 -1.76582,-0.79059 -1.76582,-1.765815 0,-0.97525 0.79059,-1.76584 1.76582,-1.76584 0.97525,0 1.76584,0.79059 1.76584,1.76584 z M 123.4472,86.363047 c 0.37342,1.565412 -0.94052,3.447369 -2.2657,3.509038 -1.23903,0.05766 -4.30062,-0.479353 -4.38705,-3.420649 -0.0617,-2.098891 1.74624,-3.598256 3.67994,-3.420649 2.73339,0.251057 2.71482,2.250762 2.97281,3.33226 z"
       inkscape:connector-curvature="0"
       sodipodi:nodetypes="ssssssssssssssssssssssssssssssssssssssssssssssssssssssssssssssssssssssssssssssssssssssssss" />
    <path
       style="color:#000000;fill:#00ffff;fill-opacity:1;fill-rule:nonzero;stroke:#000000;stroke-width:1.77838612;stroke-linecap:butt;stroke-linejoin:miter;stroke-miterlimit:4;stroke-opacity:1;stroke-dashoffset:0;marker:none;visibility:visible;display:inline;overflow:visible;enable-background:accumulate"
       d="m 132.2428,105.5804 c 3.75036,3.17042 4.22049,8.78081 1.05007,12.53116 -3.17041,3.75036 -8.78082,4.2205 -12.53117,1.05008 -3.75036,-3.17042 -4.22049,-8.78081 -1.05007,-12.53118 3.17042,-3.75035 8.78082,-4.22048 12.53117,-1.05006 z"
       id="center-01-5"
       inkscape:connector-curvature="0" />
    <path
       id="target3-11-8-1"
       style="fill:#ff00ff;stroke:#000000;stroke-width:2;stroke-linecap:butt;stroke-linejoin:miter;stroke-opacity:1;display:inline"
       d="m 117.47577,112.68198 1.05545,-5.08058 c 0,0 -29.329312,-39.480851 -43.03122,-46.601395 -10.509496,-5.461526 -25.046965,-4.068827 -35.5,1.5 -12.415342,6.614241 -24.573951,19.939155 -25,34 -0.288429,9.518985 7.136434,19.445305 15.5,23.999995 7.172094,3.90583 17.930817,4.85183 24.5,0 5.470442,-4.04033 8.50089,-13.1758 6,-19.5 C 59.023466,96.001785 52.200199,91.641026 47,93.000005 43.239005,93.982873 39.854996,99.28516 41,103 c 0.702886,2.28044 4.297275,3.91785 6.5,3 1.80071,-0.75033 3.197363,-3.95991 2,-5.5 -1.028078,-1.322345 -4.23275,1.98892 -5,0.5 -0.81155,-1.574884 1.748658,-3.732244 3.5,-3.999995 3.475455,-0.531339 7.793607,2.197618 9,5.499995 1.627613,4.45543 -0.65194,10.72648 -4.5,13.5 -5.543488,3.99552 -14.541648,3.34552 -20.5,0 -6.978659,-3.9184 -12.958561,-12.50968 -12.5,-20.499995 0.714406,-12.448367 11.841054,-23.936715 23,-29.5 9.099839,-4.536719 21.69205,-5.580247 30.5,-0.5 14.541616,8.387309 44.47577,47.181975 44.47577,47.181975 z m 15.42843,-6.75318 c 0,0 50.62599,-11.936924 58.39953,-25.372634 5.30211,-9.163961 5.2228,-26.175089 -2.51478,-33.40769 -4.31679,-4.035051 -13.12722,-6.738046 -20.37303,0.01446 -2.60709,2.429571 -0.89923,9.764339 3.06854,9.285295 1.14396,-0.138116 0.21424,-3.026667 1.35387,-3.19665 2.10137,-0.313432 4.98798,2.96328 4.11214,4.908636 -1.58639,3.523524 -8.86421,2.992032 -11.54445,0.207926 -3.47257,-3.607138 -2.89582,-11.613237 0.75132,-15.025719 6.45819,-6.042671 16.92537,-4.299204 23.95525,1.090594 10.17502,7.801157 8.03778,34.792957 7.17487,32.650854 11.41373,-8.30284 -5.14148,-34.223331 2.18947,-47.110731 4.85627,-8.537092 11.40074,-12.956469 21.18887,-13.006607 11.14945,-0.0571 23.66468,8.82225 26.04878,19.782072 1.79212,8.238484 0.54098,12.776719 -7.30421,19.910153 -5.45262,4.957933 -15.93267,3.942412 -21.05402,-1.383174 -6.05887,-6.300469 -6.11333,-16.35317 0.69583,-21.793819 3.99539,-3.192401 10.13723,-2.42008 13.15223,1.733767 2.416,3.328602 2.75371,9.611201 -0.38468,12.247389 -2.54916,2.14125 -8.21089,2.013191 -9.94073,-0.846337 -1.12543,-1.860431 0.54197,-5.083863 2.49216,-6.020923 1.06272,-0.51063 2.88189,-0.07131 3.39687,0.996241 0.44158,0.915422 -1.80655,2.060094 -1.13829,2.824271 0.80191,0.917012 2.92907,0.136818 3.51772,-0.928518 1.22737,-2.221218 -0.0984,-5.92807 -2.23241,-7.297662 -2.14758,-1.378314 -5.93609,-0.916907 -7.5613,1.049414 -3.36752,4.074303 -3.10751,12.251526 0.73153,15.896217 4.24748,4.032445 12.85532,3.335558 17.50203,-0.203075 7.15133,-5.445985 6.72299,-12.059933 3.39862,-20.456636 -2.85776,-7.218108 -12.24524,-13.007194 -19.95815,-12.714117 -9.7764,0.371485 -14.47169,2.586643 -18.96863,11.316398 -7.33514,14.239447 6.91949,33.659196 -1.71096,47.142164 -9.24682,14.445886 -66.04284,31.636041 -66.04284,31.636041 z m -4.51143,15.41866 c -0.63676,0.0439 13.35797,19.93671 22.35723,36.90254 5.35729,10.09982 -8.85963,29.00777 -21.25,33.25 -6.49369,2.22331 -17.14108,-0.97025 -20.5,-12 -1.20855,-3.96853 4.78503,-10.31432 8.5,-7.5 1.07107,0.8114 -1.54815,3.1592 -0.5,4 1.93269,1.55035 6.748,-0.0352 7,-2.5 0.45642,-4.46437 -7.17949,-8.21329 -11.5,-7 -5.59772,1.57196 -9.68273,9.93457 -8,15.5 2.97971,9.85502 14.53247,14.26568 24.75,13 14.7888,-1.83193 28.36696,-30.13906 26.25,-28.5 6.65106,15.0354 -25.11947,31.2721 -25.25,48.5 -0.0865,11.41238 3.92605,19.69138 13.75,25.5 11.19027,6.61648 28.96317,5.0808 37.75,-4.5 6.60505,-7.20187 7.99028,-12.4859 4.25,-24.25 -2.5996,-8.17638 -13.74109,-13.32411 -22,-11 -9.77076,2.74956 -15.68384,12.79182 -12,22.25 2.16156,5.54976 8.79429,8.38904 14.25,6 4.37182,-1.91441 8.37299,-8.01183 6.75,-12.5 -1.31828,-3.64553 -7.09227,-6.84801 -10.5,-5 -2.21709,1.20233 -2.41708,5.41362 -1,7.5 0.7722,1.13692 2.85948,1.76688 4,1 0.97799,-0.6576 -0.61803,-3.12732 0.5,-3.5 1.34164,-0.44721 3.02827,1.58607 3,3 -0.0589,2.94805 -3.55369,5.8829 -6.5,6 -2.96507,0.11785 -6.50987,-2.57334 -7,-5.5 -1.01557,-6.06417 4.01148,-14.106 10,-15.5 6.62564,-1.5423 14.88456,4.22009 17.5,10.5 4.02518,9.66483 -0.26031,16.041 -8.5,22.5 -7.08314,5.55239 -19.90663,5.83123 -27.5,1 -9.62488,-6.12376 -13.06048,-11.10593 -12.5,-22.5 0.91422,-18.58532 31.14894,-30.44266 25.75,-48.25 -5.64529,-18.6199 -28.30977,-47.94949 -28.25951,-47.9632 z"
       inkscape:connector-curvature="0"
       sodipodi:nodetypes="ccssssssssssssssssssccssssssssscsssssssssscscsssssssscccssssssssscsssssssssssscsssssssscc" />
  </g>
</svg>
