<?xml version="1.0" encoding="UTF-8" standalone="no"?>
<svg
   xmlns:dc="http://purl.org/dc/elements/1.1/"
   xmlns:cc="http://creativecommons.org/ns#"
   xmlns:rdf="http://www.w3.org/1999/02/22-rdf-syntax-ns#"
   xmlns:svg="http://www.w3.org/2000/svg"
   xmlns="http://www.w3.org/2000/svg"
   xmlns:sodipodi="http://sodipodi.sourceforge.net/DTD/sodipodi-0.dtd"
   xmlns:inkscape="http://www.inkscape.org/namespaces/inkscape"
   id="wugTree1"
   width="123.80623"
   height="133.94817"
   viewBox="0 0 225.10223 243.54212"
   version="1.1"
   inkscape:version="0.91 r"
   sodipodi:docname="treetest.svg"
   style="enable-background:new">
  <metadata
     id="metadata160">
    <rdf:RDF>
      <cc:Work
         rdf:about="">
        <dc:format>image/svg+xml</dc:format>
        <dc:type
           rdf:resource="http://purl.org/dc/dcmitype/StillImage" />
        <dc:title></dc:title>
      </cc:Work>
    </rdf:RDF>
  </metadata>
  <defs
     id="defs158">
    <linearGradient
       gradientUnits="userSpaceOnUse"
       id="linearGradient4266"
       x1="139.86024"
       y1="140.97804"
       x2="195.69746"
       y2="140.97804"
       gradientTransform="matrix(0.72894546,0,0,1.3718447,0,-10.909091)">
      <stop
         offset="0%"
         stop-color="#0655ff"
         style="-webkit-tap-highlight-color:rgba(0, 0, 0, 0);stop-color:#000000;stop-opacity:1"
         id="stop4268" />
      <stop
         offset="100%"
         stop-color="#0436a1"
         style="-webkit-tap-highlight-color: rgba(0, 0, 0, 0);"
         id="stop4270" />
    </linearGradient>
    <inkscape:perspective
       sodipodi:type="inkscape:persp3d"
       inkscape:vp_x="0 : 135 : 1"
       inkscape:vp_y="0 : 1000 : 0"
       inkscape:vp_z="250 : 135 : 1"
       inkscape:persp3d-origin="125 : 90 : 1"
       id="perspective3424" />
    <defs
       id="defs4441">
      <linearGradient
         id="00-_13ff04-_0a8e02"
         x1="80.525803"
         y1="67.289993"
         x2="225.97935"
         y2="67.289993"
         gradientTransform="matrix(0.78793906,0,0,1.2691337,0,-10.909091)"
         gradientUnits="userSpaceOnUse">
        <stop
           offset="0%"
           stop-color="#13ff04"
           style="-webkit-tap-highlight-color: rgba(0, 0, 0, 0);"
           id="stop4444" />
        <stop
           offset="100%"
           stop-color="#0a8e02"
           style="-webkit-tap-highlight-color: rgba(0, 0, 0, 0);"
           id="stop4446" />
      </linearGradient>
    </defs>
    <defs
       id="defs4125">
      <linearGradient
         id="710-_27ff0b-_158906"
         x1="50.055428"
         y1="238.16666"
         x2="144.38617"
         y2="238.16666"
         gradientTransform="matrix(1.2314719,0,0,0.81203642,0,-10.909091)"
         gradientUnits="userSpaceOnUse">
        <stop
           offset="0%"
           stop-color="#27ff0b"
           style="-webkit-tap-highlight-color: rgba(0, 0, 0, 0);"
           id="stop4128" />
        <stop
           offset="100%"
           stop-color="#158906"
           style="-webkit-tap-highlight-color: rgba(0, 0, 0, 0);"
           id="stop4130" />
      </linearGradient>
    </defs>
    <defs
       id="defs3809">
      <linearGradient
         id="1420-_33ff22-_20a215"
         x1="223.49814"
         y1="39.125912"
         x2="308.07242"
         y2="39.125912"
         gradientTransform="scale(0.45814883,2.1826969)"
         gradientUnits="userSpaceOnUse">
        <stop
           offset="0%"
           stop-color="#33ff22"
           style="-webkit-tap-highlight-color: rgba(0, 0, 0, 0);"
           id="stop3812" />
        <stop
           offset="100%"
           stop-color="#20a215"
           style="-webkit-tap-highlight-color: rgba(0, 0, 0, 0);"
           id="stop3814" />
      </linearGradient>
    </defs>
    <defs
       id="defs7">
      <linearGradient
         gradientTransform="matrix(0.72894546,0,0,1.3718447,0,-10.909091)"
         y2="140.97804"
         x2="195.69746"
         y1="140.97804"
         x1="139.86024"
         id="2130-_0655ff-_0436a1"
         gradientUnits="userSpaceOnUse">
        <stop
           id="stop10"
           style="-webkit-tap-highlight-color: rgba(0, 0, 0, 0);"
           stop-color="#0655ff"
           offset="0%" />
        <stop
           id="stop12"
           style="-webkit-tap-highlight-color: rgba(0, 0, 0, 0);"
           stop-color="#0436a1"
           offset="100%" />
      </linearGradient>
    </defs>
    <linearGradient
       gradientTransform="matrix(0.72894547,0,0,1.3718447,0.02859581,0.06507533)"
       y2="140.97804"
       x2="195.69746"
       y1="140.97804"
       x1="139.86024"
       id="2130-_0655ff-_0436a1-6"
       gradientUnits="userSpaceOnUse">
      <stop
         id="stop10-9"
         style="-webkit-tap-highlight-color: rgba(0, 0, 0, 0);"
         stop-color="#0655ff"
         offset="0%" />
      <stop
         id="stop12-6"
         style="-webkit-tap-highlight-color: rgba(0, 0, 0, 0);"
         stop-color="#0436a1"
         offset="100%" />
    </linearGradient>
    <linearGradient
       id="00-_13ff04-_0a8e02-2"
       x1="80.525803"
       y1="67.289993"
       x2="225.97935"
       y2="67.289993"
       gradientTransform="matrix(0.78793906,0,0,1.2691337,-14.1529,-21.107242)"
       gradientUnits="userSpaceOnUse">
      <stop
         offset="0%"
         stop-color="#13ff04"
         style="-webkit-tap-highlight-color: rgba(0, 0, 0, 0);"
         id="stop4444-9" />
      <stop
         offset="100%"
         stop-color="#0a8e02"
         style="-webkit-tap-highlight-color: rgba(0, 0, 0, 0);"
         id="stop4446-1" />
    </linearGradient>
    <linearGradient
       gradientTransform="matrix(0.72894546,0,0,1.3718447,0,-10.909091)"
       y2="140.97804"
       x2="195.69746"
       y1="140.97804"
       x1="139.86024"
       id="linearGradient4261"
       gradientUnits="userSpaceOnUse">
      <stop
         id="stop10-0"
         style="-webkit-tap-highlight-color: rgba(0, 0, 0, 0);"
         stop-color="#0655ff"
         offset="0%" />
      <stop
         id="stop12-62"
         style="-webkit-tap-highlight-color: rgba(0, 0, 0, 0);"
         stop-color="#0436a1"
         offset="100%" />
    </linearGradient>
    <linearGradient
       id="00-_13ff04-_0a8e02-9"
       x1="80.525803"
       y1="67.289993"
       x2="225.97935"
       y2="67.289993"
       gradientTransform="matrix(0.78793906,0,0,1.2691337,-14.1529,-22.219578)"
       gradientUnits="userSpaceOnUse">
      <stop
         offset="0%"
         stop-color="#13ff04"
         style="-webkit-tap-highlight-color: rgba(0, 0, 0, 0);"
         id="stop4444-2" />
      <stop
         offset="100%"
         stop-color="#0a8e02"
         style="-webkit-tap-highlight-color: rgba(0, 0, 0, 0);"
         id="stop4446-0" />
    </linearGradient>
    <linearGradient
       id="710-_27ff0b-_158906-9"
       x1="50.055428"
       y1="238.16666"
       x2="144.38617"
       y2="238.16666"
       gradientTransform="matrix(1.2314719,0,0,0.81203643,-16.253904,-22.861611)"
       gradientUnits="userSpaceOnUse">
      <stop
         offset="0%"
         stop-color="#27ff0b"
         style="-webkit-tap-highlight-color: rgba(0, 0, 0, 0);"
         id="stop4128-2" />
      <stop
         offset="100%"
         stop-color="#158906"
         style="-webkit-tap-highlight-color: rgba(0, 0, 0, 0);"
         id="stop4130-2" />
    </linearGradient>
  </defs>
  <sodipodi:namedview
     pagecolor="#ffffff"
     bordercolor="#666666"
     borderopacity="1"
     objecttolerance="10"
     gridtolerance="10"
     guidetolerance="10"
     inkscape:pageopacity="0"
     inkscape:pageshadow="2"
     inkscape:window-width="1436"
     inkscape:window-height="861"
     id="namedview156"
     showgrid="false"
     inkscape:zoom="4"
     inkscape:cx="85.492013"
     inkscape:cy="68.533607"
     inkscape:window-x="0"
     inkscape:window-y="1458"
     inkscape:window-maximized="0"
     inkscape:current-layer="g3420"
     fit-margin-top="0"
     fit-margin-left="0"
     fit-margin-right="0"
     fit-margin-bottom="0" />
  <g
     inkscape:groupmode="layer"
     id="layer1"
     inkscape:label="00"
     style="display:inline"
     transform="translate(-4.2006413,-5.4144548)">
    <path
       id="branches-00"
       style="display:inline;opacity:1;fill:#ffaaaa;stroke:#000000;stroke-width:1.72145689"
       d="m 101.31375,193.06422 c -2.582183,-2.58218 -5.164365,-6.0251 -8.607274,-6.88584 -6.885828,-2.58219 -14.632385,0 -18.936027,5.16437 -3.442913,5.16438 -4.303642,12.91094 0,18.07531 2.582186,2.58219 6.885828,4.30364 10.328742,3.4429 3.442914,-0.86071 6.025095,-5.16437 5.164372,-8.60727 0,-2.58219 -2.582186,-5.16438 -5.164372,-4.30364 -1.721457,0 -3.442914,2.58219 -2.582185,4.30364 0,0.86072 2.582185,1.72145 2.582185,0 m 21.432129,-22.63716 c 0,-1.72145 -0.86072,-4.30364 -1.72145,-6.02511 -3.4429,-6.88583 -8.607281,-12.91092 -15.493109,-14.63238 -5.164371,-1.72146 -11.189471,-0.86072 -15.493113,1.72146 -3.442914,1.72145 -6.885827,6.02509 -6.885827,10.32874 0,4.30365 4.303642,8.60729 8.607284,7.74655 3.442915,0 6.885828,-4.30364 6.0251,-7.74655 0,-3.44291 -4.303643,-6.0251 -7.746557,-4.30365 -2.582185,0.86074 -3.442914,4.30365 -1.721457,6.88583 1.721457,1.72147 4.303643,1.72147 5.164371,-0.86072 0.860728,-1.72146 -0.860728,-3.44292 -2.582186,-3.44292 -1.721456,0 -1.721456,3.44292 0,2.58219 m 31.846944,7.74656 c -0.86072,-12.91094 0.86074,-30.12551 11.18948,-37.87205 3.44291,-2.58219 9.46802,-5.16437 14.63239,-4.30366 6.88582,1.72147 12.91091,6.88585 11.18946,14.63239 -0.86073,6.02511 -6.88582,10.32874 -12.91093,9.46801 -4.30364,-0.86072 -7.74654,-5.16436 -6.88583,-9.46801 0.86074,-3.44291 4.30365,-6.02509 7.74656,-5.16437 2.58219,0.86073 4.30364,2.58218 3.44293,5.16437 -0.86074,1.72147 -1.72147,2.58218 -3.44293,2.58218 -0.86073,0 -1.72145,-1.72145 -0.86073,-2.58218 0,-0.86072 0.86073,-0.86072 1.72147,-0.86072 m -17.98924,33.22412 c 4.30365,-6.88584 11.18949,-13.77167 19.79676,-16.35385 14.63239,-5.16437 31.84696,1.72147 37.87205,15.49312 3.44292,6.88582 2.58219,16.35384 -1.72145,22.37895 -2.58219,4.30363 -8.60728,6.02509 -13.77165,3.4429 -5.16438,-1.72145 -9.46801,-7.74656 -7.74656,-12.91092 0.86073,-4.30365 6.88582,-7.74656 11.18946,-5.16437 3.44292,1.72145 6.02511,6.88582 2.58219,9.46801 -2.58219,2.58219 -6.88583,0.86072 -6.88583,-2.58219 -0.86072,-3.44292 5.16438,-2.58218 3.44293,0 m -42.34785,2.49612 c 18.93602,-16.35385 34.42914,-2.58219 34.42914,17.21457 -1.72146,9.46801 -9.46801,17.21456 -18.93602,15.4931 -6.88584,-0.86073 -12.91094,-8.60727 -11.18949,-16.35383 0.86074,-6.02511 6.88583,-11.18947 12.0502,-9.46801 4.30365,0.86071 7.74656,5.16437 6.88583,10.32874 -0.86072,3.44291 -4.30364,6.02509 -6.88583,5.16436 -1.72145,-0.86072 -3.4429,-2.58219 -2.58218,-5.16436 0.86073,-0.86073 1.72147,-2.58218 3.44292,-1.72147"
       inkscape:connector-curvature="0" />
    <path
       id="fruits-00"
       style="opacity:1;fill:#ff0000;stroke:#000000;stroke-width:1.72145689"
       d="m 121.43021,144.54919 a 3.8732782,3.8732782 0 0 1 -3.87328,3.87328 3.8732782,3.8732782 0 0 1 -3.87328,-3.87328 3.8732782,3.8732782 0 0 1 3.87328,-3.87328 3.8732782,3.8732782 0 0 1 3.87328,3.87328 z m -50.400974,18.3701 a 3.8732782,3.8732782 0 0 1 -3.873278,3.87328 3.8732782,3.8732782 0 0 1 -3.873279,-3.87328 3.8732782,3.8732782 0 0 1 3.873279,-3.87327 3.8732782,3.8732782 0 0 1 3.873278,3.87327 z m 10.807452,-2.877 a 3.8732782,3.8732782 0 0 1 -3.873279,3.87328 3.8732782,3.8732782 0 0 1 -3.873278,-3.87328 3.8732782,3.8732782 0 0 1 3.873278,-3.87328 3.8732782,3.8732782 0 0 1 3.873279,3.87328 z m 29.264772,-11.18946 a 3.8732782,3.8732782 0 0 1 -3.87328,3.87328 3.8732782,3.8732782 0 0 1 -3.87328,-3.87328 3.8732782,3.8732782 0 0 1 3.87328,-3.87328 3.8732782,3.8732782 0 0 1 3.87328,3.87328 z m 35.12495,-0.0237 a 3.8732782,3.8732782 0 0 1 -3.87328,3.87328 3.8732782,3.8732782 0 0 1 -3.87328,-3.87328 3.8732782,3.8732782 0 0 1 3.87328,-3.87328 3.8732782,3.8732782 0 0 1 3.87328,3.87328 z m -12.2436,0.95269 a 3.8732782,3.8732782 0 0 1 -3.87328,3.87328 3.8732782,3.8732782 0 0 1 -3.87326,-3.87328 3.8732782,3.8732782 0 0 1 3.87326,-3.87328 3.8732782,3.8732782 0 0 1 3.87328,3.87328 z m 23.59799,18.4953 a 3.8732782,3.8732782 0 0 1 -3.87328,3.87327 3.8732782,3.8732782 0 0 1 -3.87328,-3.87327 3.8732782,3.8732782 0 0 1 3.87328,-3.87328 3.8732782,3.8732782 0 0 1 3.87328,3.87328 z m -11.28617,0.95267 a 3.8732782,3.8732782 0 0 1 -3.87328,3.87327 3.8732782,3.8732782 0 0 1 -3.87328,-3.87327 3.8732782,3.8732782 0 0 1 3.87328,-3.87328 3.8732782,3.8732782 0 0 1 3.87328,3.87328 z m 5.99078,25.6757 a 3.8732782,3.8732782 0 0 1 -3.87328,3.87327 3.8732782,3.8732782 0 0 1 -3.87328,-3.87327 3.8732782,3.8732782 0 0 1 3.87328,-3.87328 3.8732782,3.8732782 0 0 1 3.87328,3.87328 z m 10.25576,-4.31312 a 3.8732782,3.8732782 0 0 1 -3.87328,3.87327 3.8732782,3.8732782 0 0 1 -3.87328,-3.87327 3.8732782,3.8732782 0 0 1 3.87328,-3.87328 3.8732782,3.8732782 0 0 1 3.87328,3.87328 z M 96.93242,207.2539 a 3.8732782,3.8732782 0 0 1 -3.87328,3.87328 3.8732782,3.8732782 0 0 1 -3.873273,-3.87328 3.8732782,3.8732782 0 0 1 3.873273,-3.87328 3.8732782,3.8732782 0 0 1 3.87328,3.87328 z m -8.413908,7.1759 a 3.8732782,3.8732782 0 0 1 -3.873276,3.87328 3.8732782,3.8732782 0 0 1 -3.873278,-3.87328 3.8732782,3.8732782 0 0 1 3.873278,-3.87328 3.8732782,3.8732782 0 0 1 3.873276,3.87328 z m 52.622358,-7.47773 a 3.8732782,3.8732782 0 0 1 -3.87328,3.87328 3.8732782,3.8732782 0 0 1 -3.87328,-3.87328 3.8732782,3.8732782 0 0 1 3.87328,-3.87328 3.8732782,3.8732782 0 0 1 3.87328,3.87328 z m -10.32873,4.30365 a 3.8732782,3.8732782 0 0 1 -3.87328,3.87327 3.8732782,3.8732782 0 0 1 -3.87328,-3.87327 3.8732782,3.8732782 0 0 1 3.87328,-3.87328 3.8732782,3.8732782 0 0 1 3.87328,3.87328 z"
       inkscape:connector-curvature="0" />
    <path
       style="display:inline;opacity:1;fill:#ff0000;fill-rule:evenodd;stroke:#000000;stroke-width:1.73650527px;stroke-linecap:butt;stroke-linejoin:miter;stroke-opacity:1;enable-background:new"
       d="m 94.46043,246.30024 30.45503,0.37598 c -9.66559,-7.63315 -12.63463,-20.79537 -9.39971,-44.36658 -3.93395,1.26963 -6.37766,1.81493 -2.25593,-16.16748 -6.83582,13.17582 -7.21308,0.65387 -8.27173,-8.64772 1.4343,12.22388 -0.48426,15.92074 -3.42951,15.48002 4.25448,10.7923 4.93581,33.54166 -7.09815,53.32578 z"
       id="trunk-00"
       inkscape:connector-curvature="0"
       sodipodi:nodetypes="ccccccc"
       inkscape:label="#trunk-00" />
    <path
       id="target2-00"
       style="display:inline;fill:#aa0000;stroke:#000000;stroke-width:1.53583825;enable-background:new"
       d="m 160.55255,141.36941 c -6.80889,1.00371 -10.54186,5.3215 -10.54186,5.3215 -3.619,9.20793 1.57735,15.2392 9.22771,9.94221 1.80163,-3.00884 3.39544,-10.48789 1.31415,-15.26371 z M 42.570262,164.20063 c 4.865052,-4.86822 10.557116,-5.29116 10.557116,-5.29116 9.550207,2.58389 11.294609,10.35147 2.480977,13.33578 -3.48975,-0.34731 -10.44457,-3.52645 -13.038093,-8.04462 z m 69.040098,-6.33442 c 6.80889,1.00371 10.54186,5.32151 10.54186,5.32151 3.619,9.20792 -1.57735,15.23919 -9.22771,9.9422 -1.80163,-3.00883 -3.39544,-10.48789 -1.31415,-15.26371 z m 28.19955,29.39793 c -1.47959,-6.72154 -6.04898,-10.14193 -6.04898,-10.14193 -9.43943,-2.96315 -15.09072,2.64409 -9.26935,9.9034 3.12799,1.58578 10.70054,2.65022 15.31833,0.23853 z m 22.42545,27.43503 c -4.86506,-4.86823 -10.55712,-5.29117 -10.55712,-5.29117 -9.55021,2.58389 -11.29461,10.35147 -2.48098,13.33578 3.48975,-0.34731 10.44457,-3.52645 13.0381,-8.04461 z m -11.22226,24.03744 c 0.98961,-6.81094 -2.07733,-11.62471 -2.07733,-11.62471 -7.78464,-6.10594 -15.05208,-2.85591 -12.16961,5.99155 2.36635,2.58831 9.07499,6.25856 14.24694,5.63316 z M 83.375079,135.98362 c -5.70334,3.85231 -7.199269,9.36053 -7.199269,9.36053 0.723708,9.86708 8.018829,13.05449 12.62218,4.96776 0.321568,-3.49221 -1.47932,-10.92412 -5.422911,-14.32829 z m -21.255125,3.64928 c 6.808884,1.00371 10.541854,5.3215 10.541854,5.3215 3.619,9.20793 -1.577349,15.23919 -9.227705,9.94221 -1.80163,-3.00884 -3.395445,-10.48789 -1.314149,-15.26371 z m 115.987276,53.33838 c 1.40842,-6.73682 -1.35533,-11.73082 -1.35533,-11.73082 -7.39263,-6.57512 -14.84694,-3.78019 -12.51646,5.22841 2.20196,2.72953 8.67108,6.80714 13.87179,6.50241 z m 1.22234,-31.41417 c -6.26881,-2.84085 -11.74459,-1.23022 -11.74459,-1.23022 -8.02642,5.78442 -6.92083,13.66833 2.37903,13.35433 3.14333,-1.55513 8.53113,-6.98174 9.36556,-12.12411 z M 54.776771,215.25796 c -1.408418,-6.73681 1.355334,-11.73082 1.355334,-11.73082 7.392624,-6.57512 14.846936,-3.78019 12.516457,5.22841 -2.20196,2.72954 -8.671082,6.80715 -13.871791,6.50241 z M 53.554428,183.8438 c 6.268808,-2.84085 11.7446,-1.23023 11.7446,-1.23023 8.026422,5.78443 6.920824,13.66833 -2.379036,13.35434 -3.143336,-1.55513 -8.531132,-6.98174 -9.365564,-12.12411 z m 74.004512,-65.04897 c -6.80888,1.00371 -10.54185,5.3215 -10.54185,5.3215 -3.619,9.20792 1.57735,15.2392 9.2277,9.94221 1.80163,-3.00884 3.39545,-10.48789 1.31415,-15.26371 z m -26.30176,5.46228 c 6.80889,1.00371 10.54186,5.3215 10.54186,5.3215 3.619,9.20793 -1.57735,15.23919 -9.22771,9.94221 -1.80163,-3.00884 -3.395442,-10.48789 -1.31415,-15.26371 z"
       inkscape:connector-curvature="0" />
  </g>
  <g
     style="display:inline"
     inkscape:label="10"
     id="g3410"
     inkscape:groupmode="layer"
     transform="translate(-4.2006413,-5.4144548)">
    <path
       style="display:inline;opacity:0.50839999;fill:#008000;fill-rule:evenodd;stroke:#000000;stroke-width:1.73650527px;stroke-linecap:butt;stroke-linejoin:miter;stroke-opacity:1;enable-background:new"
       d="m 48.531765,245.69169 104.927795,0.55041 c -18.93018,0.0331 -49.7776,-18.69477 -32.51569,-48.80157 -7.51361,1.22618 -24.229924,5.76874 -7.99376,-16.9812 -10.69842,9.88084 -29.778267,6.64422 -26.550803,-4.65159 0.284453,8.32053 -11.002142,11.50854 -14.793361,11.22363 34.441664,24.9606 -7.907251,48.87778 -23.074181,58.66032 z"
       id="trunk-10"
       inkscape:connector-curvature="0"
       sodipodi:nodetypes="ccccccc"
       inkscape:label="#trunk-10" />
    <path
       id="branches-00-7"
       style="display:inline;opacity:0.50839999;fill:#00ff00;stroke:#000000;stroke-width:1.72145689;enable-background:new"
       d="m 70.616387,186.61776 c -2.582186,-2.58217 -5.16437,-6.0251 -8.607278,-6.88583 -6.885828,-2.58219 -14.632385,0 -18.936027,5.16437 -3.442914,5.16438 -4.303642,12.91094 0,18.07531 2.582186,2.58219 6.885828,4.30364 10.328742,3.4429 3.442913,-0.86071 6.025095,-5.16437 5.164372,-8.60727 0,-2.58219 -2.582187,-5.16438 -5.164372,-4.30364 -1.721457,0 -3.442914,2.58219 -2.582186,4.30364 0,0.86072 2.582186,1.72145 2.582186,0 m 32.790155,-21.40926 c 0,-1.72145 -0.860716,-4.30364 -1.721451,-6.02511 -3.442903,-6.88582 -8.60728,-12.91091 -15.493109,-14.63237 -5.164372,-1.72146 -11.189471,-0.86073 -15.493113,1.72146 -3.442914,1.72145 -6.885827,6.02509 -6.885827,10.32874 0,4.30364 4.303642,8.60728 8.607284,7.74655 3.442915,0 6.885828,-4.30364 6.0251,-7.74655 0,-3.44292 -4.303643,-6.0251 -7.746557,-4.30365 -2.582185,0.86073 -3.442914,4.30365 -1.721457,6.88582 1.721457,1.72147 4.303643,1.72147 5.164371,-0.86071 0.860728,-1.72146 -0.860728,-3.44293 -2.582186,-3.44293 -1.721456,0 -1.721456,3.44293 0,2.58219 m 31.846945,7.74656 c -0.860716,-12.91093 0.860736,-30.12551 11.18948,-37.87205 3.442901,-2.58218 9.468011,-5.16437 14.632381,-4.30365 6.88583,1.72147 12.91092,6.88584 11.18947,14.63238 -0.86074,6.02511 -6.88583,10.32875 -12.91094,9.46801 -4.30363,-0.86071 -7.74654,-5.16435 -6.88582,-9.46801 0.86073,-3.4429 4.30365,-6.02509 7.74656,-5.16436 2.58219,0.86072 4.30364,2.58217 3.44292,5.16436 -0.86073,1.72147 -1.72147,2.58219 -3.44292,2.58219 -0.86074,0 -1.72145,-1.72145 -0.86074,-2.58219 0,-0.86071 0.86074,-0.86071 1.72147,-0.86071 m -0.18475,33.22411 c 4.30364,-6.88585 19.47777,-20.21812 28.08504,-22.80031 14.63239,-5.16436 41.36315,-3.49707 47.38824,10.27458 3.44292,6.88582 2.58219,16.35383 -1.72145,22.37894 -2.58219,4.30364 -8.60728,6.02509 -13.77165,3.44291 -5.16438,-1.72146 -9.46801,-7.74656 -7.74656,-12.91092 0.86073,-4.30366 6.88582,-7.74656 11.18946,-5.16437 3.44292,1.72145 6.02511,6.88582 2.58219,9.46801 -2.58219,2.58219 -6.88583,0.86072 -6.88583,-2.58219 -0.86072,-3.44292 5.16438,-2.58218 3.44292,0 m -52.78496,13.54717 c 18.93603,-16.35385 34.42915,-2.58219 34.42915,17.21457 -1.72146,9.46802 -9.46801,17.21456 -18.93602,15.49311 -6.88584,-0.86074 -12.91094,-8.60728 -11.18949,-16.35384 0.86074,-6.02511 6.88583,-11.18946 12.0502,-9.46801 4.30365,0.86071 7.74656,5.16437 6.88583,10.32874 -0.86072,3.44291 -4.30364,6.02509 -6.88583,5.16436 -1.72145,-0.86072 -3.4429,-2.58219 -2.58218,-5.16436 0.86073,-0.86073 1.72147,-2.58218 3.44292,-1.72147"
       inkscape:connector-curvature="0"
       sodipodi:nodetypes="ccccscccccsccscccccsccsccccccsccccccccccccccccccccc" />
    <path
       id="fruits-00-1"
       style="display:inline;opacity:0.50839999;fill:#a4fb05;stroke:#000000;stroke-width:1.72145689;enable-background:new"
       d="m 100.98108,138.16934 c 0,2.13915 -1.734124,3.87328 -3.873279,3.87328 -2.139156,0 -3.873283,-1.73413 -3.873282,-3.87328 -1e-6,-2.13916 1.734126,-3.87328 3.873282,-3.87328 2.139155,0 3.873279,1.73412 3.873279,3.87328 z m -49.480055,19.59799 c 2e-6,2.13916 -1.734125,3.87328 -3.87328,3.87328 -2.13915,0 -3.873272,-1.73412 -3.873271,-3.87328 5e-6,-2.13914 1.734125,-3.87327 3.873271,-3.87327 2.139151,0 3.873277,1.73412 3.87328,3.87327 z m 10.807452,-2.877 c 2e-6,2.13916 -1.734126,3.87328 -3.87328,3.87328 -2.13915,0 -3.873272,-1.73412 -3.873271,-3.87328 -10e-7,-2.13915 1.734121,-3.87328 3.873271,-3.87328 2.139154,0 3.873282,1.73413 3.87328,3.87328 z m 28.343855,-12.41736 c 10e-7,2.13916 -1.734129,3.87328 -3.873284,3.87328 -2.139154,0 -3.873282,-1.73412 -3.873281,-3.87328 -10e-7,-2.13915 1.734127,-3.87328 3.873281,-3.87328 2.139155,0 3.873285,1.73413 3.873284,3.87328 z m 28.678498,3.04605 c 0,2.13916 -1.73412,3.87328 -3.87328,3.87328 -2.13915,0 -3.87328,-1.73412 -3.87328,-3.87328 0,-2.13915 1.73413,-3.87328 3.87328,-3.87328 2.13916,0 3.87328,1.73413 3.87328,3.87328 z m -12.24359,0.95269 c 0,2.13916 -1.73413,3.87328 -3.87328,3.87328 -2.13915,-1e-5 -3.873263,-1.73413 -3.873263,-3.87328 0,-2.13914 1.734113,-3.87327 3.873263,-3.87328 2.13915,0 3.87328,1.73413 3.87328,3.87328 z m 53.98838,7.75122 c -10e-6,2.13915 -1.73413,3.87328 -3.87328,3.87328 -2.13915,0 -3.87328,-1.73413 -3.87328,-3.87328 0,-2.13915 1.73413,-3.87328 3.87328,-3.87328 2.13916,0 3.87328,1.73413 3.87328,3.87328 z m -11.28617,0.95268 c -10e-6,2.13914 -1.73414,3.87327 -3.87328,3.87327 -2.13916,0 -3.87328,-1.73413 -3.87328,-3.87327 0,-2.13916 1.73412,-3.87328 3.87328,-3.87328 2.13915,0 3.87328,1.73412 3.87328,3.87328 z m 15.81394,22.29898 c -1e-5,2.13916 -1.73413,3.87327 -3.87328,3.87327 -2.13915,0 -3.87328,-1.73411 -3.87328,-3.87327 0,-2.13915 1.73413,-3.87328 3.87328,-3.87328 2.13916,0 3.87328,1.73413 3.87328,3.87328 z m 10.25576,-4.31312 c -1e-5,2.13916 -1.73413,3.87327 -3.87328,3.87327 -2.13915,0 -3.87328,-1.73411 -3.87328,-3.87327 0,-2.13915 1.73413,-3.87328 3.87328,-3.87328 2.13916,0 3.87328,1.73413 3.87328,3.87328 z M 64.81829,203.63681 c 10e-7,2.13916 -1.734127,3.87328 -3.87328,3.87328 -2.139151,0 -3.873273,-1.73412 -3.873271,-3.87328 -2e-6,-2.13914 1.73412,-3.87327 3.873271,-3.87328 2.139153,0 3.873281,1.73413 3.87328,3.87328 z m -8.413902,7.1759 c 1e-6,2.13916 -1.734127,3.87328 -3.873281,3.87328 -2.139154,0 -3.873282,-1.73412 -3.87328,-3.87328 -2e-6,-2.13915 1.734126,-3.87328 3.87328,-3.87328 2.139154,0 3.873282,1.73413 3.873281,3.87328 z m 84.547612,-9.0126 c 0,2.13916 -1.73413,3.87328 -3.87328,3.87328 -2.13915,0 -3.87327,-1.73412 -3.87327,-3.87328 0,-2.13915 1.73412,-3.87328 3.87327,-3.87328 2.13915,0 3.87328,1.73413 3.87328,3.87328 z m -10.32873,4.30365 c 0,2.13915 -1.73412,3.87327 -3.87328,3.87327 -2.13914,0 -3.87327,-1.73412 -3.87328,-3.87327 0,-2.13915 1.73413,-3.87328 3.87328,-3.87328 2.13916,0 3.87328,1.73413 3.87328,3.87328 z"
       inkscape:connector-curvature="0"
       sodipodi:nodetypes="ssssssssssssssssssssssssssssssssssssssssssssssssssssssssssssssssssssss" />
    <path
       inkscape:connector-curvature="0"
       id="target2-10"
       style="display:inline;opacity:0.4;fill:#008000;stroke:#000000;stroke-width:1.53583825;enable-background:new"
       d="m 175.31285,136.59402 c -6.80889,1.00371 -10.54186,5.3215 -10.54186,5.3215 -3.619,9.20793 1.57735,15.2392 9.22771,9.94221 1.80163,-3.00884 3.39544,-10.48789 1.31415,-15.26371 z M 23.468703,162.46413 c 4.865052,-4.86822 10.557116,-5.29116 10.557116,-5.29116 9.550208,2.58389 11.294609,10.35147 2.480977,13.33577 -3.48975,-0.3473 -10.44457,-3.52644 -13.038093,-8.04461 z m 77.288497,-1.99316 c 6.80889,1.00371 10.54186,5.3215 10.54186,5.3215 3.619,9.20793 -1.57735,15.2392 -9.22771,9.94221 -1.80163,-3.00884 -3.395445,-10.48789 -1.31415,-15.26371 z m 33.40907,27.2273 c -1.47959,-6.72154 -6.04898,-10.14193 -6.04898,-10.14193 -9.43943,-2.96315 -15.09072,2.64409 -9.26935,9.9034 3.12799,1.58578 10.70053,2.65022 15.31833,0.23853 z m 42.82939,28.7374 c -4.86506,-4.86822 -10.55712,-5.29116 -10.55712,-5.29116 -9.55021,2.58389 -11.29461,10.35147 -2.48098,13.33577 3.48975,-0.3473 10.44457,-3.52644 13.0381,-8.04461 z m -11.22227,24.03745 c 0.98962,-6.81095 -2.07732,-11.62471 -2.07732,-11.62471 -7.78464,-6.10594 -15.05208,-2.85592 -12.16961,5.99154 2.36635,2.58831 9.07499,6.25856 14.24693,5.63317 z M 64.27352,134.24712 c -5.70334,3.8523 -7.19927,9.36052 -7.19927,9.36052 0.723709,9.86709 8.018831,13.0545 12.622181,4.96777 0.321568,-3.49222 -1.47932,-10.92413 -5.422911,-14.32829 z m -21.255125,3.64927 c 6.808884,1.00371 10.541855,5.32151 10.541855,5.32151 3.619,9.20792 -1.57735,15.23919 -9.227706,9.9422 -1.801629,-3.00883 -3.395444,-10.48789 -1.314149,-15.26371 z m 162.004675,55.50902 c 1.40841,-6.73682 -1.35534,-11.73082 -1.35534,-11.73082 -7.39262,-6.57512 -14.84694,-3.78019 -12.51645,5.22841 2.20196,2.72953 8.67107,6.80714 13.87179,6.50241 z m -0.9483,-37.49194 c -6.26881,-2.84085 -11.74459,-1.23023 -11.74459,-1.23023 -8.02642,5.78443 -6.92083,13.66833 2.37903,13.35434 3.14333,-1.55513 8.53113,-6.98174 9.36556,-12.12411 z m -180.555095,54.5691 c -1.408418,-6.73681 1.355334,-11.73082 1.355334,-11.73082 7.392625,-6.57512 14.846936,-3.78019 12.516458,5.22841 -2.201959,2.72954 -8.671082,6.80715 -13.871792,6.50241 z m -1.222343,-31.41416 c 6.268809,-2.84085 11.744601,-1.23023 11.744601,-1.23023 8.026422,5.78443 6.920824,13.66833 -2.379035,13.35434 -3.143337,-1.55513 -8.531133,-6.98174 -9.365566,-12.12411 z m 86.594178,-66.35136 c -6.80888,1.00371 -10.54185,5.32151 -10.54185,5.32151 -3.619004,9.20792 1.577349,15.2392 9.2277,9.94221 1.80164,-3.00884 3.39545,-10.4879 1.31415,-15.26372 z m -26.301757,5.46229 c 6.808884,1.00371 10.541854,5.3215 10.541854,5.3215 3.619004,9.20792 -1.577349,15.23919 -9.227705,9.94221 -1.80163,-3.00884 -3.395445,-10.4879 -1.314149,-15.26371 z"
       sodipodi:nodetypes="cccccccccccccccccccccccccccccccccccccccccccccccccccccccc" />
  </g>
  <g
     style="display:inline"
     inkscape:label="01"
     id="g3510"
     inkscape:groupmode="layer"
     transform="translate(-4.2006413,-5.4144548)">
    <path
       style="display:inline;opacity:0.4;fill:#000080;fill-rule:evenodd;stroke:#000000;stroke-width:1.73650527px;stroke-linecap:butt;stroke-linejoin:miter;stroke-opacity:1;enable-background:new"
       d="m 89.68504,247.16849 36.5328,0.37599 c -13.13458,-2.12426 -18.33059,-92.83593 -12.82005,-119.39518 -6.38096,14.45021 -6.42167,-27.17165 -1.94896,-45.443568 -7.79391,32.981838 -7.69038,14.40327 -7.80035,-12.122616 1.50662,12.23827 0.34559,39.298954 -5.80631,32.145734 4.47889,9.72415 6.40009,106.84448 -8.15713,144.43964 z"
       id="trunk-01"
       inkscape:connector-curvature="0"
       sodipodi:nodetypes="ccccccc"
       inkscape:label="#trunk-01" />
    <path
       id="branches-00-3"
       style="display:inline;opacity:0.4;fill:#00ffff;stroke:#000000;stroke-width:1.72145689;enable-background:new"
       d="m 97.630066,103.12093 c -2.582183,-2.58217 -5.164366,-6.025096 -8.607275,-6.885832 -6.885828,-2.582186 -14.632385,0 -18.936027,5.164372 -3.442913,5.16438 -4.303642,12.91094 0,18.07531 2.582186,2.58219 6.885828,4.30364 10.328743,3.44291 3.442912,-0.86072 6.025094,-5.16438 5.164372,-8.60728 0,-2.58219 -2.582187,-5.16437 -5.164372,-4.30364 -1.721457,0 -3.442915,2.58219 -2.582186,4.30364 0,0.86073 2.582186,1.72145 2.582186,0 M 103.99645,73.254825 c 0,-1.721452 -0.86071,-4.303639 -1.72145,-6.025109 C 98.832098,60.34389 93.667721,54.3188 86.781892,52.597339 81.61752,50.875878 75.592421,51.736614 71.288778,54.3188 c -3.442913,1.721452 -6.885827,6.02509 -6.885827,10.328738 0,4.303648 4.303643,8.607287 8.607285,7.746551 3.442914,0 6.885828,-4.303638 6.025099,-7.746551 0,-3.442912 -4.303642,-6.025099 -7.746557,-4.303648 -2.582184,0.860736 -3.442913,4.303648 -1.721457,6.885826 1.721457,1.72147 4.303643,1.72147 5.164372,-0.860717 0.860728,-1.721461 -0.860729,-3.442922 -2.582186,-3.442922 -1.721456,0 -1.721456,3.442922 0,2.582187 m 31.846943,7.746561 c -0.86071,-12.910935 0.86074,-30.125507 11.18949,-37.872049 3.4429,-2.582187 9.46801,-5.164373 14.63238,-4.303657 6.88583,1.72147 12.91092,6.885844 11.18947,14.632386 -0.86074,6.025109 -6.88583,10.328747 -12.91094,9.468012 -4.30364,-0.860717 -7.74654,-5.164355 -6.88582,-9.468012 0.86073,-3.442903 4.30364,-6.02509 7.74656,-5.164365 2.58218,0.860726 4.30363,2.582178 3.44292,5.164365 -0.86074,1.72147 -1.72147,2.582186 -3.44292,2.582186 -0.86074,0 -1.72146,-1.721451 -0.86074,-2.582186 0,-0.860717 0.86074,-0.860717 1.72147,-0.860717 m -18.60318,39.056623 c 4.30365,-13.375534 16.40803,-22.901753 25.01531,-24.642145 14.63238,-5.164364 28.77722,-0.734318 34.80231,13.037333 3.44292,6.885825 2.58219,16.353837 -1.72145,22.378946 -2.58219,4.303638 -8.60728,6.025085 -13.77165,3.442903 -5.16438,-1.721452 -9.46801,-7.746561 -7.74656,-12.910915 0.86073,-4.303658 6.88582,-7.746561 11.18946,-5.164374 3.44292,1.721452 6.02511,6.885825 2.58219,9.468012 -2.58219,2.582187 -6.88583,0.860716 -6.88583,-2.582187 -0.86072,-3.442922 5.16438,-2.582187 3.44293,0 m -44.49667,41.481766 c 15.75138,-28.455459 40.66842,-13.74513 38.4198,9.84721 -1.72146,9.46801 -9.46801,17.21455 -18.93602,15.4931 -6.88584,-0.86074 -12.91094,-8.60728 -11.18949,-16.35384 0.86074,-6.02511 6.88583,-11.18946 12.0502,-9.46801 4.30365,0.86071 7.74656,5.16437 6.88583,10.32875 -0.86072,3.4429 -4.30364,6.02509 -6.88583,5.16435 -1.72145,-0.86072 -3.4429,-2.58219 -2.58218,-5.16435 0.86073,-0.86074 1.72147,-2.58219 3.44292,-1.72148"
       inkscape:connector-curvature="0"
       sodipodi:nodetypes="ccccscccccsccscccccsccsccccccsccccccccccccccccccccc" />
    <path
       id="fruits-00-2"
       style="display:inline;opacity:0.4;fill:#0000ff;stroke:#000000;stroke-width:1.72145689;enable-background:new"
       d="m 122.6581,32.503803 c 0,2.139154 -1.73412,3.873281 -3.87328,3.87328 -2.13915,1e-6 -3.87328,-1.734126 -3.87328,-3.87328 0,-2.139154 1.73413,-3.873281 3.87328,-3.87328 2.13916,-1e-6 3.87328,1.734126 3.87328,3.87328 z M 73.178051,53.943642 c 10e-7,2.139153 -1.734124,3.87328 -3.873278,3.87328 -2.139153,0 -3.873279,-1.734127 -3.873278,-3.87328 4e-6,-2.13915 1.734129,-3.873271 3.873278,-3.873271 2.13915,0 3.873275,1.734121 3.873278,3.873271 z m 10.807452,-2.877 c 1e-6,2.139153 -1.734124,3.87328 -3.873278,3.87328 -2.139153,0 -3.87328,-1.734127 -3.873279,-3.87328 -10e-7,-2.139154 1.734126,-3.873281 3.873279,-3.873281 2.139154,0 3.873279,1.734127 3.873278,3.873281 z M 112.32935,36.807441 c 0,2.139154 -1.73412,3.873281 -3.87328,3.873281 -2.13915,0 -3.87328,-1.734127 -3.87328,-3.873281 0,-2.139154 1.73413,-3.873281 3.87328,-3.87328 2.13916,-1e-6 3.87328,1.734126 3.87328,3.87328 z m 33.89706,2.739078 c 0,2.139154 -1.73413,3.873281 -3.87328,3.87328 -2.13916,1e-6 -3.87328,-1.734126 -3.87328,-3.87328 0,-2.139155 1.73412,-3.873282 3.87328,-3.873281 2.13915,-10e-7 3.87328,1.734126 3.87328,3.873281 z m -12.2436,0.95269 c 0,2.139154 -1.73412,3.873281 -3.87328,3.87328 -2.13914,-9e-6 -3.87326,-1.734134 -3.87326,-3.87328 0,-2.139147 1.73412,-3.873272 3.87326,-3.87328 2.13916,-2e-6 3.87328,1.734125 3.87328,3.87328 z m 17.45852,16.653452 c -1e-5,2.13915 -1.73413,3.873272 -3.87328,3.873271 -2.13915,1e-6 -3.87328,-1.734121 -3.87328,-3.873271 0,-2.139155 1.73413,-3.873282 3.87328,-3.87328 2.13916,-2e-6 3.87328,1.734125 3.87328,3.87328 z m -11.28617,0.952671 c -1e-5,2.13915 -1.73414,3.873272 -3.87328,3.873271 -2.13916,10e-7 -3.87328,-1.734121 -3.87328,-3.873271 0,-2.139155 1.73412,-3.873282 3.87328,-3.87328 2.13915,-2e-6 3.87328,1.734125 3.87328,3.87328 z m 8.75355,22.298993 c -1e-5,2.13915 -1.73414,3.873272 -3.87328,3.873271 -2.13916,10e-7 -3.87329,-1.734121 -3.87329,-3.873271 0,-2.139154 1.73413,-3.873281 3.87329,-3.87328 2.13915,-1e-6 3.87328,1.734126 3.87328,3.87328 z m 10.25576,-4.313122 c -1e-5,2.13915 -1.73414,3.873271 -3.87328,3.87327 -2.13916,10e-7 -3.87328,-1.73412 -3.87328,-3.87327 -1e-5,-2.139154 1.73412,-3.873282 3.87328,-3.873281 2.13915,-10e-7 3.87328,1.734127 3.87328,3.873281 z M 91.406894,118.23154 c 1e-6,2.13915 -1.734126,3.87328 -3.873278,3.87328 -2.139152,0 -3.873275,-1.73413 -3.873274,-3.87328 -10e-7,-2.13915 1.734122,-3.87328 3.873274,-3.87328 2.139152,0 3.873279,1.73413 3.873278,3.87328 z m -8.413909,7.1759 c 10e-7,2.13916 -1.734122,3.87328 -3.873274,3.87328 -2.139153,0 -3.87328,-1.73412 -3.873279,-3.87328 -10e-7,-2.13915 1.734126,-3.87328 3.873279,-3.87328 2.139152,0 3.873275,1.73413 3.873274,3.87328 z m 53.543275,0.81056 c 0,2.13915 -1.73412,3.87328 -3.87328,3.87328 -2.13915,0 -3.87327,-1.73413 -3.87327,-3.87328 0,-2.13916 1.73412,-3.87328 3.87327,-3.87328 2.13916,0 3.87328,1.73412 3.87328,3.87328 z m -10.32873,4.30364 c 0,2.13916 -1.73413,3.87328 -3.87328,3.87328 -2.13915,0 -3.87328,-1.73412 -3.87328,-3.87328 0,-2.13915 1.73413,-3.87328 3.87328,-3.87328 2.13916,0 3.87328,1.73413 3.87328,3.87328 z"
       inkscape:connector-curvature="0"
       sodipodi:nodetypes="ssssssssssssssssssssssssssssssssssssssssssssssssssssssssssssssssssssss" />
    <path
       inkscape:connector-curvature="0"
       id="target2-01"
       style="display:inline;opacity:0.4;fill:#008080;stroke:#000000;stroke-width:1.53583825;enable-background:new"
       d="m 171.83983,41.954484 c -6.80888,1.003711 -10.54185,5.321503 -10.54185,5.321503 -3.619,9.207925 1.57735,15.239195 9.2277,9.942208 1.80163,-3.008839 3.39545,-10.487892 1.31415,-15.263711 z M 40.39963,53.064297 c 4.865052,-4.868223 10.557116,-5.29116 10.557116,-5.29116 9.550208,2.583887 11.294609,10.351468 2.480977,13.335772 -3.48975,-0.347305 -10.44457,-3.526444 -13.038093,-8.044612 z m 68.60598,-1.559031 c 6.80888,1.003711 10.54185,5.321503 10.54185,5.321503 3.619,9.207925 -1.57735,15.239195 -9.2277,9.942208 -1.80163,-3.008839 -3.39545,-10.487892 -1.31415,-15.263711 z m 28.19954,29.397929 c -1.47959,-6.721543 -6.04897,-10.141935 -6.04897,-10.141935 -9.43943,-2.963148 -15.09072,2.644095 -9.26935,9.903404 3.12798,1.585783 10.70053,2.650217 15.31832,0.238531 z m 36.31749,49.141345 c -4.86505,-4.86823 -10.55712,-5.29116 -10.55712,-5.29116 -9.5502,2.58388 -11.29461,10.35146 -2.48097,13.33577 3.48975,-0.34731 10.44457,-3.52645 13.03809,-8.04461 z m -11.22226,24.03744 c 0.98961,-6.81094 -2.07733,-11.62471 -2.07733,-11.62471 -7.78463,-6.10593 -15.05208,-2.85591 -12.16961,5.99155 2.36635,2.58831 9.07499,6.25856 14.24694,5.63316 z M 81.204447,24.847284 c -5.70334,3.852307 -7.19927,9.360528 -7.19927,9.360528 0.723709,9.867082 8.018831,13.054492 12.622181,4.967761 0.321567,-3.492214 -1.47932,-10.924124 -5.422911,-14.328289 z M 59.949322,28.49656 c 6.808884,1.003711 10.541855,5.321504 10.541855,5.321504 3.619,9.207925 -1.57735,15.239194 -9.227706,9.942208 C 59.461841,40.751433 57.868026,33.27238 59.949322,28.49656 Z M 189.39452,93.55635 c 1.40841,-6.736814 -1.35534,-11.73082 -1.35534,-11.73082 -7.39262,-6.57512 -14.84694,-3.780189 -12.51646,5.228411 2.20197,2.729536 8.67108,6.807146 13.8718,6.502409 z m 1.22233,-31.414164 c -6.2688,-2.840851 -11.74459,-1.230227 -11.74459,-1.230227 -8.02642,5.78443 -6.92083,13.66833 2.37903,13.354339 3.14334,-1.555134 8.53113,-6.981744 9.36556,-12.124112 z M 50.00138,127.13032 c -1.408418,-6.73682 1.355334,-11.73082 1.355334,-11.73082 7.392625,-6.57512 14.846936,-3.78019 12.516458,5.22841 -2.201959,2.72953 -8.671082,6.80714 -13.871792,6.50241 z M 48.779037,95.716156 c 6.268809,-2.840851 11.744601,-1.230226 11.744601,-1.230226 8.026422,5.78443 6.920824,13.66832 -2.379035,13.35433 -3.143336,-1.55513 -8.531133,-6.98174 -9.365566,-12.124104 z M 128.86132,7.6584892 c -6.80888,1.0037104 -10.54185,5.3215028 -10.54185,5.3215028 -3.619,9.207926 1.57735,15.239204 9.2277,9.942209 1.80164,-3.00884 3.39545,-10.487893 1.31415,-15.2637118 z m -26.30175,5.4622818 c 6.80888,1.00371 10.54185,5.321503 10.54185,5.321503 3.619,9.207925 -1.57735,15.239194 -9.2277,9.942208 -1.80163,-3.008839 -3.39545,-10.487892 -1.31415,-15.263711 z"
       sodipodi:nodetypes="cccccccccccccccccccccccccccccccccccccccccccccccccccccccc" />
  </g>
  <g
     inkscape:groupmode="layer"
     id="g3420"
     inkscape:label="11"
     style="display:inline"
     transform="translate(-4.2006413,-5.4144548)">
    <path
       style="opacity:0.4;fill:#ffd42a;fill-rule:evenodd;stroke:#000000;stroke-width:1.73650527px;stroke-linecap:butt;stroke-linejoin:miter;stroke-opacity:1"
       d="M 48.965891,247.4282 156.49844,246.67621 C 109.23406,219.49169 114.16076,173.99451 123.03551,127.11205 91.293447,144.21794 113.94436,101.05054 115.51575,81.24152 88.959233,123.68062 90.757152,88.7961 87.692649,72.217811 86.202448,87.366191 89.221925,109.31573 73.781095,103.42481 99.090896,143.16818 84.687093,192.6772 48.965891,247.4282 Z"
       id="trunk-11"
       inkscape:connector-curvature="0"
       sodipodi:nodetypes="ccccccc"
       inkscape:label="#trunk-11" />
    <path
       id="branches-00-6"
       style="display:inline;opacity:0.4;fill:#ffeeaa;stroke:#000000;stroke-width:1.72145689;enable-background:new"
       d="m 73.686123,103.42791 c -2.582187,-2.58218 -5.16437,-6.025103 -8.607278,-6.885838 -6.885828,-2.582187 -14.632385,0 -18.936027,5.164378 -3.442914,5.16437 -4.303643,12.91093 0,18.07531 2.582186,2.58218 6.885828,4.30363 10.328742,3.4429 3.442913,-0.86072 6.025095,-5.16438 5.164372,-8.60728 0,-2.58219 -2.582187,-5.16437 -5.164372,-4.30364 -1.721457,0 -3.442914,2.58219 -2.582186,4.30364 0,0.86073 2.582186,1.72145 2.582186,0 M 87.726848,74.48272 c 0,-1.721452 -0.860716,-4.303639 -1.721452,-6.025109 -3.442903,-6.885826 -8.607279,-12.910916 -15.493108,-14.632377 -5.164372,-1.721461 -11.189472,-0.860725 -15.493114,1.721461 -3.442913,1.721452 -6.885827,6.02509 -6.885827,10.328738 0,4.303648 4.303642,8.607287 8.607285,7.746551 3.442914,0 6.885828,-4.303638 6.025099,-7.746551 0,-3.442912 -4.303642,-6.025099 -7.746557,-4.303648 -2.582185,0.860736 -3.442913,4.303648 -1.721457,6.885826 1.721457,1.72147 4.303643,1.72147 5.164372,-0.860717 0.860727,-1.721461 -0.860729,-3.442922 -2.582186,-3.442922 -1.721456,0 -1.721456,3.442922 0,2.582187 m 31.846945,7.746561 c -0.860716,-12.910935 0.860735,-30.125507 11.189479,-37.872049 3.442903,-2.582187 9.468013,-5.164373 14.632383,-4.303657 6.88583,1.72147 12.91092,6.885844 11.18947,14.632386 -0.86074,6.025109 -6.88583,10.328747 -12.91094,9.468012 -4.30364,-0.860717 -7.74654,-5.164355 -6.88582,-9.468012 0.86073,-3.442903 4.30364,-6.02509 7.74656,-5.164365 2.58218,0.860726 4.30364,2.582178 3.44292,5.164365 -0.86074,1.72147 -1.72147,2.582186 -3.44292,2.582186 -0.86074,0 -1.72145,-1.721451 -0.86074,-2.582186 0,-0.860717 0.86074,-0.860717 1.72147,-0.860717 m 1.96405,35.679913 c 4.30365,-6.885845 11.18949,-13.77167 19.79676,-16.353857 14.63239,-5.164364 31.84696,1.721471 37.87205,15.493121 3.44292,6.885826 2.58219,16.353838 -1.72145,22.37895 -2.58219,4.30363 -8.60728,6.02509 -13.77165,3.4429 -5.16437,-1.72145 -9.46801,-7.746561 -7.74656,-12.910915 0.86073,-4.303658 6.88582,-7.746561 11.18946,-5.164374 3.44292,1.721451 6.02511,6.885825 2.58219,9.468012 -2.58219,2.582187 -6.88583,0.860716 -6.88583,-2.582187 -0.86072,-3.442922 5.16438,-2.582187 3.44293,0 m -36.82233,31.044664 c 18.93603,-16.35385 34.42915,-2.58219 34.42915,17.21457 -1.72146,9.46801 -9.46801,17.21456 -18.93603,15.4931 -6.88583,-0.86073 -12.91093,-8.60727 -11.18948,-16.35383 0.86074,-6.02511 6.88583,-11.18947 12.0502,-9.46802 4.30365,0.86072 7.74656,5.16438 6.88583,10.32875 -0.86072,3.44291 -4.30364,6.02509 -6.88583,5.16436 -1.72145,-0.86072 -3.4429,-2.58219 -2.58219,-5.16436 0.86074,-0.86073 1.72147,-2.58218 3.44293,-1.72147"
       inkscape:connector-curvature="0"
       sodipodi:nodetypes="ccccscccccsccscccccsccsccccccsccccccccccccccccccccc" />
    <path
       id="fruits-00-9"
       style="display:inline;opacity:0.4;fill:#ffff00;stroke:#000000;stroke-width:1.72145689;enable-background:new"
       d="m 104.85363,34.038671 c 0,2.139154 -1.73413,3.873282 -3.87328,3.873281 -2.139159,10e-7 -3.873285,-1.734127 -3.873285,-3.873281 0,-2.139154 1.734126,-3.873281 3.873285,-3.87328 2.13915,-1e-6 3.87328,1.734126 3.87328,3.87328 z M 55.373579,54.557589 c 10e-7,2.139155 -1.734126,3.87328 -3.873279,3.87328 -2.139152,0 -3.873279,-1.734125 -3.873278,-3.87328 4e-6,-2.139145 1.734128,-3.873271 3.873278,-3.873271 2.139151,0 3.873275,1.734126 3.873279,3.873271 z m 10.807451,-2.877 c 10e-7,2.139155 -1.734125,3.87328 -3.873278,3.87328 -2.139153,0 -3.873279,-1.734125 -3.873278,-3.87328 -1e-6,-2.139155 1.734125,-3.873281 3.873278,-3.873281 2.139153,0 3.873279,1.734126 3.873278,3.873281 z M 94.524881,38.34231 c 1e-6,2.139154 -1.734126,3.873281 -3.87328,3.87328 -2.139154,1e-6 -3.873281,-1.734126 -3.87328,-3.87328 -1e-6,-2.139154 1.734126,-3.873282 3.87328,-3.873281 2.139154,-10e-7 3.873281,1.734127 3.87328,3.873281 z m 35.124949,-0.02369 c 0,2.139154 -1.73413,3.873281 -3.87328,3.87328 -2.13916,1e-6 -3.87328,-1.734126 -3.87328,-3.87328 0,-2.139154 1.73412,-3.873281 3.87328,-3.873281 2.13915,0 3.87328,1.734127 3.87328,3.873281 z m -12.2436,0.95269 c 0,2.139154 -1.73412,3.873281 -3.87328,3.87328 -2.13914,-9e-6 -3.87326,-1.734134 -3.87326,-3.87328 0,-2.139146 1.73412,-3.873271 3.87326,-3.87328 2.13916,-10e-7 3.87328,1.734126 3.87328,3.87328 z m 39.8676,25.862662 c 0,2.139155 -1.73412,3.87327 -3.87328,3.87327 -2.13915,0 -3.87328,-1.734115 -3.87328,-3.87327 0,-2.139155 1.73413,-3.873281 3.87328,-3.873281 2.13916,0 3.87328,1.734126 3.87328,3.873281 z m -11.28617,0.952671 c 0,2.139155 -1.73413,3.873271 -3.87328,3.873271 -2.13916,0 -3.87328,-1.734116 -3.87328,-3.873271 0,-2.139155 1.73412,-3.87328 3.87328,-3.87328 2.13915,0 3.87328,1.734125 3.87328,3.87328 z m 5.99078,25.675703 c 0,2.139155 -1.73413,3.873271 -3.87328,3.873271 -2.13915,0 -3.87328,-1.734116 -3.87328,-3.873271 0,-2.139155 1.73413,-3.87328 3.87328,-3.87328 2.13915,0 3.87328,1.734125 3.87328,3.87328 z m 10.25576,-4.313122 c 0,2.139155 -1.73412,3.873271 -3.87328,3.873271 -2.13915,0 -3.87328,-1.734116 -3.87328,-3.873271 0,-2.139155 1.73413,-3.87328 3.87328,-3.87328 2.13916,0 3.87328,1.734125 3.87328,3.87328 z M 66.849001,119.45944 c 0,2.13915 -1.734125,3.87328 -3.873278,3.87328 -2.139152,0 -3.873275,-1.73413 -3.873274,-3.87328 -10e-7,-2.13916 1.734122,-3.87328 3.873274,-3.87328 2.139153,0 3.873278,1.73412 3.873278,3.87328 z m -8.413908,7.1759 c 0,2.13915 -1.734123,3.87328 -3.873275,3.87328 -2.139153,0 -3.873279,-1.73413 -3.873278,-3.87328 -1e-6,-2.13916 1.734125,-3.87328 3.873278,-3.87328 2.139152,0 3.873275,1.73412 3.873275,3.87328 z m 85.775507,3.88029 c 0,2.13915 -1.73412,3.87328 -3.87328,3.87328 -2.13915,0 -3.87327,-1.73413 -3.87327,-3.87328 0,-2.13916 1.73412,-3.87328 3.87327,-3.87328 2.13916,0 3.87328,1.73412 3.87328,3.87328 z m -10.32873,4.30365 c 0,2.13915 -1.73412,3.87327 -3.87328,3.87327 -2.13915,0 -3.87328,-1.73412 -3.87328,-3.87327 0,-2.13916 1.73413,-3.87328 3.87328,-3.87328 2.13916,0 3.87328,1.73412 3.87328,3.87328 z"
       inkscape:connector-curvature="0"
       sodipodi:nodetypes="ssssssssssssssssssssssssssssssssssssssssssssssssssssssssssssssssssssss" />
    <path
       inkscape:connector-curvature="0"
       id="target2-11"
       style="display:inline;opacity:0.4;fill:#d4aa00;stroke:#000000;stroke-width:1.53583825;enable-background:new"
       d="m 174.44459,47.164 c -6.80889,1.00371 -10.54186,5.321503 -10.54186,5.321503 -3.619,9.207925 1.57735,15.239194 9.22771,9.942208 1.80163,-3.008839 3.39544,-10.487892 1.31415,-15.263711 z M 26.073461,55.234928 c 4.865052,-4.868223 10.557116,-5.29116 10.557116,-5.29116 9.550208,2.583887 11.294609,10.351469 2.480977,13.335772 -3.489749,-0.347304 -10.44457,-3.526444 -13.038093,-8.044612 z m 79.025009,4.952864 c 6.80888,1.003711 10.54185,5.321504 10.54185,5.321504 3.619,9.207925 -1.57735,15.239194 -9.2277,9.942208 -1.80163,-3.008839 -3.39545,-10.487892 -1.31415,-15.263712 z m 31.67255,29.397929 c -1.47959,-6.721542 -6.04898,-10.141934 -6.04898,-10.141934 -9.43942,-2.963149 -15.09071,2.644095 -9.26934,9.903403 3.12798,1.585783 10.70053,2.650217 15.31832,0.238531 z m 41.09289,50.877849 c -4.86505,-4.86823 -10.55712,-5.29116 -10.55712,-5.29116 -9.5502,2.58388 -11.29461,10.35146 -2.48098,13.33577 3.48975,-0.34731 10.44457,-3.52645 13.0381,-8.04461 z m -11.22226,24.03745 c 0.98961,-6.81095 -2.07733,-11.62472 -2.07733,-11.62472 -7.78464,-6.10593 -15.05208,-2.85591 -12.16961,5.99155 2.36635,2.58831 9.07499,6.25856 14.24694,5.63317 z M 66.878278,27.017916 c -5.70334,3.852306 -7.19927,9.360527 -7.19927,9.360527 0.723709,9.867082 8.018831,13.054492 12.622182,4.967762 0.321567,-3.492214 -1.47932,-10.924124 -5.422912,-14.328289 z m -21.255125,3.649276 c 6.808884,1.00371 10.541855,5.321503 10.541855,5.321503 3.619,9.207925 -1.577349,15.239194 -9.227706,9.942208 C 45.135673,42.922064 43.541858,35.443011 45.623153,30.667192 Z M 191.99927,98.765866 c 1.40842,-6.736814 -1.35533,-11.730821 -1.35533,-11.730821 -7.39263,-6.575119 -14.84695,-3.780189 -12.51646,5.228412 2.20196,2.729536 8.67108,6.807146 13.87179,6.502409 z m 1.22234,-31.414165 c -6.26881,-2.840851 -11.7446,-1.230226 -11.7446,-1.230226 -8.02641,5.784429 -6.92082,13.66833 2.37904,13.354338 3.14333,-1.555134 8.53113,-6.981743 9.36556,-12.124112 z M 26.124433,123.65731 c -1.408418,-6.73682 1.355334,-11.73082 1.355334,-11.73082 7.392625,-6.57512 14.846937,-3.78019 12.516459,5.22841 -2.20196,2.72954 -8.671083,6.80715 -13.871793,6.50241 z M 24.90209,92.243145 c 6.268809,-2.840851 11.744601,-1.230226 11.744601,-1.230226 8.026422,5.784429 6.920824,13.668331 -2.379035,13.354341 C 31.12432,102.81212 25.736523,97.385514 24.90209,92.243145 Z M 110.62802,9.8291208 c -6.80889,1.0037102 -10.54186,5.3215032 -10.54186,5.3215032 -3.618999,9.207925 1.57735,15.239204 9.22771,9.942208 1.80163,-3.008839 3.39544,-10.487892 1.31415,-15.2637112 z M 84.326259,15.291402 c 6.808884,1.003711 10.541853,5.321503 10.541853,5.321503 3.619003,9.207925 -1.577349,15.239195 -9.227704,9.942208 -1.801631,-3.008839 -3.395446,-10.487891 -1.314149,-15.263711 z"
       sodipodi:nodetypes="cccccccccccccccccccccccccccccccccccccccccccccccccccccccc" />
  </g>
</svg>
