<?xml version="1.0" encoding="UTF-8" standalone="no"?>
<!-- Created with Inkscape (http://www.inkscape.org/) -->

<svg
   xmlns:dc="http://purl.org/dc/elements/1.1/"
   xmlns:cc="http://creativecommons.org/ns#"
   xmlns:rdf="http://www.w3.org/1999/02/22-rdf-syntax-ns#"
   xmlns:svg="http://www.w3.org/2000/svg"
   xmlns="http://www.w3.org/2000/svg"
   xmlns:sodipodi="http://sodipodi.sourceforge.net/DTD/sodipodi-0.dtd"
   xmlns:inkscape="http://www.inkscape.org/namespaces/inkscape"
   width="744.09448819"
   height="1052.3622047"
   id="svg4230"
   version="1.1"
   inkscape:version="0.48.4 r9939"
   sodipodi:docname="drawing.svg">
  <defs
     id="defs4232" />
  <sodipodi:namedview
     id="base"
     pagecolor="#ffffff"
     bordercolor="#666666"
     borderopacity="1.0"
     inkscape:pageopacity="0.0"
     inkscape:pageshadow="2"
     inkscape:zoom="2.8"
     inkscape:cx="121.62492"
     inkscape:cy="963.41991"
     inkscape:document-units="px"
     inkscape:current-layer="layer3"
     showgrid="false"
     inkscape:window-width="1440"
     inkscape:window-height="848"
     inkscape:window-x="0"
     inkscape:window-y="540"
     inkscape:window-maximized="1" />
  <metadata
     id="metadata4235">
    <rdf:RDF>
      <cc:Work
         rdf:about="">
        <dc:format>image/svg+xml</dc:format>
        <dc:type
           rdf:resource="http://purl.org/dc/dcmitype/StillImage" />
        <dc:title></dc:title>
      </cc:Work>
    </rdf:RDF>
  </metadata>
  <g
     inkscape:label="cute"
     inkscape:groupmode="layer"
     id="layer1">
    <path
       style="fill:#666666;stroke:#000000;stroke-width:1px;stroke-linecap:butt;stroke-linejoin:miter;stroke-opacity:1;display:inline"
       d="M 40.802561,9.4619861 25.599771,71.333836 c -0.72238,27.694291 21.23032,49.850894 48.79036,64.346714 22.953989,11.04963 39.517369,13.05343 64.346719,13.78858 43.42496,-2.16843 67.53923,-17.50106 80.25662,-26.5165 10.17697,-8.22991 47.31039,-37.160224 41.7193,-66.468044 L 227.1252,1.6838157 196.36605,34.564276 c -45.66431,-7.02741 -86.63402,-4.02825 -124.804339,4.94975 z"
       id="face-1"
       inkscape:connector-curvature="0"
       sodipodi:nodetypes="cccccccccc" />
    <path
       style="fill:#ffffff;stroke:#000000;stroke-width:1px;stroke-linecap:butt;stroke-linejoin:miter;stroke-opacity:1;display:inline"
       d="m 54.499641,72.825046 c 1.71436,-14.71175 9.59916,-28.97393 30.60212,-30.9458 17.954019,-0.2879 26.363459,12.56279 34.534279,29.32609 -0.99832,4.43709 -3.05019,8.50019 -17.92175,15.2055 -10.070149,2.67432 -20.410209,3.72926 -31.428579,0.71428 -9.67436,-3.18278 -13.22366,-8.95509 -15.78607,-14.30007 z"
       id="eye-1"
       inkscape:connector-curvature="0"
       sodipodi:nodetypes="cccccc" />
    <path
       style="fill:#000000;stroke:#000000;stroke-width:1px;stroke-linecap:butt;stroke-linejoin:miter;stroke-opacity:1;display:inline"
       d="m 65.135861,49.700496 c -3.8946,10.09212 -4.1769,25.25808 -1.24282,34.67292 9.79839,5.9706 31.89756,6.65215 45.422649,-1.94096 3.8715,-10.00878 3.9206,-21.74476 -2.54622,-31.94454 -8.75741,-7.53092 -24.891119,-14.05489 -41.633609,-0.78742 z"
       id="pupil-1"
       inkscape:connector-curvature="0"
       sodipodi:nodetypes="ccccc" />
    <path
       style="fill:#cccccc;stroke:#000000;stroke-width:1px;stroke-linecap:butt;stroke-linejoin:miter;stroke-opacity:1;display:inline"
       d="m 124.24116,81.233326 27.22361,0 -15.55635,17.324121 z"
       id="nose-1"
       inkscape:connector-curvature="0" />
    <path
       style="fill:none;stroke:#000000;stroke-width:1px;stroke-linecap:butt;stroke-linejoin:miter;stroke-opacity:1;display:inline"
       d="m 130.05918,104.58867 5.84924,-5.677673 6.72793,6.177673"
       id="mouth-1"
       inkscape:connector-curvature="0"
       sodipodi:nodetypes="ccc" />
    <path
       style="fill:#ffffff;stroke:#000000;stroke-width:1px;stroke-linecap:butt;stroke-linejoin:miter;stroke-opacity:1;display:inline"
       d="m 97.28571,50.803686 c -4.227129,-0.21972 -7.211539,2.6531 -7.142849,6.25 0.0687,3.5969 2.66392,6.3612 6.785709,6.42857 4.12179,0.0674 6.59836,-3.33835 6.60714,-6.07143 0.009,-2.73308 -2.02286,-6.38741 -6.25,-6.60714 z"
       id="reflection-1"
       inkscape:connector-curvature="0"
       sodipodi:nodetypes="zzzzz" />
    <path
       style="fill:#ffffff;stroke:#000000;stroke-width:1px;stroke-linecap:butt;stroke-linejoin:miter;stroke-opacity:1;display:inline"
       d="m 156.4318,69.036936 c 1.71436,-14.71175 9.59916,-28.97393 30.60212,-30.9458 17.95402,-0.2879 26.36346,12.56279 34.53428,29.32609 -0.99832,4.43709 -3.05019,8.50019 -17.92175,15.2055 -10.07015,2.67432 -20.41021,3.72926 -31.42858,0.71428 -9.67436,-3.18278 -13.22366,-8.95509 -15.78607,-14.30007 z"
       id="eye2-1"
       inkscape:connector-curvature="0"
       sodipodi:nodetypes="cccccc" />
    <path
       style="fill:#000000;stroke:#000000;stroke-width:1px;stroke-linecap:butt;stroke-linejoin:miter;stroke-opacity:1;display:inline"
       d="m 167.06802,45.912386 c -3.8946,10.09212 -4.1769,25.25808 -1.24282,34.67292 9.79839,5.9706 31.89756,6.65215 45.42265,-1.94096 3.8715,-10.00878 3.9206,-21.74476 -2.54622,-31.94454 -8.75741,-7.53092 -24.89112,-14.05489 -41.63361,-0.78742 z"
       id="pupil2-1"
       inkscape:connector-curvature="0"
       sodipodi:nodetypes="ccccc" />
    <path
       style="fill:#ffffff;stroke:#000000;stroke-width:1px;stroke-linecap:butt;stroke-linejoin:miter;stroke-opacity:1;display:inline"
       d="m 199.21787,47.015576 c -4.22713,-0.21972 -7.21154,2.6531 -7.14285,6.25 0.0687,3.5969 2.66392,6.3612 6.78571,6.42857 4.12179,0.0674 6.59836,-3.33835 6.60714,-6.07143 0.009,-2.73308 -2.02286,-6.38741 -6.25,-6.60714 z"
       id="reflection2-1"
       inkscape:connector-curvature="0"
       sodipodi:nodetypes="zzzzz" />
    <path
       style="fill:none;stroke:#000000;stroke-width:1px;stroke-linecap:butt;stroke-linejoin:miter;stroke-opacity:1;display:inline"
       d="m 120,87.625116 c -7,1 -113.999999,2 -113.999999,2"
       id="whisker1-1"
       inkscape:connector-curvature="0" />
    <path
       style="fill:none;stroke:#000000;stroke-width:1px;stroke-linecap:butt;stroke-linejoin:miter;stroke-opacity:1;display:inline"
       d="M 120,94.625116 4.0000014,100.62512"
       id="whisker2-1"
       inkscape:connector-curvature="0" />
    <path
       style="fill:none;stroke:#000000;stroke-width:1px;stroke-linecap:butt;stroke-linejoin:miter;stroke-opacity:1;display:inline"
       d="m 122,100.62512 -98.999999,28"
       id="whisker3-1"
       inkscape:connector-curvature="0" />
    <path
       style="fill:none;stroke:#000000;stroke-width:1px;stroke-linecap:butt;stroke-linejoin:miter;stroke-opacity:1;display:inline"
       d="m 153,91.625116 122,-12"
       id="whisker4-1"
       inkscape:connector-curvature="0" />
    <path
       style="fill:none;stroke:#000000;stroke-width:1px;stroke-linecap:butt;stroke-linejoin:miter;stroke-opacity:1;display:inline"
       d="m 152,97.625117 124,1"
       id="whisker5-1"
       inkscape:connector-curvature="0" />
    <path
       style="fill:none;stroke:#000000;stroke-width:1px;stroke-linecap:butt;stroke-linejoin:miter;stroke-opacity:1;display:inline"
       d="m 151,105.62512 132,9"
       id="whisker6-1"
       inkscape:connector-curvature="0" />
  </g>
  <g
     inkscape:groupmode="layer"
     id="layer3"
     inkscape:label="not-cute"
     style="display:inline">
    <path
       style="fill:#666666;stroke:#000000;stroke-width:1px;stroke-linecap:butt;stroke-linejoin:miter;stroke-opacity:1;display:inline"
       d="M 41.084232,9.8191101 25.881432,71.69096 c -0.72238,27.694287 21.23032,49.85089 48.79037,64.34671 22.953988,11.04963 39.517368,13.05343 64.346708,13.78858 43.42496,-2.16843 67.53923,-17.50106 80.25662,-26.5165 10.17697,-8.22991 47.31039,-37.16022 41.7193,-66.46804 L 227.40686,2.0409397 196.64771,34.9214 C 150.9834,27.89399 110.0137,30.89315 71.843382,39.87115 z"
       id="face"
       inkscape:connector-curvature="0"
       sodipodi:nodetypes="cccccccccc" />
    <path
       style="fill:#ffffff;stroke:#000000;stroke-width:1px;stroke-linecap:butt;stroke-linejoin:miter;stroke-opacity:1;display:inline"
       d="m 47.710242,71.76796 c 10.5532,-7.28713 17.23089,-8.59956 36.64286,-10.57143 17.954018,-0.2879 29.338328,0.85047 41.928558,7.71428 -7.18549,5.8513 -14.66719,8.10159 -19.2857,9.85715 -6.18106,1.26011 -27.738638,0.60794 -35.928578,-0.28572 -5.6085,-0.53113 -16.37531,-0.83897 -23.35714,-6.71428 z"
       id="eye"
       inkscape:connector-curvature="0"
       sodipodi:nodetypes="cccccc" />
    <path
       style="fill:#000000;stroke:#000000;stroke-width:1px;stroke-linecap:butt;stroke-linejoin:miter;stroke-opacity:1;display:inline"
       d="m 81.504212,61.5481 c -3.8946,10.09212 -1.34848,13.94438 0.70172,17.34881 7.32727,0.7062 13.796568,0.83709 18.729368,0.004 0.68953,-2.76095 3.03672,-6.54197 -0.77845,-17.27208 -10.572478,-0.27097 -10.874448,-1.17349 -18.652638,-0.0803 z"
       id="pupil"
       inkscape:connector-curvature="0"
       sodipodi:nodetypes="ccccc" />
    <path
       style="fill:#cccccc;stroke:#000000;stroke-width:1px;stroke-linecap:butt;stroke-linejoin:miter;stroke-opacity:1;display:inline"
       d="m 128.52283,103.59045 27.2236,0 -15.55635,17.32412 z"
       id="nose"
       inkscape:connector-curvature="0" />
    <path
       style="fill:none;stroke:#000000;stroke-width:1px;stroke-linecap:butt;stroke-linejoin:miter;stroke-opacity:1;display:inline"
       d="m 125.34085,138.94579 14.84923,-17.67767 12.72793,17.67767"
       id="mouth"
       inkscape:connector-curvature="0" />
    <path
       style="fill:#ffffff;stroke:#000000;stroke-width:1px;stroke-linecap:butt;stroke-linejoin:miter;stroke-opacity:1;display:inline"
       d="m 93.567385,64.16081 c -4.227133,-0.21972 -7.211543,2.6531 -7.142853,6.25 0.0687,3.5969 2.66392,6.3612 6.785713,6.42857 4.121785,0.0674 6.598355,-3.33835 6.607135,-6.07143 0.009,-2.73308 -2.02286,-6.38741 -6.249995,-6.60714 z"
       id="reflection"
       inkscape:connector-curvature="0"
       sodipodi:nodetypes="zzzzz" />
    <path
       style="fill:#ffffff;stroke:#000000;stroke-width:1px;stroke-linecap:butt;stroke-linejoin:miter;stroke-opacity:1;display:inline"
       d="m 154.42857,69.45231 c 10.5532,-7.28713 17.23089,-8.59956 36.64286,-10.57143 17.95402,-0.2879 29.33833,0.85047 41.92856,7.71428 -7.18549,5.8513 -14.66719,8.10159 -19.2857,9.85715 -6.18106,1.26011 -27.73864,0.60794 -35.92858,-0.28572 -5.6085,-0.53113 -16.37531,-0.83897 -23.35714,-6.71428 z"
       id="eye2"
       inkscape:connector-curvature="0"
       sodipodi:nodetypes="cccccc" />
    <path
       style="fill:#000000;stroke:#000000;stroke-width:1px;stroke-linecap:butt;stroke-linejoin:miter;stroke-opacity:1;display:inline"
       d="m 188.22254,59.23245 c -3.8946,10.09212 -1.34848,13.94438 0.70172,17.34881 7.32727,0.7062 13.79657,0.83709 18.72937,0.004 0.68953,-2.76095 3.03672,-6.54197 -0.77845,-17.27208 -10.57248,-0.27097 -10.87445,-1.17349 -18.65264,-0.0803 z"
       id="pupil2"
       inkscape:connector-curvature="0"
       sodipodi:nodetypes="ccccc" />
    <path
       style="fill:#ffffff;stroke:#000000;stroke-width:1px;stroke-linecap:butt;stroke-linejoin:miter;stroke-opacity:1;display:inline"
       d="m 200.28571,61.84516 c -4.22713,-0.21972 -7.21154,2.6531 -7.14285,6.25 0.0687,3.5969 2.66392,6.3612 6.78571,6.42857 4.12179,0.0674 6.59836,-3.33835 6.60714,-6.07143 0.009,-2.73308 -2.02286,-6.38741 -6.25,-6.60714 z"
       id="reflection2"
       inkscape:connector-curvature="0"
       sodipodi:nodetypes="zzzzz" />
    <path
       style="fill:none;stroke:#000000;stroke-width:1px;stroke-linecap:butt;stroke-linejoin:miter;stroke-opacity:1;display:inline"
       d="m 172.71428,90.93359 122,-12"
       id="whisker4"
       inkscape:connector-curvature="0" />
    <path
       style="fill:none;stroke:#000000;stroke-width:1px;stroke-linecap:butt;stroke-linejoin:miter;stroke-opacity:1;display:inline"
       d="m 171.71428,96.933587 124,1"
       id="whisker5"
       inkscape:connector-curvature="0" />
    <path
       style="fill:none;stroke:#000000;stroke-width:1px;stroke-linecap:butt;stroke-linejoin:miter;stroke-opacity:1;display:inline"
       d="m 170.71428,104.93359 132,9"
       id="whisker6"
       inkscape:connector-curvature="0" />
    <path
       style="fill:none;stroke:#000000;stroke-width:1px;stroke-linecap:butt;stroke-linejoin:miter;stroke-opacity:1;display:inline"
       d="m 116.71428,91.93359 c -7,1 -113.9999973,2 -113.9999973,2"
       id="whisker1"
       inkscape:connector-curvature="0" />
    <path
       style="fill:none;stroke:#000000;stroke-width:1px;stroke-linecap:butt;stroke-linejoin:miter;stroke-opacity:1;display:inline"
       d="M 116.71428,98.933587 0.7142828,104.93359"
       id="whisker2"
       inkscape:connector-curvature="0" />
    <path
       style="fill:none;stroke:#000000;stroke-width:1px;stroke-linecap:butt;stroke-linejoin:miter;stroke-opacity:1;display:inline"
       d="m 118.71428,104.93359 -98.999998,28"
       id="whisker3"
       inkscape:connector-curvature="0" />
  </g>
</svg>
